<svg id="afd97919-e0c8-4d56-9930-5462b600199c" data-name="Layer 1" xmlns="http://www.w3.org/2000/svg" xmlns:xlink="http://www.w3.org/1999/xlink" width="80" height="54" viewBox="0 0 80 54"><defs><style>.a30a9344-3c68-4a01-87e1-f02f7797b31d{fill:url(#e541cb22-70f8-46e5-a1a3-49b6d0a49340);}.f65fe715-f67a-48be-b9bf-94568e2e9605{fill:url(#ba3acfd2-dd11-4c7c-9726-0eac79ff796b);}.b968d7db-abf3-4d88-9ae9-df8eee0f9eab{fill:url(#a545f9a1-b358-4698-9962-727ae77cf536);}.e3a69427-b068-4f5a-b0d0-1fcbbb26d7f6{fill:url(#b43fffec-6e41-4a3a-b94d-4e326c068407);}.e558962a-c1e5-45b7-8f72-53349bcd8536{opacity:0.76;fill:url(#a72a6aca-136b-410a-bc9c-8abdc7cce512);}.bbd8d61e-4c8e-4d0a-9203-d590678659ba{fill-rule:evenodd;fill:url(#a74542c9-7082-444b-b7a0-f908279209c5);}.ea3e0f23-4ec1-4d7e-ae96-7c607e8ff117{fill:url(#a83d351a-c1f4-421b-b4a0-28cb56dad90d);}.a7045280-2b2c-4704-b303-e489dc54f39c{fill:url(#f8b5e2b4-29d4-4d9c-ab8c-9cbdb8e38dfd);}.b3b29a8c-c733-4fb8-9d02-1405061ab862{fill:url(#b26b597e-d919-4a58-b66a-5cda536d754a);}.b2401b2b-ac0c-4704-b659-85da02b4049e{fill:url(#a202ce39-39d3-4b9d-82ce-1909b564dc31);}</style><linearGradient id="e541cb22-70f8-46e5-a1a3-49b6d0a49340" x1="37.45" y1="21.35" x2="43.76" y2="32.3" gradientUnits="userSpaceOnUse"><stop offset="0" stop-color="#fcfcfd"/><stop offset="0.23" stop-color="#c6c6c5"/><stop offset="0.58" stop-color="#fff"/><stop offset="0.63" stop-color="#c6c6c5"/><stop offset="0.98" stop-color="#9c9b9b"/></linearGradient><linearGradient id="ba3acfd2-dd11-4c7c-9726-0eac79ff796b" x1="-0.89" y1="43.49" x2="10.73" y2="54.9" gradientUnits="userSpaceOnUse"><stop offset="0" stop-color="#edebf6"/><stop offset="0.43" stop-color="#edeced"/><stop offset="0.45" stop-color="#c6c6c5"/><stop offset="0.59" stop-color="#9c9b9b"/></linearGradient><linearGradient id="a545f9a1-b358-4698-9962-727ae77cf536" x1="1.71" y1="44.51" x2="6.22" y2="52.32" gradientUnits="userSpaceOnUse"><stop offset="0" stop-color="#868686"/><stop offset="0.43" stop-color="#d9d9d9"/><stop offset="0.52" stop-color="#868686"/><stop offset="0.71" stop-color="#b1b1b1"/><stop offset="1" stop-color="#d9d9d9"/></linearGradient><linearGradient id="b43fffec-6e41-4a3a-b94d-4e326c068407" x1="1.9" y1="50.48" x2="6.03" y2="46.35" gradientUnits="userSpaceOnUse"><stop offset="0.25" stop-color="#2b2b2b" stop-opacity="0"/><stop offset="0.51" stop-color="#292929" stop-opacity="0.17"/><stop offset="0.84" stop-color="#232323" stop-opacity="0.67"/><stop offset="1" stop-color="#1f1f1f"/></linearGradient><linearGradient id="a72a6aca-136b-410a-bc9c-8abdc7cce512" x1="37.44" y1="26.67" x2="44.12" y2="29.1" gradientUnits="userSpaceOnUse"><stop offset="0" stop-color="#a3a3a3"/><stop offset="0.29" stop-color="gray"/><stop offset="1"/></linearGradient><linearGradient id="a74542c9-7082-444b-b7a0-f908279209c5" x1="42.2" y1="22.46" x2="42.37" y2="27.12" gradientUnits="userSpaceOnUse"><stop offset="0" stop-color="#c6c6c5"/><stop offset="1" stop-color="#9c9b9b"/></linearGradient><linearGradient id="a83d351a-c1f4-421b-b4a0-28cb56dad90d" x1="44.92" y1="30.39" x2="42.25" y2="27.71" gradientUnits="userSpaceOnUse"><stop offset="0" stop-color="#c6c6c5"/><stop offset="1" stop-color="#fff"/></linearGradient><linearGradient id="f8b5e2b4-29d4-4d9c-ab8c-9cbdb8e38dfd" x1="41.31" y1="23.07" x2="40.79" y2="23.07" xlink:href="#a74542c9-7082-444b-b7a0-f908279209c5"/><linearGradient id="b26b597e-d919-4a58-b66a-5cda536d754a" x1="41.29" y1="19.84" x2="41.33" y2="22.24" xlink:href="#a83d351a-c1f4-421b-b4a0-28cb56dad90d"/><linearGradient id="a202ce39-39d3-4b9d-82ce-1909b564dc31" x1="41.46" y1="21.11" x2="40.31" y2="20.34" xlink:href="#a74542c9-7082-444b-b7a0-f908279209c5"/></defs><title>alc-scaled</title><g id="b33a34aa-3830-4e23-a7d8-c8be069ccca4" data-name="alc"><path class="a30a9344-3c68-4a01-87e1-f02f7797b31d" d="M79.91,8.28C79.91,5.39,78.15,2,76,.79A2.6,2.6,0,0,0,73.64.48c-1,.4-70.36,41-72.29,42.45-2.34,1.7,3,11.79,5.27,10.78C8.21,53,77.81,11.85,78.5,11.48c.86-.46,1.41-1.59,1.41-3.2Z"/><path class="f65fe715-f67a-48be-b9bf-94568e2e9605" d="M7.93,50.57c0-2.89-1.75-6.24-3.92-7.49S.09,43.15.09,46,1.85,52.28,4,53.53s3.92-.08,3.92-3Z"/><path class="b968d7db-abf3-4d88-9ae9-df8eee0f9eab" d="M6.91,50.12A7.07,7.07,0,0,0,4,44.48C2.33,43.54,1,44.54,1,46.71a7.07,7.07,0,0,0,3,5.64c1.63.94,3-.06,3-2.23Z"/><path class="e3a69427-b068-4f5a-b0d0-1fcbbb26d7f6" d="M6.91,50.12A7.07,7.07,0,0,0,4,44.48C2.33,43.54,1,44.54,1,46.71a7.07,7.07,0,0,0,3,5.64c1.63.94,3-.06,3-2.23Z"/><path class="e558962a-c1e5-45b7-8f72-53349bcd8536" d="M41.29,33.35a3.79,3.79,0,0,0,1.08-3,9.83,9.83,0,0,0-1.54-5l-.31.18-2.2-1.28L41,22.7,43.22,24l-1.74,1a10.88,10.88,0,0,1,1.79,5.47,4.93,4.93,0,0,1-.35,1.93"/><path class="bbd8d61e-4c8e-4d0a-9203-d590678659ba" d="M43.09,32.88a2.5,2.5,0,0,1-.45.32,2,2,0,0,1-1.35.15,1.65,1.65,0,0,0,.57-.35,3.79,3.79,0,0,0,1.08-3,10.07,10.07,0,0,0-2-5.74l.65-.37a11.19,11.19,0,0,1,2.26,6.21,3.75,3.75,0,0,1-1.08,3l.34-.22Z"/><path class="ea3e0f23-4ec1-4d7e-ae96-7c607e8ff117" d="M45.11,29.28a5.47,5.47,0,0,1-.57,2.85s-1.15.71-1.9,1.07h0a4.66,4.66,0,0,0,1-3.13,10.8,10.8,0,0,0-2.07-6.16l1.25-.72a10,10,0,0,1,2.29,6.09Z"/><polygon class="a7045280-2b2c-4704-b303-e489dc54f39c" points="43.77 21.44 38.88 21.69 38.87 23.43 41.08 24.7 43.78 23.14 43.77 21.44 43.77 21.44"/><polygon class="b3b29a8c-c733-4fb8-9d02-1405061ab862" points="41.57 20.16 38.87 21.72 41.07 23 43.77 21.44 41.57 20.16 41.57 20.16"/><polygon class="b2401b2b-ac0c-4704-b659-85da02b4049e" points="41.75 19.68 41.75 21.17 40.34 21.98 40.34 20.5 41.75 19.68 41.75 19.68"/></g></svg>
