<svg id="ba9fe9c2-65f9-424b-8de3-dd28e1a724c4" data-name="Layer 1" xmlns="http://www.w3.org/2000/svg" xmlns:xlink="http://www.w3.org/1999/xlink" width="224" height="140" viewBox="0 0 224 140"><defs><style>.e2c37a6d-86f6-4636-9839-b5afc9b5e357{fill:url(#b6f75bc7-d22d-4adc-95c5-fffeab99aff0);}.edd738d3-54f6-470c-b5ae-ab8d1ab3e8ee{fill:url(#a82c5e17-0f87-4b2c-b4de-777e0a4863e6);}.b729d722-af21-4148-842b-485b2ceb2571{fill:url(#a022b0bf-e1fa-4eb3-93db-c2ccc97f7f99);}.f75c73c6-d731-473e-a5c9-9c66ec14bfd1{fill:url(#acf551a8-dd2b-4093-a033-d57277b28f57);}</style><linearGradient id="b6f75bc7-d22d-4adc-95c5-fffeab99aff0" x1="109.4" y1="61.52" x2="118.05" y2="76.52" gradientUnits="userSpaceOnUse"><stop offset="0" stop-color="#fff"/><stop offset="0.23" stop-color="#c6c6c5"/><stop offset="0.58" stop-color="#fff"/><stop offset="0.63" stop-color="#c6c6c5"/><stop offset="0.98" stop-color="#9c9b9b"/></linearGradient><linearGradient id="a82c5e17-0f87-4b2c-b4de-777e0a4863e6" x1="-1.22" y1="126.03" x2="14.22" y2="141.2" gradientUnits="userSpaceOnUse"><stop offset="0" stop-color="#edeced"/><stop offset="0.43" stop-color="#edeced"/><stop offset="0.45" stop-color="#c6c6c5"/><stop offset="0.59" stop-color="#9c9b9b"/></linearGradient><linearGradient id="a022b0bf-e1fa-4eb3-93db-c2ccc97f7f99" x1="2.24" y1="127.39" x2="8.23" y2="137.77" gradientUnits="userSpaceOnUse"><stop offset="0" stop-color="#868686"/><stop offset="0.43" stop-color="#d9d9d9"/><stop offset="0.52" stop-color="#868686"/><stop offset="0.71" stop-color="#b1b1b1"/><stop offset="1" stop-color="#d9d9d9"/></linearGradient><linearGradient id="acf551a8-dd2b-4093-a033-d57277b28f57" x1="2.49" y1="135.32" x2="7.97" y2="129.83" gradientUnits="userSpaceOnUse"><stop offset="0.25" stop-color="#2b2b2b" stop-opacity="0"/><stop offset="0.51" stop-color="#292929" stop-opacity="0.17"/><stop offset="0.84" stop-color="#232323" stop-opacity="0.67"/><stop offset="1" stop-color="#1f1f1f"/></linearGradient></defs><title>alu-scaled</title><g id="bd9f8de7-3802-4b0a-a253-e225fe3eb719" data-name="alu"><path class="e2c37a6d-86f6-4636-9839-b5afc9b5e357" d="M223.91,10.52c0,2.09-.69,3.56-1.79,4.2L8.72,139.64a5.31,5.31,0,0,0,1.76-4.26c0-3.82-2.32-8.25-5.18-9.9a3.33,3.33,0,0,0-3.42-.26L215.23.42l.2-.12a3.37,3.37,0,0,1,3.3.32c2.86,1.65,5.18,6.08,5.18,9.9Z"/><path class="edd738d3-54f6-470c-b5ae-ab8d1ab3e8ee" d="M10.51,135.44c0-3.84-2.33-8.29-5.21-10s-5.21.1-5.21,3.94,2.33,8.29,5.21,10,5.21-.1,5.21-3.93Z"/><path class="b729d722-af21-4148-842b-485b2ceb2571" d="M9.15,134.84c0-2.89-1.75-6.24-3.92-7.49s-3.92.08-3.92,3,1.75,6.24,3.92,7.49,3.92-.07,3.92-3Z"/><path class="f75c73c6-d731-473e-a5c9-9c66ec14bfd1" d="M9.15,134.84c0-2.89-1.75-6.24-3.92-7.49s-3.92.08-3.92,3,1.75,6.24,3.92,7.49,3.92-.07,3.92-3Z"/></g></svg>