<svg id="ac788ae3-480a-4996-82af-20020d370008" data-name="Layer 1" xmlns="http://www.w3.org/2000/svg" xmlns:xlink="http://www.w3.org/1999/xlink" width="60" height="50" viewBox="0 0 60 50"><defs><style>.a04bdc0b-3890-4031-a932-cba0ae2f2e20{fill:url(#ae0f64bc-b007-42ee-86cb-9b3e3e48292a);}.fc2da54c-e140-49f3-8b90-2b27c1cfeebb{fill:url(#e1f6ad7f-a0da-4436-8317-bd92a2fce196);}.a35adf16-0f25-41b1-a13c-c4f362bd09a0{fill:url(#b8d63db8-1a13-491e-a1c8-ff6ca39ea1e8);}.a758335e-158f-448d-a4b5-66c150f33e1f{fill:url(#a5ec4934-79ba-462e-8a9e-c645b3e0f5f4);}.aa635fae-6eb7-4ebc-b6a6-7e6b4b6f57ce{fill:url(#a1625a1c-c679-49f6-9427-3c270c6511a7);}.f8a8df9c-0c7d-4251-8947-39dd2fd26d3b{fill:url(#b23e84c3-b7eb-4f66-983c-908ae48269c5);}.b0e0b77f-1f92-4540-bfd9-33e86a6d7e97{fill:#333332;}.f6fb4e69-17ec-416c-b025-3d369bb57088{fill:url(#ab9a76b9-a1ae-4d43-915e-743703e41563);}.b7ba9bc5-12f0-4027-a94b-a352f809f17e{fill:url(#ac330db5-d361-47b1-94b9-e1140405f0bf);}.b5fb2238-36b5-45c6-8a00-42bfe802ed9b{fill:url(#b3d2920b-ee29-45fa-a943-700a7aa1491b);}</style><linearGradient id="ae0f64bc-b007-42ee-86cb-9b3e3e48292a" x1="14.94" y1="5.21" x2="29.91" y2="31.15" gradientUnits="userSpaceOnUse"><stop offset="0" stop-color="#868686"/><stop offset="0.15" stop-color="#9c9b9b"/><stop offset="0.36" stop-color="#6f6f6e"/><stop offset="0.78" stop-color="#3c3c3b"/></linearGradient><linearGradient id="e1f6ad7f-a0da-4436-8317-bd92a2fce196" x1="28.17" y1="40.1" x2="42.25" y2="15.72" gradientUnits="userSpaceOnUse"><stop offset="0" stop-color="#3c3c3b"/><stop offset="0.44" stop-color="#6f6f6e"/><stop offset="0.82" stop-color="#9c9b9b"/><stop offset="1" stop-color="#868686"/></linearGradient><linearGradient id="b8d63db8-1a13-491e-a1c8-ff6ca39ea1e8" x1="49.99" y1="23.55" x2="50.64" y2="52.43" gradientUnits="userSpaceOnUse"><stop offset="0" stop-color="#3c3c3b"/><stop offset="1" stop-color="#6f6f6e"/></linearGradient><linearGradient id="a5ec4934-79ba-462e-8a9e-c645b3e0f5f4" x1="44.18" y1="47.18" x2="56.39" y2="26.03" gradientUnits="userSpaceOnUse"><stop offset="0" stop-color="#9c9b9b"/><stop offset="0.36" stop-color="#6f6f6e"/><stop offset="0.77" stop-color="#3c3c3b"/></linearGradient><linearGradient id="a1625a1c-c679-49f6-9427-3c270c6511a7" x1="56.39" y1="40.13" x2="44.18" y2="33.08" gradientUnits="userSpaceOnUse"><stop offset="0" stop-color="#1d1d1b" stop-opacity="0"/><stop offset="1" stop-color="#1d1d1b" stop-opacity="0.6"/></linearGradient><linearGradient id="b23e84c3-b7eb-4f66-983c-908ae48269c5" x1="-1119.81" y1="36.94" x2="-1117.95" y2="33.11" gradientTransform="matrix(-1, 0, 0, 1, -1087.74, 0)" gradientUnits="userSpaceOnUse"><stop offset="0.01" stop-color="#b1b1b1"/><stop offset="1" stop-color="#575756"/></linearGradient><linearGradient id="ab9a76b9-a1ae-4d43-915e-743703e41563" x1="5.39" y1="43.37" x2="14.12" y2="11.09" xlink:href="#b8d63db8-1a13-491e-a1c8-ff6ca39ea1e8"/><linearGradient id="ac330db5-d361-47b1-94b9-e1140405f0bf" x1="4.3" y1="14.77" x2="16.32" y2="35.58" gradientUnits="userSpaceOnUse"><stop offset="0.13" stop-color="#3c3c3b"/><stop offset="0.5" stop-color="#575756"/><stop offset="0.77" stop-color="#6f6f6e"/><stop offset="1" stop-color="#9c9b9b"/></linearGradient><linearGradient id="b3d2920b-ee29-45fa-a943-700a7aa1491b" x1="4.3" y1="28.65" x2="16.32" y2="21.71" xlink:href="#a1625a1c-c679-49f6-9427-3c270c6511a7"/></defs><title>cbr-scaled</title><path class="a04bdc0b-3890-4031-a932-cba0ae2f2e20" d="M16.59,38.84,35,28.22c1.91-1.28,3.1-4,3.1-7.75h0c0-7.22-4.39-15.61-9.8-18.73C26,.41,23.86.25,22.18,1L3.73,11.68"/><path class="fc2da54c-e140-49f3-8b90-2b27c1cfeebb" d="M23,18.64c.61-4.44.14-8.45,1.46-9.35,2.22-1.5,8.3,1.14,10.93,2.47h0l20.71,12L44.42,49.47,21.21,36.08c.82-2.3-.61-1.48-.61-5.13C20.6,29.32,22.29,23.71,23,18.64Z"/><path class="a35adf16-0f25-41b1-a13c-c4f362bd09a0" d="M41.07,41.93c0-6.79,4.12-14.67,9.21-17.61s9.22.18,9.22,7S55.37,46,50.28,48.89s-9.21-.18-9.21-7Z"/><path class="a758335e-158f-448d-a4b5-66c150f33e1f" d="M42.29,41.22c0-5.88,3.58-12.72,8-15.27s8,.16,8,6-3.58,12.73-8,15.27-8-.15-8-6Z"/><path class="aa635fae-6eb7-4ebc-b6a6-7e6b4b6f57ce" d="M42.29,41.22c0-5.88,3.58-12.72,8-15.27s8,.16,8,6-3.58,12.73-8,15.27-8-.15-8-6Z"/><path class="f8a8df9c-0c7d-4251-8947-39dd2fd26d3b" d="M33.71,35.93a7.09,7.09,0,0,0-3-5.67c-1.64-1-3,0-3,2.24a7.09,7.09,0,0,0,3,5.67c1.64.95,3-.05,3-2.24Z"/><path class="b0e0b77f-1f92-4540-bfd9-33e86a6d7e97" d="M28.79,31.91a3.2,3.2,0,0,1,.56-2,2.24,2.24,0,0,1,1.39.33,7.09,7.09,0,0,1,3,5.67,3.2,3.2,0,0,1-.56,2,2.21,2.21,0,0,1-1.39-.32A7.12,7.12,0,0,1,28.79,31.91Z"/><path class="f6fb4e69-17ec-416c-b025-3d369bb57088" d="M20.11,30.84c0-7.22-4.39-15.61-9.8-18.74S.5,12.29.5,19.52s4.39,15.6,9.81,18.73,9.8-.19,9.8-7.41Z"/><path class="b7ba9bc5-12f0-4027-a94b-a352f809f17e" d="M18.18,29.72c0-5.8-3.53-12.53-7.87-15s-7.87.16-7.87,5.95,3.52,12.53,7.87,15,7.87-.16,7.87-6Z"/><path class="b5fb2238-36b5-45c6-8a00-42bfe802ed9b" d="M18.18,29.72c0-5.8-3.53-12.53-7.87-15s-7.87.16-7.87,5.95,3.52,12.53,7.87,15,7.87-.16,7.87-6Z"/></svg>