<svg id="ba4a0b07-f097-4efe-986d-e4b70916ddc2" data-name="Layer 1" xmlns="http://www.w3.org/2000/svg" xmlns:xlink="http://www.w3.org/1999/xlink" width="50" height="47" viewBox="0 0 50 47"><defs><style>.bb21bdb8-38cd-4c26-af61-ef05319de02d{fill:#d10a11;}.f262aa56-641e-4661-a79b-adc72e4d3e43{fill:url(#f25a717b-d3ad-42ab-84ef-d35e84105ae8);}.bf83c8db-b944-48de-9847-e484ac7bc817{fill:url(#fb6425da-4ca8-4d22-ab96-7b3c3cea5b54);}.e6452639-bb60-4481-9bec-5dc0f28cbf23{fill:url(#e996c51f-cc42-400b-97b8-a0bd03e0b06b);}.e71e3ef3-2690-4d3f-966e-e9cb1f519b39{fill:url(#adebef28-b746-4670-bf26-84593bad9140);}.bacdc523-c56b-44fc-a79f-c1bee8560a5a{fill:url(#f7c6df1c-dfb0-4394-a9c0-8b0f4b31d836);}.b157197b-b712-48ac-a6ef-28601abd455f{fill:url(#a4718f95-e6b7-435e-834a-ef4387c37d93);}.bcedb770-9ac6-4bf3-9479-0cafc1582015{fill:url(#f858b1b3-a37c-4454-bb2f-e375cd0d51bb);}.acb6aac1-0cd3-495e-9231-560cdeaee6a8{fill:url(#b2c94df6-1684-4743-8b31-d45e55a011c8);}.e403a60a-4dc7-4c6c-a097-c2552904169c{fill:url(#b9ca9384-abef-4fdf-a3e9-16eee8c40dc8);}.b4460a86-e2ef-412a-88fb-abd24b519806{fill:url(#bf971104-8354-4bb4-92b5-fda52188e96f);}</style><linearGradient id="f25a717b-d3ad-42ab-84ef-d35e84105ae8" x1="23.89" y1="27.98" x2="33.08" y2="43.89" gradientUnits="userSpaceOnUse"><stop offset="0" stop-color="#881002"/><stop offset="0.18" stop-color="#d10a11"/><stop offset="0.66" stop-color="#ef8050"/><stop offset="1" stop-color="#e84e24"/></linearGradient><linearGradient id="fb6425da-4ca8-4d22-ab96-7b3c3cea5b54" x1="12.83" y1="3.24" x2="21.42" y2="18.12" gradientUnits="userSpaceOnUse"><stop offset="0" stop-color="#e84e24"/><stop offset="0.3" stop-color="#ed7b4b"/><stop offset="0.62" stop-color="#d10a11"/><stop offset="1" stop-color="#881002"/></linearGradient><linearGradient id="e996c51f-cc42-400b-97b8-a0bd03e0b06b" x1="41.9" y1="37.68" x2="36.99" y2="35.84" gradientUnits="userSpaceOnUse"><stop offset="0" stop-color="#881002"/><stop offset="0.18" stop-color="#d10a11"/><stop offset="1" stop-color="#e84e24"/></linearGradient><linearGradient id="adebef28-b746-4670-bf26-84593bad9140" x1="22.54" y1="26.23" x2="21.9" y2="23.57" gradientUnits="userSpaceOnUse"><stop offset="0" stop-color="#e84e24"/><stop offset="0.27" stop-color="#ef8050"/><stop offset="0.73" stop-color="#d10a11"/><stop offset="1" stop-color="#881002"/></linearGradient><linearGradient id="f7c6df1c-dfb0-4394-a9c0-8b0f4b31d836" x1="29.21" y1="13" x2="44.58" y2="39.61" xlink:href="#adebef28-b746-4670-bf26-84593bad9140"/><linearGradient id="a4718f95-e6b7-435e-834a-ef4387c37d93" x1="45.02" y1="32.59" x2="42.58" y2="38.42" gradientUnits="userSpaceOnUse"><stop offset="0.13" stop-color="#881002"/><stop offset="0.4" stop-color="#d10a11"/><stop offset="0.98" stop-color="#ef8050"/></linearGradient><linearGradient id="f858b1b3-a37c-4454-bb2f-e375cd0d51bb" x1="4.91" y1="10.52" x2="18.11" y2="33.39" gradientUnits="userSpaceOnUse"><stop offset="0.23" stop-color="#881002"/><stop offset="0.48" stop-color="#d10a11"/><stop offset="0.78" stop-color="#ef8050"/><stop offset="1" stop-color="#e84e24"/></linearGradient><linearGradient id="b2c94df6-1684-4743-8b31-d45e55a011c8" x1="32.58" y1="25.66" x2="23.12" y2="42.06" gradientUnits="userSpaceOnUse"><stop offset="0" stop-color="#500800"/><stop offset="0.24" stop-color="#500800" stop-opacity="0.59"/><stop offset="0.54" stop-color="#500800" stop-opacity="0.16"/><stop offset="0.7" stop-color="#500800" stop-opacity="0"/></linearGradient><linearGradient id="b9ca9384-abef-4fdf-a3e9-16eee8c40dc8" x1="16.72" y1="15.12" x2="6.74" y2="32.41" xlink:href="#b2c94df6-1684-4743-8b31-d45e55a011c8"/><linearGradient id="bf971104-8354-4bb4-92b5-fda52188e96f" x1="10.18" y1="14.33" x2="7.56" y2="19.49" xlink:href="#a4718f95-e6b7-435e-834a-ef4387c37d93"/></defs><title>cdt-scaled</title><path class="bb21bdb8-38cd-4c26-af61-ef05319de02d" d="M9.13,13.33a2,2,0,0,0-.91.28,5.64,5.64,0,0,0-2.34,4.48,2.67,2.67,0,0,0,.36,1.46,1.93,1.93,0,0,0,.9-.29,5.59,5.59,0,0,0,2.35-4.47,2.67,2.67,0,0,0-.36-1.46ZM25.35,27.22l4.95-2.87a14.14,14.14,0,0,0-3.83-3.41,8.37,8.37,0,0,0-1.67-.75l-5,2.91a14.18,14.18,0,0,0,3.79,3.34,8.19,8.19,0,0,0,1.77.78Zm-7.17,8c-1.82,2.33-4.79,2.81-8.15.87C4.49,32.92,0,24.34,0,17S4.49,6.17,10,9.37c3.43,2,6.45,6,8.26,10.55,1.82-2.33,4.79-2.81,8.15-.87,5.54,3.2,10,11.78,10,19.16S32,49,26.44,45.8c-3.42-2-6.45-6-8.26-10.55Z"/><path class="f262aa56-641e-4661-a79b-adc72e4d3e43" d="M30.3,24.35a22.09,22.09,0,0,1,4.81,13.11c0,6.36-3.87,9.29-8.64,6.53M30.3,24.35a22.09,22.09,0,0,1,4.81,13.11c0,6.36-3.87,9.29-8.64,6.53-3.81-2.2-7.08-7.52-8.23-12.75Z"/><path class="bf83c8db-b944-48de-9847-e484ac7bc817" d="M19.62,18.68a5.55,5.55,0,0,0-1.33,1.24C16.48,15.39,13.46,11.35,10,9.37,7,7.59,4.19,7.86,2.35,9.71h0A3,3,0,0,1,3,9.15C5.18,7.54,15,2,17.2.86c1.73-.9,3.94-.75,6.35.64,3.32,1.91,6.26,5.76,8.09,10.12Z"/><path class="e6452639-bb60-4481-9bec-5dc0f28cbf23" d="M42.16,38.1a4.54,4.54,0,0,0,1.07-1,7.16,7.16,0,0,1-2.7-.75,2.8,2.8,0,0,0,.41,2A2.11,2.11,0,0,0,42.16,38.1Z"/><path class="e71e3ef3-2690-4d3f-966e-e9cb1f519b39" d="M24.8,20.19,18.28,24c1-3.25,3.48-4.79,6.52-3.83Z"/><path class="bacdc523-c56b-44fc-a79f-c1bee8560a5a" d="M40,11.17a6.86,6.86,0,0,0-5.81-.89c-3,1.44-14.53,8.35-14.54,8.4,1.79-1.18,4.19-1.15,6.82.37,5.54,3.2,10,11.78,10,19.16,0,3.5-1,6.11-2.65,7.54,3.94-2.14,11.15-6.39,12.73-7.31,2.11-1.23,3.45-4.07,3.45-8.1C50,23,45.51,14.37,40,11.17Zm2.16,26.9a2,2,0,0,1-1.15.29,2.94,2.94,0,0,1-.43-1.67,6.18,6.18,0,0,1,2.57-4.92,1.93,1.93,0,0,1,1.15-.29,2.93,2.93,0,0,1,.43,1.66A6.18,6.18,0,0,1,42.13,38.07Z"/><path class="b157197b-b712-48ac-a6ef-28601abd455f" d="M41,38.36a1.52,1.52,0,0,0,2.14.28,6.17,6.17,0,0,0,2.58-4.92c0-1.35-.59-2.16-1.43-2.24a2.93,2.93,0,0,1,.43,1.66,6.18,6.18,0,0,1-2.57,4.93,1.88,1.88,0,0,1-1.12.29Z"/><path class="bcedb770-9ac6-4bf3-9479-0cafc1582015" d="M9.13,13.33a2,2,0,0,0-.91.28,5.64,5.64,0,0,0-2.34,4.48,2.67,2.67,0,0,0,.36,1.46,1.93,1.93,0,0,0,.9-.29,5.59,5.59,0,0,0,2.35-4.47,2.67,2.67,0,0,0-.36-1.46Zm10.68,9.79a14,14,0,0,0,3.77,3.32,7.74,7.74,0,0,0,1.71.77l-7,4h0c-1.17,3.87-4.39,5.27-8.19,3.08C5.28,31.56,1.41,24.17,1.41,17.8s3.87-9.29,8.64-6.53c3.86,2.22,7.12,7.46,8.23,12.75Z"/><path class="acb6aac1-0cd3-495e-9231-560cdeaee6a8" d="M30.3,24.35a22.09,22.09,0,0,1,4.81,13.11c0,6.36-3.87,9.29-8.64,6.53M30.3,24.35a22.09,22.09,0,0,1,4.81,13.11c0,6.36-3.87,9.29-8.64,6.53-3.81-2.2-7.08-7.52-8.23-12.75Z"/><path class="e403a60a-4dc7-4c6c-a097-c2552904169c" d="M9.13,13.33a2,2,0,0,0-.91.28,5.64,5.64,0,0,0-2.34,4.48,2.67,2.67,0,0,0,.36,1.46,1.93,1.93,0,0,0,.9-.29,5.59,5.59,0,0,0,2.35-4.47,2.67,2.67,0,0,0-.36-1.46Zm10.68,9.79a14,14,0,0,0,3.77,3.32,7.74,7.74,0,0,0,1.71.77l-7,4h0c-1.17,3.87-4.39,5.27-8.19,3.08C5.28,31.56,1.41,24.17,1.41,17.8s3.87-9.29,8.64-6.53c3.86,2.22,7.12,7.46,8.23,12.75Z"/><path class="b4460a86-e2ef-412a-88fb-abd24b519806" d="M9.13,13.33c.84,0,1.43.76,1.43,2.06a5.62,5.62,0,0,1-2.34,4.47,1.36,1.36,0,0,1-2-.31,1.93,1.93,0,0,0,.9-.29,5.59,5.59,0,0,0,2.35-4.47,2.67,2.67,0,0,0-.36-1.46Z"/></svg>