<svg id="f34d8e56-4fc0-4ed4-b946-ada8eef4158d" data-name="Layer 1" xmlns="http://www.w3.org/2000/svg" xmlns:xlink="http://www.w3.org/1999/xlink" width="68" height="51" viewBox="0 0 68 51"><defs><style>.f35b5017-f1c5-491d-a616-d12a2676f4db{fill:url(#ba2a542f-22ca-4498-99ed-f8f93b7c9fb1);}.e3b0fdc5-ca07-4272-9110-73623bfa469a{fill:url(#b7657cc1-800a-47b9-9cbe-22d289715fbc);}.e0a71d00-0af4-4b2f-af7a-5c826ca6be5d{fill:url(#eb9cc615-46d6-44a2-b1d2-a30de2919f4a);}.bccfdcde-aed7-429c-8b47-13a828c59593{fill:#333332;}.b9332347-e7d9-44db-a1f5-10b650846379{fill:url(#b15e1136-9373-47f7-bfc1-58748cf354f1);}.b7320921-6919-4616-acb7-bfddff509b03{fill:url(#fc1b44ee-7afb-429c-8c05-cfd2fdb8f2fe);}.f56b54f3-6cc3-4abd-ba90-15e5d2de6b25{fill:url(#a52805bf-8f8b-45e8-8dd5-560eca96f009);}.e91c5834-18ac-47ea-b208-46480f9af288{fill:url(#b8e33ec9-8ac0-44bf-b334-bb922a997f0a);}.afd935fc-5b29-4cb9-8e5e-f6fc09a30bc0{fill:url(#bdf05dd7-285f-4544-bfaf-5b745037d9a6);}.bb09e897-5a9f-4945-8971-d574501c92f7{fill:url(#bdca898c-97c2-44c5-be69-e4a834b3c460);}.bcb33240-930f-44bb-9e3c-d37ec271af1f{fill:url(#b18e231b-ccac-4a5b-9787-41c1e4c90113);}.aee20038-e445-4d14-bc2b-4548505265ab{fill:url(#e968a3e8-3037-4c60-b8e2-4d2b72e4a432);}.ab1107b1-7606-4232-ae6e-8f6a7b02806e{fill:url(#f0e249a3-9a7e-4a26-ad27-d2c0f9944b94);}.b1b25967-653a-4f5b-adae-89ad274f7107{fill:url(#ea6927fb-45ce-4e3d-9b4a-06c8b7b31cb4);}</style><linearGradient id="ba2a542f-22ca-4498-99ed-f8f93b7c9fb1" x1="-374.08" y1="24.5" x2="-363.49" y2="6.17" gradientTransform="matrix(-1, 0, 0, 1, -317.12, 0)" gradientUnits="userSpaceOnUse"><stop offset="0" stop-color="#3c3c3b"/><stop offset="0.38" stop-color="#6f6f6e"/><stop offset="0.71" stop-color="#9c9b9b"/><stop offset="1" stop-color="#868686"/></linearGradient><linearGradient id="b7657cc1-800a-47b9-9cbe-22d289715fbc" x1="-376.67" y1="0.01" x2="-382.79" y2="15.18" gradientTransform="matrix(-1, 0, 0, 1, -317.12, 0)" gradientUnits="userSpaceOnUse"><stop offset="0" stop-color="#575756"/><stop offset="0.35" stop-color="#868686"/><stop offset="0.65" stop-color="#6f6f6e"/><stop offset="1" stop-color="#3c3c3b"/></linearGradient><linearGradient id="eb9cc615-46d6-44a2-b1d2-a30de2919f4a" x1="65.56" y1="19.03" x2="66.52" y2="14.28" gradientTransform="translate(-5.1)" gradientUnits="userSpaceOnUse"><stop offset="0" stop-color="#868686"/><stop offset="0.35" stop-color="#9c9b9b"/><stop offset="0.65" stop-color="#6f6f6e"/><stop offset="1" stop-color="#3c3c3b"/></linearGradient><linearGradient id="b15e1136-9373-47f7-bfc1-58748cf354f1" x1="68.88" y1="3.78" x2="62.7" y2="5.04" gradientTransform="translate(-10.25)" gradientUnits="userSpaceOnUse"><stop offset="0" stop-color="#868686"/><stop offset="1" stop-color="#c6c6c5"/></linearGradient><linearGradient id="fc1b44ee-7afb-429c-8c05-cfd2fdb8f2fe" x1="30.28" y1="13.77" x2="42.84" y2="35.52" gradientUnits="userSpaceOnUse"><stop offset="0" stop-color="#868686"/><stop offset="0.26" stop-color="#b1b1b1"/><stop offset="0.6" stop-color="#747473"/><stop offset="0.68" stop-color="#6f6f6e"/><stop offset="1" stop-color="#3c3c3b"/></linearGradient><linearGradient id="a52805bf-8f8b-45e8-8dd5-560eca96f009" x1="26.95" y1="25.8" x2="21.18" y2="49.06" gradientUnits="userSpaceOnUse"><stop offset="0" stop-color="#3c3c3b"/><stop offset="1" stop-color="#6f6f6e"/></linearGradient><linearGradient id="b8e33ec9-8ac0-44bf-b334-bb922a997f0a" x1="-36.79" y1="27.51" x2="-24.7" y2="48.43" gradientTransform="translate(48.07)" xlink:href="#eb9cc615-46d6-44a2-b1d2-a30de2919f4a"/><linearGradient id="bdf05dd7-285f-4544-bfaf-5b745037d9a6" x1="-45.9" y1="34.11" x2="-35.08" y2="52.82" gradientTransform="translate(48.07)" gradientUnits="userSpaceOnUse"><stop offset="0.16" stop-color="#3c3c3b"/><stop offset="0.64" stop-color="#6f6f6e"/><stop offset="0.89" stop-color="#9c9b9b"/></linearGradient><linearGradient id="bdca898c-97c2-44c5-be69-e4a834b3c460" x1="-45.89" y1="44.55" x2="-35.1" y2="38.32" gradientTransform="translate(48.07)" gradientUnits="userSpaceOnUse"><stop offset="0" stop-color="#1d1d1b" stop-opacity="0"/><stop offset="1" stop-color="#1d1d1b" stop-opacity="0.6"/></linearGradient><linearGradient id="b18e231b-ccac-4a5b-9787-41c1e4c90113" x1="-40.58" y1="33.49" x2="-44" y2="36.54" gradientTransform="translate(48.07)" xlink:href="#b15e1136-9373-47f7-bfc1-58748cf354f1"/><linearGradient id="e968a3e8-3037-4c60-b8e2-4d2b72e4a432" x1="-44.73" y1="32.17" x2="-31.97" y2="51.28" gradientTransform="translate(48.07)" gradientUnits="userSpaceOnUse"><stop offset="0" stop-color="#868686"/><stop offset="0.35" stop-color="#b1b1b1"/><stop offset="0.65" stop-color="#6f6f6e"/><stop offset="1" stop-color="#3c3c3b"/></linearGradient><linearGradient id="f0e249a3-9a7e-4a26-ad27-d2c0f9944b94" x1="-29.97" y1="28.32" x2="-36.15" y2="29.58" gradientTransform="translate(48.07)" xlink:href="#b15e1136-9373-47f7-bfc1-58748cf354f1"/><linearGradient id="ea6927fb-45ce-4e3d-9b4a-06c8b7b31cb4" x1="-28.12" y1="43.26" x2="-27.16" y2="38.51" gradientTransform="translate(48.07)" xlink:href="#eb9cc615-46d6-44a2-b1d2-a30de2919f4a"/></defs><title>cf2-scaled</title><path class="f35b5017-f1c5-491d-a616-d12a2676f4db" d="M63.61,20.56a4.25,4.25,0,0,0,.49-.21,7.57,7.57,0,0,0,3-4.34,8.18,8.18,0,0,0,.43-2.77c0-4.56-2.77-9.86-6.2-11.84A4.87,4.87,0,0,0,58.82.66,7.38,7.38,0,0,0,55.39,1a3.37,3.37,0,0,0-.9.6C50.16,4.12,39.16,10.39,38.06,11c-1.49.83-2.44,2.81-2.44,5.63,0,5.1,3.1,11,6.92,13.22,1.84,1.06,3.51,1.07,4.75.23S59.53,23,63.61,20.56Z"/><path class="e3b0fdc5-ca07-4272-9110-73623bfa469a" d="M56.18.74A8.77,8.77,0,0,1,58.82.66a4.87,4.87,0,0,1,2.48.74c3.43,2,6.2,7.28,6.2,11.84A8.18,8.18,0,0,1,67.07,16a8.3,8.3,0,0,1-2.33,3.88,8.28,8.28,0,0,0,1.08-4.46c0-5.34-3.24-11.54-7.25-13.85A6.2,6.2,0,0,0,56.18.74Z"/><path class="e0a71d00-0af4-4b2f-af7a-5c826ca6be5d" d="M59.52,19.36a.79.79,0,0,0,1.17.25,3,3,0,0,0,1.19-1.56l.59-.31a1.72,1.72,0,0,0,.82-1.38c0-.51-.35-.73-.79-.48l-.59.3a.79.79,0,0,0-1.17-.25,3,3,0,0,0-1.19,1.56L59,17.8a1.75,1.75,0,0,0-.82,1.38c0,.51.35.73.8.48l.58-.3Z"/><path class="bccfdcde-aed7-429c-8b47-13a828c59593" d="M61.53,16a1.07,1.07,0,0,0-.14-.16,1,1,0,0,0-.65.13,3,3,0,0,0-1.19,1.56L59,17.8a1.75,1.75,0,0,0-.82,1.38.73.73,0,0,0,.09.36.65.65,0,0,0,.33-.1l.58-.3.38.22a1.07,1.07,0,0,0,.14.16,1,1,0,0,0,.65-.13,2.93,2.93,0,0,0,1.19-1.56l.59-.3a1.75,1.75,0,0,0,.82-1.39.59.59,0,0,0-.09-.36.6.6,0,0,0-.32.1l-.59.3Z"/><path class="b9332347-e7d9-44db-a1f5-10b650846379" d="M53.75,5.75a3,3,0,0,0,1.87-.28c.51-.28.69-.69.53-1.06l.62-.33c.45-.25.51-.64.14-.86a1.65,1.65,0,0,0-1.51,0l-.61.32a3,3,0,0,0-1.86.28c-.51.28-.69.69-.54,1.06l-.61.33c-.46.25-.52.64-.14.86a1.63,1.63,0,0,0,1.5,0l.61-.32Z"/><path class="bccfdcde-aed7-429c-8b47-13a828c59593" d="M55.4,3.71,54.79,4a3.05,3.05,0,0,0-1.86.27,1.15,1.15,0,0,0-.55.6s0,0,0,0h0a.7.7,0,0,0,0,.43l-.61.32a.75.75,0,0,0-.3.28.47.47,0,0,0,.16.15,1.63,1.63,0,0,0,1.5,0l.61-.32a3,3,0,0,0,1.87-.28,1.07,1.07,0,0,0,.54-.59,0,0,0,0,0,0,0h0a.64.64,0,0,0,0-.43l.62-.33a.89.89,0,0,0,.3-.27.61.61,0,0,0-.16-.16A1.68,1.68,0,0,0,55.4,3.71Z"/><path class="b7320921-6919-4616-acb7-bfddff509b03" d="M45.3,13.53l.3.37c.16.21.33.42.49.64-.26-.35-.52-.69-.79-1ZM21,19.16c4-2.4,11.1-6.44,15-8.66a3.91,3.91,0,0,1,1.07-.6,5.54,5.54,0,0,1,4.77.72,12.91,12.91,0,0,1,3.4,2.94l.29.34-.3-.37c.27.32.53.66.79,1l.16.22.12.18a20.84,20.84,0,0,1,3.75,11.35c0,3.52-1.24,5.93-3.18,6.82-4.46,2.66-12.28,7.1-15.76,9a9.29,9.29,0,0,0,2.34-5.42c0-.33.07-.67.07-1A18.87,18.87,0,0,0,32.28,29a17.06,17.06,0,0,0-6.81-8.66c-1.73-1-3.11-1.59-4.44-1.14Z"/><path class="f56b54f3-6cc3-4abd-ba90-15e5d2de6b25" d="M33.9,35.59c0-6-3.68-13.06-8.21-15.67s-8.2.16-8.2,6.2,3.67,13.06,8.2,15.68,8.21-.16,8.21-6.21Z"/><path class="e91c5834-18ac-47ea-b208-46480f9af288" d="M.5,38.36c0,4.56,2.78,9.86,6.2,11.84a4.82,4.82,0,0,0,2.57.73H9.18a7.36,7.36,0,0,0,3.43-.32,3.62,3.62,0,0,0,.33-.2l-.1.08c4.33-2.53,15.83-9.1,17.1-9.9,1.44-.9,2.44-2.8,2.44-5.62,0-5.1-3.09-11-6.92-13.22-1.84-1.06-3.51-1.07-4.75-.23S8,28.81,3.91,31.25a7.54,7.54,0,0,0-3,4.34A10,10,0,0,0,.5,38.36ZM7,34a3,3,0,0,1-1.19,1.55,1,1,0,0,1-.66.14A1.09,1.09,0,0,1,5,35.53c.06,0,.07,0-.38-.22L4,35.62a1,1,0,0,1-.33.1.81.81,0,0,1-.09-.37A1.8,1.8,0,0,1,4.42,34L5,33.66a3.61,3.61,0,0,1,.27-.56,5.7,5.7,0,0,1,1.42.57c.13.08.26.19.39.28Z"/><path class="afd935fc-5b29-4cb9-8e5e-f6fc09a30bc0" d="M7.42,34.18l-.07,0a2.94,2.94,0,0,1-1.2,1.56A.78.78,0,0,1,5,35.53l-.59.31c-.45.24-.8,0-.8-.49A1.8,1.8,0,0,1,4.42,34L5,33.66a3.1,3.1,0,0,1,.28-.58C2.54,32.35.5,34.44.5,38.36c0,4.56,2.78,9.86,6.2,11.84s6.2-.12,6.2-4.69A15.22,15.22,0,0,0,7.42,34.18Z"/><path class="bb09e897-5a9f-4945-8971-d574501c92f7" d="M7.42,34.18l-.07,0a2.94,2.94,0,0,1-1.2,1.56A.78.78,0,0,1,5,35.53l-.59.31c-.45.24-.8,0-.8-.49A1.8,1.8,0,0,1,4.42,34L5,33.66a3.1,3.1,0,0,1,.28-.58C2.54,32.35.5,34.44.5,38.36c0,4.56,2.78,9.86,6.2,11.84s6.2-.12,6.2-4.69A15.22,15.22,0,0,0,7.42,34.18Z"/><path class="bcb33240-930f-44bb-9e3c-d37ec271af1f" d="M4,35.62a1,1,0,0,1-.33.1c.13.22.39.29.71.12L5,35.53c.06,0,.07,0-.38-.22ZM7,34a3,3,0,0,1-1.19,1.55,1,1,0,0,1-.66.14.79.79,0,0,0,1,.08,2.94,2.94,0,0,0,1.2-1.56l.07,0L7.09,34Z"/><path class="aee20038-e445-4d14-bc2b-4548505265ab" d="M15.28,44.88c0-5.1-3.09-11-6.92-13.22a4.45,4.45,0,0,0-4.45-.41,7.54,7.54,0,0,0-3,4.34c.9-2.55,3.14-3.43,5.77-1.92,3.42,2,6.2,7.28,6.2,11.84,0,3.39-1.53,5.42-3.72,5.43a7.36,7.36,0,0,0,3.43-.32c1.63-.75,2.67-2.78,2.67-5.74Z"/><path class="ab1107b1-7606-4232-ae6e-8f6a7b02806e" d="M13.21,30.29A3.05,3.05,0,0,0,15.07,30c.52-.29.7-.7.54-1.07l.62-.32c.45-.26.51-.65.14-.87a1.68,1.68,0,0,0-1.51,0l-.61.32a3,3,0,0,0-1.87.28c-.5.28-.69.69-.53,1.06l-.62.33c-.45.25-.51.64-.14.86a1.65,1.65,0,0,0,1.51-.05l.61-.32Z"/><path class="bccfdcde-aed7-429c-8b47-13a828c59593" d="M14.86,28.25l-.61.32a3,3,0,0,0-1.87.28,1.08,1.08,0,0,0-.54.59s0,0,0,0h0a.64.64,0,0,0,0,.43l-.62.33a.76.76,0,0,0-.29.27.43.43,0,0,0,.15.15,1.65,1.65,0,0,0,1.51-.05l.61-.32A3.05,3.05,0,0,0,15.07,30a1.11,1.11,0,0,0,.55-.6s0,0,0,0h0a.64.64,0,0,0,0-.43l.62-.32a.78.78,0,0,0,.29-.28.43.43,0,0,0-.15-.15A1.65,1.65,0,0,0,14.86,28.25Z"/><path class="b1b25967-653a-4f5b-adae-89ad274f7107" d="M19,43.59a.79.79,0,0,0,1.17.25,3,3,0,0,0,1.19-1.55L22,42a1.8,1.8,0,0,0,.82-1.38c0-.52-.35-.73-.8-.49l-.59.31a.79.79,0,0,0-1.17-.25A3,3,0,0,0,19,41.72l-.59.31a1.77,1.77,0,0,0-.81,1.38c0,.52.34.74.79.49l.59-.31Z"/><path class="bccfdcde-aed7-429c-8b47-13a828c59593" d="M21,40.2a1.15,1.15,0,0,0-.14-.17,1,1,0,0,0-.65.14A3,3,0,0,0,19,41.72l-.59.31a1.77,1.77,0,0,0-.81,1.38.7.7,0,0,0,.08.37,1,1,0,0,0,.33-.1l.59-.31.38.22a.79.79,0,0,0,.14.17,1,1,0,0,0,.65-.13A3,3,0,0,0,21,42.07l.59-.31a1.8,1.8,0,0,0,.82-1.38.81.81,0,0,0-.09-.37,1,1,0,0,0-.33.1l-.59.31Z"/></svg>