<svg id="e0550b32-ef99-4e79-af45-29b89393de5e" data-name="Layer 1" xmlns="http://www.w3.org/2000/svg" xmlns:xlink="http://www.w3.org/1999/xlink" width="68" height="51" viewBox="0 0 68 51"><defs><style>.b331f134-eeb4-4a20-9a6e-cfbc3497c686{fill:url(#b886bba9-07e3-48e4-b473-b097041bf446);}.a8892f65-2552-456d-b39b-1b2e5604e04a{fill:url(#addb9b66-6524-4865-910e-417bf1e71855);}.faaef867-0018-43e0-8ccb-e9f2e2b4b36f{fill:url(#ab058314-9901-44a7-b702-a213f0839936);}.b9287a90-1395-4d48-838c-ef331822a4ec{fill:url(#f26df6ac-87be-49a6-8192-0cbc7f8a437f);}.b19ba63d-1e2d-4db2-8dbc-11486f5bc01f{fill:url(#bf0fdda4-2f73-416c-8fee-e719120ef329);}.a16dc6f5-d166-4a1e-93c2-20ea1a5bc4ac{fill:#333332;}.b1f32af1-89ce-4793-9209-1c9c7831f616{fill:url(#fd14b13e-4b82-4922-9f63-7d68540d8fc8);}.ff91ee3f-2fe6-4734-9854-63a2d2db956b{fill:url(#e35b79d8-3a66-425e-8c09-df22de8ef7e2);}.f671f6b2-e3f9-434d-8aa3-cbffd9d6b209{fill:url(#a03d18ab-f54b-4960-a384-7c2c8f1ba548);}.e43a0d71-f241-4d4a-b223-67ad37c71136{fill:url(#f24be2cf-e552-4be5-9129-11b8a60fbdce);}.aa86d337-52b7-4e74-b7e3-4bc3c098317c{fill:url(#f46c72a7-dc52-44a1-ac21-85e670de18e3);}.a7cbf697-d18f-401c-9071-65b79d3b7861{fill:url(#bee59317-4611-4561-b62d-e8401bf50156);}.b4f699a6-d731-476f-b477-65eb05f8684a{fill:url(#a658ac10-d5eb-42b5-963b-cc6d21d7e808);}.f44f6367-51d8-4899-bc57-df5396c7670b{fill:url(#fc8a3472-af0b-43f1-a8df-b707a1877f95);}.bbedf163-6428-433b-8c51-c271e29f432d{fill:url(#ebba1df2-916c-408a-8dbe-46c1764e6a30);}.e8c7f86e-0676-4ec2-a794-e9b98df2992f{fill:url(#b8c151f7-0482-487c-b540-0c0719806875);}.a5321fc8-0f7d-4934-911b-038b7d0a17a5{fill:url(#acbd765f-3a5a-4115-9400-1fed03482691);}.a1401e01-51de-491c-b02e-411b06bb1dae{fill:url(#f721f989-0d5a-43db-8416-61c00ff9234f);}.bfea38c7-6fae-475f-a3b2-6bd9cabfc5b0{fill:url(#e66cbd56-b53f-42b6-955b-1e0a1cc627dc);}.b7563e1c-9692-4303-ab40-5a2d23f38177{fill:url(#aa94497a-1497-4657-9d86-310bc063fda6);}.aacb4f5a-97e6-4aff-b542-33162086ffc2{fill:url(#ecc5ac7e-3a7b-46f8-a730-f053a055cc9b);}.f0c83227-4bf6-4dd8-8090-8266b1156787{fill:url(#b7f4607e-6259-43fa-b4c5-3b6d1c788c37);}.f1fe2ac4-4c48-4905-b6c5-8bbc88fe7dc6{fill:url(#a62e409d-7575-4fa5-b71e-a79369193220);}.a2b0b916-e715-4655-8a6d-556b2e3d652e{fill:url(#ba35b632-1978-4a23-9e61-c67d7ea6ad32);}.f5268a80-aae6-465d-833c-fa06df1c2605{fill:url(#ba3ec86c-7d9c-4e87-a5cb-e00a896bf468);}.f8a7a35c-cb82-4d92-8c0a-ad5d49d552a5{fill:url(#b3178738-80fe-4c77-9ec0-ecac9ddee02c);}.ecb99800-9e4a-4082-bf70-c3258c594441{fill:url(#b5e571b1-5dc7-4b5c-a765-724ba5785bce);}.b86b6551-4493-4fe8-9079-a8464a4caa79{fill:url(#e815762f-a1e0-4b66-a37c-3ece528768d0);}.efbbaff8-ff39-4e50-8053-04a73e023860{fill:url(#f04f2623-7e82-4f14-9018-c8b43afd3330);}</style><linearGradient id="b886bba9-07e3-48e4-b473-b097041bf446" x1="11.08" y1="24.51" x2="21.65" y2="6.19" gradientUnits="userSpaceOnUse"><stop offset="0" stop-color="#3c3c3b"/><stop offset="0.38" stop-color="#6f6f6e"/><stop offset="0.71" stop-color="#9c9b9b"/><stop offset="1" stop-color="#868686"/></linearGradient><linearGradient id="addb9b66-6524-4865-910e-417bf1e71855" x1="8.48" y1="0.03" x2="2.36" y2="15.19" gradientUnits="userSpaceOnUse"><stop offset="0" stop-color="#575756"/><stop offset="0.35" stop-color="#868686"/><stop offset="0.65" stop-color="#6f6f6e"/><stop offset="1" stop-color="#3c3c3b"/></linearGradient><linearGradient id="ab058314-9901-44a7-b702-a213f0839936" x1="-46.05" y1="24.51" x2="-35.48" y2="6.19" gradientTransform="matrix(-1, 0, 0, 1, 10.88, 0)" xlink:href="#b886bba9-07e3-48e4-b473-b097041bf446"/><linearGradient id="f26df6ac-87be-49a6-8192-0cbc7f8a437f" x1="-48.65" y1="0.03" x2="-54.77" y2="15.19" gradientTransform="matrix(-1, 0, 0, 1, 10.88, 0)" xlink:href="#addb9b66-6524-4865-910e-417bf1e71855"/><linearGradient id="bf0fdda4-2f73-416c-8fee-e719120ef329" x1="65.53" y1="19.04" x2="66.49" y2="14.29" gradientTransform="translate(-5.1)" gradientUnits="userSpaceOnUse"><stop offset="0" stop-color="#868686"/><stop offset="0.35" stop-color="#9c9b9b"/><stop offset="0.65" stop-color="#6f6f6e"/><stop offset="1" stop-color="#3c3c3b"/></linearGradient><linearGradient id="fd14b13e-4b82-4922-9f63-7d68540d8fc8" x1="68.86" y1="3.8" x2="62.68" y2="5.06" gradientTransform="translate(-10.25)" gradientUnits="userSpaceOnUse"><stop offset="0" stop-color="#868686"/><stop offset="1" stop-color="#c6c6c5"/></linearGradient><linearGradient id="e35b79d8-3a66-425e-8c09-df22de8ef7e2" x1="8.4" y1="19.04" x2="9.36" y2="14.29" gradientTransform="matrix(-1, 0, 0, 1, 15.97, 0)" xlink:href="#bf0fdda4-2f73-416c-8fee-e719120ef329"/><linearGradient id="a03d18ab-f54b-4960-a384-7c2c8f1ba548" x1="11.73" y1="3.8" x2="5.56" y2="5.06" gradientTransform="matrix(-1, 0, 0, 1, 21.13, 0)" xlink:href="#fd14b13e-4b82-4922-9f63-7d68540d8fc8"/><linearGradient id="f24be2cf-e552-4be5-9129-11b8a60fbdce" x1="23.39" y1="24.61" x2="31.79" y2="10.91" gradientUnits="userSpaceOnUse"><stop offset="0" stop-color="#3c3c3b"/><stop offset="0.41" stop-color="#6f6f6e"/><stop offset="0.76" stop-color="#b1b1b1"/><stop offset="1" stop-color="#868686"/></linearGradient><linearGradient id="f46c72a7-dc52-44a1-ac21-85e670de18e3" x1="33.61" y1="30.86" x2="42.02" y2="17.13" xlink:href="#f24be2cf-e552-4be5-9129-11b8a60fbdce"/><linearGradient id="bee59317-4611-4561-b62d-e8401bf50156" x1="45.24" y1="24.66" x2="35.57" y2="8.67" xlink:href="#f24be2cf-e552-4be5-9129-11b8a60fbdce"/><linearGradient id="a658ac10-d5eb-42b5-963b-cc6d21d7e808" x1="34.03" y1="31.44" x2="24.36" y2="15.44" xlink:href="#f24be2cf-e552-4be5-9129-11b8a60fbdce"/><linearGradient id="fc8a3472-af0b-43f1-a8df-b707a1877f95" x1="26.07" y1="28.42" x2="21.74" y2="56" gradientUnits="userSpaceOnUse"><stop offset="0" stop-color="#3c3c3b"/><stop offset="1" stop-color="#6f6f6e"/></linearGradient><linearGradient id="ebba1df2-916c-408a-8dbe-46c1764e6a30" x1="-36.79" y1="27.52" x2="-24.71" y2="48.43" gradientTransform="translate(48.07)" xlink:href="#bf0fdda4-2f73-416c-8fee-e719120ef329"/><linearGradient id="b8c151f7-0482-487c-b540-0c0719806875" x1="-45.9" y1="34.12" x2="-35.09" y2="52.82" gradientTransform="translate(48.07)" gradientUnits="userSpaceOnUse"><stop offset="0.16" stop-color="#3c3c3b"/><stop offset="0.64" stop-color="#6f6f6e"/><stop offset="0.89" stop-color="#9c9b9b"/></linearGradient><linearGradient id="acbd765f-3a5a-4115-9400-1fed03482691" x1="-40.59" y1="33.5" x2="-44" y2="36.54" gradientTransform="translate(48.07)" xlink:href="#fd14b13e-4b82-4922-9f63-7d68540d8fc8"/><linearGradient id="f721f989-0d5a-43db-8416-61c00ff9234f" x1="-44.73" y1="32.17" x2="-31.98" y2="51.28" gradientTransform="translate(48.07)" gradientUnits="userSpaceOnUse"><stop offset="0" stop-color="#868686"/><stop offset="0.35" stop-color="#b1b1b1"/><stop offset="0.65" stop-color="#6f6f6e"/><stop offset="1" stop-color="#3c3c3b"/></linearGradient><linearGradient id="e66cbd56-b53f-42b6-955b-1e0a1cc627dc" x1="-29.98" y1="28.33" x2="-36.16" y2="29.59" gradientTransform="translate(48.07)" xlink:href="#fd14b13e-4b82-4922-9f63-7d68540d8fc8"/><linearGradient id="aa94497a-1497-4657-9d86-310bc063fda6" x1="-28.13" y1="43.27" x2="-27.17" y2="38.52" gradientTransform="translate(48.07)" xlink:href="#bf0fdda4-2f73-416c-8fee-e719120ef329"/><linearGradient id="ecc5ac7e-3a7b-46f8-a730-f053a055cc9b" x1="42.1" y1="32.5" x2="39.43" y2="60.28" xlink:href="#fc8a3472-af0b-43f1-a8df-b707a1877f95"/><linearGradient id="b7f4607e-6259-43fa-b4c5-3b6d1c788c37" x1="-45.89" y1="27.52" x2="-33.8" y2="48.43" gradientTransform="matrix(-1, 0, 0, 1, 10.84, 0)" xlink:href="#bf0fdda4-2f73-416c-8fee-e719120ef329"/><linearGradient id="a62e409d-7575-4fa5-b71e-a79369193220" x1="-55" y1="34.12" x2="-44.19" y2="52.82" gradientTransform="matrix(-1, 0, 0, 1, 10.84, 0)" xlink:href="#b8c151f7-0482-487c-b540-0c0719806875"/><linearGradient id="ba35b632-1978-4a23-9e61-c67d7ea6ad32" x1="-45.89" y1="44.55" x2="-35.1" y2="38.32" gradientTransform="translate(48.07)" gradientUnits="userSpaceOnUse"><stop offset="0" stop-color="#1d1d1b" stop-opacity="0"/><stop offset="1" stop-color="#1d1d1b" stop-opacity="0.6"/></linearGradient><linearGradient id="ba3ec86c-7d9c-4e87-a5cb-e00a896bf468" x1="-54.99" y1="44.55" x2="-44.2" y2="38.32" gradientTransform="matrix(-1, 0, 0, 1, 10.84, 0)" xlink:href="#ba35b632-1978-4a23-9e61-c67d7ea6ad32"/><linearGradient id="b3178738-80fe-4c77-9ec0-ecac9ddee02c" x1="-49.68" y1="33.5" x2="-53.09" y2="36.54" gradientTransform="matrix(-1, 0, 0, 1, 10.84, 0)" xlink:href="#fd14b13e-4b82-4922-9f63-7d68540d8fc8"/><linearGradient id="b5e571b1-5dc7-4b5c-a765-724ba5785bce" x1="-53.83" y1="32.17" x2="-41.07" y2="51.28" gradientTransform="matrix(-1, 0, 0, 1, 10.84, 0)" xlink:href="#f721f989-0d5a-43db-8416-61c00ff9234f"/><linearGradient id="e815762f-a1e0-4b66-a37c-3ece528768d0" x1="-39.07" y1="28.33" x2="-45.25" y2="29.59" gradientTransform="matrix(-1, 0, 0, 1, 10.84, 0)" xlink:href="#fd14b13e-4b82-4922-9f63-7d68540d8fc8"/><linearGradient id="f04f2623-7e82-4f14-9018-c8b43afd3330" x1="-37.22" y1="43.27" x2="-36.26" y2="38.52" gradientTransform="matrix(-1, 0, 0, 1, 10.84, 0)" xlink:href="#bf0fdda4-2f73-416c-8fee-e719120ef329"/></defs><title>cf4-scaled</title><path class="b331f134-eeb4-4a20-9a6e-cfbc3497c686" d="M4.42,20.57a3.48,3.48,0,0,1-.48-.21A7.54,7.54,0,0,1,1,16a8.37,8.37,0,0,1-.43-2.76c0-4.57,2.78-9.87,6.2-11.84A4.87,4.87,0,0,1,9.21.68,7.44,7.44,0,0,1,12.65,1a3.48,3.48,0,0,1,.89.6C17.87,4.14,28.86,10.4,30,11c1.49.83,2.44,2.8,2.44,5.62,0,5.1-3.09,11-6.91,13.22-1.84,1.06-3.51,1.07-4.75.22S8.51,23,4.42,20.57Z"/><path class="a8892f65-2552-456d-b39b-1b2e5604e04a" d="M11.85.76A8.77,8.77,0,0,0,9.21.68a4.87,4.87,0,0,0-2.48.74C3.31,3.39.53,8.69.53,13.26A8.37,8.37,0,0,0,1,16,8.47,8.47,0,0,0,3.29,19.9a8.36,8.36,0,0,1-1.08-4.45c0-5.34,3.25-11.54,7.25-13.85A6.2,6.2,0,0,1,11.85.76Z"/><path class="faaef867-0018-43e0-8ccb-e9f2e2b4b36f" d="M63.59,20.57a3.48,3.48,0,0,0,.48-.21,7.54,7.54,0,0,0,3-4.34,8.39,8.39,0,0,0,.42-2.76c0-4.57-2.77-9.87-6.19-11.84A4.87,4.87,0,0,0,58.8.68,7.36,7.36,0,0,0,55.37,1a3.37,3.37,0,0,0-.9.6C50.14,4.14,39.15,10.4,38.05,11c-1.5.83-2.44,2.8-2.44,5.62,0,5.1,3.09,11,6.91,13.22,1.84,1.06,3.51,1.07,4.75.22S59.5,23,63.59,20.57Z"/><path class="b9287a90-1395-4d48-838c-ef331822a4ec" d="M56.16.76A8.77,8.77,0,0,1,58.8.68a4.87,4.87,0,0,1,2.48.74c3.42,2,6.19,7.27,6.19,11.84A8.39,8.39,0,0,1,67.05,16a8.47,8.47,0,0,1-2.33,3.88,8.36,8.36,0,0,0,1.08-4.45c0-5.34-3.25-11.54-7.25-13.85A6.2,6.2,0,0,0,56.16.76Z"/><path class="b19ba63d-1e2d-4db2-8dbc-11486f5bc01f" d="M59.5,19.37a.79.79,0,0,0,1.17.25,2.93,2.93,0,0,0,1.19-1.56l.59-.3a1.8,1.8,0,0,0,.82-1.38c0-.52-.35-.74-.8-.49l-.59.31a.79.79,0,0,0-1.16-.26,2.92,2.92,0,0,0-1.19,1.56l-.59.31a1.74,1.74,0,0,0-.82,1.38c0,.51.35.73.79.49l.59-.31Z"/><path class="a16dc6f5-d166-4a1e-93c2-20ea1a5bc4ac" d="M61.5,16a.55.55,0,0,0-.13-.17,1,1,0,0,0-.65.13,2.92,2.92,0,0,0-1.19,1.56l-.59.31a1.74,1.74,0,0,0-.82,1.38.64.64,0,0,0,.09.36.68.68,0,0,0,.32-.09l.59-.31.38.22a.73.73,0,0,0,.14.16,1,1,0,0,0,.65-.13,2.93,2.93,0,0,0,1.19-1.56l.59-.3a1.8,1.8,0,0,0,.82-1.38.78.78,0,0,0-.09-.37,1,1,0,0,0-.33.1l-.59.31Z"/><path class="b1f32af1-89ce-4793-9209-1c9c7831f616" d="M53.73,5.76a3,3,0,0,0,1.87-.27c.51-.28.69-.69.53-1.06l.62-.33c.45-.25.51-.64.14-.87a1.71,1.71,0,0,0-1.51,0l-.61.33a3.05,3.05,0,0,0-1.86.27c-.51.29-.69.7-.54,1.07l-.61.32c-.46.26-.52.64-.14.87a1.69,1.69,0,0,0,1.5,0l.61-.33Z"/><path class="a16dc6f5-d166-4a1e-93c2-20ea1a5bc4ac" d="M55.38,3.72l-.61.33a3.05,3.05,0,0,0-1.86.27,1.15,1.15,0,0,0-.55.6s0,0,0,0h0a.71.71,0,0,0,0,.43l-.61.32a.75.75,0,0,0-.3.28.59.59,0,0,0,.16.15,1.69,1.69,0,0,0,1.5,0l.61-.33a3,3,0,0,0,1.87-.27,1.13,1.13,0,0,0,.54-.6s0,0,0,0h0a.63.63,0,0,0,0-.43l.62-.33a1,1,0,0,0,.3-.27.81.81,0,0,0-.16-.16A1.71,1.71,0,0,0,55.38,3.72Z"/><path class="ff91ee3f-2fe6-4734-9854-63a2d2db956b" d="M8.51,19.37a.79.79,0,0,1-1.17.25,2.93,2.93,0,0,1-1.19-1.56l-.59-.3a1.78,1.78,0,0,1-.82-1.38c0-.52.35-.74.8-.49l.58.31a.8.8,0,0,1,1.17-.26A3,3,0,0,1,8.48,17.5l.59.31a1.76,1.76,0,0,1,.82,1.38c0,.51-.35.73-.79.49l-.59-.31Z"/><path class="a16dc6f5-d166-4a1e-93c2-20ea1a5bc4ac" d="M6.5,16a.79.79,0,0,1,.14-.17,1,1,0,0,1,.65.13A3,3,0,0,1,8.48,17.5l.59.31a1.76,1.76,0,0,1,.82,1.38.64.64,0,0,1-.09.36.68.68,0,0,1-.32-.09l-.59-.31-.38.22a.73.73,0,0,1-.14.16,1,1,0,0,1-.65-.13,2.93,2.93,0,0,1-1.19-1.56l-.59-.3a1.78,1.78,0,0,1-.82-1.38.78.78,0,0,1,.09-.37,1,1,0,0,1,.33.1l.58.31Z"/><path class="f671f6b2-e3f9-434d-8aa3-cbffd9d6b209" d="M14.27,5.76a2.93,2.93,0,0,1-1.86-.27c-.51-.28-.69-.69-.53-1.06l-.62-.33c-.45-.25-.51-.64-.14-.87a1.71,1.71,0,0,1,1.51,0l.61.33a3.05,3.05,0,0,1,1.86.27c.51.29.69.7.54,1.07l.61.32c.46.26.52.64.14.87a1.69,1.69,0,0,1-1.5,0l-.62-.33Z"/><path class="a16dc6f5-d166-4a1e-93c2-20ea1a5bc4ac" d="M12.63,3.72l.61.33a3.05,3.05,0,0,1,1.86.27,1.15,1.15,0,0,1,.55.6s0,0,0,0h0a.71.71,0,0,1,0,.43l.61.32a.75.75,0,0,1,.3.28.59.59,0,0,1-.16.15,1.69,1.69,0,0,1-1.5,0l-.62-.33a2.93,2.93,0,0,1-1.86-.27,1.09,1.09,0,0,1-.54-.6,0,0,0,0,1,0,0h0a.63.63,0,0,1,0-.43l-.62-.33a1,1,0,0,1-.3-.27.61.61,0,0,1,.16-.16A1.71,1.71,0,0,1,12.63,3.72Z"/><path class="e43a0d71-f241-4d4a-b223-67ad37c71136" d="M34,11.63l-1.33-.76c-1.46-1-3.43-1-5.59.29-2.69,1.55-5.08,4.66-6.57,8.2,1.53-1,6.22-2.08,14.38-3.05Z"/><path class="aa86d337-52b7-4e74-b7e3-4bc3c098317c" d="M48.27,20c-.57-.54-4.74-4-15.12-5.19L34,40.58l3,1.68,11.4-22.17Z"/><path class="a7cbf697-d18f-401c-9071-65b79d3b7861" d="M40.91,11.16c-2.16-1.25-4.13-1.27-5.59-.29L34,11.63V15.5c8.17,1,12,2.84,13.49,3.86C46,15.82,43.61,12.71,40.91,11.16Z"/><path class="b4f699a6-d731-476f-b477-65eb05f8684a" d="M19.71,20c.57-.54,3.91-3.23,14.28-4.46V40.58l-3,1.69L19.63,20.09Z"/><path class="f44f6367-51d8-4899-bc57-df5396c7670b" d="M33.89,35.6c0-6-3.68-13.06-8.21-15.67s-8.2.16-8.2,6.2,3.67,13.05,8.2,15.67,8.21-.16,8.21-6.2Z"/><path class="bbedf163-6428-433b-8c51-c271e29f432d" d="M.5,38.36c0,4.56,2.78,9.86,6.2,11.84a4.77,4.77,0,0,0,2.57.73h-.1a7.4,7.4,0,0,0,3.44-.32,3.62,3.62,0,0,0,.33-.2s0,0,0,0c4.33-2.53,15.74-9.05,17-9.84,1.44-.91,2.44-2.81,2.44-5.63,0-5.09-3.1-11-6.92-13.21-1.83-1.06-3.51-1.07-4.75-.23S8,28.82,3.91,31.26a7.54,7.54,0,0,0-3,4.34A10,10,0,0,0,.5,38.36ZM7,34a3,3,0,0,1-1.19,1.56.94.94,0,0,1-.65.13A.65.65,0,0,1,5,35.54c.06,0,.07,0-.38-.22l-.59.3a.65.65,0,0,1-.33.1.73.73,0,0,1-.09-.36A1.75,1.75,0,0,1,4.42,34L5,33.67a3,3,0,0,1,.27-.57,5.91,5.91,0,0,1,1.42.58c.13.08.26.19.39.28Z"/><path class="e8c7f86e-0676-4ec2-a794-e9b98df2992f" d="M7.42,34.19l-.08,0a3,3,0,0,1-1.19,1.56A.78.78,0,0,1,5,35.54l-.59.3c-.45.25-.81,0-.8-.48A1.75,1.75,0,0,1,4.42,34L5,33.67a3.83,3.83,0,0,1,.27-.58C2.54,32.36.5,34.45.5,38.36c0,4.56,2.78,9.86,6.2,11.84s6.19-.12,6.19-4.68A15.19,15.19,0,0,0,7.42,34.19Z"/><path class="a5321fc8-0f7d-4934-911b-038b7d0a17a5" d="M4,35.62a.65.65,0,0,1-.33.1c.13.23.39.3.71.12l.59-.3c.06,0,.07,0-.38-.22ZM7,34a3,3,0,0,1-1.19,1.56.94.94,0,0,1-.65.13.8.8,0,0,0,1,.09,3,3,0,0,0,1.19-1.56l.08,0L7.09,34Z"/><path class="a1401e01-51de-491c-b02e-411b06bb1dae" d="M15.28,44.88c0-5.09-3.1-11-6.92-13.22a4.44,4.44,0,0,0-4.45-.4,7.54,7.54,0,0,0-3,4.34c.9-2.56,3.14-3.44,5.77-1.92,3.42,2,6.19,7.27,6.19,11.84,0,3.38-1.53,5.41-3.72,5.42a7.4,7.4,0,0,0,3.44-.32c1.63-.75,2.67-2.78,2.67-5.74Z"/><path class="bfea38c7-6fae-475f-a3b2-6bd9cabfc5b0" d="M13.21,30.3A3,3,0,0,0,15.07,30c.51-.28.69-.69.54-1.06l.61-.33c.46-.25.52-.64.14-.86a1.63,1.63,0,0,0-1.5.05l-.62.32a3,3,0,0,0-1.86.28c-.51.28-.69.69-.54,1.06l-.61.33c-.46.25-.52.64-.14.86a1.66,1.66,0,0,0,1.5-.05l.62-.32Z"/><path class="a16dc6f5-d166-4a1e-93c2-20ea1a5bc4ac" d="M14.86,28.26l-.62.32a3.05,3.05,0,0,0-1.86.27,1.09,1.09,0,0,0-.54.6v0h0a.7.7,0,0,0,0,.43l-.61.32a.82.82,0,0,0-.3.28.47.47,0,0,0,.16.15,1.66,1.66,0,0,0,1.5-.05l.62-.32A3,3,0,0,0,15.07,30a1,1,0,0,0,.54-.59v0h0a.64.64,0,0,0,0-.43l.61-.33a.73.73,0,0,0,.3-.27.39.39,0,0,0-.16-.15A1.63,1.63,0,0,0,14.86,28.26Z"/><path class="b7563e1c-9692-4303-ab40-5a2d23f38177" d="M19,43.59a.79.79,0,0,0,1.17.26,3,3,0,0,0,1.19-1.56L22,42a1.77,1.77,0,0,0,.82-1.38c0-.51-.35-.73-.8-.48l-.59.3a.78.78,0,0,0-1.16-.25A2.88,2.88,0,0,0,19,41.73l-.59.3a1.75,1.75,0,0,0-.82,1.38c0,.52.35.74.79.49l.59-.31Z"/><path class="a16dc6f5-d166-4a1e-93c2-20ea1a5bc4ac" d="M21,40.2a1,1,0,0,0-.13-.16.94.94,0,0,0-.65.13A2.88,2.88,0,0,0,19,41.73l-.59.3a1.75,1.75,0,0,0-.82,1.38.68.68,0,0,0,.09.37.6.6,0,0,0,.32-.1l.59-.3.38.21a.79.79,0,0,0,.14.17,1,1,0,0,0,.65-.13A3,3,0,0,0,21,42.07l.59-.31a1.77,1.77,0,0,0,.82-1.38A.73.73,0,0,0,22.3,40a.65.65,0,0,0-.33.1l-.59.3Z"/><path class="aacb4f5a-97e6-4aff-b542-33162086ffc2" d="M34.06,35.6c0-6,3.67-13.06,8.2-15.67s8.2.16,8.2,6.2-3.67,13.05-8.2,15.67-8.2-.16-8.2-6.2Z"/><path class="f0c83227-4bf6-4dd8-8090-8266b1156787" d="M67.07,35.6a7.54,7.54,0,0,0-3-4.34c-4.08-2.44-15.56-8.87-16.8-9.72s-2.9-.83-4.75.23C38.73,24,35.63,29.89,35.63,35c0,2.82,1,4.72,2.44,5.63,1.27.79,12.66,7.29,17,9.83,0,0,0,0,0,0a3.62,3.62,0,0,0,.33.2,7.4,7.4,0,0,0,3.44.32h-.1a4.77,4.77,0,0,0,2.57-.73c3.42-2,6.2-7.28,6.2-11.84A10,10,0,0,0,67.07,35.6ZM60.91,34c.13-.09.26-.2.39-.28a5.75,5.75,0,0,1,1.42-.58,3,3,0,0,1,.27.57l.59.31a1.77,1.77,0,0,1,.82,1.38.73.73,0,0,1-.09.36.65.65,0,0,1-.33-.1l-.59-.3c-.45.25-.44.26-.38.22a1,1,0,0,1-.13.16.94.94,0,0,1-.65-.13A2.92,2.92,0,0,1,61,34Z"/><path class="f1fe2ac4-4c48-4905-b6c5-8bbc88fe7dc6" d="M60.58,34.19l.08,0a2.92,2.92,0,0,0,1.19,1.56A.78.78,0,0,0,63,35.54l.59.3c.45.25.8,0,.8-.48A1.77,1.77,0,0,0,63.58,34L63,33.67a3.83,3.83,0,0,0-.27-.58c2.73-.73,4.78,1.36,4.78,5.27,0,4.56-2.78,9.86-6.2,11.84s-6.19-.12-6.19-4.68A15.22,15.22,0,0,1,60.58,34.19Z"/><path class="a2b0b916-e715-4655-8a6d-556b2e3d652e" d="M7.42,34.19l-.08,0a3,3,0,0,1-1.19,1.56A.78.78,0,0,1,5,35.54l-.59.3c-.45.25-.81,0-.8-.48A1.75,1.75,0,0,1,4.42,34L5,33.67a3.83,3.83,0,0,1,.27-.58C2.54,32.36.5,34.45.5,38.36c0,4.56,2.78,9.86,6.2,11.84s6.19-.12,6.19-4.68A15.19,15.19,0,0,0,7.42,34.19Z"/><path class="f5268a80-aae6-465d-833c-fa06df1c2605" d="M60.58,34.19l.08,0a2.92,2.92,0,0,0,1.19,1.56A.78.78,0,0,0,63,35.54l.59.3c.45.25.8,0,.8-.48A1.77,1.77,0,0,0,63.58,34L63,33.67a3.83,3.83,0,0,0-.27-.58c2.73-.73,4.78,1.36,4.78,5.27,0,4.56-2.78,9.86-6.2,11.84s-6.19-.12-6.19-4.68A15.22,15.22,0,0,1,60.58,34.19Z"/><path class="f8a7a35c-cb82-4d92-8c0a-ad5d49d552a5" d="M63.39,35.32c-.45.25-.44.26-.38.22l.59.3c.32.18.58.11.71-.12a.65.65,0,0,1-.33-.1ZM60.91,34l-.33.23.08,0a2.92,2.92,0,0,0,1.19,1.56.8.8,0,0,0,1-.09.94.94,0,0,1-.65-.13A2.92,2.92,0,0,1,61,34Z"/><path class="ecb99800-9e4a-4082-bf70-c3258c594441" d="M52.72,44.88c0-5.09,3.1-11,6.92-13.22a4.44,4.44,0,0,1,4.45-.4,7.54,7.54,0,0,1,3,4.34c-.9-2.56-3.14-3.44-5.77-1.92-3.42,2-6.19,7.27-6.19,11.84,0,3.38,1.53,5.41,3.72,5.42a7.4,7.4,0,0,1-3.44-.32c-1.63-.75-2.67-2.78-2.67-5.74Z"/><path class="b86b6551-4493-4fe8-9079-a8464a4caa79" d="M54.79,30.3A3,3,0,0,1,52.93,30c-.51-.28-.69-.69-.54-1.06l-.61-.33c-.46-.25-.52-.64-.14-.86a1.63,1.63,0,0,1,1.5.05l.62.32a3,3,0,0,1,1.86.28c.51.28.69.69.54,1.06l.61.33c.45.25.52.64.14.86a1.68,1.68,0,0,1-1.51-.05l-.61-.32Z"/><path class="a16dc6f5-d166-4a1e-93c2-20ea1a5bc4ac" d="M53.14,28.26l.62.32a3.05,3.05,0,0,1,1.86.27,1.09,1.09,0,0,1,.54.6v0h0a.7.7,0,0,1,0,.43l.61.32a.91.91,0,0,1,.3.28.58.58,0,0,1-.16.15,1.68,1.68,0,0,1-1.51-.05l-.61-.32A3,3,0,0,1,52.93,30a1,1,0,0,1-.54-.59v0h0a.64.64,0,0,1,0-.43l-.61-.33a.73.73,0,0,1-.3-.27.39.39,0,0,1,.16-.15A1.63,1.63,0,0,1,53.14,28.26Z"/><path class="efbbaff8-ff39-4e50-8053-04a73e023860" d="M49,43.59a.79.79,0,0,1-1.17.26,3,3,0,0,1-1.19-1.56L46.05,42a1.75,1.75,0,0,1-.82-1.38c0-.51.35-.73.8-.48l.59.3a.78.78,0,0,1,1.16-.25A2.93,2.93,0,0,1,49,41.73l.59.3a1.78,1.78,0,0,1,.82,1.38c0,.52-.35.74-.8.49L49,43.59Z"/><path class="a16dc6f5-d166-4a1e-93c2-20ea1a5bc4ac" d="M47,40.2a.65.65,0,0,1,.13-.16.94.94,0,0,1,.65.13A2.93,2.93,0,0,1,49,41.73l.59.3a1.78,1.78,0,0,1,.82,1.38.68.68,0,0,1-.09.37.65.65,0,0,1-.33-.1l-.58-.3-.38.21a.79.79,0,0,1-.14.17,1,1,0,0,1-.65-.13A3,3,0,0,1,47,42.07l-.59-.31a1.75,1.75,0,0,1-.82-1.38A.64.64,0,0,1,45.7,40a.65.65,0,0,1,.33.1l.59.3Z"/></svg>