<svg id="fcd158f9-d9e5-444c-837e-9067a9be3711" data-name="Layer 1" xmlns="http://www.w3.org/2000/svg" xmlns:xlink="http://www.w3.org/1999/xlink" width="50" height="41" viewBox="0 0 50 41"><defs><style>.b2eb0f42-fd35-4630-ab81-43c92a4b9b0f{fill:url(#bbf32a2e-32dd-4546-be56-3429be39894f);}.ed3729c3-4d20-4787-8f33-237ba0879285{fill:url(#a7a6f7e0-d3ac-4983-9f79-d49507294759);}.ba642f54-dc47-485d-b5a5-25e54876b8d1{fill:url(#b49bf126-279e-4023-9b02-b98c8cd9cbe4);}.a49df8c4-1b16-494f-8ba5-e88b80ace86c{fill:url(#b6f2299c-1558-4e01-acb5-5635ecfa4e68);}.ee866e49-8457-4c0f-a953-ce52841e8891{fill:url(#eaab658c-0f74-4097-ace1-3076f984c6ea);}.eeced42f-c391-47bf-a8c2-bfd596322515{fill:url(#a69717e8-3ed6-4834-a248-2408c98f138a);}.a4a7545e-d622-435a-8125-6fafeaadc401{fill:url(#ab3f2250-e7e1-496e-88d3-08393d7546a2);}.a4eb333b-3a84-433c-bb47-afe7aed7b9a7{fill:url(#ff1676d1-9589-4614-9cbd-56e9688c94f0);}.fe8190c9-9669-4a75-824c-5e6526586ee6{fill:url(#a1bdf06a-6978-43c0-ab45-16d626c66156);}.f8eb7249-0fbc-4d68-8913-6227a55fe0b5{fill:url(#ab6669f8-acbe-4184-8688-5d6a4c95cad1);}.f4d92dc3-601f-4bcf-b660-15988136d90e{fill:url(#be478a73-a04c-4314-8cc4-e875aeea21d4);}.f8875a1f-b25d-444d-b91f-2e38a1971dc7{fill:url(#b7dd701e-32ad-4eb3-a2f1-13ac84c00337);}.b52b4f80-699d-498e-8a20-adad80b3871e{fill:#333332;}.ba56b088-0220-4f3b-bec9-71fe5ebd8e6d{fill:url(#e4c52562-77ce-4a87-8876-7a49d1b5eefb);}</style><linearGradient id="bbf32a2e-32dd-4546-be56-3429be39894f" x1="4.23" y1="36.11" x2="11.49" y2="9.27" gradientUnits="userSpaceOnUse"><stop offset="0" stop-color="#3c3c3b"/><stop offset="1" stop-color="#6f6f6e"/></linearGradient><linearGradient id="a7a6f7e0-d3ac-4983-9f79-d49507294759" x1="12.48" y1="4.07" x2="26.39" y2="28.16" gradientUnits="userSpaceOnUse"><stop offset="0" stop-color="#868686"/><stop offset="0.15" stop-color="#9c9b9b"/><stop offset="0.48" stop-color="#6f6f6e"/><stop offset="0.7" stop-color="#3c3c3b"/></linearGradient><linearGradient id="b49bf126-279e-4023-9b02-b98c8cd9cbe4" x1="3.32" y1="12.33" x2="13.32" y2="29.64" gradientUnits="userSpaceOnUse"><stop offset="0.13" stop-color="#3c3c3b"/><stop offset="0.5" stop-color="#575756"/><stop offset="0.77" stop-color="#6f6f6e"/><stop offset="1" stop-color="#9c9b9b"/></linearGradient><linearGradient id="b6f2299c-1558-4e01-acb5-5635ecfa4e68" x1="3.32" y1="23.87" x2="13.32" y2="18.1" gradientUnits="userSpaceOnUse"><stop offset="0" stop-color="#1d1d1b" stop-opacity="0"/><stop offset="1" stop-color="#1d1d1b" stop-opacity="0.6"/></linearGradient><linearGradient id="eaab658c-0f74-4097-ace1-3076f984c6ea" x1="19.5" y1="19.91" x2="26.47" y2="8.53" gradientUnits="userSpaceOnUse"><stop offset="0" stop-color="#575756"/><stop offset="0.38" stop-color="#6f6f6e"/><stop offset="0.71" stop-color="#b1b1b1"/><stop offset="1" stop-color="#868686"/></linearGradient><linearGradient id="a69717e8-3ed6-4834-a248-2408c98f138a" x1="24.26" y1="23.95" x2="20.64" y2="43.87" xlink:href="#bbf32a2e-32dd-4546-be56-3429be39894f"/><linearGradient id="ab3f2250-e7e1-496e-88d3-08393d7546a2" x1="-980.55" y1="17.66" x2="-968.52" y2="38.48" gradientTransform="matrix(-1, 0, 0, 1, -941.43, 0)" gradientUnits="userSpaceOnUse"><stop offset="0" stop-color="#868686"/><stop offset="0.35" stop-color="#9c9b9b"/><stop offset="0.65" stop-color="#6f6f6e"/><stop offset="1" stop-color="#3c3c3b"/></linearGradient><linearGradient id="ff1676d1-9589-4614-9cbd-56e9688c94f0" x1="-989.61" y1="24.22" x2="-978.86" y2="42.81" gradientTransform="matrix(-1, 0, 0, 1, -941.43, 0)" gradientUnits="userSpaceOnUse"><stop offset="0.16" stop-color="#3c3c3b"/><stop offset="0.64" stop-color="#6f6f6e"/><stop offset="0.89" stop-color="#9c9b9b"/></linearGradient><linearGradient id="a1bdf06a-6978-43c0-ab45-16d626c66156" x1="-989.6" y1="34.59" x2="-978.87" y2="28.4" gradientTransform="matrix(-1, 0, 0, 1, -941.43, 0)" xlink:href="#b6f2299c-1558-4e01-acb5-5635ecfa4e68"/><linearGradient id="ab6669f8-acbe-4184-8688-5d6a4c95cad1" x1="-984.32" y1="23.6" x2="-987.71" y2="26.63" gradientTransform="matrix(-1, 0, 0, 1, -941.43, 0)" gradientUnits="userSpaceOnUse"><stop offset="0" stop-color="#868686"/><stop offset="1" stop-color="#c6c6c5"/></linearGradient><linearGradient id="be478a73-a04c-4314-8cc4-e875aeea21d4" x1="-988.44" y1="22.28" x2="-975.76" y2="41.28" gradientTransform="matrix(-1, 0, 0, 1, -941.43, 0)" gradientUnits="userSpaceOnUse"><stop offset="0" stop-color="#868686"/><stop offset="0.35" stop-color="#b1b1b1"/><stop offset="0.65" stop-color="#6f6f6e"/><stop offset="1" stop-color="#3c3c3b"/></linearGradient><linearGradient id="b7dd701e-32ad-4eb3-a2f1-13ac84c00337" x1="-973.78" y1="18.46" x2="-979.92" y2="19.72" xlink:href="#ab6669f8-acbe-4184-8688-5d6a4c95cad1"/><linearGradient id="e4c52562-77ce-4a87-8876-7a49d1b5eefb" x1="-971.94" y1="33.31" x2="-970.98" y2="28.59" xlink:href="#ab3f2250-e7e1-496e-88d3-08393d7546a2"/></defs><title>ch1-scaled</title><path class="b2eb0f42-fd35-4630-ab81-43c92a4b9b0f" d="M16.47,25.69c0-6-3.65-13-8.15-15.58S.17,10.27.17,16.28s3.65,13,8.15,15.57,8.15-.15,8.15-6.16Z"/><path class="ed3729c3-4d20-4787-8f33-237ba0879285" d="M18.2,18.33c1.5-3.52,3.89-6.66,6.6-8.22s5.2-1.17,6.67.77a23.8,23.8,0,0,0-5.72-7.07,11.89,11.89,0,0,0-2.5-2,5.52,5.52,0,0,0-6,0c-3.52,1.91-13,6.55-14.95,8.29a5.35,5.35,0,0,1,6,0c4.5,2.6,8.15,9.58,8.15,15.58,0,3.27-1.08,5.58-2.8,6.58a9,9,0,0,1,5.71,0c-1.65-1-2.4-3.3-2.72-6.53a19.34,19.34,0,0,1,1.56-7.36Z"/><path class="ba642f54-dc47-485d-b5a5-25e54876b8d1" d="M14.86,24.76c0-4.82-2.93-10.41-6.54-12.5s-6.54.13-6.54,4.94S4.71,27.62,8.32,29.71s6.54-.13,6.54-4.95Z"/><path class="a49df8c4-1b16-494f-8ba5-e88b80ace86c" d="M14.86,24.76c0-4.82-2.93-10.41-6.54-12.5s-6.54.13-6.54,4.94S4.71,27.62,8.32,29.71s6.54-.13,6.54-4.95Z"/><path class="ee866e49-8457-4c0f-a953-ce52841e8891" d="M31,10.37c-.58-.54-7-4.15-10.86-3-4.2,3.17-3.5,18.55-3.5,18.55l4.73,3.05,9.7-18.43Z"/><path class="eeced42f-c391-47bf-a8c2-bfd596322515" d="M16.64,25.69c0-6,3.65-13,8.16-15.58S33,10.27,33,16.28s-3.65,13-8.15,15.57-8.16-.15-8.16-6.16Z"/><path class="a4a7545e-d622-435a-8125-6fafeaadc401" d="M49.41,25.69a7.48,7.48,0,0,0-3-4.31C42.38,19,31,12.56,29.75,11.72s-2.9-.84-4.72.22c-3.8,2.19-6.88,8.07-6.88,13.14,0,2.8,1,4.69,2.43,5.59,1.26.79,12.71,7.36,17,9.88a1.36,1.36,0,0,1-.12-.12c.11.06.21.14.32.19a7.33,7.33,0,0,0,3.42.32h-.09a4.73,4.73,0,0,0,2.55-.73c3.41-2,6.16-7.23,6.16-11.76A9.62,9.62,0,0,0,49.41,25.69Zm-6.13-1.63c.14-.09.26-.2.39-.28a5.7,5.7,0,0,1,1.42-.57,3.2,3.2,0,0,1,.26.56l.59.31a1.73,1.73,0,0,1,.81,1.37.64.64,0,0,1-.09.36.6.6,0,0,1-.32-.1l-.59-.3c-.45.25-.44.26-.37.22a1.07,1.07,0,0,1-.14.16,1,1,0,0,1-.65-.13,2.93,2.93,0,0,1-1.18-1.55Z"/><path class="a4eb333b-3a84-433c-bb47-afe7aed7b9a7" d="M43,24.29l.07,0a3,3,0,0,0,1.19,1.55.79.79,0,0,0,1.16-.25l.58.3c.44.25.8,0,.79-.48a1.73,1.73,0,0,0-.81-1.37l-.59-.31a4.35,4.35,0,0,0-.27-.58c2.72-.72,4.75,1.36,4.75,5.25,0,4.53-2.75,9.8-6.16,11.76s-6.16-.12-6.16-4.65A15.12,15.12,0,0,1,43,24.29Z"/><path class="fe8190c9-9669-4a75-824c-5e6526586ee6" d="M43,24.29l.07,0a3,3,0,0,0,1.19,1.55.79.79,0,0,0,1.16-.25l.58.3c.44.25.8,0,.79-.48a1.73,1.73,0,0,0-.81-1.37l-.59-.31a4.35,4.35,0,0,0-.27-.58c2.72-.72,4.75,1.36,4.75,5.25,0,4.53-2.75,9.8-6.16,11.76s-6.16-.12-6.16-4.65A15.12,15.12,0,0,1,43,24.29Z"/><path class="f8eb7249-0fbc-4d68-8913-6227a55fe0b5" d="M45.75,25.41c-.45.25-.44.26-.37.22l.58.3c.31.18.57.11.7-.12a.6.6,0,0,1-.32-.1Zm-2.47-1.35-.32.23.07,0a3,3,0,0,0,1.19,1.55.78.78,0,0,0,1-.09,1,1,0,0,1-.65-.13,2.93,2.93,0,0,1-1.18-1.55Z"/><path class="f4d92dc3-601f-4bcf-b660-15988136d90e" d="M35.14,34.92c0-5.07,3.08-11,6.88-13.14a4.41,4.41,0,0,1,4.43-.4,7.48,7.48,0,0,1,3,4.31c-.9-2.54-3.13-3.42-5.74-1.91-3.4,2-6.16,7.23-6.16,11.77,0,3.36,1.53,5.38,3.7,5.39a7.33,7.33,0,0,1-3.42-.32c-1.61-.75-2.65-2.76-2.65-5.7Z"/><path class="f8875a1f-b25d-444d-b91f-2e38a1971dc7" d="M37.2,20.42a3,3,0,0,1-1.85-.27c-.51-.29-.69-.69-.53-1.06l-.62-.32c-.45-.26-.51-.64-.13-.87a1.67,1.67,0,0,1,1.49.05l.61.33a3,3,0,0,1,1.85.27c.51.28.69.69.54,1.06l.61.32c.45.25.51.64.14.86a1.66,1.66,0,0,1-1.5-.05l-.61-.32Z"/><path class="b52b4f80-699d-498e-8a20-adad80b3871e" d="M35.56,18.39l.61.32A3,3,0,0,1,38,19a1,1,0,0,1,.54.59v0h0a.63.63,0,0,1,0,.43l.61.33a.76.76,0,0,1,.29.27.53.53,0,0,1-.15.15,1.66,1.66,0,0,1-1.5-.05l-.61-.32a3,3,0,0,1-1.85-.27,1.09,1.09,0,0,1-.54-.6,0,0,0,0,1,0,0h0a.63.63,0,0,1,0-.43l-.62-.32a.78.78,0,0,1-.29-.28.47.47,0,0,1,.16-.15A1.67,1.67,0,0,1,35.56,18.39Z"/><path class="ba56b088-0220-4f3b-bec9-71fe5ebd8e6d" d="M31.44,33.64a.78.78,0,0,1-1.16.25,2.93,2.93,0,0,1-1.18-1.55L28.51,32a1.73,1.73,0,0,1-.81-1.37c0-.51.34-.73.79-.48l.58.3a.79.79,0,0,1,1.16-.25,3,3,0,0,1,1.19,1.55l.58.31a1.74,1.74,0,0,1,.82,1.37c0,.51-.35.73-.79.48l-.59-.3Z"/><path class="b52b4f80-699d-498e-8a20-adad80b3871e" d="M29.45,30.27a.79.79,0,0,1,.14-.17,1,1,0,0,1,.64.13,3,3,0,0,1,1.19,1.55l.58.31a1.74,1.74,0,0,1,.82,1.37.73.73,0,0,1-.09.36.75.75,0,0,1-.33-.09l-.58-.31-.38.22a.73.73,0,0,1-.14.16.92.92,0,0,1-.64-.13,3,3,0,0,1-1.19-1.55l-.58-.3a1.79,1.79,0,0,1-.82-1.37.81.81,0,0,1,.09-.37,1,1,0,0,1,.33.1l.58.3Z"/></svg>