<svg id="e5ac3675-7c46-4e8e-8172-bbdaa5c253c6" data-name="Layer 1" xmlns="http://www.w3.org/2000/svg" xmlns:xlink="http://www.w3.org/1999/xlink" width="68" height="38" viewBox="0 0 68 38"><defs><style>.e3f72a11-c941-49c5-95fc-6afcaf78fed8{fill:url(#afecb5cb-6091-4f49-99e0-f8e828b26681);}.af21cbb3-9c03-455b-b86a-585992343683{fill:url(#b69248d6-975f-44d0-be4c-0cf5970f00b3);}.e31bc646-466e-4666-8a5e-511ce783aab2{fill:url(#e36a1b5e-2d46-445c-9b8a-e68d2b1c0b6d);}.acc24658-d20c-4695-b618-5f21b6df91d4{fill:url(#b375e74d-6a45-4c90-8883-d29134bbbd58);}.b386d4ab-53f1-4761-8c65-4096c9635315{fill:url(#bc82a0fb-035c-4903-a2e2-1f1dcbfbdeaa);}.f246c196-df14-4913-8a36-849f71a10abd{fill:url(#f2433ef7-88a9-4e93-8d19-4912ed33503d);}.bc3d30d0-3f03-41e7-9175-652a6cfec8f4{fill:url(#a352c9bf-7490-4c52-8198-3c9832188beb);}.ecb65487-475b-461c-a8b6-5c5578c052da{fill:url(#a191144a-1fc7-49fb-888b-6bbeaa0eb52b);}.b3769bb7-7795-4771-b243-76dc462e5045{fill:url(#a283c270-b189-497c-9809-b788679c4d67);}.af478d39-3c01-4ffe-84e0-87d85826cdf9{fill:#333332;}.bbcb06ae-c29a-4534-8c37-5a30c30c291d{fill:url(#a171b155-96ac-42b6-a434-62bc8858227d);}.ba80487a-9237-4d29-ac81-355681bc9cda{fill:url(#fc2f8f09-1ddd-4399-8f47-88764b4a10ae);}.a299cf42-49b6-4b29-aac5-767801042310{fill:url(#b295883b-e996-4067-bcbe-5451f5988bdf);}.a340270a-ae76-4228-977f-7115612f742d{fill:url(#e583f110-443e-432b-8b17-f2ce0beb719c);}.e4698bc1-6fa4-4c7d-847f-9f0a738a70a6{fill:url(#a5bd5a57-f4ee-4244-82a7-d38018f73729);}.a5cfab42-99fe-4570-9ed2-56fb537238ac{fill:url(#e504989a-ad07-4703-bfab-26ab15807f12);}.f04510f3-e146-4f84-9445-0562c09957dd{fill:url(#a78526b7-d41b-4f14-b4fa-3813333ae68b);}.a9eee209-3517-49f3-b20a-1ae51f18c65c{fill:url(#e3ea1bd5-fa8c-4df9-b346-28f7f39823ce);}.a14c4ad4-c8ff-4bf7-b0ef-82d089977508{fill:url(#e766a434-3fbf-46f0-b2f6-6508fdc6726b);}</style><linearGradient id="afecb5cb-6091-4f49-99e0-f8e828b26681" x1="33.83" y1="17.9" x2="42.32" y2="4.05" gradientUnits="userSpaceOnUse"><stop offset="0" stop-color="#3c3c3b"/><stop offset="0.38" stop-color="#6f6f6e"/><stop offset="0.71" stop-color="#b1b1b1"/><stop offset="1" stop-color="#868686"/></linearGradient><linearGradient id="b69248d6-975f-44d0-be4c-0cf5970f00b3" x1="-478.32" y1="17.99" x2="-469.93" y2="4.28" gradientTransform="matrix(-1, 0, 0, 1, -444.14, 0)" xlink:href="#afecb5cb-6091-4f49-99e0-f8e828b26681"/><linearGradient id="e36a1b5e-2d46-445c-9b8a-e68d2b1c0b6d" x1="25.78" y1="15.08" x2="24.75" y2="43.68" gradientUnits="userSpaceOnUse"><stop offset="0" stop-color="#3c3c3b"/><stop offset="1" stop-color="#6f6f6e"/></linearGradient><linearGradient id="b375e74d-6a45-4c90-8883-d29134bbbd58" x1="-36.79" y1="14.52" x2="-24.71" y2="35.44" gradientTransform="translate(48.07)" gradientUnits="userSpaceOnUse"><stop offset="0" stop-color="#868686"/><stop offset="0.35" stop-color="#9c9b9b"/><stop offset="0.65" stop-color="#6f6f6e"/><stop offset="1" stop-color="#3c3c3b"/></linearGradient><linearGradient id="bc82a0fb-035c-4903-a2e2-1f1dcbfbdeaa" x1="-45.9" y1="21.12" x2="-35.09" y2="39.82" gradientTransform="translate(48.07)" gradientUnits="userSpaceOnUse"><stop offset="0.16" stop-color="#3c3c3b"/><stop offset="0.64" stop-color="#6f6f6e"/><stop offset="0.89" stop-color="#9c9b9b"/></linearGradient><linearGradient id="f2433ef7-88a9-4e93-8d19-4912ed33503d" x1="-45.51" y1="33.08" x2="-35.64" y2="23.21" gradientTransform="translate(48.07)" gradientUnits="userSpaceOnUse"><stop offset="0.2" stop-color="#1d1d1b" stop-opacity="0"/><stop offset="1" stop-color="#1d1d1b"/></linearGradient><linearGradient id="a352c9bf-7490-4c52-8198-3c9832188beb" x1="-40.59" y1="20.5" x2="-44" y2="23.55" gradientTransform="translate(48.07)" gradientUnits="userSpaceOnUse"><stop offset="0" stop-color="#868686"/><stop offset="1" stop-color="#c6c6c5"/></linearGradient><linearGradient id="a191144a-1fc7-49fb-888b-6bbeaa0eb52b" x1="-44.73" y1="19.17" x2="-31.98" y2="38.28" gradientTransform="translate(48.07)" gradientUnits="userSpaceOnUse"><stop offset="0" stop-color="#868686"/><stop offset="0.35" stop-color="#b1b1b1"/><stop offset="0.65" stop-color="#6f6f6e"/><stop offset="1" stop-color="#3c3c3b"/></linearGradient><linearGradient id="a283c270-b189-497c-9809-b788679c4d67" x1="-29.98" y1="15.33" x2="-36.16" y2="16.59" xlink:href="#a352c9bf-7490-4c52-8198-3c9832188beb"/><linearGradient id="a171b155-96ac-42b6-a434-62bc8858227d" x1="-28.13" y1="30.27" x2="-27.17" y2="25.52" xlink:href="#b375e74d-6a45-4c90-8883-d29134bbbd58"/><linearGradient id="fc2f8f09-1ddd-4399-8f47-88764b4a10ae" x1="42.34" y1="17.66" x2="34.32" y2="37.42" xlink:href="#e36a1b5e-2d46-445c-9b8a-e68d2b1c0b6d"/><linearGradient id="b295883b-e996-4067-bcbe-5451f5988bdf" x1="-531.89" y1="14.52" x2="-519.8" y2="35.44" gradientTransform="matrix(-1, 0, 0, 1, -475.16, 0)" xlink:href="#b375e74d-6a45-4c90-8883-d29134bbbd58"/><linearGradient id="e583f110-443e-432b-8b17-f2ce0beb719c" x1="-541" y1="21.12" x2="-530.18" y2="39.82" gradientTransform="matrix(-1, 0, 0, 1, -475.16, 0)" xlink:href="#bc82a0fb-035c-4903-a2e2-1f1dcbfbdeaa"/><linearGradient id="a5bd5a57-f4ee-4244-82a7-d38018f73729" x1="-540.61" y1="33.08" x2="-530.73" y2="23.21" gradientTransform="matrix(-1, 0, 0, 1, -475.16, 0)" xlink:href="#f2433ef7-88a9-4e93-8d19-4912ed33503d"/><linearGradient id="e504989a-ad07-4703-bfab-26ab15807f12" x1="-535.68" y1="20.5" x2="-539.09" y2="23.55" gradientTransform="matrix(-1, 0, 0, 1, -475.16, 0)" xlink:href="#a352c9bf-7490-4c52-8198-3c9832188beb"/><linearGradient id="a78526b7-d41b-4f14-b4fa-3813333ae68b" x1="-539.83" y1="19.17" x2="-527.07" y2="38.28" gradientTransform="matrix(-1, 0, 0, 1, -475.16, 0)" xlink:href="#a191144a-1fc7-49fb-888b-6bbeaa0eb52b"/><linearGradient id="e3ea1bd5-fa8c-4df9-b346-28f7f39823ce" x1="-525.07" y1="15.33" x2="-531.25" y2="16.59" gradientTransform="matrix(-1, 0, 0, 1, -475.16, 0)" xlink:href="#a352c9bf-7490-4c52-8198-3c9832188beb"/><linearGradient id="e766a434-3fbf-46f0-b2f6-6508fdc6726b" x1="-523.22" y1="30.27" x2="-522.26" y2="25.52" gradientTransform="matrix(-1, 0, 0, 1, -475.16, 0)" xlink:href="#b375e74d-6a45-4c90-8883-d29134bbbd58"/></defs><title>cs2-scaled</title><path class="e3f72a11-c941-49c5-95fc-6afcaf78fed8" d="M48.27,7C47.7,6.42,41.69,1,34,1L32.9,12.56l1.09,15,3,1.71L48.35,7.09Z"/><path class="af21cbb3-9c03-455b-b86a-585992343683" d="M19.71,7C20.28,6.42,28.35,1,34,1V27.59L30.93,29.3,19.63,7.09Z"/><path class="e31bc646-466e-4666-8a5e-511ce783aab2" d="M33.89,22.6c0-6-3.68-13.06-8.21-15.67s-8.2.16-8.2,6.2,3.67,13.05,8.2,15.67,8.21-.16,8.21-6.2Z"/><path class="acc24658-d20c-4695-b618-5f21b6df91d4" d="M.5,25.36c0,4.56,2.78,9.86,6.2,11.84a4.77,4.77,0,0,0,2.57.73h-.1a7.4,7.4,0,0,0,3.44-.32l.33-.19-.06,0c4.33-2.54,15.78-9.08,17-9.87,1.44-.91,2.44-2.8,2.44-5.62,0-5.1-3.1-11-6.92-13.22-1.83-1.06-3.51-1.07-4.75-.22S8,15.82,3.91,18.26a7.54,7.54,0,0,0-3,4.34A10,10,0,0,0,.5,25.36ZM7,21a2.93,2.93,0,0,1-1.19,1.56.94.94,0,0,1-.65.13A.51.51,0,0,1,5,22.54c.06,0,.07,0-.38-.22l-.59.3a.65.65,0,0,1-.33.1.73.73,0,0,1-.09-.36A1.75,1.75,0,0,1,4.42,21L5,20.67a3,3,0,0,1,.27-.57,5.91,5.91,0,0,1,1.42.58c.13.08.26.19.39.28Z"/><path class="b386d4ab-53f1-4761-8c65-4096c9635315" d="M7.42,21.19l-.08,0a2.93,2.93,0,0,1-1.19,1.56A.78.78,0,0,1,5,22.54l-.59.3c-.45.25-.81,0-.8-.48A1.75,1.75,0,0,1,4.42,21L5,20.67a3.83,3.83,0,0,1,.27-.58C2.54,19.36.5,21.45.5,25.36c0,4.56,2.78,9.86,6.2,11.84s6.19-.12,6.19-4.68A15.19,15.19,0,0,0,7.42,21.19Z"/><path class="f246c196-df14-4913-8a36-849f71a10abd" d="M7.42,21.19l-.08,0a2.93,2.93,0,0,1-1.19,1.56A.78.78,0,0,1,5,22.54l-.59.3c-.45.25-.81,0-.8-.48A1.75,1.75,0,0,1,4.42,21L5,20.67a3.83,3.83,0,0,1,.27-.58C2.54,19.36.5,21.45.5,25.36c0,4.56,2.78,9.86,6.2,11.84s6.19-.12,6.19-4.68A15.19,15.19,0,0,0,7.42,21.19Z"/><path class="bc3d30d0-3f03-41e7-9175-652a6cfec8f4" d="M4,22.62a.65.65,0,0,1-.33.1c.13.23.39.3.71.12l.59-.3c.06,0,.07,0-.38-.22ZM7,21a2.93,2.93,0,0,1-1.19,1.56.94.94,0,0,1-.65.13.8.8,0,0,0,1,.09,2.93,2.93,0,0,0,1.19-1.56l.08,0L7.09,21Z"/><path class="ecb65487-475b-461c-a8b6-5c5578c052da" d="M15.28,31.88c0-5.09-3.1-11-6.92-13.21a4.45,4.45,0,0,0-4.45-.41,7.54,7.54,0,0,0-3,4.34c.9-2.55,3.14-3.44,5.77-1.92,3.42,2,6.19,7.27,6.19,11.84,0,3.38-1.53,5.41-3.72,5.42a7.4,7.4,0,0,0,3.44-.32c1.63-.75,2.67-2.78,2.67-5.74Z"/><path class="b3769bb7-7795-4771-b243-76dc462e5045" d="M13.21,17.3A3,3,0,0,0,15.07,17c.51-.28.69-.69.54-1.06l.61-.32c.46-.26.52-.65.14-.87a1.66,1.66,0,0,0-1.5.05l-.62.32a3,3,0,0,0-1.86.28c-.51.28-.69.69-.54,1.06l-.61.33c-.46.25-.52.64-.14.86a1.63,1.63,0,0,0,1.5-.05l.62-.32Z"/><path class="af478d39-3c01-4ffe-84e0-87d85826cdf9" d="M14.86,15.26l-.62.32a3,3,0,0,0-1.86.28,1,1,0,0,0-.54.59v0h0a.7.7,0,0,0,0,.43l-.61.33a.8.8,0,0,0-.3.27.47.47,0,0,0,.16.15,1.63,1.63,0,0,0,1.5-.05l.62-.32A3,3,0,0,0,15.07,17a1,1,0,0,0,.54-.59v0h0a.64.64,0,0,0,0-.43l.61-.32a.82.82,0,0,0,.3-.28.39.39,0,0,0-.16-.15A1.63,1.63,0,0,0,14.86,15.26Z"/><path class="bbcb06ae-c29a-4534-8c37-5a30c30c291d" d="M19,30.6a.79.79,0,0,0,1.17.25,3,3,0,0,0,1.19-1.56L22,29a1.77,1.77,0,0,0,.82-1.38c0-.51-.35-.73-.8-.48l-.59.3a.78.78,0,0,0-1.16-.25A2.92,2.92,0,0,0,19,28.73l-.59.3a1.75,1.75,0,0,0-.82,1.39c0,.51.35.73.79.48l.59-.3Z"/><path class="af478d39-3c01-4ffe-84e0-87d85826cdf9" d="M21,27.2a1,1,0,0,0-.13-.16.94.94,0,0,0-.65.13A2.92,2.92,0,0,0,19,28.73l-.59.3a1.75,1.75,0,0,0-.82,1.39.66.66,0,0,0,.09.36.6.6,0,0,0,.32-.1l.59-.3.38.22a1.07,1.07,0,0,0,.14.16,1,1,0,0,0,.65-.13A3,3,0,0,0,21,29.07l.59-.31a1.77,1.77,0,0,0,.82-1.38A.76.76,0,0,0,22.3,27a.65.65,0,0,0-.33.1l-.59.3Z"/><path class="ba80487a-9237-4d29-ac81-355681bc9cda" d="M34.06,22.6c0-6,3.67-13.06,8.2-15.67s8.2.16,8.2,6.2-3.67,13.05-8.2,15.67-8.2-.16-8.2-6.2Z"/><path class="a299cf42-49b6-4b29-aac5-767801042310" d="M67.07,22.6a7.54,7.54,0,0,0-3-4.34C60,15.82,48.53,9.39,47.29,8.55s-2.9-.84-4.75.22C38.73,11,35.63,16.89,35.63,22c0,2.82,1,4.71,2.44,5.62,1.27.79,12.62,7.27,17,9.81,0,0,.08,0,0,0l.33.19a7.4,7.4,0,0,0,3.44.32h-.1a4.77,4.77,0,0,0,2.57-.73c3.42-2,6.2-7.28,6.2-11.84A10,10,0,0,0,67.07,22.6ZM60.91,21c.13-.09.26-.2.39-.28a5.75,5.75,0,0,1,1.42-.58,3,3,0,0,1,.27.57l.59.31a1.77,1.77,0,0,1,.82,1.38.73.73,0,0,1-.09.36.65.65,0,0,1-.33-.1l-.59-.3c-.45.25-.44.26-.38.22a.7.7,0,0,1-.13.16.94.94,0,0,1-.65-.13A2.88,2.88,0,0,1,61,21Z"/><path class="a340270a-ae76-4228-977f-7115612f742d" d="M60.58,21.19l.08,0a2.88,2.88,0,0,0,1.19,1.56A.78.78,0,0,0,63,22.54l.59.3c.45.25.8,0,.8-.48A1.77,1.77,0,0,0,63.58,21L63,20.67a3.83,3.83,0,0,0-.27-.58c2.73-.73,4.78,1.36,4.78,5.27,0,4.56-2.78,9.86-6.2,11.84s-6.19-.12-6.19-4.68A15.22,15.22,0,0,1,60.58,21.19Z"/><path class="e4698bc1-6fa4-4c7d-847f-9f0a738a70a6" d="M60.58,21.19l.08,0a2.88,2.88,0,0,0,1.19,1.56A.78.78,0,0,0,63,22.54l.59.3c.45.25.8,0,.8-.48A1.77,1.77,0,0,0,63.58,21L63,20.67a3.83,3.83,0,0,0-.27-.58c2.73-.73,4.78,1.36,4.78,5.27,0,4.56-2.78,9.86-6.2,11.84s-6.19-.12-6.19-4.68A15.22,15.22,0,0,1,60.58,21.19Z"/><path class="a5cfab42-99fe-4570-9ed2-56fb537238ac" d="M63.39,22.32c-.45.25-.44.26-.38.22l.59.3c.32.18.58.11.71-.12a.65.65,0,0,1-.33-.1ZM60.91,21l-.33.23.08,0a2.88,2.88,0,0,0,1.19,1.56.8.8,0,0,0,1-.09.94.94,0,0,1-.65-.13A2.88,2.88,0,0,1,61,21Z"/><path class="f04510f3-e146-4f84-9445-0562c09957dd" d="M52.72,31.88c0-5.09,3.1-11,6.92-13.21a4.45,4.45,0,0,1,4.45-.41,7.54,7.54,0,0,1,3,4.34c-.9-2.55-3.14-3.44-5.77-1.92-3.42,2-6.19,7.27-6.19,11.84,0,3.38,1.53,5.41,3.72,5.42a7.4,7.4,0,0,1-3.44-.32c-1.63-.75-2.67-2.78-2.67-5.74Z"/><path class="a9eee209-3517-49f3-b20a-1ae51f18c65c" d="M54.79,17.3A3,3,0,0,1,52.93,17c-.51-.28-.69-.69-.54-1.06l-.61-.32c-.46-.26-.52-.65-.14-.87a1.66,1.66,0,0,1,1.5.05l.62.32a3,3,0,0,1,1.86.28c.51.28.69.69.54,1.06l.61.33c.45.25.52.64.14.86a1.65,1.65,0,0,1-1.51-.05l-.61-.32Z"/><path class="af478d39-3c01-4ffe-84e0-87d85826cdf9" d="M53.14,15.26l.62.32a3,3,0,0,1,1.86.28,1,1,0,0,1,.54.59v0h0a.7.7,0,0,1,0,.43l.61.33a.89.89,0,0,1,.3.27.58.58,0,0,1-.16.15,1.65,1.65,0,0,1-1.51-.05l-.61-.32A3,3,0,0,1,52.93,17a1,1,0,0,1-.54-.59v0h0a.64.64,0,0,1,0-.43l-.61-.32a.82.82,0,0,1-.3-.28.39.39,0,0,1,.16-.15A1.63,1.63,0,0,1,53.14,15.26Z"/><path class="a14c4ad4-c8ff-4bf7-b0ef-82d089977508" d="M49,30.6a.79.79,0,0,1-1.17.25,3,3,0,0,1-1.19-1.56L46.05,29a1.75,1.75,0,0,1-.82-1.38c0-.51.35-.73.8-.48l.59.3a.78.78,0,0,1,1.16-.25A3,3,0,0,1,49,28.73l.59.3a1.78,1.78,0,0,1,.82,1.39c0,.51-.35.73-.8.48L49,30.6Z"/><path class="af478d39-3c01-4ffe-84e0-87d85826cdf9" d="M47,27.2a.65.65,0,0,1,.13-.16.94.94,0,0,1,.65.13A3,3,0,0,1,49,28.73l.59.3a1.78,1.78,0,0,1,.82,1.39.66.66,0,0,1-.09.36.65.65,0,0,1-.33-.1l-.58-.3L49,30.6a1.07,1.07,0,0,1-.14.16,1,1,0,0,1-.65-.13A3,3,0,0,1,47,29.07l-.59-.31a1.75,1.75,0,0,1-.82-1.38A.66.66,0,0,1,45.7,27a.65.65,0,0,1,.33.1l.59.3Z"/></svg>