<svg id="b7c03a42-b86d-4cfb-96d0-a8f1b825473d" data-name="Layer 1" xmlns="http://www.w3.org/2000/svg" xmlns:xlink="http://www.w3.org/1999/xlink" width="68" height="64" viewBox="0 0 68 64"><defs><style>.bb6921e7-06ee-43b6-a1b5-72522bb3fc25{fill:url(#a2c17231-dd8a-4958-8ff6-ba1c0465ab15);}.ace91ca0-35a0-4529-a860-a28e4ee8a251{fill:#c6c6c5;}.f1a801bd-5ff8-4ef4-b919-35cce260532e{fill:url(#acbd2955-941a-4cc5-af96-2cc83dd34e2e);}.f011a5fc-8fcd-4824-8c35-087e9e77ef9e{fill:url(#a7f757a9-39a0-4fe1-8fd5-048600cb7aa2);}.bc95b7fc-4f4b-47eb-ae90-2bf16f1d3e28{fill:url(#a2801466-d85b-4a9f-807e-d85681450f61);}.a786c52c-cacf-4584-affa-6187f50a5490{fill:url(#f41a126b-47fe-4d68-ad3f-52503eb85013);}.f13a1443-ace3-41dc-82ee-50daf112fe37{fill:url(#f340d6d4-a086-4266-acfc-ced8b0f9772e);}.b6a6c74c-b372-4d6c-b07d-4ccb6148fef9{fill:url(#b0f103e5-fa9b-486b-9da9-58e2d183e6a3);}.ace7f475-6d69-4669-acf2-f1f20c745f81{fill:url(#b619c810-50c1-42e3-9e36-2761a0ed00a1);}.ae6ed370-4e92-4146-a2a9-ea9a78bc6e15{fill:#333332;}.ead7b04e-7c12-47e9-b444-b2801398c4f2{fill:url(#a32739d8-6a43-4fa5-a5cd-0606f6ea1eb3);}.b5bbc9b4-2a76-4be4-ac1e-9ee62bd42a48{fill:url(#b22690c9-25d3-42ed-b507-961bb2fc9180);}.af02b84a-019d-4ba0-a3de-ea09e18c9d27{fill:url(#ac81a065-4c41-46d8-8bd0-6b97b0f64c85);}.ee476f5e-9fec-476f-b6ce-e8b488da23e1{fill:url(#f1c6d3ba-52c5-467a-82ae-9acd629853c1);}.a136a03f-28cc-4cea-96b3-4c3b27a267ac{fill:url(#b61ee1dd-a20f-46ff-8725-fc794e19217a);}.a84d0401-00c2-41c5-97fa-7bb079d6d9a1{fill:url(#acf23c2e-67ef-4691-b814-4a0044e8bcf0);}.e62d5b68-e4ad-4260-aba8-c7991cf41cd9{fill:url(#a05fdf07-0588-441c-a980-0a5d63cd59ca);}.bcf40876-5bc9-43f1-86fc-2abb68204874{fill:url(#b793a30c-c0ff-45c6-a7d5-45ef0e7224f4);}.ae14e3ed-ce72-403b-b1fd-db7870c6a218{fill:url(#a5336f23-3d87-4213-a9b7-2cd8400060d1);}.a375f8fb-fee4-45b4-9b7d-4929faa5ae92{fill:url(#ba49747f-c29a-4b54-a223-d3e5f62be152);}.e740123a-0026-4488-acfc-a621e9a915ca{fill:url(#f4d7cb54-8ab8-4f74-bf48-f33fce353bc2);}.a4e1d3cc-50a0-4cb1-adcf-22c092e59956{fill:url(#a0356ff1-73b9-4155-8f82-395b1261c623);}.feabe278-add1-4474-b7fa-ee0e654216ad{fill:url(#adbe4df2-c1a2-428d-bedc-82d4266d4e68);}.ae7f2eb4-7b9e-41d0-b185-176d50ebb42e{fill:url(#fec91944-fa93-4751-9b2d-3fa5ac54324d);}.f5fc623a-7ba2-4c42-a75f-2095905b4e04{fill:url(#bae00d9c-73a6-46d4-a4b4-bbace7398dfb);}.eb2f3778-45ae-4c00-a27a-39f558344e45{fill:url(#f14bef1e-6689-4d05-85a5-c2d014535875);}.aad0bce5-4921-407d-9475-0ba123b2a0ae{fill:url(#a99a9bb3-8ba7-44a0-b929-0de70ee023b9);}</style><linearGradient id="a2c17231-dd8a-4958-8ff6-ba1c0465ab15" x1="34.19" y1="28.67" x2="34.19" y2="48.35" gradientUnits="userSpaceOnUse"><stop offset="0" stop-color="#b1b1b1"/><stop offset="0.5" stop-color="#6f6f6e"/><stop offset="1" stop-color="#3c3c3b"/></linearGradient><linearGradient id="acbd2955-941a-4cc5-af96-2cc83dd34e2e" x1="25.68" y1="40.89" x2="25.68" y2="69.7" gradientUnits="userSpaceOnUse"><stop offset="0" stop-color="#3c3c3b"/><stop offset="1" stop-color="#6f6f6e"/></linearGradient><linearGradient id="a7f757a9-39a0-4fe1-8fd5-048600cb7aa2" x1="42.3" y1="45.07" x2="43.12" y2="71.82" xlink:href="#acbd2955-941a-4cc5-af96-2cc83dd34e2e"/><linearGradient id="a2801466-d85b-4a9f-807e-d85681450f61" x1="116.11" y1="40.52" x2="128.2" y2="61.43" gradientTransform="matrix(-1, 0, 0, 1, 172.84, 0)" gradientUnits="userSpaceOnUse"><stop offset="0" stop-color="#868686"/><stop offset="0.35" stop-color="#9c9b9b"/><stop offset="0.65" stop-color="#6f6f6e"/><stop offset="1" stop-color="#3c3c3b"/></linearGradient><linearGradient id="f41a126b-47fe-4d68-ad3f-52503eb85013" x1="107" y1="47.12" x2="117.81" y2="65.82" gradientTransform="matrix(-1, 0, 0, 1, 172.84, 0)" gradientUnits="userSpaceOnUse"><stop offset="0.16" stop-color="#3c3c3b"/><stop offset="0.64" stop-color="#6f6f6e"/><stop offset="0.89" stop-color="#9c9b9b"/></linearGradient><linearGradient id="f340d6d4-a086-4266-acfc-ced8b0f9772e" x1="112.32" y1="46.5" x2="108.91" y2="49.54" gradientTransform="matrix(-1, 0, 0, 1, 172.84, 0)" gradientUnits="userSpaceOnUse"><stop offset="0" stop-color="#868686"/><stop offset="1" stop-color="#c6c6c5"/></linearGradient><linearGradient id="b0f103e5-fa9b-486b-9da9-58e2d183e6a3" x1="108.17" y1="45.17" x2="120.93" y2="64.28" gradientTransform="matrix(-1, 0, 0, 1, 172.84, 0)" gradientUnits="userSpaceOnUse"><stop offset="0" stop-color="#868686"/><stop offset="0.35" stop-color="#b1b1b1"/><stop offset="0.65" stop-color="#6f6f6e"/><stop offset="1" stop-color="#3c3c3b"/></linearGradient><linearGradient id="b619c810-50c1-42e3-9e36-2761a0ed00a1" x1="122.93" y1="41.33" x2="116.75" y2="42.59" xlink:href="#f340d6d4-a086-4266-acfc-ced8b0f9772e"/><linearGradient id="a32739d8-6a43-4fa5-a5cd-0606f6ea1eb3" x1="124.78" y1="56.27" x2="125.73" y2="51.52" xlink:href="#a2801466-d85b-4a9f-807e-d85681450f61"/><linearGradient id="b22690c9-25d3-42ed-b507-961bb2fc9180" x1="-36.79" y1="40.52" x2="-24.71" y2="61.43" gradientTransform="translate(48.07)" xlink:href="#a2801466-d85b-4a9f-807e-d85681450f61"/><linearGradient id="ac81a065-4c41-46d8-8bd0-6b97b0f64c85" x1="-45.9" y1="47.12" x2="-35.09" y2="65.82" gradientTransform="translate(48.07)" xlink:href="#f41a126b-47fe-4d68-ad3f-52503eb85013"/><linearGradient id="f1c6d3ba-52c5-467a-82ae-9acd629853c1" x1="-40.59" y1="46.5" x2="-44" y2="49.54" gradientTransform="translate(48.07)" xlink:href="#f340d6d4-a086-4266-acfc-ced8b0f9772e"/><linearGradient id="b61ee1dd-a20f-46ff-8725-fc794e19217a" x1="-44.73" y1="45.17" x2="-31.98" y2="64.28" gradientTransform="translate(48.07)" xlink:href="#b0f103e5-fa9b-486b-9da9-58e2d183e6a3"/><linearGradient id="acf23c2e-67ef-4691-b814-4a0044e8bcf0" x1="-29.98" y1="41.33" x2="-36.15" y2="42.59" gradientTransform="translate(48.07)" xlink:href="#f340d6d4-a086-4266-acfc-ced8b0f9772e"/><linearGradient id="a05fdf07-0588-441c-a980-0a5d63cd59ca" x1="-28.13" y1="56.27" x2="-27.17" y2="51.52" gradientTransform="translate(48.07)" xlink:href="#a2801466-d85b-4a9f-807e-d85681450f61"/><linearGradient id="b793a30c-c0ff-45c6-a7d5-45ef0e7224f4" x1="24.24" y1="17.19" x2="43.84" y2="17.19" gradientUnits="userSpaceOnUse"><stop offset="0" stop-color="#6f6f6e"/><stop offset="0.45" stop-color="#9c9b9b"/><stop offset="1" stop-color="#6f6f6e"/></linearGradient><linearGradient id="a5336f23-3d87-4213-a9b7-2cd8400060d1" x1="25.88" y1="8.11" x2="47.16" y2="8.11" gradientUnits="userSpaceOnUse"><stop offset="0" stop-color="#868686"/><stop offset="0.39" stop-color="#c6c6c5"/><stop offset="1" stop-color="#6f6f6e"/></linearGradient><linearGradient id="ba49747f-c29a-4b54-a223-d3e5f62be152" x1="42.14" y1="14.13" x2="41.04" y2="19.48" gradientTransform="matrix(1, 0, 0, 1, 0, 0)" xlink:href="#f340d6d4-a086-4266-acfc-ced8b0f9772e"/><linearGradient id="f4d7cb54-8ab8-4f74-bf48-f33fce353bc2" x1="41.7" y1="11.55" x2="40.78" y2="7.22" gradientUnits="userSpaceOnUse"><stop offset="0" stop-color="#575756"/><stop offset="0.35" stop-color="#868686"/><stop offset="0.65" stop-color="#6f6f6e"/><stop offset="1" stop-color="#3c3c3b"/></linearGradient><linearGradient id="a0356ff1-73b9-4155-8f82-395b1261c623" x1="179.83" y1="11.55" x2="178.9" y2="7.22" gradientTransform="matrix(-1, 0, 0, 1, 206.11, 0)" xlink:href="#f4d7cb54-8ab8-4f74-bf48-f33fce353bc2"/><linearGradient id="adbe4df2-c1a2-428d-bedc-82d4266d4e68" x1="25.4" y1="5.65" x2="42.57" y2="5.65" xlink:href="#b793a30c-c0ff-45c6-a7d5-45ef0e7224f4"/><linearGradient id="fec91944-fa93-4751-9b2d-3fa5ac54324d" x1="107.01" y1="57.55" x2="117.8" y2="51.32" gradientTransform="matrix(-1, 0, 0, 1, 172.84, 0)" gradientUnits="userSpaceOnUse"><stop offset="0" stop-color="#1d1d1b" stop-opacity="0"/><stop offset="1" stop-color="#1d1d1b" stop-opacity="0.6"/></linearGradient><linearGradient id="bae00d9c-73a6-46d4-a4b4-bbace7398dfb" x1="-45.89" y1="57.55" x2="-35.1" y2="51.32" gradientTransform="translate(48.07)" xlink:href="#fec91944-fa93-4751-9b2d-3fa5ac54324d"/><linearGradient id="f14bef1e-6689-4d05-85a5-c2d014535875" x1="33.98" y1="0.68" x2="33.98" y2="10.63" gradientUnits="userSpaceOnUse"><stop offset="0.36" stop-color="#1d1d1b" stop-opacity="0"/><stop offset="1" stop-color="#1d1d1b" stop-opacity="0.6"/></linearGradient><linearGradient id="a99a9bb3-8ba7-44a0-b929-0de70ee023b9" x1="181.3" y1="14.13" x2="180.21" y2="19.48" gradientTransform="matrix(-1, 0, 0, 1, 207.1, 0)" xlink:href="#f340d6d4-a086-4266-acfc-ced8b0f9772e"/></defs><title>cs3-scaled</title><path class="bb6921e7-06ee-43b6-a1b5-72522bb3fc25" d="M36.88,55.23a8.49,8.49,0,0,0-5.74,0,9.2,9.2,0,0,0,2.33-6.63c0-6-3.39-12.77-7.79-15.3-2.17-1.26-4.12-1.6-5.59-.6a8.14,8.14,0,0,0,2.33-4.48c0,1.68,1.39,3.29,3.6,4.57a17.36,17.36,0,0,0,16-.05c2.22-1.28,3.5-3.11,3.54-4.79A9.8,9.8,0,0,0,48.28,33a5.4,5.4,0,0,0-6,0c-4.52,2.62-7.8,9.68-7.8,15.72,0,3.29.68,5.58,2.4,6.59Z"/><path class="ace91ca0-35a0-4529-a860-a28e4ee8a251" d="M25.79,23.34c4.53-2.62,11.87-2.62,16.4,0s4.53,6.86,0,9.47-11.87,2.62-16.4,0-4.53-6.86,0-9.47Z"/><path class="f1a801bd-5ff8-4ef4-b919-35cce260532e" d="M33.89,48.6c0-6-3.68-13.06-8.21-15.67s-8.2.16-8.2,6.2,3.67,13,8.2,15.67,8.21-.16,8.21-6.2Z"/><path class="f011a5fc-8fcd-4824-8c35-087e9e77ef9e" d="M34.06,48.6c0-6,3.67-13.06,8.2-15.67s8.2.16,8.2,6.2-3.67,13-8.2,15.67-8.2-.16-8.2-6.2Z"/><path class="bc95b7fc-4f4b-47eb-ae90-2bf16f1d3e28" d="M67.07,48.6a7.54,7.54,0,0,0-3-4.34C60,41.82,48.53,35.39,47.3,34.54s-2.92-.83-4.75.23C38.73,37,35.63,42.89,35.63,48c0,2.82,1,4.72,2.45,5.63,1.26.79,12.66,7.3,17,9.84,0,0,0,0,0,0a3.62,3.62,0,0,0,.33.2,7.4,7.4,0,0,0,3.44.32h-.1a4.77,4.77,0,0,0,2.57-.73c3.42-2,6.2-7.28,6.2-11.84A10,10,0,0,0,67.07,48.6ZM60.91,47c.13-.09.26-.2.39-.28a5.75,5.75,0,0,1,1.42-.58,3,3,0,0,1,.27.57l.59.31a1.77,1.77,0,0,1,.82,1.38.76.76,0,0,1-.09.36.65.65,0,0,1-.33-.1l-.59-.3c-.45.25-.44.26-.37.22s-.1.11-.14.16a.94.94,0,0,1-.65-.13A2.92,2.92,0,0,1,61,47Z"/><path class="a786c52c-cacf-4584-affa-6187f50a5490" d="M60.58,47.19l.08,0a2.92,2.92,0,0,0,1.19,1.56A.79.79,0,0,0,63,48.54l.58.3c.45.25.8,0,.8-.48A1.77,1.77,0,0,0,63.58,47L63,46.67a3.83,3.83,0,0,0-.27-.58c2.73-.73,4.78,1.36,4.78,5.27,0,4.56-2.78,9.86-6.2,11.84s-6.19-.12-6.19-4.68A15.22,15.22,0,0,1,60.58,47.19Z"/><path class="f13a1443-ace3-41dc-82ee-50daf112fe37" d="M63.39,48.32c-.45.25-.44.26-.37.22l.58.3c.32.18.58.11.71-.12a.65.65,0,0,1-.33-.1ZM60.91,47l-.33.23.08,0a2.92,2.92,0,0,0,1.19,1.56.8.8,0,0,0,1-.09.94.94,0,0,1-.65-.13A2.92,2.92,0,0,1,61,47Z"/><path class="b6a6c74c-b372-4d6c-b07d-4ccb6148fef9" d="M52.72,57.88c0-5.09,3.1-11,6.92-13.22a4.47,4.47,0,0,1,4.45-.4,7.54,7.54,0,0,1,3,4.34c-.9-2.56-3.14-3.44-5.77-1.92-3.42,2-6.19,7.27-6.19,11.84,0,3.38,1.53,5.41,3.72,5.42a7.4,7.4,0,0,1-3.44-.32c-1.62-.75-2.67-2.78-2.67-5.74Z"/><path class="ace7f475-6d69-4669-acf2-f1f20c745f81" d="M54.79,43.3A3,3,0,0,1,52.93,43c-.51-.28-.69-.69-.54-1.06l-.61-.33c-.46-.25-.52-.64-.14-.86a1.63,1.63,0,0,1,1.5,0l.62.32a3,3,0,0,1,1.86.28c.51.28.69.69.54,1.06l.61.33c.45.25.52.64.14.86a1.68,1.68,0,0,1-1.51-.05l-.61-.32Z"/><path class="ae6ed370-4e92-4146-a2a9-ea9a78bc6e15" d="M53.14,41.26l.62.32a3.05,3.05,0,0,1,1.86.27,1.09,1.09,0,0,1,.54.6v0h0a.64.64,0,0,1,0,.43l.61.32a.82.82,0,0,1,.3.28.58.58,0,0,1-.16.15,1.68,1.68,0,0,1-1.51-.05l-.61-.32A3,3,0,0,1,52.93,43a1,1,0,0,1-.54-.59v0h0a.64.64,0,0,1,0-.43l-.61-.33a.73.73,0,0,1-.3-.27.39.39,0,0,1,.16-.15A1.63,1.63,0,0,1,53.14,41.26Z"/><path class="ead7b04e-7c12-47e9-b444-b2801398c4f2" d="M49,56.59a.79.79,0,0,1-1.17.26,3,3,0,0,1-1.19-1.56L46.05,55a1.77,1.77,0,0,1-.82-1.38c0-.51.35-.73.8-.48l.59.3a.78.78,0,0,1,1.16-.25A2.93,2.93,0,0,1,49,54.73l.59.3a1.75,1.75,0,0,1,.82,1.38c0,.52-.35.74-.79.49L49,56.59Z"/><path class="ae6ed370-4e92-4146-a2a9-ea9a78bc6e15" d="M47,53.2a.65.65,0,0,1,.13-.16,1,1,0,0,1,.65.13A2.93,2.93,0,0,1,49,54.73l.59.3a1.75,1.75,0,0,1,.82,1.38.68.68,0,0,1-.09.37.65.65,0,0,1-.33-.1l-.58-.3-.38.21a.79.79,0,0,1-.14.17,1,1,0,0,1-.65-.13A3,3,0,0,1,47,55.07l-.59-.31a1.77,1.77,0,0,1-.82-1.38A.73.73,0,0,1,45.7,53a.65.65,0,0,1,.33.1l.59.3Z"/><path class="b5bbc9b4-2a76-4be4-ac1e-9ee62bd42a48" d="M.5,51.36c0,4.56,2.78,9.86,6.2,11.84a4.8,4.8,0,0,0,2.57.73H9.18a7.38,7.38,0,0,0,3.43-.32,3.62,3.62,0,0,0,.33-.2s0,0,0,0c4.33-2.54,15.74-9.06,17-9.85,1.44-.91,2.44-2.81,2.44-5.63,0-5.09-3.1-11-6.91-13.21-1.84-1.06-3.51-1.07-4.75-.23S8,41.82,3.91,44.26a7.54,7.54,0,0,0-3,4.34A10,10,0,0,0,.5,51.36ZM7,47a2.92,2.92,0,0,1-1.19,1.56.94.94,0,0,1-.65.13A1,1,0,0,1,5,48.54c.06,0,.07,0-.38-.22l-.59.3a.65.65,0,0,1-.33.1.76.76,0,0,1-.09-.36A1.77,1.77,0,0,1,4.42,47L5,46.67a3,3,0,0,1,.27-.57,5.75,5.75,0,0,1,1.42.58c.13.08.26.19.39.28Z"/><path class="af02b84a-019d-4ba0-a3de-ea09e18c9d27" d="M7.42,47.19l-.08,0a2.92,2.92,0,0,1-1.19,1.56A.78.78,0,0,1,5,48.54l-.59.3c-.45.25-.81,0-.8-.48A1.77,1.77,0,0,1,4.42,47L5,46.67a5.14,5.14,0,0,1,.27-.58C2.55,45.36.5,47.45.5,51.36c0,4.56,2.78,9.86,6.2,11.84s6.19-.12,6.19-4.68A15.19,15.19,0,0,0,7.42,47.19Z"/><path class="ee476f5e-9fec-476f-b6ce-e8b488da23e1" d="M4,48.62a.65.65,0,0,1-.33.1c.13.23.39.3.71.12l.59-.3c.06,0,.07,0-.38-.22ZM7,47a2.92,2.92,0,0,1-1.19,1.56.94.94,0,0,1-.65.13.8.8,0,0,0,1,.09,2.92,2.92,0,0,0,1.19-1.56l.08,0L7.09,47Z"/><path class="a136a03f-28cc-4cea-96b3-4c3b27a267ac" d="M15.28,57.88c0-5.09-3.1-11-6.92-13.22a4.47,4.47,0,0,0-4.45-.4,7.54,7.54,0,0,0-3,4.34c.9-2.56,3.14-3.44,5.77-1.92,3.42,2,6.19,7.27,6.19,11.84,0,3.38-1.53,5.41-3.71,5.42a7.38,7.38,0,0,0,3.43-.32c1.62-.75,2.67-2.78,2.67-5.74Z"/><path class="a84d0401-00c2-41c5-97fa-7bb079d6d9a1" d="M13.21,43.3A3,3,0,0,0,15.07,43c.51-.28.69-.69.54-1.06l.61-.33c.45-.25.52-.64.14-.86a1.63,1.63,0,0,0-1.5,0l-.62.32a3,3,0,0,0-1.86.28c-.51.28-.69.69-.54,1.06l-.61.33c-.45.25-.52.64-.14.86a1.68,1.68,0,0,0,1.51-.05l.61-.32Z"/><path class="ae6ed370-4e92-4146-a2a9-ea9a78bc6e15" d="M14.86,41.26l-.62.32a3.07,3.07,0,0,0-1.86.27,1.09,1.09,0,0,0-.54.6v0h0a.7.7,0,0,0,0,.43l-.61.32a.91.91,0,0,0-.3.28.58.58,0,0,0,.16.15,1.68,1.68,0,0,0,1.51-.05l.61-.32A3,3,0,0,0,15.07,43a1,1,0,0,0,.54-.59v0h0a.64.64,0,0,0,0-.43l.61-.33a.73.73,0,0,0,.3-.27.39.39,0,0,0-.16-.15A1.63,1.63,0,0,0,14.86,41.26Z"/><path class="e62d5b68-e4ad-4260-aba8-c7991cf41cd9" d="M19,56.59a.79.79,0,0,0,1.17.26,3,3,0,0,0,1.19-1.56L22,55a1.75,1.75,0,0,0,.82-1.38c0-.51-.35-.73-.8-.48l-.58.3a.79.79,0,0,0-1.17-.25A2.93,2.93,0,0,0,19,54.73l-.59.3a1.78,1.78,0,0,0-.82,1.38c0,.52.35.74.79.49l.59-.31Z"/><path class="ae6ed370-4e92-4146-a2a9-ea9a78bc6e15" d="M21,53.2a1.07,1.07,0,0,0-.14-.16,1,1,0,0,0-.65.13A2.93,2.93,0,0,0,19,54.73l-.59.3a1.78,1.78,0,0,0-.82,1.38.68.68,0,0,0,.09.37.6.6,0,0,0,.32-.1l.59-.3.38.21a.79.79,0,0,0,.14.17,1,1,0,0,0,.65-.13A3,3,0,0,0,21,55.07l.59-.31a1.75,1.75,0,0,0,.82-1.38A.73.73,0,0,0,22.3,53a.65.65,0,0,0-.33.1l-.58.3Z"/><path class="bcf40876-5bc9-43f1-86fc-2abb68204874" d="M25.7,7a1.77,1.77,0,0,1,.63-1.16.55.55,0,0,1,.23-.07,1,1,0,0,1,.13.46l0,.75a.7.7,0,0,1,.38.2v0l.05,0a1.36,1.36,0,0,1,.31.86,2.74,2.74,0,0,1-.07.69l-.07.06a6,6,0,0,1-.84-.71M25.72,4.3a7.08,7.08,0,0,0-1.48,3.46,2.19,2.19,0,0,0,0,.51,0,0,0,0,1,0,0c0,5.21,0,18.33,0,19.73s.91,3,2.86,4.08a15.25,15.25,0,0,0,13.83,0c2-1.16,3-2.7,2.86-4.22-.1-1.37.05-16.48.05-19.73a1.5,1.5,0,0,0,0-.37s0,0,0,.07A7.13,7.13,0,0,0,41,2.72c.07,0,.1.1.16.15a7.27,7.27,0,0,0-1.05-.76,13.46,13.46,0,0,0-12.19.05A5.15,5.15,0,0,0,25.72,4.3ZM40.58,8.76a3.09,3.09,0,0,1-.06-.67,1.25,1.25,0,0,1,.31-.86l0,0v0a.74.74,0,0,1,.38-.2l0-.75a1,1,0,0,1,.13-.46.51.51,0,0,1,.22.07,1.68,1.68,0,0,1,.6,1A4.84,4.84,0,0,1,40.58,8.76ZM25.75,7.11a4.06,4.06,0,0,0,.72,1A4.06,4.06,0,0,1,25.75,7.11Z"/><path class="ae14e3ed-ce72-403b-b1fd-db7870c6a218" d="M24.24,7.76A7.08,7.08,0,0,1,25.72,4.3c-.86,1.69-.16,3.58,2.13,4.89A13.44,13.44,0,0,0,40,9.14c3-1.76,3.39-4.49,1-6.42A7.14,7.14,0,0,1,43.8,7.88c0,1.44-1,2.87-2.87,4a15.32,15.32,0,0,1-13.83,0c-2-1.13-2.9-2.61-2.86-4.09Z"/><path class="a375f8fb-fee4-45b4-9b7d-4929faa5ae92" d="M42.11,15.36c.42.05.71.45.73,1.1a3.42,3.42,0,0,1-.61,2l.05.76a1.87,1.87,0,0,1-.65,1.5c-.38.24-.71,0-.74-.61l0-.75c-.42,0-.71-.45-.74-1.1a3.49,3.49,0,0,1,.61-2l0-.76a1.84,1.84,0,0,1,.65-1.5c.38-.25.71,0,.74.61l0,.75Z"/><path class="ae6ed370-4e92-4146-a2a9-ea9a78bc6e15" d="M41.73,15.14l0-.75a1,1,0,0,0-.13-.46.41.41,0,0,0-.23.07,1.84,1.84,0,0,0-.65,1.5l0,.76a3.49,3.49,0,0,0-.61,2,1.33,1.33,0,0,0,.31.86l0,0v0a.69.69,0,0,0,.38.19l0,.75a.93.93,0,0,0,.13.46.41.41,0,0,0,.23-.07A1.87,1.87,0,0,0,41.9,19l0-.76a3.57,3.57,0,0,0,.61-2,1.28,1.28,0,0,0-.32-.86Z"/><path class="e740123a-0026-4488-acfc-a621e9a915ca" d="M40.92,6.46l-.05.73a.74.74,0,0,1,.38-.2l0-.75a1,1,0,0,1,.13-.46C41.15,5.75,40.94,6,40.92,6.46Zm-.78,1.85a2.62,2.62,0,0,0,.07.73l.37-.26a3.28,3.28,0,0,1-.06-.69,1.25,1.25,0,0,1,.31-.86C40.44,7.3,40.16,7.68,40.14,8.31Z"/><path class="a4e1d3cc-50a0-4cb1-adcf-22c092e59956" d="M26.56,5.78a1,1,0,0,1,.13.46l0,.75a.7.7,0,0,1,.38.2l0-.73C27.05,6,26.84,5.75,26.56,5.78Zm.6,1.45a1.36,1.36,0,0,1,.31.86,2.74,2.74,0,0,1-.07.69l.38.26a3.06,3.06,0,0,0,.07-.73C27.82,7.68,27.55,7.3,27.16,7.23Z"/><path class="feabe278-add1-4474-b7fa-ee0e654216ad" d="M26.47,8.11a4.06,4.06,0,0,1-.72-1A4.06,4.06,0,0,0,26.47,8.11Zm13.65-6a13.46,13.46,0,0,0-12.19.05c-2.29,1.32-3,3.18-2.23,4.85a1.77,1.77,0,0,1,.63-1.16c.38-.24.71,0,.74.61l0,.75c.42,0,.71.45.74,1.1a3.17,3.17,0,0,1-.09.8,6.26,6.26,0,0,1-1.27-1,6.05,6.05,0,0,0,1.36,1.06A13.44,13.44,0,0,0,40,9.14L40.21,9a2.48,2.48,0,0,1-.07-.71c0-.65.32-1.05.73-1.1l.05-.75c0-.58.35-.85.73-.61a1.71,1.71,0,0,1,.61,1C43,5.23,42.35,3.4,40.12,2.11Z"/><path class="ae7f2eb4-7b9e-41d0-b185-176d50ebb42e" d="M60.58,47.19l.08,0a2.92,2.92,0,0,0,1.19,1.56A.79.79,0,0,0,63,48.54l.58.3c.45.25.8,0,.8-.48A1.77,1.77,0,0,0,63.58,47L63,46.67a3.83,3.83,0,0,0-.27-.58c2.73-.73,4.78,1.36,4.78,5.27,0,4.56-2.78,9.86-6.2,11.84s-6.19-.12-6.19-4.68A15.22,15.22,0,0,1,60.58,47.19Z"/><path class="f5fc623a-7ba2-4c42-a75f-2095905b4e04" d="M7.42,47.19l-.08,0a2.92,2.92,0,0,1-1.19,1.56A.78.78,0,0,1,5,48.54l-.59.3c-.45.25-.81,0-.8-.48A1.77,1.77,0,0,1,4.42,47L5,46.67a5.14,5.14,0,0,1,.27-.58C2.55,45.36.5,47.45.5,51.36c0,4.56,2.78,9.86,6.2,11.84s6.19-.12,6.19-4.68A15.19,15.19,0,0,0,7.42,47.19Z"/><path class="eb2f3778-45ae-4c00-a27a-39f558344e45" d="M26.47,8.11a4.06,4.06,0,0,1-.72-1A4.06,4.06,0,0,0,26.47,8.11Zm13.65-6a13.46,13.46,0,0,0-12.19.05c-2.29,1.32-3,3.18-2.23,4.85a1.77,1.77,0,0,1,.63-1.16c.38-.24.71,0,.74.61l0,.75c.42,0,.71.45.74,1.1a3.17,3.17,0,0,1-.09.8,6.26,6.26,0,0,1-1.27-1,6.05,6.05,0,0,0,1.36,1.06A13.44,13.44,0,0,0,40,9.14L40.21,9a2.48,2.48,0,0,1-.07-.71c0-.65.32-1.05.73-1.1l.05-.75c0-.58.35-.85.73-.61a1.71,1.71,0,0,1,.61,1C43,5.23,42.35,3.4,40.12,2.11Z"/><path class="aad0bce5-4921-407d-9475-0ba123b2a0ae" d="M25.82,15.36c-.41.05-.71.45-.73,1.1a3.42,3.42,0,0,0,.61,2l-.05.76a1.87,1.87,0,0,0,.65,1.5c.39.24.72,0,.74-.61l.05-.75c.41,0,.7-.45.73-1.1a3.42,3.42,0,0,0-.61-2l.05-.76A1.85,1.85,0,0,0,26.6,14c-.38-.25-.71,0-.73.61l-.05.75Z"/><path class="ae6ed370-4e92-4146-a2a9-ea9a78bc6e15" d="M26.2,15.14l.05-.75a.93.93,0,0,1,.13-.46.4.4,0,0,1,.22.07,1.85,1.85,0,0,1,.66,1.5l-.05.76a3.42,3.42,0,0,1,.61,2,1.23,1.23,0,0,1-.31.86l0,0v0a.72.72,0,0,1-.38.19l-.05.75a.93.93,0,0,1-.13.46.43.43,0,0,1-.23-.07A1.87,1.87,0,0,1,26,19l0-.76a3.42,3.42,0,0,1-.61-2,1.23,1.23,0,0,1,.31-.86Z"/></svg>