<svg id="bb241434-7fca-4765-9f39-226579f5fe65" data-name="Layer 1" xmlns="http://www.w3.org/2000/svg" xmlns:xlink="http://www.w3.org/1999/xlink" width="68" height="73" viewBox="0 0 68 73"><defs><style>.bf6116cd-9fc8-490f-90a0-bae38dad0fa5{fill:url(#e38526df-c013-4482-ba7a-657e0c5df4f8);}.f49999df-88c5-473f-a464-12b7cd3a01bd{fill:url(#b2c8f4ad-1dd9-415b-83db-729de9c1a2a3);}.b52f54a6-0308-4ea1-ae89-53f0c56921bc{fill:url(#ac0dd0b6-41e3-4002-95dd-381894962563);}.a34eb2d2-48d8-454d-be50-0919ece90305{fill:#1d1d1b;opacity:0.3;}.a77cfbe6-390b-4c58-ab42-b4d020f6ffbc{fill:url(#b5cdc6d2-fe0a-4010-9783-4a72529efc44);}.e8175c65-7e79-46b8-aa6a-e7d3981089ad{fill:url(#a38c4645-37c9-4fb5-8ea6-584ba26fd786);}.b2e5311c-0d5c-430e-81c5-7734e52fa094{fill:url(#b82e079a-c0cc-4518-8690-26797e2d46c2);}.a0447192-8f0f-4917-a70f-393a3e865b37{fill:url(#a0e4b06e-4a7c-4fd5-9022-cb2fa19e7606);}.f3e628f9-a520-4cbc-a5c0-8507d62b8bcc{fill:url(#aa7c19e7-6649-486d-a5bc-0c1e73420d3c);}.a700f622-0b04-43d9-b998-f99da5ce9c12{fill:#333332;}.f7cfe5de-094c-43a5-856f-e30377e80a04{fill:url(#ff93e3ea-9d37-4eeb-8891-574c025a79c0);}.b4ba646c-c9b6-4d5e-8b20-51eb0eeb8baf{fill:#3c3c3b;}.f0fbc062-8735-47c9-bec6-abf958d4b1e2{fill:url(#febc945b-1a2e-4135-a8b2-ea4c0c696523);}.bb2856d5-a7a8-4b5a-900b-6f3af4909e02{fill:url(#a6a9b1a4-243c-403c-9aa3-a9297f46c0b3);}.b7a8becc-f67d-4841-bcf4-27a020c84a6c{fill:#c6c6c5;}.a96b4913-5c54-4005-9635-b61cbe6053dc{fill:url(#af7aa78f-0460-47f0-ace0-71f3287312f0);}.afa11501-dbb1-494c-abea-6479a9dc6fe6{fill:url(#fd5dbfc9-a1b9-4a77-ba80-702116b74758);}.fa1d868b-2753-4aa6-960d-9fddd06bf8a8{fill:url(#b8243007-3d00-4576-97a2-fd0dfb13e67c);}.bb01276c-7175-4429-ba80-d41359e75ce6{fill:url(#eec20cfe-028c-4939-a11b-c6e0532e27e1);}.b88835bc-939b-41f3-874a-d3074d62651e{fill:url(#b1fdf009-6d2d-4af1-b54a-fb12d9162838);}.af586a8e-99b4-4821-bdbe-0c26523d2c27{fill:url(#aa52b415-06cb-4167-a0fd-5af276d28509);}.aadab1af-abdc-4435-b99a-3a88b6975a08{fill:url(#f629102c-37f1-40d7-a591-828ee0915848);}.ac887c21-681c-48c2-8c23-906985e7d65d{fill:url(#a4efd1c0-fad0-4357-be94-e0964f8b162a);}.b0c5d79c-38bc-4a47-a03c-c4d406be4d47{fill:url(#b28fd792-85f7-42b8-9970-99cf82b2b6ea);}.b9095cd1-d349-4d53-8a44-9a7d297d56b0{fill:url(#bd4cc027-d84a-4572-82c5-20dca7920523);}.b7b75d88-7c0c-4310-b83c-26c8364ef70d{fill:url(#ae049b14-1742-4dbd-90af-5b3aee080b51);}.b16ccabb-86aa-4c4a-93e8-1875ee588795{fill:url(#bbb35465-ee7c-4bc6-9a32-fc5a707a76f4);}.a29c7a00-23be-41f0-8ade-9c0e07fd7aa1{fill:url(#ef0721cb-f547-46b3-a145-dcf911ff210e);}.ad03ebb6-2ade-4076-afe5-e0410eef2540{fill:url(#f4c50fed-4156-4658-a645-4e9e958a6991);}.b6696196-758e-4063-b866-67921e2b9b57{fill:url(#abe10fbc-335e-4d5a-abab-6ea0106f84b1);}.a5734611-6213-40d2-b0db-d75153147018{fill:url(#b8d61056-8808-4503-87ec-462afa99df1c);}.bab36ba9-61c8-4947-9d36-c853f685ed5e{fill:url(#a71091cc-b4e4-45a8-9651-c62115e199b1);}.b7f6ebbe-00a2-4621-89a1-d44a90ab6f31{fill:url(#e883cf28-85d8-4cbb-869d-fd045e20f224);}.a59d0863-e30a-4c87-b971-479a76a68180{fill:url(#a6f56a5f-4d09-4c1a-8e73-8e3e50a6e0d6);}.a838bdcc-2020-4153-8d02-bbf72b636cc1{fill:url(#b6dd8ab2-f9a3-42b9-b328-6164dd828f9a);}.a8be8a4a-8d77-45b6-a2c3-50e28352f6ff{fill:url(#aa57910d-dd7d-402e-811a-b3433230ac9c);}.a6b4eb59-62c9-4a0c-b8c0-e1c0c9f2bb2b{fill:url(#a5190b1d-b7d3-4d3d-9ada-bbd90a656b6e);}.a8a7b7c1-f558-428a-bf56-cc1a6f25873b{fill:url(#e2fd61ea-0a3a-46d2-b72d-95cfa0a8353a);}.aac2fcd7-bf90-45e7-aaf1-d8c8786ceb9a{fill:url(#aa786067-444e-4062-862a-067b0754b234);}.bfacf1fb-a5b6-406e-ab27-1bdfea1e21b8{fill:url(#e971048c-d1b9-4759-9d76-6a8cdbd161c1);}.bb8312d5-946b-4293-b043-5fd01a272037{fill:url(#fc5697ce-7505-4e9d-b103-f531c55e7456);}</style><linearGradient id="e38526df-c013-4482-ba7a-657e0c5df4f8" x1="11.08" y1="37.27" x2="21.65" y2="18.95" gradientUnits="userSpaceOnUse"><stop offset="0" stop-color="#3c3c3b"/><stop offset="0.38" stop-color="#6f6f6e"/><stop offset="0.71" stop-color="#9c9b9b"/><stop offset="1" stop-color="#868686"/></linearGradient><linearGradient id="b2c8f4ad-1dd9-415b-83db-729de9c1a2a3" x1="629.95" y1="37.27" x2="640.52" y2="18.95" gradientTransform="matrix(-1, 0, 0, 1, 686.88, 0)" xlink:href="#e38526df-c013-4482-ba7a-657e0c5df4f8"/><linearGradient id="ac0dd0b6-41e3-4002-95dd-381894962563" x1="24.23" y1="56.49" x2="43.84" y2="56.49" gradientUnits="userSpaceOnUse"><stop offset="0" stop-color="#6f6f6e"/><stop offset="0.45" stop-color="#9c9b9b"/><stop offset="1" stop-color="#6f6f6e"/></linearGradient><linearGradient id="b5cdc6d2-fe0a-4010-9783-4a72529efc44" x1="34.13" y1="28.68" x2="34.13" y2="48.21" gradientUnits="userSpaceOnUse"><stop offset="0" stop-color="#b1b1b1"/><stop offset="0.5" stop-color="#6f6f6e"/><stop offset="1" stop-color="#3c3c3b"/></linearGradient><linearGradient id="a38c4645-37c9-4fb5-8ea6-584ba26fd786" x1="43.33" y1="70.19" x2="17.99" y2="70.19" gradientUnits="userSpaceOnUse"><stop offset="0" stop-color="#575756"/><stop offset="0.35" stop-color="#868686"/><stop offset="0.65" stop-color="#6f6f6e"/><stop offset="1" stop-color="#3c3c3b"/></linearGradient><linearGradient id="b82e079a-c0cc-4518-8690-26797e2d46c2" x1="8.48" y1="12.79" x2="2.36" y2="27.96" xlink:href="#a38c4645-37c9-4fb5-8ea6-584ba26fd786"/><linearGradient id="a0e4b06e-4a7c-4fd5-9022-cb2fa19e7606" x1="627.35" y1="12.79" x2="621.23" y2="27.96" gradientTransform="matrix(-1, 0, 0, 1, 686.88, 0)" xlink:href="#a38c4645-37c9-4fb5-8ea6-584ba26fd786"/><linearGradient id="aa7c19e7-6649-486d-a5bc-0c1e73420d3c" x1="65.54" y1="31.81" x2="66.49" y2="27.06" gradientTransform="translate(-5.1)" gradientUnits="userSpaceOnUse"><stop offset="0" stop-color="#868686"/><stop offset="0.35" stop-color="#9c9b9b"/><stop offset="0.65" stop-color="#6f6f6e"/><stop offset="1" stop-color="#3c3c3b"/></linearGradient><linearGradient id="ff93e3ea-9d37-4eeb-8891-574c025a79c0" x1="68.86" y1="16.56" x2="62.68" y2="17.82" gradientTransform="translate(-10.25)" gradientUnits="userSpaceOnUse"><stop offset="0" stop-color="#868686"/><stop offset="1" stop-color="#c6c6c5"/></linearGradient><linearGradient id="febc945b-1a2e-4135-a8b2-ea4c0c696523" x1="684.4" y1="31.81" x2="685.36" y2="27.06" gradientTransform="matrix(-1, 0, 0, 1, 691.97, 0)" xlink:href="#aa7c19e7-6649-486d-a5bc-0c1e73420d3c"/><linearGradient id="a6a9b1a4-243c-403c-9aa3-a9297f46c0b3" x1="687.73" y1="16.56" x2="681.55" y2="17.82" gradientTransform="matrix(-1, 0, 0, 1, 697.13, 0)" xlink:href="#ff93e3ea-9d37-4eeb-8891-574c025a79c0"/><linearGradient id="af7aa78f-0460-47f0-ace0-71f3287312f0" x1="25.77" y1="42.75" x2="23.39" y2="67.66" gradientUnits="userSpaceOnUse"><stop offset="0" stop-color="#3c3c3b"/><stop offset="1" stop-color="#6f6f6e"/></linearGradient><linearGradient id="fd5dbfc9-a1b9-4a77-ba80-702116b74758" x1="41.68" y1="46.44" x2="37.34" y2="67.29" xlink:href="#af7aa78f-0460-47f0-ace0-71f3287312f0"/><linearGradient id="b8243007-3d00-4576-97a2-fd0dfb13e67c" x1="630.11" y1="40.29" x2="642.2" y2="61.2" gradientTransform="matrix(-1, 0, 0, 1, 686.84, 0)" xlink:href="#aa7c19e7-6649-486d-a5bc-0c1e73420d3c"/><linearGradient id="eec20cfe-028c-4939-a11b-c6e0532e27e1" x1="621" y1="46.88" x2="631.81" y2="65.59" gradientTransform="matrix(-1, 0, 0, 1, 686.84, 0)" gradientUnits="userSpaceOnUse"><stop offset="0.16" stop-color="#3c3c3b"/><stop offset="0.64" stop-color="#6f6f6e"/><stop offset="0.89" stop-color="#9c9b9b"/></linearGradient><linearGradient id="b1fdf009-6d2d-4af1-b54a-fb12d9162838" x1="626.32" y1="46.27" x2="622.91" y2="49.31" gradientTransform="matrix(-1, 0, 0, 1, 686.84, 0)" xlink:href="#ff93e3ea-9d37-4eeb-8891-574c025a79c0"/><linearGradient id="aa52b415-06cb-4167-a0fd-5af276d28509" x1="622.17" y1="44.94" x2="634.93" y2="64.04" gradientTransform="matrix(-1, 0, 0, 1, 686.84, 0)" gradientUnits="userSpaceOnUse"><stop offset="0" stop-color="#868686"/><stop offset="0.35" stop-color="#b1b1b1"/><stop offset="0.65" stop-color="#6f6f6e"/><stop offset="1" stop-color="#3c3c3b"/></linearGradient><linearGradient id="f629102c-37f1-40d7-a591-828ee0915848" x1="636.93" y1="41.1" x2="630.75" y2="42.36" gradientTransform="matrix(-1, 0, 0, 1, 686.84, 0)" xlink:href="#ff93e3ea-9d37-4eeb-8891-574c025a79c0"/><linearGradient id="a4efd1c0-fad0-4357-be94-e0964f8b162a" x1="638.78" y1="56.03" x2="639.73" y2="51.28" gradientTransform="matrix(-1, 0, 0, 1, 686.84, 0)" xlink:href="#aa7c19e7-6649-486d-a5bc-0c1e73420d3c"/><linearGradient id="b28fd792-85f7-42b8-9970-99cf82b2b6ea" x1="-36.79" y1="40.29" x2="-24.71" y2="61.2" gradientTransform="translate(48.07)" xlink:href="#aa7c19e7-6649-486d-a5bc-0c1e73420d3c"/><linearGradient id="bd4cc027-d84a-4572-82c5-20dca7920523" x1="-45.9" y1="46.88" x2="-35.09" y2="65.59" gradientTransform="translate(48.07)" xlink:href="#eec20cfe-028c-4939-a11b-c6e0532e27e1"/><linearGradient id="ae049b14-1742-4dbd-90af-5b3aee080b51" x1="-40.59" y1="46.27" x2="-44" y2="49.31" gradientTransform="translate(48.07)" xlink:href="#ff93e3ea-9d37-4eeb-8891-574c025a79c0"/><linearGradient id="bbb35465-ee7c-4bc6-9a32-fc5a707a76f4" x1="-44.73" y1="44.94" x2="-31.98" y2="64.04" gradientTransform="translate(48.07)" xlink:href="#aa52b415-06cb-4167-a0fd-5af276d28509"/><linearGradient id="ef0721cb-f547-46b3-a145-dcf911ff210e" x1="-29.98" y1="41.1" x2="-36.15" y2="42.36" gradientTransform="translate(48.07)" xlink:href="#ff93e3ea-9d37-4eeb-8891-574c025a79c0"/><linearGradient id="f4c50fed-4156-4658-a645-4e9e958a6991" x1="-28.13" y1="56.03" x2="-27.17" y2="51.28" gradientTransform="translate(48.07)" xlink:href="#aa7c19e7-6649-486d-a5bc-0c1e73420d3c"/><linearGradient id="abe10fbc-335e-4d5a-abab-6ea0106f84b1" x1="42.14" y1="59.77" x2="41.04" y2="65.12" gradientTransform="matrix(1, 0, 0, 1, 0, 0)" xlink:href="#ff93e3ea-9d37-4eeb-8891-574c025a79c0"/><linearGradient id="b8d61056-8808-4503-87ec-462afa99df1c" x1="695.3" y1="59.77" x2="694.21" y2="65.12" gradientTransform="matrix(-1, 0, 0, 1, 721.1, 0)" xlink:href="#ff93e3ea-9d37-4eeb-8891-574c025a79c0"/><linearGradient id="a71091cc-b4e4-45a8-9651-c62115e199b1" x1="24.24" y1="16.96" x2="43.84" y2="16.96" xlink:href="#ac0dd0b6-41e3-4002-95dd-381894962563"/><linearGradient id="e883cf28-85d8-4cbb-869d-fd045e20f224" x1="25.88" y1="7.88" x2="47.16" y2="7.88" gradientUnits="userSpaceOnUse"><stop offset="0" stop-color="#868686"/><stop offset="0.39" stop-color="#c6c6c5"/><stop offset="1" stop-color="#6f6f6e"/></linearGradient><linearGradient id="a6f56a5f-4d09-4c1a-8e73-8e3e50a6e0d6" x1="42.14" y1="13.9" x2="41.04" y2="19.24" gradientTransform="matrix(1, 0, 0, 1, 0, 0)" xlink:href="#ff93e3ea-9d37-4eeb-8891-574c025a79c0"/><linearGradient id="b6dd8ab2-f9a3-42b9-b328-6164dd828f9a" x1="41.7" y1="11.32" x2="40.78" y2="6.99" xlink:href="#a38c4645-37c9-4fb5-8ea6-584ba26fd786"/><linearGradient id="aa57910d-dd7d-402e-811a-b3433230ac9c" x1="693.83" y1="11.32" x2="692.9" y2="6.99" gradientTransform="matrix(-1, 0, 0, 1, 720.11, 0)" xlink:href="#a38c4645-37c9-4fb5-8ea6-584ba26fd786"/><linearGradient id="a5190b1d-b7d3-4d3d-9ada-bbd90a656b6e" x1="25.4" y1="5.42" x2="42.57" y2="5.42" xlink:href="#ac0dd0b6-41e3-4002-95dd-381894962563"/><linearGradient id="e2fd61ea-0a3a-46d2-b72d-95cfa0a8353a" x1="621.01" y1="57.32" x2="631.8" y2="51.09" gradientTransform="matrix(-1, 0, 0, 1, 686.84, 0)" gradientUnits="userSpaceOnUse"><stop offset="0" stop-color="#1d1d1b" stop-opacity="0"/><stop offset="1" stop-color="#1d1d1b" stop-opacity="0.6"/></linearGradient><linearGradient id="aa786067-444e-4062-862a-067b0754b234" x1="-45.89" y1="57.32" x2="-35.1" y2="51.09" gradientTransform="translate(48.07)" xlink:href="#e2fd61ea-0a3a-46d2-b72d-95cfa0a8353a"/><linearGradient id="e971048c-d1b9-4759-9d76-6a8cdbd161c1" x1="33.98" y1="0.44" x2="33.98" y2="10.39" gradientUnits="userSpaceOnUse"><stop offset="0.36" stop-color="#1d1d1b" stop-opacity="0"/><stop offset="1" stop-color="#1d1d1b" stop-opacity="0.6"/></linearGradient><linearGradient id="fc5697ce-7505-4e9d-b103-f531c55e7456" x1="695.3" y1="13.9" x2="694.21" y2="19.24" gradientTransform="matrix(-1, 0, 0, 1, 721.1, 0)" xlink:href="#ff93e3ea-9d37-4eeb-8891-574c025a79c0"/></defs><title>cs6-scaled</title><path class="bf6116cd-9fc8-490f-90a0-bae38dad0fa5" d="M4.42,33.34a2.62,2.62,0,0,1-.48-.22,7.48,7.48,0,0,1-3-4.33A8.45,8.45,0,0,1,.54,26c0-4.56,2.77-9.86,6.19-11.83a5,5,0,0,1,2.48-.75,7.48,7.48,0,0,1,3.43.33,3.37,3.37,0,0,1,.9.6c4.33,2.54,15.32,8.8,16.42,9.41,1.49.82,2.44,2.8,2.44,5.62,0,5.09-3.09,11-6.91,13.22-1.84,1.06-3.51,1.07-4.75.22S8.51,35.78,4.42,33.34Z"/><path class="f49999df-88c5-473f-a464-12b7cd3a01bd" d="M63.59,33.34a2.62,2.62,0,0,0,.48-.22,7.48,7.48,0,0,0,3-4.33A8.45,8.45,0,0,0,67.47,26c0-4.56-2.77-9.86-6.19-11.83a5,5,0,0,0-2.48-.75,7.48,7.48,0,0,0-3.43.33,3.37,3.37,0,0,0-.9.6c-4.33,2.54-15.32,8.8-16.42,9.41-1.49.82-2.44,2.8-2.44,5.62,0,5.09,3.09,11,6.91,13.22,1.84,1.06,3.51,1.07,4.75.22s12.23-7.06,16.32-9.5Z"/><path class="b52f54a6-0308-4ea1-ae89-53f0c56921bc" d="M43.84,65.92a7.12,7.12,0,0,1-1.48,3.46,5.5,5.5,0,0,1-2.21,2.14,13.49,13.49,0,0,1-12.19,0,6.92,6.92,0,0,1-.89-.61,7.19,7.19,0,0,1-2.79-5,1.57,1.57,0,0,1-.05-.37c0-3.25.15-18.36.06-19.73-.11-1.52.85-3.06,2.86-4.22a15.25,15.25,0,0,1,13.83,0c2,1.12,2.9,2.6,2.86,4.08s0,14.52,0,19.72a2.72,2.72,0,0,1,0,.49Z"/><path class="a34eb2d2-48d8-454d-be50-0919ece90305" d="M43.82,59.65c0-5.83,0-12.93,0-13.94,0-1.48-.91-3-2.86-4.08a15.25,15.25,0,0,0-13.83,0c-2,1.16-3,2.7-2.86,4.22.07.92,0,8.17,0,13.75l2.65-1.53a4.71,4.71,0,0,0,4.24-.22l.06,0a8.59,8.59,0,0,1,5.65.07,4.72,4.72,0,0,0,4.19.15Z"/><path class="a77cfbe6-390b-4c58-ab42-b4d020f6ffbc" d="M37,55a9.11,9.11,0,0,0-5.89,0c1.66-1,2.56-3.46,2.56-6.67,0-6-3.57-12.76-8.1-15.38-2.18-1.26-4-1.52-5.43-.52a8.19,8.19,0,0,0,2.33-4.49c0,1.68,1.18,3.35,3.4,4.63,4.53,2.61,11.87,2.61,16.4,0,2.22-1.28,3.35-3,3.39-4.64a9.6,9.6,0,0,0,2.56,4.61c-1.58-1.11-3.63-1.15-5.89.16-4.52,2.61-8,9.6-8,15.64,0,3.29.87,5.64,2.59,6.65Z"/><path class="e8175c65-7e79-46b8-aa6a-e7d3981089ad" d="M43.4,67.59a9.42,9.42,0,0,1-1,1.79,5.5,5.5,0,0,1-2.21,2.14,13.49,13.49,0,0,1-12.19,0,7.67,7.67,0,0,1-3.4-4.2,7.86,7.86,0,0,0,2,1.63c4.17,2.4,10.84,2.45,14.9.1a7.27,7.27,0,0,0,1.9-1.51Z"/><path class="b2e5311c-0d5c-430e-81c5-7734e52fa094" d="M11.85,13.53a9.08,9.08,0,0,0-2.64-.09,5,5,0,0,0-2.48.75C3.31,16.16.54,21.46.54,26A8.45,8.45,0,0,0,1,28.79a8.38,8.38,0,0,0,2.33,3.88,8.4,8.4,0,0,1-1.07-4.46c0-5.33,3.24-11.53,7.24-13.84a6,6,0,0,1,2.39-.84Z"/><path class="a0447192-8f0f-4917-a70f-393a3e865b37" d="M56.16,13.53a9.08,9.08,0,0,1,2.64-.09,5,5,0,0,1,2.48.75c3.42,2,6.19,7.27,6.19,11.83a8.45,8.45,0,0,1-.42,2.77,8.38,8.38,0,0,1-2.33,3.88,8.39,8.39,0,0,0,1.08-4.46c0-5.33-3.25-11.53-7.25-13.84a6,6,0,0,0-2.39-.84Z"/><path class="f3e628f9-a520-4cbc-a5c0-8507d62b8bcc" d="M59.5,32.14a.79.79,0,0,0,1.17.25,3,3,0,0,0,1.19-1.56l.59-.31a1.77,1.77,0,0,0,.82-1.38c0-.51-.35-.73-.8-.48l-.59.3a.78.78,0,0,0-1.16-.25,2.92,2.92,0,0,0-1.19,1.56l-.59.3A1.75,1.75,0,0,0,58.12,32c0,.51.35.73.79.48l.59-.3Z"/><path class="a700f622-0b04-43d9-b998-f99da5ce9c12" d="M61.5,28.74a.65.65,0,0,0-.13-.16.94.94,0,0,0-.65.13,2.92,2.92,0,0,0-1.19,1.56l-.59.3A1.75,1.75,0,0,0,58.12,32a.66.66,0,0,0,.09.36.6.6,0,0,0,.32-.1l.59-.3.38.22a1.07,1.07,0,0,0,.14.16,1,1,0,0,0,.65-.13,3,3,0,0,0,1.19-1.56l.59-.31a1.77,1.77,0,0,0,.82-1.38.64.64,0,0,0-.09-.36.65.65,0,0,0-.33.1l-.59.3Z"/><path class="f7cfe5de-094c-43a5-856f-e30377e80a04" d="M53.73,18.53a3.1,3.1,0,0,0,1.87-.27c.51-.29.69-.69.53-1.07l.62-.32c.45-.26.51-.64.14-.87a1.71,1.71,0,0,0-1.51.05l-.61.33a3.05,3.05,0,0,0-1.86.27c-.51.28-.69.69-.54,1.06l-.61.33c-.46.25-.52.64-.14.87a1.66,1.66,0,0,0,1.5-.06l.61-.32Z"/><path class="b4ba646c-c9b6-4d5e-8b20-51eb0eeb8baf" d="M55.38,16.49l-.61.32a3,3,0,0,0-1.86.28,1.14,1.14,0,0,0-.55.59,0,0,0,0,1,0,0h0a.58.58,0,0,0,0,.43l-.61.33a.73.73,0,0,0-.3.27.49.49,0,0,0,.16.16,1.66,1.66,0,0,0,1.5-.06l.61-.32a3.1,3.1,0,0,0,1.87-.27,1.09,1.09,0,0,0,.54-.6,0,0,0,0,0,0,0h0a.64.64,0,0,0,0-.43l.62-.32a.91.91,0,0,0,.3-.28.58.58,0,0,0-.16-.15A1.68,1.68,0,0,0,55.38,16.49Z"/><path class="f0fbc062-8735-47c9-bec6-abf958d4b1e2" d="M8.51,32.14a.79.79,0,0,1-1.17.25,3,3,0,0,1-1.19-1.56l-.59-.31a1.77,1.77,0,0,1-.82-1.38c0-.51.35-.73.8-.48l.59.3a.78.78,0,0,1,1.16-.25,3,3,0,0,1,1.2,1.56l.58.3A1.75,1.75,0,0,1,9.89,32c0,.51-.35.73-.79.48l-.59-.3Z"/><path class="a700f622-0b04-43d9-b998-f99da5ce9c12" d="M6.51,28.74a1,1,0,0,1,.13-.16.94.94,0,0,1,.65.13,3,3,0,0,1,1.2,1.56l.58.3A1.75,1.75,0,0,1,9.89,32a.59.59,0,0,1-.09.36.6.6,0,0,1-.32-.1l-.59-.3-.38.22a1.07,1.07,0,0,1-.14.16,1,1,0,0,1-.65-.13,3,3,0,0,1-1.19-1.56l-.59-.31a1.77,1.77,0,0,1-.82-1.38.73.73,0,0,1,.09-.36.65.65,0,0,1,.33.1l.59.3Z"/><path class="bb2856d5-a7a8-4b5a-900b-6f3af4909e02" d="M14.28,18.53a3.05,3.05,0,0,1-1.86-.27c-.52-.29-.7-.69-.54-1.07l-.62-.32c-.45-.26-.51-.64-.14-.87a1.71,1.71,0,0,1,1.51.05l.61.33a3.05,3.05,0,0,1,1.86.27c.51.28.7.69.54,1.06l.62.33c.45.25.51.64.14.87a1.68,1.68,0,0,1-1.51-.06l-.61-.32Z"/><path class="b4ba646c-c9b6-4d5e-8b20-51eb0eeb8baf" d="M12.63,16.49l.61.32a3,3,0,0,1,1.86.28,1.1,1.1,0,0,1,.55.59,0,0,0,0,0,0,0h0a.7.7,0,0,1,0,.43l.62.33a.76.76,0,0,1,.29.27.56.56,0,0,1-.15.16,1.68,1.68,0,0,1-1.51-.06l-.61-.32a3.05,3.05,0,0,1-1.86-.27,1.11,1.11,0,0,1-.55-.6s0,0,0,0h0a.64.64,0,0,1,0-.43l-.62-.32a.78.78,0,0,1-.29-.28.53.53,0,0,1,.15-.15A1.68,1.68,0,0,1,12.63,16.49Z"/><path class="b7a8becc-f67d-4841-bcf4-27a020c84a6c" d="M25.79,23.11c4.53-2.62,11.87-2.62,16.4,0s4.53,6.85,0,9.47-11.87,2.61-16.4,0-4.53-6.86,0-9.47Z"/><path class="a96b4913-5c54-4005-9635-b61cbe6053dc" d="M33.89,48.37c0-6-3.68-13.06-8.21-15.67s-8.2.16-8.2,6.2S21.15,52,25.68,54.57s8.21-.16,8.21-6.2Z"/><path class="afa11501-dbb1-494c-abea-6479a9dc6fe6" d="M34.06,48.37c0-6,3.67-13.06,8.2-15.67s8.2.16,8.2,6.2S46.79,52,42.26,54.57s-8.2-.16-8.2-6.2Z"/><path class="fa1d868b-2753-4aa6-960d-9fddd06bf8a8" d="M67.07,48.36a7.48,7.48,0,0,0-3-4.33C60,41.59,48.53,35.16,47.3,34.31s-2.92-.84-4.75.23c-3.82,2.2-6.92,8.12-6.92,13.21,0,2.82,1,4.72,2.45,5.63,1.26.79,12.65,7.29,17,9.82,0,0,.05,0,0,0a2.17,2.17,0,0,0,.33.19,7.39,7.39,0,0,0,3.44.33h-.1A4.88,4.88,0,0,0,61.3,63c3.42-2,6.2-7.27,6.2-11.83A10.07,10.07,0,0,0,67.07,48.36Zm-6.16-1.64c.13-.08.26-.2.39-.28a5.7,5.7,0,0,1,1.42-.57,3,3,0,0,1,.27.57l.59.3a1.8,1.8,0,0,1,.82,1.38.81.81,0,0,1-.09.37.77.77,0,0,1-.33-.1l-.59-.31c-.45.25-.44.27-.37.22a1.27,1.27,0,0,1-.14.17,1,1,0,0,1-.65-.13A2.92,2.92,0,0,1,61,46.78Z"/><path class="bb01276c-7175-4429-ba80-d41359e75ce6" d="M60.58,47l.08,0a2.86,2.86,0,0,0,1.19,1.55A.79.79,0,0,0,63,48.3l.58.31c.45.25.8,0,.8-.49a1.8,1.8,0,0,0-.82-1.38l-.59-.3a4,4,0,0,0-.27-.59c2.73-.72,4.78,1.37,4.78,5.28,0,4.56-2.78,9.86-6.2,11.83s-6.19-.12-6.19-4.68A15.22,15.22,0,0,1,60.58,47Z"/><path class="b88835bc-939b-41f3-874a-d3074d62651e" d="M63.39,48.08c-.45.25-.44.27-.37.22l.58.31c.32.17.58.11.71-.12a.77.77,0,0,1-.33-.1Zm-2.48-1.36-.33.24.08,0a2.86,2.86,0,0,0,1.19,1.55.79.79,0,0,0,1-.08,1,1,0,0,1-.65-.13A2.92,2.92,0,0,1,61,46.78Z"/><path class="af586a8e-99b4-4821-bdbe-0c26523d2c27" d="M52.72,57.65c0-5.1,3.1-11,6.92-13.22a4.44,4.44,0,0,1,4.45-.4,7.48,7.48,0,0,1,3,4.33c-.9-2.55-3.14-3.43-5.77-1.92-3.42,2-6.19,7.28-6.19,11.84,0,3.39,1.53,5.42,3.72,5.43a7.39,7.39,0,0,1-3.44-.33c-1.62-.75-2.67-2.78-2.67-5.73Z"/><path class="aadab1af-abdc-4435-b99a-3a88b6975a08" d="M54.79,43.06a2.92,2.92,0,0,1-1.86-.27c-.51-.29-.69-.69-.54-1.06l-.61-.33c-.46-.25-.52-.64-.14-.87a1.69,1.69,0,0,1,1.5,0l.62.33a3.05,3.05,0,0,1,1.86.27c.51.29.69.7.54,1.07l.61.32c.45.25.52.64.14.87a1.71,1.71,0,0,1-1.51,0l-.61-.33Z"/><path class="b4ba646c-c9b6-4d5e-8b20-51eb0eeb8baf" d="M53.14,41l.62.33a3.05,3.05,0,0,1,1.86.27,1.09,1.09,0,0,1,.54.6v0h0a.66.66,0,0,1,0,.44l.61.32a.89.89,0,0,1,.3.27.49.49,0,0,1-.16.16,1.71,1.71,0,0,1-1.51,0l-.61-.33a2.92,2.92,0,0,1-1.86-.27,1.09,1.09,0,0,1-.54-.6v0h0a.63.63,0,0,1,0-.43l-.61-.33a.81.81,0,0,1-.3-.27.49.49,0,0,1,.16-.16A1.69,1.69,0,0,1,53.14,41Z"/><path class="ac887c21-681c-48c2-8c23-906985e7d65d" d="M49,56.36a.79.79,0,0,1-1.17.25,3,3,0,0,1-1.19-1.56l-.59-.3a1.8,1.8,0,0,1-.82-1.38c0-.52.35-.73.8-.49l.59.31a.78.78,0,0,1,1.16-.25A2.94,2.94,0,0,1,49,54.49l.59.31a1.75,1.75,0,0,1,.82,1.38c0,.52-.35.73-.79.49L49,56.36Z"/><path class="a700f622-0b04-43d9-b998-f99da5ce9c12" d="M47,53a.51.51,0,0,1,.13-.16,1,1,0,0,1,.65.13A2.94,2.94,0,0,1,49,54.49l.59.31a1.75,1.75,0,0,1,.82,1.38.7.7,0,0,1-.09.37,1,1,0,0,1-.33-.1l-.58-.31-.38.22a1.15,1.15,0,0,1-.14.17,1,1,0,0,1-.65-.14A2.9,2.9,0,0,1,47,54.84l-.59-.31a1.8,1.8,0,0,1-.82-1.38.81.81,0,0,1,.09-.37,1,1,0,0,1,.33.1l.59.31Z"/><path class="b0c5d79c-38bc-4a47-a03c-c4d406be4d47" d="M.5,51.13C.5,55.69,3.28,61,6.7,63a4.9,4.9,0,0,0,2.57.74H9.18a7.36,7.36,0,0,0,3.43-.33,2.17,2.17,0,0,0,.33-.19s0,0,0,0c4.33-2.53,15.73-9,17-9.83,1.44-.91,2.44-2.81,2.44-5.63,0-5.09-3.1-11-6.91-13.21-1.84-1.07-3.51-1.07-4.75-.23S8,41.59,3.91,44a7.48,7.48,0,0,0-3,4.33A10.07,10.07,0,0,0,.5,51.13ZM7,46.78a2.92,2.92,0,0,1-1.19,1.56,1,1,0,0,1-.65.13A.76.76,0,0,1,5,48.3c.06.05.07,0-.38-.22L4,48.39a.77.77,0,0,1-.33.1.81.81,0,0,1-.09-.37,1.8,1.8,0,0,1,.82-1.38l.59-.3a3,3,0,0,1,.27-.57,5.7,5.7,0,0,1,1.42.57c.13.08.26.2.39.28Z"/><path class="b9095cd1-d349-4d53-8a44-9a7d297d56b0" d="M7.42,47l-.08,0a2.86,2.86,0,0,1-1.19,1.55A.78.78,0,0,1,5,48.3l-.59.31c-.45.25-.81,0-.8-.49a1.8,1.8,0,0,1,.82-1.38l.59-.3a5.3,5.3,0,0,1,.27-.59C2.55,45.13.5,47.22.5,51.13.5,55.69,3.28,61,6.7,63s6.19-.12,6.19-4.68A15.19,15.19,0,0,0,7.42,47Z"/><path class="b7b75d88-7c0c-4310-b83c-26c8364ef70d" d="M4,48.39a.77.77,0,0,1-.33.1c.13.23.39.29.71.12L5,48.3c.06.05.07,0-.38-.22ZM7,46.78a2.92,2.92,0,0,1-1.19,1.56,1,1,0,0,1-.65.13.79.79,0,0,0,1,.08A2.86,2.86,0,0,0,7.34,47l.08,0-.33-.24Z"/><path class="b16ccabb-86aa-4c4a-93e8-1875ee588795" d="M15.28,57.65c0-5.1-3.1-11-6.92-13.22A4.44,4.44,0,0,0,3.91,44a7.48,7.48,0,0,0-3,4.33c.9-2.55,3.14-3.43,5.77-1.92,3.42,2,6.19,7.28,6.19,11.84,0,3.39-1.53,5.42-3.71,5.43a7.36,7.36,0,0,0,3.43-.33c1.62-.75,2.67-2.78,2.67-5.73Z"/><path class="a29c7a00-23be-41f0-8ade-9c0e07fd7aa1" d="M13.21,43.06a2.92,2.92,0,0,0,1.86-.27c.51-.29.69-.69.54-1.06l.61-.33c.45-.25.52-.64.14-.87a1.69,1.69,0,0,0-1.5,0l-.62.33a3.07,3.07,0,0,0-1.86.27c-.51.29-.69.7-.54,1.07l-.61.32c-.45.25-.52.64-.14.87a1.71,1.71,0,0,0,1.51,0l.61-.33Z"/><path class="b4ba646c-c9b6-4d5e-8b20-51eb0eeb8baf" d="M14.86,41l-.62.33a3.07,3.07,0,0,0-1.86.27,1.09,1.09,0,0,0-.54.6v0h0a.73.73,0,0,0,0,.44l-.61.32a1,1,0,0,0-.3.27.49.49,0,0,0,.16.16,1.71,1.71,0,0,0,1.51,0l.61-.33a2.92,2.92,0,0,0,1.86-.27,1.09,1.09,0,0,0,.54-.6v0h0a.63.63,0,0,0,0-.43l.61-.33a.81.81,0,0,0,.3-.27.49.49,0,0,0-.16-.16A1.69,1.69,0,0,0,14.86,41Z"/><path class="ad03ebb6-2ade-4076-afe5-e0410eef2540" d="M19,56.36a.79.79,0,0,0,1.17.25,2.93,2.93,0,0,0,1.19-1.56l.59-.3a1.78,1.78,0,0,0,.82-1.38c0-.52-.35-.73-.8-.49l-.58.31a.79.79,0,0,0-1.17-.25A2.94,2.94,0,0,0,19,54.49l-.59.31a1.78,1.78,0,0,0-.82,1.38c0,.52.35.73.79.49l.59-.31Z"/><path class="a700f622-0b04-43d9-b998-f99da5ce9c12" d="M21,53a.73.73,0,0,0-.14-.16,1,1,0,0,0-.65.13A2.94,2.94,0,0,0,19,54.49l-.59.31a1.78,1.78,0,0,0-.82,1.38.7.7,0,0,0,.09.37.84.84,0,0,0,.32-.1l.59-.31.38.22a1.15,1.15,0,0,0,.14.17,1,1,0,0,0,.65-.14A2.9,2.9,0,0,0,21,54.84l.59-.31a1.78,1.78,0,0,0,.82-1.38.81.81,0,0,0-.09-.37,1,1,0,0,0-.33.1l-.58.31Z"/><path class="b6696196-758e-4063-b866-67921e2b9b57" d="M42.11,61c.42,0,.71.45.73,1.1a3.42,3.42,0,0,1-.61,2l.05.76a1.87,1.87,0,0,1-.65,1.5c-.38.25-.71,0-.74-.61l0-.75c-.42,0-.71-.45-.74-1.1a3.49,3.49,0,0,1,.61-2l0-.76a1.84,1.84,0,0,1,.65-1.5c.38-.24.71,0,.74.61l0,.75Z"/><path class="a700f622-0b04-43d9-b998-f99da5ce9c12" d="M41.73,60.78l0-.75a1,1,0,0,0-.13-.46.51.51,0,0,0-.23.07,1.84,1.84,0,0,0-.65,1.5l0,.76a3.49,3.49,0,0,0-.61,2,1.33,1.33,0,0,0,.31.86l0,0v0a.69.69,0,0,0,.38.19l0,.75a1,1,0,0,0,.13.47.53.53,0,0,0,.23-.08,1.87,1.87,0,0,0,.65-1.5l0-.76a3.54,3.54,0,0,0,.61-2,1.3,1.3,0,0,0-.32-.86Z"/><path class="a5734611-6213-40d2-b0db-d75153147018" d="M25.82,61c-.41,0-.71.45-.73,1.1a3.42,3.42,0,0,0,.61,2l-.05.76a1.87,1.87,0,0,0,.65,1.5c.39.25.72,0,.74-.61l.05-.75c.41,0,.7-.45.73-1.1a3.42,3.42,0,0,0-.61-2l.05-.76a1.85,1.85,0,0,0-.66-1.5c-.38-.24-.71,0-.73.61l-.05.75Z"/><path class="a700f622-0b04-43d9-b998-f99da5ce9c12" d="M26.2,60.78l.05-.75a.93.93,0,0,1,.13-.46.51.51,0,0,1,.22.07,1.85,1.85,0,0,1,.66,1.5l-.05.76a3.42,3.42,0,0,1,.61,2,1.23,1.23,0,0,1-.31.86l0,0v0a.72.72,0,0,1-.38.19l-.05.75a1,1,0,0,1-.13.47.58.58,0,0,1-.23-.08,1.87,1.87,0,0,1-.65-1.5l0-.76a3.39,3.39,0,0,1-.61-2,1.25,1.25,0,0,1,.31-.86Z"/><path class="bab36ba9-61c8-4947-9d36-c853f685ed5e" d="M25.7,6.78a1.74,1.74,0,0,1,.63-1.16.43.43,0,0,1,.23-.07.93.93,0,0,1,.13.46l0,.75a.69.69,0,0,1,.38.19V7h.05a1.39,1.39,0,0,1,.31.87,2.67,2.67,0,0,1-.07.68l-.07.06a6,6,0,0,1-.84-.7m-.77-3.83a7,7,0,0,0-1.48,3.46,2.1,2.1,0,0,0,0,.5s0,0,0,0c0,5.21,0,18.32,0,19.73s.91,3,2.86,4.08a15.32,15.32,0,0,0,13.83,0c2-1.16,3-2.7,2.86-4.22s.05-16.48.05-19.73a1.58,1.58,0,0,0,0-.38s0,0,0,.08A7.09,7.09,0,0,0,41,2.49c.07,0,.1.1.16.15a6.59,6.59,0,0,0-1.05-.76,13.46,13.46,0,0,0-12.19.05A5.08,5.08,0,0,0,25.72,4.07ZM40.58,8.53a3.09,3.09,0,0,1-.06-.67A1.28,1.28,0,0,1,40.83,7h0V7a.72.72,0,0,1,.38-.19l0-.75a.93.93,0,0,1,.13-.46.4.4,0,0,1,.22.07,1.68,1.68,0,0,1,.6,1A4.91,4.91,0,0,1,40.58,8.53ZM25.75,6.87a3.92,3.92,0,0,0,.72,1A3.92,3.92,0,0,1,25.75,6.87Z"/><path class="b7f6ebbe-00a2-4621-89a1-d44a90ab6f31" d="M24.24,7.53a7,7,0,0,1,1.48-3.46c-.86,1.69-.16,3.57,2.13,4.89A13.44,13.44,0,0,0,40,8.91c3-1.76,3.39-4.49,1-6.42A7.1,7.1,0,0,1,43.8,7.65c0,1.43-1,2.87-2.87,4a15.25,15.25,0,0,1-13.83,0c-2-1.12-2.9-2.61-2.86-4.08Z"/><path class="a59d0863-e30a-4c87-b971-479a76a68180" d="M42.11,15.13c.42,0,.71.44.73,1.1a3.42,3.42,0,0,1-.61,2l.05.75a1.87,1.87,0,0,1-.65,1.5c-.38.25-.71,0-.74-.6l0-.76c-.42,0-.71-.44-.74-1.1a3.46,3.46,0,0,1,.61-2l0-.76a1.84,1.84,0,0,1,.65-1.5c.38-.25.71,0,.74.6l0,.76Z"/><path class="a700f622-0b04-43d9-b998-f99da5ce9c12" d="M41.73,14.91l0-.76a1.09,1.09,0,0,0-.13-.46.53.53,0,0,0-.23.08,1.84,1.84,0,0,0-.65,1.5l0,.76a3.46,3.46,0,0,0-.61,2,1.36,1.36,0,0,0,.31.87h0v0a.63.63,0,0,0,.38.19l0,.76a1,1,0,0,0,.13.46.43.43,0,0,0,.23-.08,1.86,1.86,0,0,0,.65-1.5l0-.75a3.57,3.57,0,0,0,.61-2,1.33,1.33,0,0,0-.32-.87Z"/><path class="a838bdcc-2020-4153-8d02-bbf72b636cc1" d="M40.92,6.22,40.87,7a.72.72,0,0,1,.38-.19l0-.75a1,1,0,0,1,.13-.47C41.15,5.51,40.94,5.76,40.92,6.22Zm-.78,1.86a2.55,2.55,0,0,0,.07.72c.13-.08.25-.17.37-.26a3.18,3.18,0,0,1-.06-.68A1.28,1.28,0,0,1,40.83,7C40.44,7.07,40.16,7.45,40.14,8.08Z"/><path class="a8be8a4a-8d77-45b6-a2c3-50e28352f6ff" d="M26.56,5.54a1,1,0,0,1,.13.47l0,.75a.69.69,0,0,1,.38.19l0-.73C27.05,5.76,26.84,5.51,26.56,5.54ZM27.16,7a1.39,1.39,0,0,1,.31.87,2.67,2.67,0,0,1-.07.68,3.62,3.62,0,0,0,.38.26,3,3,0,0,0,.07-.72C27.82,7.45,27.55,7.07,27.16,7Z"/><path class="a6b4eb59-62c9-4a0c-b8c0-e1c0c9f2bb2b" d="M26.47,7.88a3.92,3.92,0,0,1-.72-1A3.92,3.92,0,0,0,26.47,7.88Zm13.65-6a13.46,13.46,0,0,0-12.19.05c-2.29,1.32-3,3.18-2.23,4.85a1.74,1.74,0,0,1,.63-1.16c.38-.25.71,0,.74.6l0,.76c.42,0,.71.45.74,1.1a3.17,3.17,0,0,1-.09.8,6.26,6.26,0,0,1-1.27-1A6.36,6.36,0,0,0,27.85,9,13.44,13.44,0,0,0,40,8.91c.07,0,.11-.09.18-.13a2.38,2.38,0,0,1-.07-.7c0-.65.32-1,.73-1.1l.05-.76c0-.58.35-.85.73-.6a1.69,1.69,0,0,1,.61,1C43,5,42.35,3.17,40.12,1.88Z"/><path class="a8a7b7c1-f558-428a-bf56-cc1a6f25873b" d="M60.58,47l.08,0a2.86,2.86,0,0,0,1.19,1.55A.79.79,0,0,0,63,48.3l.58.31c.45.25.8,0,.8-.49a1.8,1.8,0,0,0-.82-1.38l-.59-.3a4,4,0,0,0-.27-.59c2.73-.72,4.78,1.37,4.78,5.28,0,4.56-2.78,9.86-6.2,11.83s-6.19-.12-6.19-4.68A15.22,15.22,0,0,1,60.58,47Z"/><path class="aac2fcd7-bf90-45e7-aaf1-d8c8786ceb9a" d="M7.42,47l-.08,0a2.86,2.86,0,0,1-1.19,1.55A.78.78,0,0,1,5,48.3l-.59.31c-.45.25-.81,0-.8-.49a1.8,1.8,0,0,1,.82-1.38l.59-.3a5.3,5.3,0,0,1,.27-.59C2.55,45.13.5,47.22.5,51.13.5,55.69,3.28,61,6.7,63s6.19-.12,6.19-4.68A15.19,15.19,0,0,0,7.42,47Z"/><path class="bfacf1fb-a5b6-406e-ab27-1bdfea1e21b8" d="M26.47,7.88a3.92,3.92,0,0,1-.72-1A3.92,3.92,0,0,0,26.47,7.88Zm13.65-6a13.46,13.46,0,0,0-12.19.05c-2.29,1.32-3,3.18-2.23,4.85a1.74,1.74,0,0,1,.63-1.16c.38-.25.71,0,.74.6l0,.76c.42,0,.71.45.74,1.1a3.17,3.17,0,0,1-.09.8,6.26,6.26,0,0,1-1.27-1A6.36,6.36,0,0,0,27.85,9,13.44,13.44,0,0,0,40,8.91c.07,0,.11-.09.18-.13a2.38,2.38,0,0,1-.07-.7c0-.65.32-1,.73-1.1l.05-.76c0-.58.35-.85.73-.6a1.69,1.69,0,0,1,.61,1C43,5,42.35,3.17,40.12,1.88Z"/><path class="bb8312d5-946b-4293-b043-5fd01a272037" d="M25.82,15.13c-.41,0-.71.44-.73,1.1a3.42,3.42,0,0,0,.61,2l-.05.75a1.87,1.87,0,0,0,.65,1.5c.39.25.72,0,.74-.6l.05-.76c.41,0,.7-.44.73-1.1a3.39,3.39,0,0,0-.61-2l.05-.76a1.85,1.85,0,0,0-.66-1.5c-.38-.25-.71,0-.73.6l-.05.76Z"/><path class="a700f622-0b04-43d9-b998-f99da5ce9c12" d="M26.2,14.91l.05-.76a1,1,0,0,1,.13-.46.54.54,0,0,1,.22.08,1.85,1.85,0,0,1,.66,1.5l-.05.76a3.39,3.39,0,0,1,.61,2,1.26,1.26,0,0,1-.31.87h0v0a.66.66,0,0,1-.38.19l-.05.76a1,1,0,0,1-.13.46.46.46,0,0,1-.23-.08,1.86,1.86,0,0,1-.65-1.5l0-.75a3.42,3.42,0,0,1-.61-2,1.28,1.28,0,0,1,.31-.87Z"/></svg>