<svg id="e0f4a65a-616e-4c70-830c-6ba91ed0b05b" data-name="Layer 1" xmlns="http://www.w3.org/2000/svg" xmlns:xlink="http://www.w3.org/1999/xlink" width="216" height="512" viewBox="0 0 216 512"><defs><style>.af88d23b-028a-4acc-b90d-497a0b197c95{fill:url(#f1ae00e8-c24a-4481-b419-5b4dbfef85c8);}.b7eea6a8-8508-4f26-b959-0953bddc3376{fill:url(#f36b8934-84d0-42b4-b60f-25060855b91c);}.ab705e33-6d42-4f1a-93d5-b94e76abb44a{fill:url(#b5422d2b-ff1e-40c7-973a-603ad88cd3c4);}.f20b7eff-200c-4236-83eb-e637ce1b9188{fill:url(#f8847123-80fd-45c1-9765-b056f3325370);}.af0ff79f-844c-4284-a27f-39cfa0d95328{fill:url(#b2a1adf2-9215-4d43-aa18-c2c145bb8ae8);}.bcd5bed7-b8b3-4203-aa1a-fae79e1d2503{fill:url(#e6b89663-7de1-4735-b16e-8f840acc0c03);}.b352e4db-a35e-4f19-894f-9101c3824212{fill:url(#a57a698f-1da5-4ac5-bbf7-c032461fe7eb);}.ae82860c-b986-484b-b876-ac9f5f043ea9{fill:url(#aa653509-992d-4c66-96f0-407bd9df940d);}.b0920027-c624-4a70-a3cc-f7d7f1974de3{fill:url(#faa935f2-3052-4bda-83e1-ac673feab56a);}.f1a74d42-34fd-4e0e-9f5d-63577c8f7eed{fill:url(#bb613c60-383b-4289-8c7e-4dac50ec0a06);}.fca361c5-b365-475d-8750-b05f765ce7ce{fill:url(#baf7b707-cf0f-4cbe-9680-b98f9f075716);}.bb25baf5-1f80-4774-83db-92854962404b{fill:url(#a726a963-4bc9-45f7-8805-a8559a08dffc);}.b4f55544-13af-4a87-aa27-b4c1b54ffc50{fill:url(#e2679b12-8739-4c46-af7b-e21ce7440850);}.a403c4ee-c561-42cf-8eca-0a9f72c63092{fill:url(#bf4be452-7202-4865-bed2-e685e71ac77b);}.f62fdc6a-52b2-4061-a25e-f0bf634818c9{fill:url(#b282bda6-532b-4099-b167-a3131b0824b3);}.b484e61f-39b0-4c2b-ad8e-459ace2fe763{fill:url(#a5c48f8d-4f00-49d7-9815-491b415df386);}.e48c5c5b-c130-42ed-97d1-b8a58769457f{fill:url(#b6d142c1-83b7-4191-93ca-9725348536ba);}.fe6ccebb-64fe-4f74-b9a5-3fce082bb68c{fill:#1b6343;}.e8054cea-cfc0-4538-8197-054a9674292f{fill:url(#b52fbb37-9668-4a8c-9cdf-953beae3864e);}.adfa1532-f2f5-4c2f-832d-98971a2dd057{fill:url(#b932d128-0237-45ed-a104-8b4bf832ae0a);}.bacce91f-8c06-493d-8890-2f07128f0c17{fill:url(#beadb8c9-8777-47ee-8d5c-29ee789f8adb);}.ecfe558d-938a-416f-8ed4-1fc0331d9b76{fill:url(#a05f8a34-0ef9-4e27-a935-07376db5d1b6);}.ec09f1d9-ffe1-4c0b-bedc-28fbc45bf21d{fill:url(#a5fad503-c9cc-42c5-9f37-47a8a4643073);}.bbdd178c-f88f-4a37-a36a-9f84c875fc76{fill:none;}.a3064089-6a5e-4fcd-89cf-9d96adda5f46{fill:url(#e6e477e2-8ed4-43d5-95df-badb71fc1ee8);}</style><linearGradient id="f1ae00e8-c24a-4481-b419-5b4dbfef85c8" x1="-1227.5" y1="1047.88" x2="-1223.79" y2="1047.88" gradientTransform="translate(-9882.76 -254.14) rotate(-137.96) scale(6.21)" gradientUnits="userSpaceOnUse"><stop offset="0" stop-color="#50b748"/><stop offset="1" stop-color="#409946"/></linearGradient><linearGradient id="f36b8934-84d0-42b4-b60f-25060855b91c" x1="-1773.47" y1="1278.52" x2="-1769.76" y2="1278.52" gradientTransform="translate(8296.62 2813.67) rotate(54.8) scale(3.96)" gradientUnits="userSpaceOnUse"><stop offset="0" stop-color="#50b748"/><stop offset="0.98" stop-color="#a2ce62"/><stop offset="1" stop-color="#a2ce62"/></linearGradient><linearGradient id="b5422d2b-ff1e-40c7-973a-603ad88cd3c4" x1="-983.54" y1="801.84" x2="-979.83" y2="801.84" gradientTransform="translate(-2926.73 -1142.84) rotate(-120) scale(2.57)" gradientUnits="userSpaceOnUse"><stop offset="0" stop-color="#a2ce62"/><stop offset="0.21" stop-color="#a2ce62"/><stop offset="0.72" stop-color="#50b748"/><stop offset="0.97" stop-color="#226e27"/><stop offset="1" stop-color="#226e27"/></linearGradient><linearGradient id="f8847123-80fd-45c1-9765-b056f3325370" x1="-1124.03" y1="1028.79" x2="-1120.33" y2="1028.79" gradientTransform="matrix(-3.5, -2.7, 2.7, -3.5, -6691.78, 638.34)" xlink:href="#f36b8934-84d0-42b4-b60f-25060855b91c"/><linearGradient id="b2a1adf2-9215-4d43-aa18-c2c145bb8ae8" x1="-1454.91" y1="1119.45" x2="-1451.21" y2="1119.45" gradientTransform="translate(137241.39 178272.34) rotate(90) scale(122.5)" gradientUnits="userSpaceOnUse"><stop offset="0" stop-color="#a2ce62"/><stop offset="0.31" stop-color="#50b748"/><stop offset="0.76" stop-color="#50b748"/><stop offset="1" stop-color="#a2ce62"/></linearGradient><linearGradient id="e6b89663-7de1-4735-b16e-8f840acc0c03" x1="-1558.31" y1="2050.28" x2="-1554.59" y2="2050.28" gradientTransform="matrix(-0.2, 1.48, -1.48, -0.2, 2724.4, 3129.54)" gradientUnits="userSpaceOnUse"><stop offset="0" stop-color="#085116"/><stop offset="1" stop-color="#226e27"/></linearGradient><linearGradient id="a57a698f-1da5-4ac5-bbf7-c032461fe7eb" x1="-1446.33" y1="1095.37" x2="-1442.62" y2="1095.37" gradientTransform="translate(-109230.08 -143851.7) rotate(-90) scale(99.75)" gradientUnits="userSpaceOnUse"><stop offset="0" stop-color="#a2ce62"/><stop offset="0.34" stop-color="#50b748"/><stop offset="0.98" stop-color="#a2ce62"/><stop offset="1" stop-color="#a2ce62"/></linearGradient><linearGradient id="aa653509-992d-4c66-96f0-407bd9df940d" x1="-1481.44" y1="1139.91" x2="-1477.73" y2="1139.91" gradientTransform="translate(54787.68 32205.3) rotate(67.96) scale(33.98)" gradientUnits="userSpaceOnUse"><stop offset="0" stop-color="#50b748"/><stop offset="1" stop-color="#226e27"/></linearGradient><linearGradient id="faa935f2-3052-4bda-83e1-ac673feab56a" x1="-1481.44" y1="1139.55" x2="-1477.73" y2="1139.55" xlink:href="#aa653509-992d-4c66-96f0-407bd9df940d"/><linearGradient id="bb613c60-383b-4289-8c7e-4dac50ec0a06" x1="-1481.44" y1="1139.3" x2="-1477.73" y2="1139.3" xlink:href="#aa653509-992d-4c66-96f0-407bd9df940d"/><linearGradient id="baf7b707-cf0f-4cbe-9680-b98f9f075716" x1="-984.92" y1="766.52" x2="-981.22" y2="766.52" gradientTransform="translate(-2957.38 -1125.36) rotate(-120) scale(2.57)" xlink:href="#b5422d2b-ff1e-40c7-973a-603ad88cd3c4"/><linearGradient id="a726a963-4bc9-45f7-8805-a8559a08dffc" x1="-1734.18" y1="1430.32" x2="-1730.47" y2="1430.32" gradientTransform="translate(6537.87 3065.81) rotate(61.34) scale(3.08)" xlink:href="#e6b89663-7de1-4735-b16e-8f840acc0c03"/><linearGradient id="e2679b12-8739-4c46-af7b-e21ce7440850" x1="-1734.18" y1="1424.61" x2="-1730.47" y2="1424.61" gradientTransform="translate(6537.87 3065.81) rotate(61.34) scale(3.08)" xlink:href="#e6b89663-7de1-4735-b16e-8f840acc0c03"/><linearGradient id="bf4be452-7202-4865-bed2-e685e71ac77b" x1="-1529.85" y1="1043.32" x2="-1526.15" y2="1043.32" gradientTransform="translate(15843.71 -18377.56) rotate(-15.49) scale(13.1)" gradientUnits="userSpaceOnUse"><stop offset="0" stop-color="#6abc48"/><stop offset="1" stop-color="#409545"/></linearGradient><linearGradient id="b282bda6-532b-4099-b167-a3131b0824b3" x1="-1493.99" y1="1115.84" x2="-1490.28" y2="1115.84" gradientTransform="matrix(28.25, 14.5, -14.5, 28.25, 58416.57, -9569.46)" xlink:href="#aa653509-992d-4c66-96f0-407bd9df940d"/><linearGradient id="a5c48f8d-4f00-49d7-9815-491b415df386" x1="-1454.74" y1="1118.44" x2="-1451.03" y2="1118.44" gradientTransform="translate(147046.26 191065.52) rotate(90) scale(131.33)" gradientUnits="userSpaceOnUse"><stop offset="0" stop-color="#a2ce62"/><stop offset="0.09" stop-color="#a2ce62"/><stop offset="0.36" stop-color="#50b748"/><stop offset="0.5" stop-color="#52aa47"/><stop offset="0.66" stop-color="#50b748"/><stop offset="1" stop-color="#a2ce62"/></linearGradient><linearGradient id="b6d142c1-83b7-4191-93ca-9725348536ba" x1="-1528.55" y1="1125.76" x2="-1524.85" y2="1125.76" gradientTransform="translate(30627.98 -3488.17) rotate(29.14) scale(16.17)" gradientUnits="userSpaceOnUse"><stop offset="0" stop-color="#509647"/><stop offset="1" stop-color="#226e27"/></linearGradient><linearGradient id="b52fbb37-9668-4a8c-9cdf-953beae3864e" x1="-1544.37" y1="1402.36" x2="-1540.66" y2="1402.36" gradientTransform="translate(6609.79 6568.27) rotate(85.42) scale(4.26)" gradientUnits="userSpaceOnUse"><stop offset="0" stop-color="#fff100"/><stop offset="1" stop-color="#ba890b"/></linearGradient><linearGradient id="b932d128-0237-45ed-a104-8b4bf832ae0a" x1="-1415.73" y1="1933.82" x2="-1412.03" y2="1933.82" gradientTransform="translate(2488.33 3481.38) rotate(105.55) scale(1.59)" gradientUnits="userSpaceOnUse"><stop offset="0" stop-color="#7d4900"/><stop offset="1" stop-color="#ba890b"/></linearGradient><linearGradient id="beadb8c9-8777-47ee-8d5c-29ee789f8adb" x1="-1528.55" y1="1125.76" x2="-1524.85" y2="1125.76" gradientTransform="translate(30627.98 -3488.17) rotate(29.14) scale(16.17)" xlink:href="#aa653509-992d-4c66-96f0-407bd9df940d"/><linearGradient id="a05f8a34-0ef9-4e27-a935-07376db5d1b6" x1="-1593.87" y1="526.74" x2="-1590.17" y2="526.74" gradientTransform="translate(681.68 -3144.79) rotate(-63.03) scale(2.19)" xlink:href="#b5422d2b-ff1e-40c7-973a-603ad88cd3c4"/><linearGradient id="a5fad503-c9cc-42c5-9f37-47a8a4643073" x1="-1581.89" y1="1461.44" x2="-1578.19" y2="1461.44" gradientTransform="translate(5889.75 5311.32) rotate(82.67) scale(3.49)" xlink:href="#e6b89663-7de1-4735-b16e-8f840acc0c03"/><linearGradient id="e6e477e2-8ed4-43d5-95df-badb71fc1ee8" x1="16.51" y1="296.76" x2="206.47" y2="263.26" gradientTransform="matrix(-1, 0, 0, 1, 216, 0)" gradientUnits="userSpaceOnUse"><stop offset="0" stop-color="#2a9345" stop-opacity="0.5"/><stop offset="0.6" stop-color="#a2ce62" stop-opacity="0"/></linearGradient></defs><title>csb-scaled</title><g id="a4a8b9cf-b682-4ddf-af47-030d2b997e9e" data-name="csb"><path class="af88d23b-028a-4acc-b90d-497a0b197c95" d="M114.63,15.1s9.93,5.46,14.85,8.83l2.75-13.24L114.63,1ZM119.43,9a3.79,3.79,0,0,1,.42-1.82,2.72,2.72,0,0,1,1.13.37,7.54,7.54,0,0,1,3.15,6,3.65,3.65,0,0,1-.42,1.82,2.65,2.65,0,0,1-1.13-.36A7.55,7.55,0,0,1,119.43,9Z"/><polygon class="b7eea6a8-8508-4f26-b959-0953bddc3376" points="116.22 0.08 133.65 9.57 132.23 10.69 114.63 1.01 116.22 0.08"/><path class="ab705e33-6d42-4f1a-93d5-b94e76abb44a" d="M119.73,7.2h.12a3.74,3.74,0,0,0-.41,1.8,7.53,7.53,0,0,0,3.15,6,2.63,2.63,0,0,0,1.07.33,1.79,1.79,0,0,1-2.68.58,7.53,7.53,0,0,1-3.13-6C117.85,8.21,118.62,7.2,119.73,7.2Z"/><polygon class="f20b7eff-200c-4236-83eb-e637ce1b9188" points="9.59 67.11 23.68 74.73 22.09 75.66 7.99 68.04 9.59 67.11"/><path class="af0ff79f-844c-4284-a27f-39cfa0d95328" d="M.35,418c1-1.27,3.66.74,5.31,2.73a38.24,38.24,0,0,1,3.64,6.09c1.35,1.64,2.18,8.81,5.34,15.88,4.22,9.36,10.15,15.53,19.1,21.23s69.41,43.92,74.29,46.35,6.5,2.45,10-.81,30.1-39.85,42.29-61.53S197.77,376.05,204,330.78c10-45.82,9.5-63.72,10.85-83.5s1.36-70.23-3-99.51S197,78.64,182.58,56.67c-14.15-21.63-40.67-48-52.86-48l-.54,0V27.13c0,9,0,23.58-7.32,29C115.35,52.35,111.28,49.37,108,51S40,90.3,40,90.3,33.21,73.49,27.5,70.51c-2.71-.28-5.69,2.7-5.41,5.15L8,68v14.1s13.46,7.09,16.17,10.35,12,14.9,20.16,53.66,7.59,64.8,8.94,95.44-5.42,78.34-12.73,104.1-19.26,48-27.94,58.29C4.49,413.61.41,414.94.35,418ZM17.5,79.8a3.53,3.53,0,0,1-.43,1.81A2.48,2.48,0,0,1,16,81.25a7.52,7.52,0,0,1-3.15-6,3.61,3.61,0,0,1,.42-1.81,2.48,2.48,0,0,1,1.12.36A7.52,7.52,0,0,1,17.5,79.8Z"/><path class="bcd5bed7-b8b3-4203-aa1a-fae79e1d2503" d="M4.19,428.11s-3.25-6-3.8-9.48a5.29,5.29,0,0,1,0-.66,1.07,1.07,0,0,1,.86-.44c1.25,0,3.4,1.42,4.69,3A33.38,33.38,0,0,1,9,426.11Z"/><path class="b352e4db-a35e-4f19-894f-9101c3824212" d="M.35,418c1-1.27,3.66.74,5.31,2.73a38.24,38.24,0,0,1,3.64,6.09c1.35,1.64,2.18,8.81,5.34,15.88a44.08,44.08,0,0,0,9.8,14.06c4.78-5.56,13.64-18.83,20.61-46.42,4.79-18.94,13.16-52,15.89-79.33s4-83.07,3.4-101.16c-.57-17-2.37-46.68-7-74.73s-9.9-45.25-12.13-51.31C44,100.58,42,95.44,40,90.41a101.67,101.67,0,0,0-5.16-10.79,34.13,34.13,0,0,0-5.54-7.77,8,8,0,0,0-1.81-1.34c-2.71-.28-5.69,2.7-5.41,5.15L8,68v14.1s13.46,7.09,16.17,10.35,12,14.9,20.16,53.66,7.59,64.8,8.94,95.44-5.42,78.34-12.73,104.1-19.26,48-27.94,58.29C4.49,413.61.41,414.94.35,418ZM17.5,79.8a3.53,3.53,0,0,1-.43,1.81A2.48,2.48,0,0,1,16,81.25a7.52,7.52,0,0,1-3.15-6,3.61,3.61,0,0,1,.42-1.81,2.48,2.48,0,0,1,1.12.36A7.52,7.52,0,0,1,17.5,79.8Z"/><path class="ae82860c-b986-484b-b876-ac9f5f043ea9" d="M53.14,238.71c-.47-11.5-.72-22.42-1.33-33.7C52.74,216.83,53.25,228.31,53.14,238.71Z"/><path class="b0920027-c624-4a70-a3cc-f7d7f1974de3" d="M45.84,153.8a370.42,370.42,0,0,1,6,51.21C50.49,187.92,48.31,170.13,45.84,153.8Z"/><path class="f1a74d42-34fd-4e0e-9f5d-63577c8f7eed" d="M8,68H8v14.1s13.46,7.09,16.17,10.35,12,14.9,20.16,53.66c.54,2.61,1,5.15,1.52,7.65C41.8,127,37,104.23,34.08,95.11,30.8,84.9,27,77.48,22.64,73.38a3.86,3.86,0,0,0-.55,2.28Zm4.82,7.2a3.61,3.61,0,0,1,.42-1.81,2.48,2.48,0,0,1,1.12.36,7.52,7.52,0,0,1,3.15,6A3.55,3.55,0,0,1,17,81.59,2.26,2.26,0,0,1,16,81.25,7.52,7.52,0,0,1,12.81,75.24Z"/><path class="fca361c5-b365-475d-8750-b05f765ce7ce" d="M13.1,73.44h.12a3.71,3.71,0,0,0-.41,1.8,7.52,7.52,0,0,0,3.15,6,2.34,2.34,0,0,0,1.07.34,1.79,1.79,0,0,1-2.68.58,7.53,7.53,0,0,1-3.13-6C11.22,74.44,12,73.44,13.1,73.44Z"/><path class="bb25baf5-1f80-4774-83db-92854962404b" d="M108.07,486.24a1.88,1.88,0,0,1,.14-1.53,2,2,0,0,1,1.1-.3c2.23,0,5.45,2.82,6.51,6,1.39,4.19,2,4.81,2,4.81a24.23,24.23,0,0,0,5.92-1.61c.79,2,2.63,2.69,4.75,1.46a7.9,7.9,0,0,0,1.58-1.24c-6,8.28-10.67,14.36-12,15.6a16.21,16.21,0,0,1-1.73,1.44c.82-2.6-.76-10-2.06-13.48C112.88,493.68,108.53,488.1,108.07,486.24Z"/><path class="b4f55544-13af-4a87-aa27-b4c1b54ffc50" d="M133.41,487.58a30,30,0,0,0,2.23-2.27c.65-.71,1.29-1.39,1.93-2-1.85,2.65-3.67,5.22-5.39,7.65A14.8,14.8,0,0,0,133.41,487.58Z"/><path class="a403c4ee-c561-42cf-8eca-0a9f72c63092" d="M129.18,27.13V12.47l3.14-1.4,1.91-1.48c13.36,4.83,35.76,27.84,48.35,47.08,14.38,22,24.95,61.82,29.29,91.1s4.34,79.72,3,99.51c-.87,12.72-1,24.67-3.58,43.77L200,294.12s4.29-32.63-1.42-86.7c-5.66-53.65-14.49-76-24.67-98.42-14.81-32.64-52-52.86-52-52.86C129.18,50.71,129.18,36.08,129.18,27.13Z"/><path class="f62fdc6a-52b2-4061-a25e-f0bf634818c9" d="M24.44,456.73a44.08,44.08,0,0,1-9.8-14.06c-3.16-7.07-4-14.24-5.34-15.88-.89-1.68-1.72-3.29-2.61-4.66,40.88-41.5,50.23-108.8,52.91-153.8,3.06-51.71-4.49-116.87-7.5-140,1.7,7.41,3.51,16.32,5.23,26.73,4.64,28,6.44,57.68,7,74.73.59,18.09-.7,73.84-3.4,101.16s-11.1,60.39-15.89,79.33C38.08,437.9,29.22,451.17,24.44,456.73Z"/><path class="b484e61f-39b0-4c2b-ad8e-459ace2fe763" d="M110.39,482.37c1.25-1.55,12.09-14.27,20.45-26s26.5-39,40.59-71.89A461.71,461.71,0,0,0,196.85,309c4.17-17.36,10.06-55,11-75.6s.62-57-.78-71.9-6.36-46.92-13.63-68-16.88-38-26.8-49.42-19.28-23.42-37.45-31.63v-1a15.62,15.62,0,0,1,3.59-2.31c13.14,3.57,36.74,27.59,49.81,47.55,14.38,22,24.95,61.82,29.29,91.1s4.34,79.72,3,99.51S214,285,204,330.78c-6.23,45.27-31.45,95.43-43.65,117.13-5.72,10.16-14.6,23.61-22.78,35.37-.64.64-1.28,1.32-1.93,2a30,30,0,0,1-2.23,2.27,14.8,14.8,0,0,1-1.23,3.35l-2.1,2.91a7.9,7.9,0,0,1-1.58,1.24c-2.12,1.23-4,.55-4.75-1.46a24.23,24.23,0,0,1-5.92,1.61s-.62-.62-2-4.81c-1.26-3.77-5.53-7-7.61-5.71C108.62,484,109.52,483.47,110.39,482.37Z"/><path class="e48c5c5b-c130-42ed-97d1-b8a58769457f" d="M214.85,247.28C213.5,267.06,214,285,204,330.78c-6.23,45.27-31.45,95.43-43.65,117.13-5.72,10.16-14.6,23.61-22.78,35.37-.64.64-1.28,1.32-1.93,2a30,30,0,0,1-2.23,2.27,14.8,14.8,0,0,1-1.23,3.35l-2.1,2.91a7.9,7.9,0,0,1-1.58,1.24c-2.12,1.23-4,.55-4.75-1.46a24.23,24.23,0,0,1-5.92,1.61s-.62-.62-2-4.81a9.71,9.71,0,0,0-1.31-2.51c45-40.69,80.17-132,87.15-163.19,5.22-23.29,10.74-60.54,13.25-78.32h0Z"/><ellipse class="fe6ccebb-64fe-4f74-b9a5-3fce082bb68c" cx="107.44" cy="111.95" rx="1.61" ry="1.88" transform="translate(-28.34 187.04) rotate(-75.12)"/><path class="e8054cea-cfc0-4538-8197-054a9674292f" d="M128,482.39a3.65,3.65,0,0,1,2.14-.84c1.4,0,2.43,1.27,2.56,3.51.2,3.27-1.6,7.39-4,9.19s-4.51.62-4.7-2.66A11.82,11.82,0,0,1,128,482.39Z"/><path class="adfa1532-f2f5-4c2f-832d-98971a2dd057" d="M130.43,487.61l-1.37,1a1.53,1.53,0,0,1-.43.55.47.47,0,0,1-.46.11l-1.38,1c-.36.28-.67.2-.69-.18a1.53,1.53,0,0,1,.61-1.16l1.39-1a1.53,1.53,0,0,1,.42-.56.44.44,0,0,1,.45-.09l1.38-1a.74.74,0,0,1,.41-.17c.16,0,.28.12.29.35A1.53,1.53,0,0,1,130.43,487.61Z"/><path class="bacce91f-8c06-493d-8890-2f07128f0c17" d="M214.84,247.28C213.49,267.06,214,285,204,330.78c-6.23,45.27-31.45,95.42-43.65,117.12-5.72,10.17-14.6,23.61-22.78,35.37-.64.65-1.29,1.32-1.93,2a28.34,28.34,0,0,1-2.24,2.27,13.9,13.9,0,0,1-1.23,3.35l-2.1,2.91a7.58,7.58,0,0,1-1.57,1.24c-2.12,1.23-4,.55-4.75-1.46a24.23,24.23,0,0,1-5.92,1.61s-.62-.62-2-4.81a9.49,9.49,0,0,0-1.31-2.5c45-40.7,80.17-132,87.14-163.19,5.23-23.29,10.74-60.54,13.26-78.32h0Z"/><path class="ecfe558d-938a-416f-8ed4-1fc0331d9b76" d="M128.43,493.62c-2.3,1.32-4.16-.08-4.16-3.14s1.86-6.59,4.16-7.92a3.26,3.26,0,0,1,1.64-.5c1.47,0,2.5,1.36,2.5,3.63C132.57,488.74,130.71,492.31,128.43,493.62Z"/><path class="ec09f1d9-ffe1-4c0b-bedc-28fbc45bf21d" d="M128.43,482.56a3.21,3.21,0,0,1,1.16-.42,4.06,4.06,0,0,1,.87,2.79c0,2.91-1.76,6.31-4,7.58a3.1,3.1,0,0,1-1.63.47,4.83,4.83,0,0,1-.6-2.5C124.27,487.44,126.13,483.89,128.43,482.56Z"/><path class="bbdd178c-f88f-4a37-a36a-9f84c875fc76" d="M16,81.25a7.52,7.52,0,0,1-3.15-6,3.61,3.61,0,0,1,.42-1.81,2.48,2.48,0,0,1,1.12.36,7.52,7.52,0,0,1,3.15,6,3.53,3.53,0,0,1-.43,1.81A2.48,2.48,0,0,1,16,81.25Z"/><path class="bbdd178c-f88f-4a37-a36a-9f84c875fc76" d="M114.27,497.4c-1.39-3.72-5.74-9.3-6.2-11.16a1.88,1.88,0,0,1,.14-1.53c.4-.71,1.31-1.24,2.19-2.34,1.24-1.55,12.08-14.27,20.44-26s26.5-39,40.59-71.89A460.73,460.73,0,0,0,196.85,309c1-4.21,2.12-9.6,3.24-15.66.59-5.2,3.7-36.66-1.51-85.93-5.66-53.65-14.49-76-24.67-98.42-14.81-32.64-52-52.86-52-52.86h0c7.32-5.43,7.32-20.06,7.32-29V8.69l.54,0c12.19,0,38.71,26.37,52.86,48,14.38,22,24.95,61.82,29.29,91.1s4.34,79.72,3,99.51S214,285,204,330.78c-6.23,45.27-31.45,95.43-43.65,117.13s-38.76,58.28-42.29,61.53a16,16,0,0,1-1.73,1.43C117.14,508.27,115.56,500.87,114.27,497.4Z"/><path class="bbdd178c-f88f-4a37-a36a-9f84c875fc76" d="M.35,418c1-1.27,3.66.74,5.31,2.73a38.24,38.24,0,0,1,3.64,6.09c1.35,1.64,2.18,8.81,5.34,15.88a44.13,44.13,0,0,0,9.8,14.06h0c.6-.7,1.26-1.51,2-2.46l.55-.74c.27-.38.56-.78.85-1.2.77-1.12,1.59-2.38,2.44-3.8.11-.17.22-.35.32-.54.22-.36.44-.73.65-1.12l.33-.58c.55-1,1.12-2,1.69-3.14l.34-.68c1.14-2.28,2.32-4.82,3.5-7.66.12-.28.24-.57.35-.86q1.43-3.46,2.84-7.52c.11-.34.23-.68.35-1,.23-.69.47-1.39.7-2.1.12-.36.23-.72.35-1.08,1.16-3.64,2.29-7.6,3.38-11.91.82-3.26,1.75-6.93,2.74-10.92l.27-1.1c2-8.09,4.21-17.42,6.27-27.16.19-.89.38-1.77.56-2.67a377.06,377.06,0,0,0,6-37.48c.38-3.84.73-8.25,1.05-13,.18-2.66.35-5.43.51-8.29.2-3.43.38-7,.54-10.6.09-1.81.17-3.64.24-5.48l.15-3.69c0-.62,0-1.23.07-1.85.88-23.46,1.19-47.48.84-58.22-.27-8-.8-18.75-1.78-30.81-.06-.8-.13-1.61-.2-2.43-.2-2.45-.43-4.94-.67-7.47-.08-.84-.17-1.69-.25-2.54-.17-1.71-.35-3.42-.54-5.15-.95-8.64-2.12-17.56-3.57-26.33L57,153c-.07-.45-.15-.9-.23-1.35,0-.21-.07-.42-.11-.63-1.12-6.47-2.27-12.31-3.4-17.53-.09-.43-.19-.86-.28-1.28,0-.1,0-.21-.07-.31-.26-1.2-.52-2.36-.78-3.49v0a216.71,216.71,0,0,0-6.9-24.62C44,100.58,42,95.44,40,90.41c0,0,29.87-17.48,50.11-29.19C69.92,72.88,40,90.3,40,90.3S33.21,73.49,27.5,70.51c-2.71-.28-5.69,2.7-5.41,5.15L8,68v14.1s13.46,7.09,16.17,10.35,12,14.9,20.16,53.66,7.59,64.8,8.94,95.44-5.42,78.34-12.73,104.1-19.26,48-27.94,58.29C4.49,413.61.41,414.94.35,418ZM17.5,79.8a3.53,3.53,0,0,1-.43,1.81A2.48,2.48,0,0,1,16,81.25a7.52,7.52,0,0,1-3.15-6,3.61,3.61,0,0,1,.42-1.81,2.48,2.48,0,0,1,1.12.36A7.52,7.52,0,0,1,17.5,79.8Z"/><path class="bbdd178c-f88f-4a37-a36a-9f84c875fc76" d="M108,51l-.56.3Z"/><path class="a3064089-6a5e-4fcd-89cf-9d96adda5f46" d="M26.41,454.27l.55-.74c.27-.38.56-.78.85-1.2.77-1.12,1.59-2.38,2.44-3.8.11-.17.22-.35.32-.54.22-.36.44-.73.65-1.12l.33-.58c.55-1,1.12-2,1.69-3.14l.34-.68c1.14-2.28,2.32-4.82,3.5-7.66.12-.28.24-.57.35-.86q1.43-3.46,2.84-7.52c.11-.34.23-.68.35-1,.23-.69.47-1.39.7-2.1.12-.36.23-.72.35-1.08,1.16-3.64,2.29-7.6,3.38-11.91.82-3.26,1.75-6.93,2.74-10.92l.27-1.1c2-8.09,4.21-17.42,6.27-27.16.19-.89.38-1.77.56-2.67a377.06,377.06,0,0,0,6-37.48c.38-3.84.73-8.25,1.05-13,.18-2.66.35-5.43.51-8.29.2-3.43.38-7,.54-10.6.09-1.81.17-3.64.24-5.48l.15-3.69c0-.62,0-1.23.07-1.85.88-23.46,1.19-47.48.84-58.22-.27-8-.8-18.75-1.78-30.81-.06-.8-.13-1.61-.2-2.43-.2-2.45-.43-4.94-.67-7.47-.08-.84-.17-1.69-.25-2.54-.17-1.71-.35-3.42-.54-5.15-.95-8.64-2.12-17.56-3.57-26.33L57,153c-.07-.45-.15-.9-.23-1.35,0-.21-.07-.42-.11-.63-1.12-6.47-2.27-12.31-3.4-17.53-.09-.43-.19-.86-.28-1.28,0-.1,0-.21-.07-.31-.26-1.2-.52-2.36-.78-3.49v0a216.71,216.71,0,0,0-6.9-24.62C44,100.58,42,95.44,40,90.41c0,0,29.87-17.48,50.11-29.19,8.49-4.9,15.25-8.79,17.35-9.94L108,51c3.25-1.61,7.32,1.37,13.83,5.16h0S159.1,76.36,173.91,109c10.18,22.42,19,44.77,24.67,98.42,5.21,49.27,2.1,80.73,1.51,85.93-1.12,6.06-2.23,11.45-3.24,15.66a460.73,460.73,0,0,1-25.42,75.44c-14.09,32.85-32.22,60.12-40.59,71.89s-19.2,24.48-20.44,26c-.88,1.1-1.79,1.63-2.19,2.34a1.88,1.88,0,0,0-.14,1.53c.46,1.86,4.81,7.44,6.2,11.16,1.29,3.47,2.87,10.87,2.06,13.47-2.47,1.75-4.28,1.4-8.3-.62-4.88-2.43-65.34-40.66-74.29-46.35a58.67,58.67,0,0,1-9.3-7.17h0C25,456,25.7,455.22,26.41,454.27Z"/></g></svg>