<?xml version="1.0" encoding="UTF-8"?><svg id="uuid-1a19406b-0307-4b3d-b296-b55c801153e8" xmlns="http://www.w3.org/2000/svg" width="68" height="50" xmlns:xlink="http://www.w3.org/1999/xlink" viewBox="0 0 68 50"><defs><style>.uuid-860b87ff-4bd4-4640-a33c-2413edff5371{fill:url(#uuid-7364ea54-18cb-4ccb-8873-5afd4e5edad0);}.uuid-de97e81b-404d-4c9a-8de7-5cdd26be84e6{fill:url(#uuid-2812de42-eb4d-4e3d-85af-4246de946f09);}.uuid-448d1830-32dc-4746-bc33-39c25afa7768{fill:url(#uuid-7616cc6f-efc0-4177-ab2f-3b3470cafe2a);}.uuid-230ffd2a-fba0-4306-8071-9a6aa7a20f28{fill:url(#uuid-e5278687-03a4-4652-ba1e-7c4309e5e97a);}.uuid-74e61d06-d006-41a6-80c2-935569f37b64{fill:url(#uuid-60cd87af-ebd6-4cb5-9312-05bcbdfbfe99);}.uuid-e71f3ee6-7165-4812-add8-f6c918851e62{fill:#3a3a38;}.uuid-fa922a89-2736-4b72-a126-f27c2536b456{fill:#272726;}.uuid-bd51a15f-6305-4f27-9028-0cf519c134fe{fill:url(#uuid-bc7d2d8a-db89-4a95-b6e6-916933733aec);}.uuid-0a91ebc7-7bb1-4890-9493-925103e04fc8{fill:url(#uuid-84b81436-87ca-4406-ae11-97ba33ee22fd);}.uuid-9a095e56-8501-4df8-b941-1383b1ae5ab6{fill:url(#uuid-eb0ab747-f2e3-4e44-b2cb-9e5fa8c2def1);}.uuid-dcddc4bb-6389-4873-a704-6014e7615d00{fill:url(#uuid-2b5e0a48-7c12-4b51-af32-36349466af79);}.uuid-37a46b77-3cf4-45f5-a18e-0f954060b782{fill:url(#uuid-085e48b1-cd6a-4198-9bc5-77b5c676d190);}.uuid-29249f18-d385-4b37-90ab-07ab26a45201{fill:url(#uuid-ad6e9b02-ff2f-465b-900e-3697daeb8197);}.uuid-d34f4597-e8c5-41ca-949e-a1fe9a63a573{fill:url(#uuid-0f5e6647-1705-4988-ac5a-b67f5e4ee87e);}.uuid-21834fa4-1e48-499e-919c-2b4ff67dd4b4{fill:url(#uuid-b6328413-19f1-438d-994c-0cf34491d47f);}.uuid-0b4fa530-c1ef-4ab6-8809-7aee367fb769{fill:url(#uuid-d8327cd3-4670-4dd3-8237-b021536a537f);}.uuid-3cf40719-79d2-4127-b240-0be9ee59c55e{fill:url(#uuid-498a9e0c-fa69-4974-b7bb-2f8799012a34);}.uuid-b89d706f-b5ab-4d05-afe4-9705c746281d{fill:url(#uuid-92c7faca-7bca-4c34-954e-30cbc066b68d);}.uuid-9a4c9964-a222-47e4-912c-7e79cab6338e{fill:url(#uuid-0bb9a605-ec49-444c-b228-d0984b161642);}.uuid-aa272eae-f360-47be-818a-c968bff68e71{fill:url(#uuid-a9b3a267-1598-42f0-b331-2cf9b2369d3d);}.uuid-641a8992-bffd-4d32-97b0-a3cdee568e6e{fill:url(#uuid-ad8e3496-4867-459a-b760-f9b34ffe70c5);}</style><linearGradient id="uuid-7364ea54-18cb-4ccb-8873-5afd4e5edad0" x1="27.93" y1="16.66" x2="39.76" y2="37.16" gradientUnits="userSpaceOnUse"><stop offset="0" stop-color="#4a4a49"/><stop offset=".2" stop-color="#5e5d5c"/><stop offset=".26" stop-color="#696967"/><stop offset=".31" stop-color="#6e6e6c"/><stop offset=".38" stop-color="#646462"/><stop offset=".45" stop-color="#545453"/><stop offset=".67" stop-color="#40403f"/><stop offset="1" stop-color="#272726"/></linearGradient><linearGradient id="uuid-498a9e0c-fa69-4974-b7bb-2f8799012a34" x1="51.41" y1="4.67" x2="58.2" y2="4.67" gradientUnits="userSpaceOnUse"><stop offset="0" stop-color="#3a3a38"/><stop offset=".17" stop-color="#4a4a49"/><stop offset=".17" stop-color="#3a3a38"/><stop offset=".58" stop-color="#5e5d5c"/><stop offset=".59" stop-color="#3e3e3c"/><stop offset=".59" stop-color="#3a3a38"/><stop offset=".87" stop-color="#4a4a49"/><stop offset="1" stop-color="#3a3a38"/></linearGradient><linearGradient id="uuid-e5278687-03a4-4652-ba1e-7c4309e5e97a" x1="-844.37" y1="-.46" x2="-852.43" y2="19.5" gradientTransform="translate(-787.69) rotate(-180) scale(1 -1)" gradientUnits="userSpaceOnUse"><stop offset="0" stop-color="#4d4e4c"/><stop offset=".3" stop-color="#7e7e7d"/><stop offset=".66" stop-color="#4a4a49"/><stop offset="1" stop-color="#3a3a38"/></linearGradient><linearGradient id="uuid-2812de42-eb4d-4e3d-85af-4246de946f09" x1="-846.01" y1=".5" x2="-853.4" y2="18.79" xlink:href="#uuid-e5278687-03a4-4652-ba1e-7c4309e5e97a"/><linearGradient id="uuid-84b81436-87ca-4406-ae11-97ba33ee22fd" x1="4.76" y1="35.85" x2="6.62" y2="32.63" gradientUnits="userSpaceOnUse"><stop offset="0" stop-color="#4a4a49"/><stop offset=".25" stop-color="#545453"/><stop offset=".25" stop-color="#4a4a49"/><stop offset=".58" stop-color="#5e5d5c"/></linearGradient><linearGradient id="uuid-0bb9a605-ec49-444c-b228-d0984b161642" x1="1072.88" y1="32.02" x2="1084.57" y2="49.35" gradientTransform="translate(-1070.29)" xlink:href="#uuid-e5278687-03a4-4652-ba1e-7c4309e5e97a"/><linearGradient id="uuid-ad8e3496-4867-459a-b760-f9b34ffe70c5" x1="9.08" y1="29.16" x2="15.87" y2="29.16" gradientUnits="userSpaceOnUse"><stop offset="0" stop-color="#3a3a38"/><stop offset=".17" stop-color="#4a4a49"/><stop offset=".17" stop-color="#3a3a38"/><stop offset=".58" stop-color="#5e5d5c"/><stop offset=".59" stop-color="#3e3e3c"/><stop offset=".59" stop-color="#3a3a38"/><stop offset=".87" stop-color="#4a4a49"/><stop offset="1" stop-color="#3a3a38"/></linearGradient><linearGradient id="uuid-a9b3a267-1598-42f0-b331-2cf9b2369d3d" x1="27.36" y1="18.6" x2="34.15" y2="18.6" xlink:href="#uuid-ad8e3496-4867-459a-b760-f9b34ffe70c5"/><linearGradient id="uuid-60cd87af-ebd6-4cb5-9312-05bcbdfbfe99" x1="16.86" y1="44.53" x2="20.1" y2="38.91" gradientUnits="userSpaceOnUse"><stop offset="0" stop-color="#3a3a38"/><stop offset=".14" stop-color="#4a4a49"/><stop offset=".14" stop-color="#272726"/><stop offset=".45" stop-color="#5e5d5c"/><stop offset=".5" stop-color="#5c5b5a"/><stop offset=".52" stop-color="#555453"/><stop offset=".53" stop-color="#494847"/><stop offset=".54" stop-color="#383837"/><stop offset=".55" stop-color="#272726"/><stop offset=".75" stop-color="#4a4a49"/><stop offset="1" stop-color="#272726"/></linearGradient><linearGradient id="uuid-085e48b1-cd6a-4198-9bc5-77b5c676d190" x1="2.09" y1="33.38" x2="12.65" y2="51.68" gradientUnits="userSpaceOnUse"><stop offset="0" stop-color="#272726"/><stop offset=".12" stop-color="#30302f"/><stop offset=".47" stop-color="#4a4a49"/><stop offset=".55" stop-color="#545453"/><stop offset=".61" stop-color="#4a4a49"/><stop offset="1" stop-color="#3a3a38"/></linearGradient><linearGradient id="uuid-b6328413-19f1-438d-994c-0cf34491d47f" x1="2.52" y1="45.08" x2="12.15" y2="35.45" gradientUnits="userSpaceOnUse"><stop offset="0" stop-color="#272726" stop-opacity="0"/><stop offset=".22" stop-color="#272726" stop-opacity=".16"/><stop offset=".51" stop-color="#272726" stop-opacity=".62"/><stop offset=".7" stop-color="#272726"/></linearGradient><linearGradient id="uuid-92c7faca-7bca-4c34-954e-30cbc066b68d" x1="9.25" y1="45.7" x2="11.78" y2="45.7" gradientUnits="userSpaceOnUse"><stop offset="0" stop-color="#272726"/><stop offset=".47" stop-color="#3a3a38"/><stop offset=".47" stop-color="#272726"/><stop offset="1" stop-color="#3a3a38"/></linearGradient><linearGradient id="uuid-2b5e0a48-7c12-4b51-af32-36349466af79" x1="2.09" y1="38.36" x2="12.53" y2="44.55" gradientUnits="userSpaceOnUse"><stop offset="0" stop-color="#3a3a38"/><stop offset="1" stop-color="#4a4a49"/></linearGradient><linearGradient id="uuid-bc7d2d8a-db89-4a95-b6e6-916933733aec" x1="22.69" y1="20.05" x2="32.91" y2="37.59" gradientUnits="userSpaceOnUse"><stop offset="0" stop-color="#5e5d5c"/><stop offset=".01" stop-color="#5e5d5c"/><stop offset=".21" stop-color="#5e5d5c"/><stop offset=".57" stop-color="#474645"/><stop offset="1" stop-color="#272726"/></linearGradient><linearGradient id="uuid-eb0ab747-f2e3-4e44-b2cb-9e5fa8c2def1" x1="40.19" y1="10.01" x2="50.37" y2="27.47" xlink:href="#uuid-bc7d2d8a-db89-4a95-b6e6-916933733aec"/><linearGradient id="uuid-7616cc6f-efc0-4177-ab2f-3b3470cafe2a" x1="66.61" y1="16.88" x2="66.61" y2="11.3" gradientUnits="userSpaceOnUse"><stop offset="0" stop-color="#272726"/><stop offset="1" stop-color="#3a3a38"/></linearGradient><linearGradient id="uuid-ad6e9b02-ff2f-465b-900e-3697daeb8197" x1="66.2" y1="14.03" x2="68.66" y2="14.83" gradientUnits="userSpaceOnUse"><stop offset="0" stop-color="#6e6e6d"/><stop offset="1" stop-color="#3e3e3d"/></linearGradient><linearGradient id="uuid-d8327cd3-4670-4dd3-8237-b021536a537f" x1="59.2" y1="14.02" x2="61.06" y2="17.17" gradientUnits="userSpaceOnUse"><stop offset=".22" stop-color="#272726"/><stop offset=".26" stop-color="#292928"/><stop offset=".29" stop-color="#313130"/><stop offset=".31" stop-color="#3f3e3d"/><stop offset=".33" stop-color="#535251"/><stop offset=".34" stop-color="#5e5d5c"/><stop offset=".36" stop-color="#464644"/></linearGradient><linearGradient id="uuid-0f5e6647-1705-4988-ac5a-b67f5e4ee87e" x1="65.9" y1="12.14" x2="67.06" y2="10.76" gradientUnits="userSpaceOnUse"><stop offset=".2" stop-color="#5e5d5c" stop-opacity="0"/><stop offset=".24" stop-color="#5e5d5c" stop-opacity=".14"/><stop offset=".39" stop-color="#5e5d5c" stop-opacity=".6"/><stop offset=".5" stop-color="#5e5d5c" stop-opacity=".89"/><stop offset=".56" stop-color="#5e5d5c"/></linearGradient></defs><path class="uuid-860b87ff-4bd4-4640-a33c-2413edff5371" d="m59.87,2.17c-2.45-1.53-4.92-.99-4.92-.99-.31.19-48.18,27.62-51.11,29.37-.45.25-.93.53-1.38,1.09-.64.8-1.21,2-1.54,3.16,0,0-.46,1.47-.42,2.71,0,4.47,2.72,9.67,6.07,11.6.9.52,2.26.72,2.23.72,1.31.14,2.83-.03,2.83-.03.51-.14,1.06-.45,1.06-.45,3.26-1.91,10.63-6.13,14.42-8.33h0s35.44-20.55,35.59-20.63c.91-.5,2.13-1.96,2.6-3.6,0-.03.02-.07.03-.1l.74-.43s.17-1.46.18-1.64c.08-1.34-.15-1.93-.29-3.08l-.61.23c-.71-5.02-3.33-8.15-5.48-9.61ZM6.58,35.2c-.48.27-1.02.1-1.3-.14,0,0-.02,0-.03,0l-.24.13c-.91.47-1.47-.11-1.47-.62,0-.51.37-1.11.81-1.35l.58-.3,1.51.44,1.03.8c-.25.48-.51.83-.89,1.04Zm5,11.46c-.27.72-.68,1.04-.68,1.04-.42.13-.88.13-1.17-.03-.24-.13-.48-.36-.48-.57l2.32-2.94.5.53s-.23,1.25-.5,1.97ZM57.7,3.98l-.64.34s-.07.08-.05.13c.16.52-.25.93-.66,1.17-.38.22-.85.34-1.34.37.05-.61.16-1.16.33-1.64.03,0,.07,0,.09-.02l.67-.35c.53-.3,1.74-.48,1.74-.08-.04.03-.09.06-.14.08Z"/><path class="uuid-3cf40719-79d2-4127-b240-0be9ee59c55e" d="m57.87,2.96c-.44-.26-1.24-.24-1.77.06l-.66.35s-.08.03-.12.02c-.73-.1-1.36.06-1.94.38-.57.32-.81.55-.82,1.1,0,.06-.04.12-.09.15l-.63.33c-.53.3-.61.76-.16,1.02.44.27,1.24.24,1.77-.06l.72-.38c.28.04.57.06.85.04.05-.61.16-1.16.33-1.63.03,0,.07,0,.09-.02l.67-.35c.53-.3,1.74-.48,1.74-.08.41-.29.43-.69.03-.94Z"/><path class="uuid-fa922a89-2736-4b72-a126-f27c2536b456" d="m55.33,4.34s-.01,0-.02,0c-.74-.1-1.55,0-2.13.33-.35.2-.55.44-.63.7v.48s-.03.09-.07.11l-.8.42h0c.44.27,1.22.23,1.76-.07l.67-.36s.07-.02.1-.02c.26.04.53.05.8.04.05-.61.16-1.16.33-1.64Z"/><path class="uuid-fa922a89-2736-4b72-a126-f27c2536b456" d="m55.33,4.34s-.01,0-.02,0c-.74-.1-1.55,0-2.13.33-.35.2-.55.44-.63.7v.48s-.03.09-.07.11l-.8.42h0c.44.27,1.22.23,1.76-.07l.67-.36s.07-.02.1-.02c.26.04.53.05.8.04.05-.61.16-1.16.33-1.64Z"/><path class="uuid-230ffd2a-fba0-4306-8071-9a6aa7a20f28" d="m65.88,16.54c-.05.21-.1.41-.16.6-.51,1.58-1.89,2.6-2.95,3.22.65-.38,1.65-1.88,1.92-3.15l1.19-.67Z"/><path class="uuid-de97e81b-404d-4c9a-8de7-5cdd26be84e6" d="m64.74,11.84c-.73-4.39-3.14-8.65-6.78-10.2-.93-.4-2.11-.53-3.01-.46,0,0,1.25-.55,2.56-.29.91.18,1.59.44,2.45.93,3.09,1.78,5.21,5.31,5.94,9.31l-1.17.71Z"/><path class="uuid-0a91ebc7-7bb1-4890-9493-925103e04fc8" d="m6.77,33.62c-.08.21-.12.77-.88,1.07s-1.26,0-1.42-.09c-.03-.02-.06-.02-.09,0-.13.07-.49.24-.82.18-.02.44.67.98,1.37.62l.36-.2c.28.25.95.36,1.44.08.38-.21.5-.64.73-1.13l-.69-.54Z"/><path class="uuid-9a4c9964-a222-47e4-912c-7e79cab6338e" d="m7.37,31.54c-1.66-.96-3.89-1.19-5.1.31-.54.66-.98,1.65-1.35,2.95.87-2.3,3.04-3.32,5.62-1.84,3.35,1.94,6.04,7.09,6.04,11.56,0,3.32-2.39,5.19-4.53,5.2.89.22,2.39.46,3.59.08s2.55-2.19,2.55-5.41c0-5.41-3.07-10.68-6.82-12.85Z"/><path class="uuid-641a8992-bffd-4d32-97b0-a3cdee568e6e" d="m11.82,30.43c.75.12,1.59.01,2.19-.32.56-.31.79-.76.66-1.17-.01-.05,0-.1.05-.12l.64-.34c.53-.3.61-.76.16-1.02-.44-.26-1.24-.24-1.77.06l-.66.35s-.08.03-.12.02c-.73-.1-1.36.06-1.94.38-.57.32-.81.55-.82,1.1,0,.06-.04.12-.09.15l-.63.33c-.53.3-.61.76-.16,1.02.44.27,1.24.24,1.77-.06l.72-.38h0Z"/><path class="uuid-fa922a89-2736-4b72-a126-f27c2536b456" d="m13.76,28.46l-.67.35s-.07.02-.11.02c-.74-.1-1.55,0-2.13.33-.35.2-.55.44-.63.7v.48s-.03.09-.07.11l-.8.43h0c.44.27,1.22.23,1.75-.07l.67-.36s.07-.02.1-.02c.74.11,1.56.01,2.14-.33.41-.24.82-.65.66-1.17-.01-.05,0-.1.05-.13l.64-.34s.09-.06.14-.08c0-.4-1.21-.22-1.74.08Z"/><path class="uuid-aa272eae-f360-47be-818a-c968bff68e71" d="m30.1,19.87c.75.12,1.59.01,2.19-.32.56-.31.79-.76.66-1.17-.01-.05,0-.1.05-.12l.64-.34c.53-.3.61-.76.16-1.02-.44-.26-1.24-.24-1.77.06l-.66.35s-.08.03-.12.02c-.73-.1-1.36.06-1.94.38-.57.32-.81.55-.82,1.1,0,.06-.04.12-.09.15l-.63.33c-.53.3-.61.76-.16,1.02.44.27,1.24.24,1.77-.06l.72-.38h0Z"/><path class="uuid-fa922a89-2736-4b72-a126-f27c2536b456" d="m32.04,17.91l-.67.35s-.07.02-.11.02c-.74-.1-1.55,0-2.13.33-.35.2-.55.44-.63.7v.48s-.03.09-.07.11l-.8.43h0c.44.27,1.22.23,1.75-.07l.67-.36s.07-.02.1-.02c.74.11,1.56.01,2.14-.33.41-.24.82-.65.66-1.17-.01-.05,0-.1.05-.13l.64-.34s.09-.06.14-.08c0-.4-1.21-.22-1.74.08Z"/><path class="uuid-74e61d06-d006-41a6-80c2-935569f37b64" d="m17.12,43.59c.56.3,1.16.34,1.65-.06s.7-.66.97-1.38c0-.02.03-.05.05-.06l.63-.33c.5-.28.92-.97.92-1.55,0-.58-.39-.83-.9-.55l-.61.32s-.07,0-.08-.02c-.27-.42-.73-.54-1.28-.23s-1.06.99-1.34,1.75l-.66.34c-.5.28-.92.97-.92,1.55,0,.58.39.82.9.55l.64-.33s.02-.02.05,0Z"/><path class="uuid-e71f3ee6-7165-4812-add8-f6c918851e62" d="m19.81,39.99s-.05,0-.07-.03c-.18-.28-.44-.42-.75-.4l.73.42s.06.02.09.01Z"/><path class="uuid-fa922a89-2736-4b72-a126-f27c2536b456" d="m18.99,39.56c-.16,0-.3.04-.53.17-.57.31-1.06.99-1.34,1.75l-.66.34c-.5.28-.92.97-.92,1.55,0,.05,0,.1,0,.14l.1-.05.63-.33s.04,0,.06,0l.74.43h0c.17,0,.74-.36.9-.49.47-.37.69-.65.96-1.37.01-.03.04-.06.07-.07l.61-.32c.5-.28.92-.92.92-1.69l-.1.05-.6.31s-.08.02-.12,0l-.73-.42Z"/><path class="uuid-37a46b77-3cf4-45f5-a18e-0f954060b782" d="m7.66,33.73c-1.17-.95-1.82-1.2-2.47-1.39-2.68-.71-4.69,1.34-4.69,5.17,0,4.47,2.72,9.67,6.07,11.6,3.35,1.94,5.89-.12,5.89-4.59,0-6.61-4.81-10.79-4.81-10.79Zm-1.08,1.47c-.48.27-.95.07-1.29-.14-.01,0-.03,0-.04,0l-.24.13c-.91.47-1.47-.11-1.47-.62,0-.51.37-1.11.81-1.35l.58-.3,1.51.44,1.03.8c-.25.48-.51.83-.89,1.04Zm4.32,12.5c-.42.13-.88.13-1.17-.03-.24-.13-.3-.31-.32-.59l2.33-2.96.33.56s-.23,1.25-.5,1.97c-.27.72-.68,1.04-.68,1.04Z"/><path class="uuid-21834fa4-1e48-499e-919c-2b4ff67dd4b4" d="m7.66,33.72c-1.12-.76-1.47-.94-2.47-1.39-2.68-.71-4.69,1.34-4.69,5.17,0,4.47,2.72,9.67,6.07,11.6,3.35,1.94,6.07-.12,6.07-4.59,0-5.5-4.99-10.8-4.99-10.8Zm-1.08,1.47c-.48.27-.94.07-1.29-.14-.01,0-.03,0-.04,0l-.24.13c-.91.47-1.47-.11-1.47-.62,0-.51.37-1.11.81-1.35l.58-.3,1.51.44,1.03.8c-.25.48-.51.83-.89,1.04Zm4.32,12.5c-.42.13-.88.13-1.17-.03-.08-.05-.15-.1-.19-.15,0,0,0,0,0,0,0,0,0,0,0,0,0,0,0,0,0,0-.66-.92,0-1.73.8-2.03.06-.02.1-.08.11-.14.03-.31.21-1.21,1.34-1.43,0,.05,0,.16,0,.29l.3.5s-.23,1.25-.5,1.97c-.27.72-.68,1.04-.68,1.04Z"/><path class="uuid-b89d706f-b5ab-4d05-afe4-9705c746281d" d="m10.32,45.46c-.8.31-1.48,1.13-.79,2.05-.11-.27.11-.83.82-1.15.05-.02.08-.07.08-.12v-.41s.46-.79,1.33-.91c.02-.15.01-.88.02-1.04-1.13.22-1.31,1.12-1.34,1.43,0,.06-.05.12-.11.14Z"/><path class="uuid-dcddc4bb-6389-4873-a704-6014e7615d00" d="m12.65,44.52c0,4.47-2.72,6.52-6.07,4.59-3.35-1.94-6.07-7.13-6.07-11.6s2.72-6.52,6.07-4.59c3.35,1.94,6.07,7.13,6.07,11.6h0Zm-.9-.6c-.17-3.96-2.6-8.47-5.43-10.07-2.83-1.6-4.99.32-4.82,4.28s2.6,8.47,5.43,10.07c2.83,1.6,4.99-.32,4.82-4.28h0Z"/><path class="uuid-bd51a15f-6305-4f27-9028-0cf519c134fe" d="m21.23,20.53c1.08-.35,2.51-.2,3.91.61,3.75,2.17,6.77,7.96,6.77,12.96,0,2.35-.66,4.18-1.76,5.15l.21-.12c1.1-.98,1.74-2.78,1.74-5.13,0-5.01-3.05-10.82-6.8-12.99-1.4-.81-2.73-.99-3.82-.64l-.26.15Z"/><path class="uuid-9a095e56-8501-4df8-b941-1383b1ae5ab6" d="m38.73,10.49c1.08-.35,2.46-.23,3.87.58,3.75,2.17,6.77,7.96,6.77,12.96,0,2.35-.62,4.11-1.73,5.09l.23-.13c1.1-.98,1.69-2.7,1.69-5.05,0-5.01-3.05-10.82-6.8-12.99-1.4-.81-2.7-.95-3.79-.6l-.25.14Z"/><path class="uuid-448d1830-32dc-4746-bc33-39c25afa7768" d="m67.32,14.5c0,1.12-.14,1.75-.49,2.38l-.93-.56s.14-.67.14-2.18-.16-2.84-.16-2.84l1.3,1.06c.21,1.07.14,2.13.14,2.13Z"/><path class="uuid-fa922a89-2736-4b72-a126-f27c2536b456" d="m52.81,24.09c-.02.1-.04.19-.06.29l13.1-7.74.02-.11-.23-.03-12.83,7.58Z"/><path class="uuid-29249f18-d385-4b37-90ab-07ab26a45201" d="m67.23,11.72c.36,1.51.33,2.92.06,4.38-.09.22-.25.49-.46.77.32-.78.52-2.96.21-4.58l.19-.58Z"/><path class="uuid-0b4fa530-c1ef-4ab6-8809-7aee367fb769" d="m67.23,11.72l-1.41-1c.03.13.05.28.05.28l-13.12,7.71c.02.12.12.42.14.54l13.02-7.68,1.13.72.19-.58Z"/><path class="uuid-d34f4597-e8c5-41ca-949e-a1fe9a63a573" d="m67.23,11.72l-1.41-1c.03.13.05.28.05.28l-.58.34.38.37.23-.14,1.13.72.19-.58Z"/></svg>