<svg xmlns="http://www.w3.org/2000/svg" xmlns:xlink="http://www.w3.org/1999/xlink" width="54" height="52" viewBox="0 0 54 52"><defs><style>.a{fill:url(#a);}.b{fill:#500800;}.c{fill:url(#b);}.d{fill-rule:evenodd;fill:url(#c);}.e{fill:url(#d);}.f{fill:url(#e);}.g{fill:url(#f);}.h{fill:#640c00;}.i{fill:url(#g);}.j{fill:url(#h);}.k{fill:url(#i);}.l{fill:url(#j);}.m{fill:url(#k);}.n{fill:url(#l);}.o{fill:url(#m);}.p{fill:url(#n);}.q{fill:url(#o);}</style><linearGradient id="a" x1="11.677" y1="25.041" x2="22.432" y2="6.413" gradientUnits="userSpaceOnUse"><stop offset="0" stop-color="#8a1002"/><stop offset="0.324" stop-color="#d20a11"/><stop offset="0.78" stop-color="#f08050"/><stop offset="1" stop-color="#e94e24"/></linearGradient><linearGradient id="b" x1="18.108" y1="21.299" x2="14.632" y2="25.49" gradientUnits="userSpaceOnUse"><stop offset="0" stop-color="#770f00"/><stop offset="1" stop-color="#d20a11"/></linearGradient><linearGradient id="c" x1="3.568" y1="16.311" x2="6.99" y2="0.429" gradientUnits="userSpaceOnUse"><stop offset="0" stop-color="#770f00"/><stop offset="0.456" stop-color="#d20a11"/><stop offset="0.797" stop-color="#e94e24"/><stop offset="1" stop-color="#d20a11"/></linearGradient><linearGradient id="d" x1="19.075" y1="23.557" x2="17.035" y2="19.659" gradientUnits="userSpaceOnUse"><stop offset="0.148" stop-color="#500800"/><stop offset="0.423" stop-color="#d20a11"/><stop offset="0.78" stop-color="#f08050"/><stop offset="1" stop-color="#e94e24"/></linearGradient><linearGradient id="e" x1="35.295" y1="55.4" x2="35.801" y2="7.222" gradientUnits="userSpaceOnUse"><stop offset="0" stop-color="#8a1002"/><stop offset="0.473" stop-color="#d20a11"/><stop offset="1" stop-color="#e94e24"/></linearGradient><linearGradient id="f" x1="23.045" y1="43.07" x2="43.808" y2="7.108" gradientUnits="userSpaceOnUse"><stop offset="0" stop-color="#640c00"/><stop offset="0.247" stop-color="#8a1002"/><stop offset="0.445" stop-color="#d20a11"/><stop offset="0.78" stop-color="#f08050"/><stop offset="0.989" stop-color="#f39869"/></linearGradient><linearGradient id="g" x1="35.39" y1="48.186" x2="46.055" y2="7.673" xlink:href="#e"/><linearGradient id="h" x1="33.862" y1="37.662" x2="44.534" y2="19.177" gradientUnits="userSpaceOnUse"><stop offset="0" stop-color="#d20a11"/><stop offset="0.126" stop-color="#e94e24"/><stop offset="0.275" stop-color="#e94e24"/><stop offset="0.714" stop-color="#d20a11"/><stop offset="1" stop-color="#8a1002"/></linearGradient><linearGradient id="i" x1="37.455" y1="40.018" x2="38.267" y2="36.266" gradientUnits="userSpaceOnUse"><stop offset="0" stop-color="#f08050"/><stop offset="0.599" stop-color="#e94e24"/><stop offset="1" stop-color="#d20a11"/></linearGradient><linearGradient id="j" x1="37.99" y1="40.142" x2="37.99" y2="18.105" gradientUnits="userSpaceOnUse"><stop offset="0.473" stop-color="#200" stop-opacity="0"/><stop offset="1" stop-color="#200" stop-opacity="0.5"/></linearGradient><linearGradient id="k" x1="57.345" y1="-10.457" x2="53.072" y2="-13.071" gradientTransform="matrix(1, -0.033, 0.033, 1, -8.081, 18.924)" xlink:href="#e"/><linearGradient id="l" x1="33.05" y1="32.483" x2="35.254" y2="32.483" gradientUnits="userSpaceOnUse"><stop offset="0" stop-color="#d20a11"/><stop offset="1" stop-color="#8a1002"/></linearGradient><linearGradient id="m" x1="15.704" y1="45.952" x2="42.637" y2="-0.698" gradientUnits="userSpaceOnUse"><stop offset="0" stop-color="#640c00"/><stop offset="0.247" stop-color="#8a1002"/><stop offset="0.505" stop-color="#d20a11"/><stop offset="0.758" stop-color="#f08050"/><stop offset="0.989" stop-color="#f39869"/></linearGradient><linearGradient id="n" x1="24.862" y1="16.05" x2="21.971" y2="23.562" xlink:href="#e"/><linearGradient id="o" x1="22.528" y1="46.92" x2="30.808" y2="48.397" gradientUnits="userSpaceOnUse"><stop offset="0" stop-color="#640c00"/><stop offset="0.462" stop-color="#8a1002"/><stop offset="1" stop-color="#d20a11"/></linearGradient></defs><path class="a" d="M25.559,33.056,4.2,20.707c-1.656-.771-2.691-2.832-2.691-5.827C1.511,9.7,4.662,3.673,8.55,1.429,10.317.407,11.934.344,13.17,1.065l21.6,12.493c-4.276,2.925-7.795,8.981-8.884,14.968l.413.17-.491.284a20.588,20.588,0,0,0-.271,3.255c0,.281.007.552.02.821Z"/><path class="b" d="M4.428,11.24c.054-.152.114-.3.173-.456L27.213,23.859l-.17.458L4.428,11.24Zm21.21,19.044L4.908,18.3a3.187,3.187,0,0,1-.64-.888L25.7,29.762q-.033.263-.06.522Z"/><path class="c" d="M15.834,19.71a1.537,1.537,0,0,1,.961.24,4.884,4.884,0,0,1,2.04,3.9c0,1.5-.913,2.194-2.04,1.542a3.176,3.176,0,0,1-.961-.879,19.6,19.6,0,0,0,.13-2.325,23.632,23.632,0,0,0-.13-2.477Z"/><path class="d" d="M0,12.621c0-4.3,2.614-9.3,5.841-11.161a4.84,4.84,0,0,1,2.143-.7,24.032,24.032,0,0,1,3.6-.171,5.446,5.446,0,0,0-3.038.837C4.662,3.673,1.511,9.7,1.511,14.88A7.657,7.657,0,0,0,2.8,19.56,19.679,19.679,0,0,1,.657,15.834,7.171,7.171,0,0,1,0,12.621Z"/><path class="e" d="M16.8,19.95a1.574,1.574,0,0,0-.931-.245c.4-.334.8-.507,1.119-.763a1.532,1.532,0,0,1,.96.239,4.886,4.886,0,0,1,2.041,3.9,1.89,1.89,0,0,1-.623,1.6,10.437,10.437,0,0,1-1.075.711,1.974,1.974,0,0,0,.549-1.54,4.884,4.884,0,0,0-2.04-3.9Zm-.964-.214.016.092a.479.479,0,0,1-.016-.092Z"/><path class="f" d="M35.6,2.855c-9.732,5.618-17.62,20.689-17.62,33.665S25.869,55.456,35.6,49.839,53.219,29.151,53.219,16.175,45.333-2.763,35.6,2.855ZM33.664,38.662l-.4-.561-4.182,2.414a16.743,16.743,0,0,1-.574-4.522c0-.545.028-1.1.069-1.649l6.272,3.631Zm3.955-1.074a2.518,2.518,0,0,1-.794.264l-1.02-.589-1.078-.632a.95.95,0,0,1-.283-.247,1.3,1.3,0,0,1,.431-.379,3.017,3.017,0,0,1,2.744,0A.835.835,0,0,1,37.619,37.588Z"/><path class="g" d="M49.659,10.486,44.9,7.765c-2.432-1.641-5.705-1.617-9.3.46C27.968,12.63,22.007,24.171,22.008,34.193c0,5.435,1.794,9.273,4.635,10.954l4.67,2.618,5.018-10.2-.526-.3-1.078-.632a.95.95,0,0,1-.283-.247,1.3,1.3,0,0,1,.431-.379,3.028,3.028,0,0,1,2.308-.168m-3.519,2.825-.4-.561-4.182,2.414a16.743,16.743,0,0,1-.574-4.522c0-.545.028-1.1.069-1.649l6.272,3.631Z"/><path class="h" d="M25.12,46.37a8.606,8.606,0,0,1-1.752-1.818L22.088,47a9.657,9.657,0,0,0,1.766,1.794,8.2,8.2,0,0,0,2.111,1.133l1.277-2.441A7.385,7.385,0,0,1,25.12,46.37Z"/><path class="h" d="M46.083,6.321a8.727,8.727,0,0,1,1.749,1.82L49.11,5.7a9.476,9.476,0,0,0-1.765-1.8,8.3,8.3,0,0,0-2.109-1.138L43.957,5.21A7.45,7.45,0,0,1,46.083,6.321Z"/><path class="h" d="M22.088,21.3l1.28.967a40.519,40.519,0,0,1,1.752-3.846,38.679,38.679,0,0,1,2.122-3.56L25.965,13.9c-.718,1.1-1.422,2.255-2.112,3.573C23.194,18.73,22.616,20.014,22.088,21.3Z"/><path class="h" d="M49.11,31.4l-1.278-.966a40.828,40.828,0,0,1-1.749,3.843,39,39,0,0,1-2.126,3.559l1.279.966c.737-1.127,1.449-2.3,2.11-3.571S48.585,32.681,49.11,31.4Z"/><path class="i" d="M40.408,11C32.9,15.333,26.815,26.964,26.816,36.97S32.9,51.577,40.408,47.245,54,31.283,54,21.276,47.913,6.668,40.408,11Zm-6.744,27.66-.4-.561-4.182,2.414a16.743,16.743,0,0,1-.574-4.522c0-.545.028-1.1.069-1.649l6.272,3.631Zm3.955-1.074a2.518,2.518,0,0,1-.794.264l-1.02-.589-1.078-.632a.95.95,0,0,1-.283-.247,1.3,1.3,0,0,1,.431-.379,3.017,3.017,0,0,1,2.744,0A.835.835,0,0,1,37.619,37.588Z"/><path class="j" d="M41.864,19.167V18.105a7.519,7.519,0,0,0-1.455.653,10.332,10.332,0,0,0-1.456,1.028l0,1.061a16.269,16.269,0,0,0-4.1,5.835l-1.19.689-.4,1.019-4.182,2.416a26.367,26.367,0,0,0-.5,3.538l6.272,3.631a3.723,3.723,0,0,0,4.1,1.1v1.062a7.58,7.58,0,0,0,1.456-.652,10.585,10.585,0,0,0,1.455-1.029V37.4A17.508,17.508,0,0,0,47.4,25.087C47.4,20.605,45.025,18.235,41.864,19.167ZM37.619,37.588a2.518,2.518,0,0,1-.794.264l-1.02-.589-1.078-.632a.95.95,0,0,1-.283-.247,1.3,1.3,0,0,1,.431-.379,3.017,3.017,0,0,1,2.744,0A.835.835,0,0,1,37.619,37.588Z"/><path class="k" d="M37.647,34.965a2.941,2.941,0,0,0-2.678,0c-.617.355-.878.975-.525,1.419a1.3,1.3,0,0,1,.431-.379,3.017,3.017,0,0,1,2.744,0,.835.835,0,0,1,0,1.583,2.518,2.518,0,0,1-.794.264l2.127,1.228v1.062a7.58,7.58,0,0,0,1.456-.652,10.585,10.585,0,0,0,1.455-1.029V37.4Z"/><path class="l" d="M41.864,19.167V18.105a7.519,7.519,0,0,0-1.455.653,10.332,10.332,0,0,0-1.456,1.028l0,1.061a16.269,16.269,0,0,0-4.1,5.835l-1.19.689-.4,1.019-4.182,2.416a26.367,26.367,0,0,0-.5,3.538l6.272,3.631a3.723,3.723,0,0,0,4.1,1.1v1.062a7.58,7.58,0,0,0,1.456-.652,10.585,10.585,0,0,0,1.455-1.029V37.4A17.508,17.508,0,0,0,47.4,25.087C47.4,20.605,45.025,18.235,41.864,19.167ZM37.619,37.588a2.518,2.518,0,0,1-.794.264l-1.02-.589-1.078-.632a.95.95,0,0,1-.283-.247,1.3,1.3,0,0,1,.431-.379,3.017,3.017,0,0,1,2.744,0A.835.835,0,0,1,37.619,37.588Z"/><path class="m" d="M45.715,5.7a6.588,6.588,0,0,1,1.372,1.335l.907-1.882a7.248,7.248,0,0,0-1.382-1.316,6.333,6.333,0,0,0-1.626-.809l-.909,1.883A5.608,5.608,0,0,1,45.715,5.7Z"/><path class="n" d="M34.193,32.712a14.637,14.637,0,0,1,1.061-5.246l-1.331.77a16.693,16.693,0,0,0-.873,5.135,8.9,8.9,0,0,0,.872,4.129l1.332-.77A6.886,6.886,0,0,1,34.193,32.712Z"/><path class="h" d="M35.254,27.466l-.877-.508-.713.413-.4,1.019-4.182,2.416a26.216,26.216,0,0,0-.51,3.6L33.922,37.5a8.9,8.9,0,0,1-.872-4.129,16.693,16.693,0,0,1,.873-5.135Z"/><path class="h" d="M41.864,19.167V18.105a7.713,7.713,0,0,0-1.058.449Z"/><path class="o" d="M17.981,36.52c0-12.976,7.888-28.047,17.62-33.665C39.916.364,43.865.159,46.928,1.824l.008-.04-2-1.042C42-.492,38.352-.121,34.4,2.161c-9.733,5.618-17.62,20.688-17.62,33.664,0,6.378,1.906,11.061,5,13.509L23.932,50.7l.017-.038C20.3,48.468,17.981,43.531,17.981,36.52Z"/><path class="p" d="M22.088,21.3l1.053.795c.332-.814,1.041-2.649,1.582-3.8a12.908,12.908,0,0,0,.856-2.568l-.531-.368c-.4.664-.8,1.355-1.195,2.106C23.194,18.73,22.616,20.014,22.088,21.3Z"/><path class="q" d="M27.242,47.483A7.385,7.385,0,0,1,25.12,46.37a7.989,7.989,0,0,1-1.178-1.129l-.876,1.673a9.625,9.625,0,0,0,1.767,1.793,7.535,7.535,0,0,0,1.352.8Z"/></svg>