<svg xmlns="http://www.w3.org/2000/svg" xmlns:xlink="http://www.w3.org/1999/xlink" width="180" height="142" viewBox="0 0 180 142"><defs><style>.a{fill:url(#a);}.b{fill:url(#b);}.c{fill:url(#c);}.d{fill:url(#d);}.e{fill:url(#e);}.f{fill:url(#f);}.g{fill:url(#g);}.h{fill:url(#h);}.i{fill:url(#i);}.j{fill:url(#j);}.k{fill:url(#k);}.l{fill:url(#l);}.m{fill:url(#m);}.n{fill:#9d9d9c;}.o{fill:url(#n);}.p{fill:url(#o);}.q{fill:#575756;}.r{fill:#878787;}.s{fill:#4a4a49;}.t{fill:#3c3c3b;}</style><linearGradient id="a" x1="-2.968" y1="106.765" x2="178.827" y2="106.765" gradientUnits="userSpaceOnUse"><stop offset="0" stop-color="#3c3c3b"/><stop offset="0.599" stop-color="#706f6f"/><stop offset="1" stop-color="#575756"/></linearGradient><linearGradient id="b" x1="112.68" y1="20.152" x2="66.319" y2="126.591" gradientUnits="userSpaceOnUse"><stop offset="0" stop-color="#c6c6c6"/><stop offset="1" stop-color="#706f6f"/></linearGradient><linearGradient id="c" x1="94.859" y1="10.418" x2="83.318" y2="160.048" xlink:href="#a"/><linearGradient id="d" x1="178.855" y1="71.546" x2="2.859" y2="70.523" xlink:href="#b"/><linearGradient id="e" x1="-2.968" y1="85.978" x2="178.827" y2="85.978" xlink:href="#a"/><linearGradient id="f" x1="112.68" y1="-0.634" x2="66.319" y2="105.805" xlink:href="#b"/><linearGradient id="g" x1="27.598" y1="66.211" x2="152.416" y2="66.211" xlink:href="#a"/><linearGradient id="h" x1="106.77" y1="14.234" x2="40.776" y2="138.177" xlink:href="#b"/><linearGradient id="i" x1="87.274" y1="31.513" x2="98.791" y2="91.534" gradientUnits="userSpaceOnUse"><stop offset="0" stop-color="#3c3c3b"/><stop offset="1" stop-color="#878787"/></linearGradient><linearGradient id="j" x1="103.734" y1="35.643" x2="76.236" y2="58.289" gradientUnits="userSpaceOnUse"><stop offset="0" stop-color="#979696"/><stop offset="1" stop-color="#706f6f"/></linearGradient><linearGradient id="k" x1="107.747" y1="49.244" x2="70.937" y2="49.244" gradientUnits="userSpaceOnUse"><stop offset="0" stop-color="#838382"/><stop offset="0.39" stop-color="#737372"/><stop offset="1" stop-color="#525251"/></linearGradient><linearGradient id="l" x1="62.786" y1="43.949" x2="119.789" y2="43.949" xlink:href="#a"/><linearGradient id="m" x1="62.799" y1="38.279" x2="119.786" y2="38.279" xlink:href="#a"/><linearGradient id="n" x1="73.894" y1="39.614" x2="106.107" y2="39.614" gradientUnits="userSpaceOnUse"><stop offset="0" stop-color="#666"/><stop offset="1" stop-color="#4d4d4d"/></linearGradient><linearGradient id="o" x1="90.001" y1="30.315" x2="90.001" y2="48.912" gradientUnits="userSpaceOnUse"><stop offset="0.151" stop-color="#1d1d1b" stop-opacity="0"/><stop offset="1" stop-opacity="0.6"/></linearGradient></defs><path class="a" d="M179,72.4v17.94c.1,13.228-8.585,26.473-26.063,36.563-34.758,20.07-91.11,20.068-125.866,0C9.767,116.91,1.078,103.831,1,90.738V71.581"/><path class="b" d="M152.935,108.555c-34.758,20.068-91.11,20.067-125.866,0s-34.758-52.6,0-72.667,91.108-20.066,125.866,0S187.689,88.489,152.935,108.555Z"/><path class="c" d="M153.641,110.159c-35.146,20.3-92.134,20.294-127.279,0s-35.15-53.193,0-73.488,92.133-20.289,127.281,0S188.786,89.869,153.641,110.159Z"/><path class="d" d="M153.641,107.77c-35.146,20.3-92.134,20.3-127.279,0s-35.15-53.191,0-73.486,92.133-20.29,127.281,0S188.786,87.48,153.641,107.77Z"/><path class="e" d="M179,51.607V69.548c.1,13.225-8.585,26.47-26.063,36.563-34.758,20.068-91.11,20.066-125.866,0C9.767,96.121,1.078,83.043,1,69.951V50.794"/><path class="f" d="M152.935,87.769c-34.758,20.068-91.11,20.066-125.866,0s-34.758-52.6,0-72.668,91.108-20.068,125.866,0S187.689,67.7,152.935,87.769Z"/><path class="g" d="M152.416,46.175v4.039c0,9.221-6.092,18.444-18.278,25.479-24.376,14.073-63.9,14.073-88.272,0C34.023,68.855,27.934,59.956,27.6,50.993V46.864"/><path class="h" d="M134.138,71.209c-24.376,14.071-63.9,14.071-88.272,0s-24.376-36.89,0-50.964,63.894-14.073,88.268,0S158.511,57.137,134.138,71.209Z"/><path class="i" d="M111.938,39.6l3.865-2.232a22.245,22.245,0,0,0-4.863-3.725,33.825,33.825,0,0,0-6.451-2.808l-3.865,2.228a40.915,40.915,0,0,0-21.247,0l-3.865-2.228a33.807,33.807,0,0,0-6.452,2.808A22.226,22.226,0,0,0,64.2,37.362L68.062,39.6a8.946,8.946,0,0,0,0,12.266L64.2,54.092a22.2,22.2,0,0,0,4.861,3.726,33.931,33.931,0,0,0,6.452,2.807L79.377,58.4a40.957,40.957,0,0,0,21.247,0l3.865,2.228a33.823,33.823,0,0,0,6.451-2.807,22.155,22.155,0,0,0,4.863-3.726l-3.865-2.23A8.946,8.946,0,0,0,111.938,39.6Z"/><path class="j" d="M112.61,52.25l-.672-.388a9.7,9.7,0,0,0,2.405-5.55c-.264-3.389-2.61-6.731-7.094-9.319-9.526-5.5-24.972-5.5-34.5,0-4.485,2.588-6.829,5.93-7.093,9.319a9.7,9.7,0,0,0,2.4,5.55l-.67.386a16.506,16.506,0,0,0,5.36,4.663A27.668,27.668,0,0,0,77.987,59.2l1.39-.8a40.957,40.957,0,0,0,21.247,0l1.391.8a27.63,27.63,0,0,0,5.234-2.285A16.52,16.52,0,0,0,112.61,52.25Z"/><path class="k" d="M103.807,54.921c-7.625,4.405-19.989,4.4-27.612,0a14.454,14.454,0,0,1-3.488-2.731c-2.94-3.233-1.958-10.754-1.958-10.754l2.61,4.054a27.93,27.93,0,0,0,16.493,5.284c10.017,0,14.586-3.807,16.642-5.721a12.665,12.665,0,0,0,2.971-4.789l.687,2.882s-.662,6.029-2.016,7.989A13.176,13.176,0,0,1,103.807,54.921Z"/><path class="l" d="M98.486,36.808l.419-.6V28.875l-.419.6ZM74.379,32.869l-.9-.521v7.337l.9.521ZM78.8,36.66l.63.817V30.14l-.63-.818Zm28.06,15.957,1.183.278a4.572,4.572,0,0,0,1.03-1.03,2.957,2.957,0,0,0,.5-1.151l.084-7.216-2.794,1.783Zm3.366-12.7-.875,1.129v7.337l1.116-.011a2.6,2.6,0,0,0,.253-1.179V39.856m-6.047-.323.794-.458V31.737l-.794.459ZM71.059,44.268V36.932l-1.186-.277v7.336l1.186.277M87.388,58.11l.024.771a12.847,12.847,0,0,0,4.074-.041l-.023-.656.023-6.681-4.1-.729Zm14.292-2.141.9.521a8.335,8.335,0,0,0,1.642-.713,5.659,5.659,0,0,0,1.24-.948V47.492L101.68,48.63Zm-21.972,1.4a9.813,9.813,0,0,0,1.781.592,11.839,11.839,0,0,0,2,.288l.417-.6V50.313l-4.2-.282Zm15.41.455.421.549a11.651,11.651,0,0,0,1.977-.326,9.624,9.624,0,0,0,1.748-.63V50.079l-4.146.406ZM70.749,41.436l-1.763-1.16v7.338a2.678,2.678,0,0,0,.322,1.172l1.441-.013Zm2.727,12.779a5.556,5.556,0,0,0,1.238.948,8.475,8.475,0,0,0,1.644.717l.794-.46V48.085l-3.676-1.206Zm-3.089-3.2a3.187,3.187,0,0,0,.569,1.145,4.8,4.8,0,0,0,1.09,1l1.313-.336V45.49l-2.972-1.811Z"/><polygon class="m" points="109.651 36.161 109.651 40.263 108.72 40.397 108.72 36.295 109.651 36.161"/><path class="n" d="M110.464,41.035a2.6,2.6,0,0,0,.253-1.179,2.7,2.7,0,0,0-.322-1.175l-.936.01a7.2,7.2,0,0,0-.739-2.288l.931-.242a3.1,3.1,0,0,0-.567-1.141,5.025,5.025,0,0,0-1.091-1.009l-.835.218a13.777,13.777,0,0,0-2.472-2.042l.778-.45a5.618,5.618,0,0,0-1.238-.95,8.751,8.751,0,0,0-1.642-.712l-.889.512a24.929,24.929,0,0,0-3.2-1.126l.412-.586a9.942,9.942,0,0,0-1.781-.595,12.328,12.328,0,0,0-1.995-.287l-.47.672a33.171,33.171,0,0,0-3.874-.315l-.018-.612a12.769,12.769,0,0,0-2.042-.144,12.631,12.631,0,0,0-2.032.185l.022.722a31.393,31.393,0,0,0-3.654.573l-.542-.707a12.221,12.221,0,0,0-1.978.327,9.473,9.473,0,0,0-1.744.628l.626.815a22.373,22.373,0,0,0-2.288,1l-.777-.452a8.919,8.919,0,0,0-1.644.715,5.683,5.683,0,0,0-1.238.95l.89.513a12.433,12.433,0,0,0-1.951,1.849L71.4,34.473A4.8,4.8,0,0,0,70.368,35.5a3.013,3.013,0,0,0-.495,1.155l1.163.271a6.945,6.945,0,0,0-.538,2.157l-1.261.012a2.644,2.644,0,0,0-.251,1.181,2.7,2.7,0,0,0,.322,1.173l1.424-.013a7.76,7.76,0,0,0,.856,1.935l-1.2.308a3.168,3.168,0,0,0,.569,1.144,4.755,4.755,0,0,0,1.09,1L73.34,45.5q.474.446,1.026.872l-.89.512a5.652,5.652,0,0,0,1.238.95,8.657,8.657,0,0,0,1.644.715l.78-.451a22.87,22.87,0,0,0,3.049,1.268l-.479.67a10.131,10.131,0,0,0,1.781.593,12.363,12.363,0,0,0,2,.284l.427-.582a32.008,32.008,0,0,0,3.475.458v.759a13.309,13.309,0,0,0,2.065.145,13.161,13.161,0,0,0,2.033-.185v-.65a32.87,32.87,0,0,0,3.635-.359l.418.542a12.069,12.069,0,0,0,1.977-.329,9.55,9.55,0,0,0,1.748-.628l-.335-.438a24.416,24.416,0,0,0,2.749-.992l.906.506a8.285,8.285,0,0,0,1.642-.717,5.563,5.563,0,0,0,1.24-.946l-.771-.456a14.19,14.19,0,0,0,2.183-1.75l1.162.27a4.6,4.6,0,0,0,1.03-1.027,2.978,2.978,0,0,0,.5-1.153l-1.017-.238a7.486,7.486,0,0,0,.817-2.092Z"/><path class="o" d="M101.388,46.188c-6.289,3.632-16.487,3.632-22.776,0s-6.291-9.52,0-13.149,16.487-3.632,22.776,0S107.681,42.558,101.388,46.188Z"/><path class="p" d="M101.388,46.188c-6.289,3.632-16.487,3.632-22.776,0s-6.291-9.52,0-13.149,16.487-3.632,22.776,0S107.681,42.558,101.388,46.188Z"/><path class="q" d="M87.864,118.059h4.272V106l-.643.565v10.934H88.507Z"/><path class="r" d="M88.507,117.494V106.56h2.986l.643-.565H87.864v12.064Z"/><path class="q" d="M95.062,118.044l4.268-.188V105.791l-.643.595v10.93l-2.982.133Z"/><path class="r" d="M95.705,117.449v-10.93l2.982-.133.643-.595-4.268.189v12.064Z"/><path class="q" d="M102.745,117.66l4.267-.512v-11.99l-.643.645v10.859l-2.982.357Z"/><path class="r" d="M103.387,117.019v-10.86l2.982-.356.643-.645-4.267.515V117.66Z"/><path class="q" d="M110.264,116.773l4.268-.515V104.267l-.641.645v10.862l-2.984.356Z"/><path class="r" d="M110.907,116.13V105.27l2.984-.358.641-.645-4.268.518v11.988Z"/><path class="q" d="M117.865,115.7l4.268-.963V102.75l-.641.712v10.86l-2.986.67Z"/><path class="r" d="M118.506,114.992V104.134l2.986-.672.641-.712-4.268.965V115.7Z"/><path class="q" d="M125.469,114.033l4.268-1.092V100.949l-.643.732v10.861l-2.984.762Z"/><path class="r" d="M126.11,113.3v-10.86l2.984-.763.643-.732-4.268,1.1v11.988Z"/><path class="q" d="M133.1,111.728l4.268-1.34V98.662l-.643.755v10.622l-2.984.933Z"/><path class="r" d="M133.737,110.972V100.35l2.984-.933.643-.755L133.1,100v11.729Z"/><path class="q" d="M140.915,108.718l3.88-1.776V95.216l-.584.822V106.66L141.5,107.9Z"/><path class="r" d="M141.5,107.9V97.276l2.712-1.238.584-.822-3.88,1.777v11.725Z"/><path class="q" d="M148.15,105.444l3.782-2.117V91.9l-.571.857v10.354l-2.642,1.478Z"/><path class="r" d="M148.719,104.585V94.23l2.642-1.477.571-.857-3.782,2.117v11.431Z"/><path class="q" d="M155.093,101.549l3.7-2.488V87.87l-.557.9V98.913l-2.588,1.733Z"/><path class="r" d="M155.649,100.646V90.505l2.588-1.733.557-.9-3.7,2.489v11.19Z"/><path class="q" d="M161.437,97.047l3.187-2.485V83.37l-.48.9V94.411l-2.226,1.733Z"/><path class="r" d="M161.918,96.144V86.006l2.226-1.733.48-.9-3.187,2.488V97.047Z"/><path class="q" d="M167.046,91.811l2.6-2.49V78.13l-.39.9V89.171L167.436,90.9Z"/><path class="r" d="M167.436,90.9V80.765l1.816-1.731.39-.9-2.6,2.487V91.811Z"/><path class="q" d="M171.547,86.054l2.006-2.381V72.966l-.3.863v9.7l-1.4,1.663Z"/><path class="r" d="M171.85,85.19v-9.7l1.4-1.657.3-.863-2.006,2.38V86.054Z"/><path class="q" d="M175.456,79.488,176.8,77.24v-10.1l-.2.815V77.1l-.938,1.568Z"/><path class="r" d="M175.66,78.671V69.515l.938-1.565.2-.815-1.344,2.247V79.488Z"/><path class="q" d="M84.125,117.449l-2.984-.133v-10.93l-.643-.595v12.065l4.27.188Z"/><path class="r" d="M84.768,118.044V105.98l-4.27-.189.643.595,2.984.133v10.93Z"/><path class="s" d="M76.443,117.019l-2.984-.357V105.8l-.641-.645v11.99l4.268.512Z"/><path class="r" d="M77.086,117.66V105.673l-4.268-.515.641.645,2.984.356v10.86Z"/><path class="s" d="M68.922,116.13l-2.984-.356V104.912l-.643-.645v11.991l4.27.515Z"/><path class="r" d="M69.565,116.773V104.785l-4.27-.518.643.645,2.984.358v10.86Z"/><path class="s" d="M61.323,114.992l-2.984-.67v-10.86l-.643-.712v11.991l4.27.963Z"/><path class="r" d="M61.966,115.7V103.715l-4.27-.965.643.712,2.984.672v10.858Z"/><path class="s" d="M53.718,113.3l-2.984-.762V101.681l-.643-.732v11.992l4.27,1.092Z"/><path class="r" d="M54.361,114.033V102.045l-4.27-1.1.643.732,2.984.763V113.3Z"/><path class="s" d="M46.092,110.972l-2.984-.933V99.417l-.641-.755v11.726l4.267,1.34Z"/><path class="r" d="M46.734,111.728V100l-4.267-1.337.641.755,2.984.933v10.622Z"/><path class="s" d="M38.33,107.9l-2.712-1.238V96.038l-.584-.822v11.726l3.88,1.776Z"/><path class="r" d="M38.914,108.718V96.993l-3.88-1.777.584.822,2.712,1.238V107.9Z"/><path class="s" d="M31.11,104.585l-2.644-1.478V92.753L27.9,91.9v11.431l3.782,2.117Z"/><path class="r" d="M31.679,105.444V94.013L27.9,91.9l.569.857L31.11,94.23v10.355Z"/><path class="s" d="M24.18,100.646l-2.587-1.733V88.772l-.558-.9V99.061l3.7,2.488Z"/><path class="r" d="M24.738,101.549V90.359l-3.7-2.489.558.9,2.587,1.733v10.141Z"/><path class="s" d="M17.913,96.144l-2.228-1.733V84.273l-.481-.9V94.562l3.189,2.485Z"/><path class="r" d="M18.393,97.047V85.858L15.2,83.37l.481.9,2.228,1.733V96.144Z"/><path class="s" d="M12.392,90.9l-1.814-1.733V79.034l-.392-.9V89.321l2.6,2.49Z"/><path class="r" d="M12.784,91.811V80.617l-2.6-2.487.392.9,1.814,1.731V90.9Z"/><path class="s" d="M7.98,85.19l-1.4-1.663v-9.7l-.3-.863V83.673l2.006,2.381Z"/><path class="r" d="M8.283,86.054V75.346l-2.006-2.38.3.863,1.4,1.657v9.7Z"/><path class="t" d="M4.171,78.671,3.232,77.1V67.95l-.2-.815v10.1L4.37,79.488Z"/><path class="r" d="M4.37,79.488V69.382L3.029,67.135l.2.815.939,1.565v9.156Z"/><path class="q" d="M87.864,138.848h4.272V126.78l-.643.567v10.934H88.507Z"/><path class="r" d="M88.507,138.281V127.347h2.986l.643-.567H87.864v12.068Z"/><path class="q" d="M95.062,138.835l4.268-.19V126.578l-.643.595v10.934l-2.982.133Z"/><path class="r" d="M95.705,138.24V127.3l2.982-.131.643-.595-4.268.187v12.07Z"/><path class="q" d="M102.745,138.45l4.267-.515V125.946l-.643.643v10.862l-2.982.358Z"/><path class="r" d="M103.387,137.809V126.946l2.982-.357.643-.643-4.267.518V138.45Z"/><path class="q" d="M110.264,137.562l4.268-.516v-11.99l-.641.643V136.56l-2.984.359Z"/><path class="r" d="M110.907,136.919v-10.86l2.984-.36.641-.643-4.268.515v11.991Z"/><path class="q" d="M117.865,136.492l4.268-.964V123.541l-.641.709v10.86l-2.986.671Z"/><path class="r" d="M118.506,135.781v-10.86l2.986-.671.641-.709-4.268.962v11.989Z"/><path class="q" d="M125.469,134.822l4.268-1.094V121.739l-.643.73v10.86l-2.984.765Z"/><path class="r" d="M126.11,134.094V123.23l2.984-.761.643-.73-4.268,1.094v11.989Z"/><path class="q" d="M133.1,132.514l4.268-1.339V119.45l-.643.754v10.622l-2.984.935Z"/><path class="r" d="M133.737,131.761V121.137l2.984-.933.643-.754-4.268,1.34v11.724Z"/><path class="q" d="M140.915,129.508l3.88-1.777V116.006l-.584.821v10.62l-2.712,1.237Z"/><path class="r" d="M141.5,128.684V118.063l2.712-1.236.584-.821-3.88,1.776v11.726Z"/><path class="q" d="M148.15,126.231l3.782-2.119V112.683l-.571.859V123.9l-2.642,1.476Z"/><path class="r" d="M148.719,125.372V115.016l2.642-1.474.571-.859L148.15,114.8v11.429Z"/><path class="q" d="M155.093,122.336l3.7-2.488V108.659l-.557.9V119.7l-2.588,1.733Z"/><path class="r" d="M155.649,121.431V111.293l2.588-1.733.557-.9-3.7,2.487v11.19Z"/><path class="q" d="M161.437,117.836l3.187-2.487V104.156l-.48.906V115.2l-2.226,1.733Z"/><path class="r" d="M161.918,116.93V106.8l2.226-1.733.48-.906-3.187,2.489v11.191Z"/><path class="q" d="M167.046,112.6l2.6-2.489V98.917l-.39.905v10.136l-1.816,1.733Z"/><path class="r" d="M167.436,111.691V101.555l1.816-1.733.39-.905-2.6,2.49V112.6Z"/><path class="q" d="M171.547,106.843l2.006-2.382V93.753l-.3.865v9.7l-1.4,1.659Z"/><path class="r" d="M171.85,105.976v-9.7l1.4-1.657.3-.865-2.006,2.38v10.71Z"/><path class="q" d="M175.456,100.275l1.344-2.247v-10.1l-.2.815v9.152l-.938,1.565Z"/><path class="r" d="M175.66,99.456V90.3l.938-1.565.2-.815-1.344,2.245v10.106Z"/><path class="q" d="M84.125,138.24l-2.984-.133V127.173l-.643-.595v12.067l4.27.19Z"/><path class="r" d="M84.768,138.835v-12.07l-4.27-.187.643.595,2.984.131V138.24Z"/><path class="s" d="M76.443,137.809l-2.984-.358V126.589l-.641-.643v11.989l4.268.515Z"/><path class="r" d="M77.086,138.45V126.464l-4.268-.518.641.643,2.984.357v10.863Z"/><path class="s" d="M68.922,136.919l-2.984-.359V125.7l-.643-.643v11.99l4.27.516Z"/><path class="r" d="M69.565,137.562V125.571l-4.27-.515.643.643,2.984.36v10.86Z"/><path class="s" d="M61.323,135.781l-2.984-.671V124.25l-.643-.709v11.987l4.27.964Z"/><path class="r" d="M61.966,136.492V124.5l-4.27-.962.643.709,2.984.671v10.86Z"/><path class="s" d="M53.718,134.094l-2.984-.765v-10.86l-.643-.73v11.989l4.27,1.094Z"/><path class="r" d="M54.361,134.822V122.833l-4.27-1.094.643.73,2.984.761v10.864Z"/><path class="s" d="M46.092,131.761l-2.984-.935V120.2l-.641-.754v11.725l4.267,1.339Z"/><path class="r" d="M46.734,132.514V120.79l-4.267-1.34.641.754,2.984.933v10.624Z"/><path class="s" d="M38.33,128.684l-2.712-1.237v-10.62l-.584-.821v11.725l3.88,1.777Z"/><path class="r" d="M38.914,129.508V117.782l-3.88-1.776.584.821,2.712,1.236v10.621Z"/><path class="s" d="M31.11,125.372,28.466,123.9V113.542l-.569-.859v11.429l3.782,2.119Z"/><path class="r" d="M31.679,126.231V114.8L27.9,112.683l.569.859,2.644,1.474v10.356Z"/><path class="s" d="M24.18,121.431,21.593,119.7V109.56l-.558-.9v11.189l3.7,2.488Z"/><path class="r" d="M24.738,122.336v-11.19l-3.7-2.487.558.9,2.587,1.733v10.138Z"/><path class="s" d="M17.913,116.93,15.685,115.2V105.062l-.481-.906v11.193l3.189,2.487Z"/><path class="r" d="M18.393,117.836V106.645L15.2,104.156l.481.906,2.228,1.733V116.93Z"/><path class="s" d="M12.392,111.691l-1.814-1.733V99.822l-.392-.905v11.192l2.6,2.489Z"/><path class="r" d="M12.784,112.6V101.407l-2.6-2.49.392.905,1.814,1.733v10.136Z"/><path class="s" d="M7.98,105.976l-1.4-1.659v-9.7l-.3-.865v10.708l2.006,2.382Z"/><path class="r" d="M8.283,106.843V96.133l-2.006-2.38.3.865,1.4,1.657v9.7Z"/><path class="t" d="M4.171,99.456l-.939-1.565V88.739l-.2-.815v10.1l1.341,2.247Z"/><path class="r" d="M4.37,100.275V90.169L3.029,87.924l.2.815L4.171,90.3v9.152Z"/></svg>