<svg id="edad72ce-4587-4ddd-b830-f2311e6acb0a" data-name="Layer 1" xmlns="http://www.w3.org/2000/svg" xmlns:xlink="http://www.w3.org/1999/xlink" width="443" height="512" viewBox="0 0 443 512"><defs><style>.b978e7de-c0ae-4505-a2cc-fdbeee3ef938{fill:url(#ec7785f7-b9ed-4daf-bcb8-49e160644503);}.ed7c5718-8dc9-4552-8dce-668f30d9fdd1{fill:url(#a4aa7dc1-817f-410f-9df5-33e282692fea);}.a925ca72-d226-4a57-96ef-ddeced6f8259{fill:url(#a209a2ed-4f52-4083-9803-e6a61c841089);}.fdf842db-c1a4-4e6e-817a-51881f524673{fill:url(#f42a2fd3-7e37-4d3b-b164-b2c99b07d56a);}.a10dcaad-8119-4a8c-9ef8-0d21adbabcb8{fill:url(#bb2bfa06-3f15-4fac-af8f-f1db6adf99c1);}.f47cf894-9baa-4d5d-88e5-12bd4c83274d{fill:url(#b911ca77-4d8b-4021-b362-47c1547bafd2);}.ed9f72f7-6154-45a5-ac62-4978b06d2095{fill:url(#b86e7d68-1067-4d5a-a67e-a4e7ec776974);}.f21f9b03-6c40-4c29-81da-19727f3de147{fill:#630c00;}.ab3dcbe8-5738-40d4-85bb-120571e6077b{fill:url(#f71cd684-37fc-4cb4-8f9b-d665c3dda23f);}.a51fdb91-4074-4a97-af4d-b1d9451f4e59{fill:url(#ae7d928c-ab31-4620-8bb0-0f7c2990cbe4);}.aa8b3e6d-112e-4607-ab92-3019155a6992{fill:url(#b4821fd7-4209-4ae8-bdf1-3fada4f22ffa);}.bb0d16ee-7c34-4499-9b76-db9e40a19df9{fill:url(#ebb3b349-cf52-4c47-960e-90b7be56e348);}</style><linearGradient id="ec7785f7-b9ed-4daf-bcb8-49e160644503" x1="4.02" y1="430.24" x2="1.48" y2="434.48" gradientUnits="userSpaceOnUse"><stop offset="0" stop-color="#630c00"/><stop offset="1" stop-color="#881002"/></linearGradient><linearGradient id="a4aa7dc1-817f-410f-9df5-33e282692fea" x1="-1972.04" y1="499.15" x2="-2251.57" y2="14.99" gradientTransform="matrix(-1, 0, 0, 1, -1893.78, 0)" gradientUnits="userSpaceOnUse"><stop offset="0" stop-color="#ef8050"/><stop offset="0.09" stop-color="#e84e24"/><stop offset="0.39" stop-color="#d10a11"/><stop offset="0.68" stop-color="#d10a11"/><stop offset="0.83" stop-color="#e84e24"/><stop offset="0.96" stop-color="#ef8050"/></linearGradient><linearGradient id="a209a2ed-4f52-4083-9803-e6a61c841089" x1="150.08" y1="213.89" x2="267.82" y2="296.33" gradientUnits="userSpaceOnUse"><stop offset="0.37" stop-color="#ef8050" stop-opacity="0"/><stop offset="0.72" stop-color="#d10a11" stop-opacity="0.5"/><stop offset="1" stop-color="#881002" stop-opacity="0.9"/></linearGradient><linearGradient id="f42a2fd3-7e37-4d3b-b164-b2c99b07d56a" x1="274.45" y1="289.79" x2="291.86" y2="301.39" gradientUnits="userSpaceOnUse"><stop offset="0" stop-color="#630c00"/><stop offset="0.68" stop-color="#881002"/><stop offset="1" stop-color="#d10a11"/></linearGradient><linearGradient id="bb2bfa06-3f15-4fac-af8f-f1db6adf99c1" x1="203.66" y1="249.56" x2="174.26" y2="230.84" gradientUnits="userSpaceOnUse"><stop offset="0" stop-color="#d10a11"/><stop offset="1" stop-color="#881002"/></linearGradient><linearGradient id="b911ca77-4d8b-4021-b362-47c1547bafd2" x1="276.01" y1="282.43" x2="312.25" y2="309.16" xlink:href="#bb2bfa06-3f15-4fac-af8f-f1db6adf99c1"/><linearGradient id="b86e7d68-1067-4d5a-a67e-a4e7ec776974" x1="428.97" y1="80.91" x2="86.23" y2="525.86" gradientUnits="userSpaceOnUse"><stop offset="0" stop-color="#f2987a"/><stop offset="0.34" stop-color="#e20613"/><stop offset="0.98" stop-color="#f2987a"/></linearGradient><linearGradient id="f71cd684-37fc-4cb4-8f9b-d665c3dda23f" x1="435.54" y1="75.86" x2="440.87" y2="66.63" gradientUnits="userSpaceOnUse"><stop offset="0.21" stop-color="#ef8050"/><stop offset="0.72" stop-color="#d10a11"/><stop offset="0.97" stop-color="#881002"/></linearGradient><linearGradient id="ae7d928c-ab31-4620-8bb0-0f7c2990cbe4" x1="327.49" y1="14.04" x2="332.82" y2="4.81" xlink:href="#f71cd684-37fc-4cb4-8f9b-d665c3dda23f"/><linearGradient id="b4821fd7-4209-4ae8-bdf1-3fada4f22ffa" x1="122.03" y1="500.34" x2="127.73" y2="490.47" xlink:href="#f71cd684-37fc-4cb4-8f9b-d665c3dda23f"/><linearGradient id="ebb3b349-cf52-4c47-960e-90b7be56e348" x1="124.06" y1="493.9" x2="123.42" y2="503.95" xlink:href="#ec7785f7-b9ed-4daf-bcb8-49e160644503"/></defs><title>msb-scaled</title><g id="ad80e3f2-ae31-495b-a207-22ef5d699516" data-name="msb"><path class="b978e7de-c0ae-4505-a2cc-fdbeee3ef938" d="M5.66,428.15c-1-1.21-2.12-2.75-3.59-2.87a3.58,3.58,0,0,0-1.54,2.18c-.78,3.34-.1,9.83-.1,9.83l7.76-5.08A26.29,26.29,0,0,0,5.66,428.15Z"/><path class="ed7c5718-8dc9-4552-8dce-668f30d9fdd1" d="M98.66,510.34h0a10.21,10.21,0,0,0,1.06.44h0A7,7,0,0,1,98.66,510.34ZM2.07,425.28a9.4,9.4,0,0,1,3.59,2.87,35.93,35.93,0,0,1,3.44,5.74c1.28,1.56,2.17,11.29,5,18.05,4.16,10.09,8,14,16.41,19.37S93.73,508,98.37,510.2a14,14,0,0,0,1.85.72,4.6,4.6,0,0,1-.5-.13c.29.1.61.21,1,.31l.16,0c.35.1.73.2,1.14.29a.23.23,0,0,0,.11,0c.44.09.92.18,1.41.26l.33,0c.49.07,1,.12,1.52.16l.18,0c.58,0,1.19.05,1.83.05l.48,0c.62,0,1.28-.05,2-.11h.13c.72-.07,1.48-.18,2.26-.32l.56-.11c.81-.15,1.62-.34,2.49-.57,7.32-2,28.34-12.18,69.55-58.08,45-50.14,176-248,196.84-280.65s38.16-58.89,38.16-58.89a25.44,25.44,0,0,0,4.27-13.64c.21-5.54.65-10.15,1.07-13.49l.34-.39c.06,0,.1-.1.16-.16q1.51-1.64,3-3.11c.28-.29.56-.53.85-.8.74-.73,1.49-1.47,2.21-2.12,1-.91.67-.62,1.66-1.41a4.55,4.55,0,0,0,4,0c3.39-1.92,5.5-7.15,5.5-10.77a6.14,6.14,0,0,0-.12-1.15,4.29,4.29,0,0,0-.73-1.92,3.73,3.73,0,0,0-1.93-1.72c-5.4-1.7-9.23,1.29-22,12.77a89.49,89.49,0,0,0-6.92,7.15c-10.62-6.23-57.25-33.49-69.9-40.74-4-2.36-6,.36-10.6,3.71C328,44.82,324,42.66,322.48,37a26,26,0,0,1-1-8L321,20.5c1.65-1.64,3.26-3.14,4.84-4.48,1,.82,2.41.89,4,0,3-1.75,5.51-6.48,5.51-10.54,0-.06,0-.11,0-.17V5.23a6,6,0,0,0-.08-1,4.51,4.51,0,0,0-1.55-3.08,3.07,3.07,0,0,0-1.16-.75c-5.39-1.7-9.23,1.3-22,12.78A76.69,76.69,0,0,0,305,18.71c-28.05,29.78-79,121.15-116.73,173.67C140.32,259.15,53.73,391.65,2.07,425.28ZM326,11a8.31,8.31,0,0,1,3.49-6.65c1.92-1.12,3.48.07,3.48,2.63a8.4,8.4,0,0,1-3.48,6.66C327.53,14.77,326,13.59,326,11ZM434,72.85a8.36,8.36,0,0,1,3.49-6.65c1.92-1.11,3.47.08,3.47,2.64s-1.55,5.54-3.47,6.65S434,75.41,434,72.85Z"/><path class="a925ca72-d226-4a57-96ef-ddeced6f8259" d="M107.06,503.91c0-4-.2-8.39-.19-10.44a1.72,1.72,0,0,1,.82-1.42c58.66-36.87,140.2-170.81,188.2-237.57,36.81-51.22,87.05-140.15,115.54-172.34l-.3.33C399,75.34,344,43.09,341.23,41.73c-3.06-1.53-4.45.12-10.6,3.71-6.78-2.77-9.19-8-9.19-16.45L321,20.5c1.65-1.64,3.26-3.14,4.84-4.48,1,.82,2.41.89,4,0,3-1.75,5.51-6.48,5.51-10.54,0-.06,0-.11,0-.17V5.23a6,6,0,0,0-.08-1,4.51,4.51,0,0,0-1.55-3.08,3.07,3.07,0,0,0-1.16-.75c-5.39-1.7-9.23,1.3-22,12.78A76.69,76.69,0,0,0,305,18.71c-28.05,29.78-79,121.15-116.73,173.67-48,66.77-134.58,199.27-186.24,232.9a9.4,9.4,0,0,1,3.59,2.87,35.93,35.93,0,0,1,3.44,5.74c1.42,4.72,2.17,11.29,5,18.05,4.16,10.09,8,14,16.41,19.37S93.73,508,98.37,510.2a12.41,12.41,0,0,0,1.72.67C103.13,511.67,107.06,510.6,107.06,503.91ZM329.46,4.38c1.92-1.12,3.48.07,3.48,2.63a8.4,8.4,0,0,1-3.48,6.66c-1.93,1.1-3.49-.08-3.49-2.64A8.31,8.31,0,0,1,329.46,4.38Z"/><path class="fdf842db-c1a4-4e6e-817a-51881f524673" d="M99.72,510.79c2.4.88,7.85,2.18,15.53.07,7.32-2,28.34-12.18,69.55-58.08,45-50.14,176-248,196.84-280.65s38.16-58.89,38.16-58.89a25.44,25.44,0,0,0,4.27-13.64c.21-5.54.65-10.15,1.07-13.5A88,88,0,0,1,434.7,77a3.18,3.18,0,0,0,3.24-.25c2.71-1.57,4.89-5.76,4.89-9.38,0-2.37-1.4-4.36-2.78-4.79-5.4-1.7-9.23,1.29-22,12.77-26.69,24-82.3,123.7-122.16,179.16-48,66.76-129.54,200.7-188.2,237.57a1.72,1.72,0,0,0-.82,1.42c0,2,.19,6.4.19,10.44C107.06,510.86,102.8,511.77,99.72,510.79ZM434,72.85a8.36,8.36,0,0,1,3.49-6.65c1.92-1.11,3.47.08,3.47,2.64s-1.55,5.54-3.47,6.65S434,75.41,434,72.85ZM98.64,510.34c.23.11.59.27,1.08.45A8.73,8.73,0,0,1,98.64,510.34Z"/><path class="a10dcaad-8119-4a8c-9ef8-0d21adbabcb8" d="M14.05,451.94c2.36,5.72,4.6,9.44,7.63,12.58A176.75,176.75,0,0,0,44.4,445.46c56.88-48.63,130.48-162,172.89-225.76,33-49.53,80.63-134,109.4-170a40.56,40.56,0,0,1,3.94-4.28c-6.6-2.79-9.19-8.1-9.19-16.45L321,20.5c1.65-1.64,3.26-3.14,4.84-4.48,1,.82,2.41.89,4,0,3-1.75,5.51-6.48,5.51-10.54,0-.06,0-.11,0-.17V5.23a6,6,0,0,0-.08-1,5.66,5.66,0,0,0-.81-2.3c-3.71-.84-9.44,5.07-19.57,14.31C288.3,40.46,232.92,138,193.06,193.49c-48,66.77-134.59,199.26-186.25,232.9l-1.58,1.26a5,5,0,0,1,.43.5,35.93,35.93,0,0,1,3.44,5.74C10.68,437.29,11.27,445.18,14.05,451.94ZM326,11a8.31,8.31,0,0,1,3.49-6.65c1.92-1.12,3.48.07,3.48,2.63a8.4,8.4,0,0,1-3.48,6.66C327.53,14.77,326,13.59,326,11Z"/><path class="f47cf894-9baa-4d5d-88e5-12bd4c83274d" d="M107.69,492.05c1.91-1.32,7,1.88,7.18,6.51.21,4.37.21,6.23.21,6.23l5.14-3.09c1.27,1.82,3,2.14,5,1a6.71,6.71,0,0,0,.8-.55c.18-.14.34-.31.52-.46a13.72,13.72,0,0,0,3.85-7.39C188.6,448.9,268.76,315.81,314.17,252.64,353.48,198,401.55,105.16,433.36,78.12c1,.82,2.4.89,4,0,3-1.76,5.52-6.49,5.52-10.54,0-.06,0-.12,0-.18v0a6.37,6.37,0,0,0-.08-1,5,5,0,0,0-1.67-3.23,2.78,2.78,0,0,0-1-.58c-5.4-1.7-9.23,1.29-22,12.77-26.69,24-82.3,123.7-122.16,179.16C247.89,321.24,166.35,455.18,107.69,492.05ZM434,72.85a8.36,8.36,0,0,1,3.49-6.65c1.92-1.11,3.47.08,3.47,2.64s-1.55,5.54-3.47,6.65S434,75.41,434,72.85Z"/><path class="ed9f72f7-6154-45a5-ac62-4978b06d2095" d="M112.2,493.34l.62-.44C171.48,456,253,322.09,301,255.33c39.86-55.45,95.48-155.17,122.16-179.15,9.38-8.43,14-12.27,17.9-13.05a2.75,2.75,0,0,0-1-.58c-5.4-1.7-9.23,1.29-22,12.77-26.69,24-82.3,123.7-122.16,179.16-48,66.76-129.54,200.7-188.2,237.57C108.7,491.35,110.6,492,112.2,493.34Z"/><path class="f21f9b03-6c40-4c29-81da-19727f3de147" d="M344.62,106.63a2,2,0,0,0,.57,2.66,1.92,1.92,0,0,0,2.51-1,1.77,1.77,0,1,0-3.08-1.63Z"/><path class="ab3dcbe8-5738-40d4-85bb-120571e6077b" d="M438.74,65.77a4.06,4.06,0,0,1,.47,2c0,2.59-1.57,5.61-3.52,6.74a3.21,3.21,0,0,1-1.21.37,2,2,0,0,0,3,.65c1.94-1.11,3.51-4.13,3.51-6.71C441,66.82,440.06,65.69,438.74,65.77Z"/><path class="a51fdb91-4074-4a97-af4d-b1d9451f4e59" d="M330.69,4a4.22,4.22,0,0,1,.46,2c0,2.59-1.56,5.6-3.51,6.73a2.89,2.89,0,0,1-1.21.37,2,2,0,0,0,3,.65c1.94-1.11,3.51-4.12,3.51-6.71C332.94,5,332,3.87,330.69,4Z"/><path class="aa8b3e6d-112e-4607-ab92-3019155a6992" d="M121.15,497.56c0,2.74,1.67,4,3.73,2.82s3.72-4.38,3.72-7.12-1.66-4-3.72-2.82-3.73,4.38-3.73,7.12"/><path class="bb0d16ee-7c34-4499-9b76-db9e40a19df9" d="M124.88,490.44c-2.06,1.18-3.73,4.38-3.73,7.12a4.3,4.3,0,0,0,.55,2.25,3,3,0,0,0,1.43-.44c2.06-1.19,3.72-4.38,3.72-7.12a4.22,4.22,0,0,0-.55-2.26A3.07,3.07,0,0,0,124.88,490.44Z"/></g></svg>