<svg id="ba6609b0-045c-4825-8d63-469b0ea7d2ed" data-name="Layer 1" xmlns="http://www.w3.org/2000/svg" xmlns:xlink="http://www.w3.org/1999/xlink" width="223" height="141" viewBox="0 0 223 141"><defs><style>.fc590af8-49a0-4d17-8a34-444c620a31ab{fill:url(#b62b428e-91fc-4ead-bd10-7624c1c8448a);}.b19f44f5-8e91-4c85-895c-e575df2fefc8{fill:url(#afcb9b9d-5a6b-4978-a213-03398703f46b);}.fdacc317-cbcf-46e5-b0c3-131255abb96c{fill:url(#fb65abd3-0e3c-4a7e-ac1f-73a3f00672d3);}.b7adcbe5-3b6d-456c-a3b1-6eb8f7de4c32{fill:url(#f2f2cd98-a198-42f7-80fc-86c5126011cc);}.b77306ef-bddd-48f1-a21a-9cd73ed57c95,.f6e8ec1c-2c58-4e41-bd1b-eefc0af3b5e2{fill:none;stroke-linecap:round;stroke-linejoin:round;stroke-width:0.67px;}.b77306ef-bddd-48f1-a21a-9cd73ed57c95{stroke:#002e48;stroke-dasharray:2.11 3.17;}.f6e8ec1c-2c58-4e41-bd1b-eefc0af3b5e2{stroke:#64b6e6;opacity:0.8;}</style><linearGradient id="b62b428e-91fc-4ead-bd10-7624c1c8448a" x1="76.24" y1="9.54" x2="96.41" y2="44.16" gradientUnits="userSpaceOnUse"><stop offset="0.29" stop-color="#45bae7"/><stop offset="0.77" stop-color="#0094da"/><stop offset="1" stop-color="#005680"/></linearGradient><linearGradient id="afcb9b9d-5a6b-4978-a213-03398703f46b" x1="113.66" y1="40.35" x2="160.29" y2="121.11" gradientUnits="userSpaceOnUse"><stop offset="0.78" stop-color="#45bae7"/><stop offset="0.92" stop-color="#0094da"/><stop offset="1" stop-color="#005680"/></linearGradient><linearGradient id="fb65abd3-0e3c-4a7e-ac1f-73a3f00672d3" x1="138.36" y1="75.86" x2="-11.68" y2="120.27" gradientUnits="userSpaceOnUse"><stop offset="0" stop-color="#0081c2"/><stop offset="1" stop-color="#005680"/></linearGradient><linearGradient id="f2f2cd98-a198-42f7-80fc-86c5126011cc" x1="66.91" y1="95.19" x2="61.91" y2="113.52" gradientUnits="userSpaceOnUse"><stop offset="0" stop-color="#002e48"/><stop offset="1" stop-color="#005680"/></linearGradient></defs><title>pls-scaled</title><g id="f9a5e897-c365-4096-8f16-dfb2caaaf309" data-name="pls"><path class="fc590af8-49a0-4d17-8a34-444c620a31ab" d="M137.89,29.57S119.83,11.51,109.7,6.45,98.58-.93,93.85,1.38,9.18,50.16,4.45,53.13-1,65.47,3.35,68.88s27,14.43,34,20.48,16.51,8.15,23.89,10.79,30.23,16.21,35.3,20.61,19.75,15.24,24.7,18.33,6.39.76,12.78-3S208.9,92,215.62,89.32,227,72.8,216,69.17s-20.53-14.69-33-18.32-5.12-4.43-18.55-11.15a153.23,153.23,0,0,0-26.54-10.13Z"/><path class="b19f44f5-8e91-4c85-895c-e575df2fefc8" d="M215.66,69.09c-11-3.63-18-17-30.42-20.64S180.11,44,166.68,37.31a152.87,152.87,0,0,0-26.25-10C135,29.64,124.13,38,115.12,42.12,105,43.11,68.7,67.18,62.43,72.28c-7,5.73-14.09,8-12.82,10.36C52,87,73.78,99.15,73.78,99.15l.66.46c10,5.17-.33-1.49,6.21,3,11.45,7.82,38,19.32,42.77,23.06s4,10.57,1.32,8.48a.39.39,0,0,0-.1-.08,4.89,4.89,0,0,1,.66,2.29c0,1.26,0,2.66-.13,4.09,2.33-.1,4.38-1.93,8.58-4.39,6.38-3.74,74.87-44.15,81.58-46.79S226.68,72.73,215.66,69.09Z"/><path class="fdacc317-cbcf-46e5-b0c3-131255abb96c" d="M6.65,55.31c5,2.53,5.45,0,7.5,4.09s5.1,2,10.21,5.79,12.9,10.67,18.4,15a102,102,0,0,0,9.08,5.72c-2.38-2.14-3.6-3.23-2.11-4.64s.93,0,2.28,1.6S65,92.11,71.7,96.06s13.37,5.46,17.91,9.42,3.26.24,6.38,3.18,12.47,6.67,18.7,9.28,18,6.56,16.5,12.79c-1.18,4.83-1.2,8.13-4.17,9.46-1.74.62-3.32.41-5.76-1.1-5-3.09-19.64-13.92-24.7-18.33s-27.92-18-35.3-20.61S44.42,95.42,37.37,89.36,7.76,72.29,3.35,68.88c-3.43-2.66-3.72-8.94-1.43-13C2.91,54.49,4.71,54.33,6.65,55.31Z"/><path class="b7adcbe5-3b6d-456c-a3b1-6eb8f7de4c32" d="M50.58,87.9c1.3.37,11.1,5.86,13.07,6.68,12.47,6.68,7.64,2.3,16.5,8.35,11.45,7.81,38,19.31,42.77,23s4,10.57,1.32,8.48-4.15-2.59-18.17-12.11c-14.42-9.8-20.26-12.63-31-19.78S48.49,91.78,40.68,85.07C31.62,77.28,26.25,76,18.21,72S2.36,63.15,7.76,60.84s1,3.41,5.72,3.74S26.36,69.32,30,72.29,44.86,86.24,50.58,87.9Z"/><path class="b77306ef-bddd-48f1-a21a-9cd73ed57c95" d="M16.88,48.25s5.84-.54,9.57,3.72,12.24,5.59,15.43,9.58,9.85,8.79,16.77,12.77m5.59-2.66S68,74.59,73,79.38s18.9,12.49,28.74,18.09,22.69,8.87,31.73,12.87,12.24,15.43,6.12,21.82"/><path class="f6e8ec1c-2c58-4e41-bd1b-eefc0af3b5e2" d="M17.61,48s5.83-.54,9.56,3.72,12.24,5.59,15.44,9.58,9.85,8.79,16.77,12.77M65,71.45s3.73,2.93,8.79,7.72,18.89,12.49,28.73,18.09c8.3,4.71,20.9,8.08,31.74,12.87,9,4,12.23,15.44,6.12,21.82"/></g></svg>