<svg id="b1f20954-3bc2-4fc5-a929-4619fb8ccb4e" data-name="Layer 1" xmlns="http://www.w3.org/2000/svg" xmlns:xlink="http://www.w3.org/1999/xlink" width="306" height="198" viewBox="0 0 306 198"><defs><style>.b084b8b6-f201-406d-a193-c260e67970a0{fill:url(#b015eff2-faac-4bbb-9ccd-51f5bf9176ca);}.fae64d77-0839-4d3b-83b9-ceaabd91ddf3{fill:url(#ab21aaf4-0cdf-44c1-a396-164cee4e9884);}.ac79b796-fda4-4a38-8cb0-b7c5b0bb918b{fill:url(#afd8cff6-54c8-4849-8acc-46208b1f0c77);}.ba135036-c2e3-412d-86ce-9816ec06953e{fill:url(#e6c9a60b-c510-4e4e-a3fc-c867736bb8a2);}.af08be63-c339-4e7d-8aca-633e1ad10131{fill:url(#edef4529-7d29-4c1f-a8c1-92ca966f84a7);}.a1547cb9-163a-49c3-896b-ff61cb4ecb25,.f6a5d25d-a142-45d0-ac5d-44fc9549f9da{fill:none;stroke-linecap:round;stroke-linejoin:round;stroke-width:0.72px;}.f6a5d25d-a142-45d0-ac5d-44fc9549f9da{stroke:#64b6e6;opacity:0.8;}.a1547cb9-163a-49c3-896b-ff61cb4ecb25{stroke:#002e48;stroke-dasharray:2.29 3.44;}</style><linearGradient id="b015eff2-faac-4bbb-9ccd-51f5bf9176ca" x1="106.91" y1="14.81" x2="133.17" y2="59.87" gradientUnits="userSpaceOnUse"><stop offset="0.29" stop-color="#45bae7"/><stop offset="0.77" stop-color="#0094da"/><stop offset="1" stop-color="#005680"/></linearGradient><linearGradient id="ab21aaf4-0cdf-44c1-a396-164cee4e9884" x1="147.17" y1="47.05" x2="218.35" y2="170.34" gradientUnits="userSpaceOnUse"><stop offset="0.67" stop-color="#45bae7"/><stop offset="0.81" stop-color="#0094da"/><stop offset="0.92" stop-color="#005680"/><stop offset="0.93" stop-color="#0083bf"/><stop offset="1" stop-color="#005680"/></linearGradient><linearGradient id="afd8cff6-54c8-4849-8acc-46208b1f0c77" x1="89.66" y1="129.45" x2="83.17" y2="153.25" gradientUnits="userSpaceOnUse"><stop offset="0" stop-color="#002e48"/><stop offset="1" stop-color="#005680"/></linearGradient><linearGradient id="e6c9a60b-c510-4e4e-a3fc-c867736bb8a2" x1="185.56" y1="108.58" x2="-16.41" y2="168.37" gradientUnits="userSpaceOnUse"><stop offset="0" stop-color="#0081c2"/><stop offset="1" stop-color="#005680"/></linearGradient><linearGradient id="edef4529-7d29-4c1f-a8c1-92ca966f84a7" x1="57.73" y1="92.75" x2="101.5" y2="154.8" xlink:href="#afd8cff6-54c8-4849-8acc-46208b1f0c77"/></defs><title>plx-scaled</title><g id="a55461e6-3d1d-4537-8cd8-37f11f8d6fb0" data-name="plx"><path class="b084b8b6-f201-406d-a193-c260e67970a0" d="M181.66,30.51S162.71,11.57,152.09,6.26,140.43-1.48,135.46,1,11.29,72.52,6.33,75.65.56,88.58,5.18,92.16s28.28,15.13,35.68,21.48,17.32,8.55,25,11.32,64.36,35.85,69.67,40.47S159,183,164.21,186.22s6.71.8,13.4-3.12,37.48-51.79,44.52-54.57,88.32-32.25,76.77-36.07-24.25-17-37.3-20.79-38-23.49-52.11-30.53a160.66,160.66,0,0,0-27.83-10.63Z"/><path class="fae64d77-0839-4d3b-83b9-ceaabd91ddf3" d="M302.74,109.62c5.82-5.54,1.64-15.33-4.14-17.24C287.05,88.57,277,73,264,69.17s-38-23.5-52.11-30.54a160,160,0,0,0-27.53-10.54c-5.66,2.49-52.47,31.72-61.91,36-10.62,1-48.69,26.29-55.27,31.64-7.39,6-14.78,8.41-13.44,10.86C56.17,111.13,79,123.91,79,123.91l.7.49c10.51,5.42,32.3,17.28,39.16,22,12,8.2,42.61,21.83,47.58,25.76s4.16,11.08,1.39,8.89l-.11-.09a5.15,5.15,0,0,1,.69,2.41c0,1.32-.06,2.79-.13,4.29,2.44-.11.21,10.75,4.7,8.33,7.55-4.07,119.1-67.95,124.55-71.5C300.91,122.27,308.56,115.71,302.74,109.62Z"/><path class="ac79b796-fda4-4a38-8cb0-b7c5b0bb918b" d="M54.71,112.11c1.36.39,11.65,6.15,13.71,7,13.08,7,40.66,21.27,50,27.61,12,8.2,42.62,21.83,47.58,25.75s4.16,11.09,1.39,8.89-4.36-2.72-19.06-12.7C133.15,158.38,91.67,135,80.35,127.5s-27.83-11.32-36-18.36c-9.5-8.17-15.13-9.48-23.56-13.75s-16.62-9.23-11-11.66,1.05,3.58,6,3.93,13.51,5,17.32,8.08,15.59,14.63,21.59,16.37Z"/><path class="ba135036-c2e3-412d-86ce-9816ec06953e" d="M174.62,177.45c1.6-6.53-10.76-10.68-17.3-13.42s-19.07-8.21-22.34-11.29-12.8-5.48-17.56-9.63-33.49-18.29-40.55-22.44-19.25-12.18-20.66-13.86-.8-3.18-2.39-1.68S53.53,107.76,56,110a107.06,107.06,0,0,1-9.53-6c-5.77-4.53-13.94-11.79-19.3-15.72S18.64,86.5,16.5,82.22s-2.58-1.64-7.87-4.29c-2-1-3.92-.86-5,.61C.08,82.81-1.8,97.6,5.18,102.45c4.79,3.33,28.28,15.13,35.68,21.48s17.32,8.54,25,11.31,64.36,35.85,69.67,40.47S159,193.27,164.21,196.5c2.56,1.59,4.23,1.81,6,1.15,7.54-2.1,7.2-9.86,2.72-13C175.56,179.86,174.62,177.45,174.62,177.45Z"/><path class="af08be63-c339-4e7d-8aca-633e1ad10131" d="M65.26,123.11c-7.66-3.11-16.42-8.49-22.44-12.47-3.37-2.91-8.11-3.31-9.7-4.62-3.81-3.12-9-11.19-13.92-11.54S13.66,84.31,8,86.73s-2.24,12.75,12.76,19c8.74,3.61,14.06,5.57,23.56,13.74,8.2,7,24.72,10.86,36,18.36s52.8,30.89,67.93,41.16c14.7,10,16.29,10.51,19.06,12.71s3.58-5-1.39-8.89S130.38,165.2,118.37,157c-9.29-6.34-36.87-20.59-49.95-27.6-1.49-.62-7.23-3.77-10.84-5.64,8.28,3,20.84,7.37,21.79,8,11.32,7.5,53.78,26.38,68.91,36.66,14.7,10,16.29,10.51,19.06,12.7s3.58-5-1.39-8.89-35.57-17.56-47.58-25.75c-7.6-5.19-32.13-14.31-46.49-21.36Z"/><path class="f6a5d25d-a142-45d0-ac5d-44fc9549f9da" d="M19.91,70.2s6.12-.56,10,3.91,12.83,5.87,16.18,10,10.34,9.21,17.59,13.4m5.86-2.8s3.91,3.08,9.22,8.1,52.46,32,62.78,37.82,26.52,10.88,36,15.07c6.32,2.79,14.07,12.47,8.68,22.25,3.46,3.57.59,8.06-1.55,10.3"/><path class="a1547cb9-163a-49c3-896b-ff61cb4ecb25" d="M19.37,70.52s6.12-.57,10,3.9,12.84,5.87,16.19,10,10.33,9.22,17.59,13.4M69,95.08s3.91,3.07,9.21,8.09,52.46,32,62.79,37.82,26.52,10.88,36,15.07c6.32,2.8,14.08,12.48,8.68,22.25,3.47,3.57.6,8.07-1.55,10.3"/><path class="a1547cb9-163a-49c3-896b-ff61cb4ecb25" d="M63.6,112.17c6.44-5,15.8-8.28,22.47-14.61,17.42-16.56,46.79-28.2,46.79-28.2s56.66-33.86,64.88-36.48"/></g></svg>