<svg xmlns="http://www.w3.org/2000/svg" xmlns:xlink="http://www.w3.org/1999/xlink" width="230" height="145" viewBox="0 0 230 145"><defs><style>.a{fill:url(#a);}.b{fill:url(#b);}.c{fill:url(#c);}.d{fill:url(#d);}.e{fill:url(#e);}.f{fill:url(#f);}.g{fill:url(#g);}.h{fill:url(#h);}.i{fill:url(#i);}.j{fill:url(#j);}.k{fill:url(#k);}.l{fill:url(#l);}.m{fill:url(#m);}.n{fill:url(#n);}.o{fill:url(#o);}.p{fill:url(#p);}.q{fill:url(#q);}</style><linearGradient id="a" x1="212.655" y1="84.955" x2="215.209" y2="80.767" gradientUnits="userSpaceOnUse"><stop offset="0" stop-color="#e94e24"/><stop offset="0.555" stop-color="#d20a11"/><stop offset="1" stop-color="#d20a11"/></linearGradient><linearGradient id="b" x1="131.714" y1="154.469" x2="136.789" y2="146.525" gradientUnits="userSpaceOnUse"><stop offset="0.011" stop-color="#e94e24"/><stop offset="0.643" stop-color="#d20a11"/><stop offset="1" stop-color="#640c00"/></linearGradient><linearGradient id="c" x1="122.999" y1="136.849" x2="125.544" y2="132.673" gradientUnits="userSpaceOnUse"><stop offset="0" stop-color="#d20a11"/><stop offset="1" stop-color="#5a0a00"/></linearGradient><linearGradient id="d" x1="167.015" y1="98.562" x2="174.789" y2="112.027" gradientUnits="userSpaceOnUse"><stop offset="0.484" stop-color="#640c00"/><stop offset="0.698" stop-color="#8a1002"/><stop offset="1" stop-color="#d20a11"/></linearGradient><linearGradient id="e" x1="24.033" y1="93.174" x2="29.11" y2="85.227" gradientUnits="userSpaceOnUse"><stop offset="0" stop-color="#b30f0b"/><stop offset="1" stop-color="#d20a11"/></linearGradient><linearGradient id="f" x1="12.482" y1="64.295" x2="20.256" y2="77.76" gradientUnits="userSpaceOnUse"><stop offset="0.805" stop-color="#640c00"/><stop offset="1" stop-color="#8a1002"/></linearGradient><linearGradient id="g" y1="67.344" x2="229.999" y2="67.344" gradientUnits="userSpaceOnUse"><stop offset="0" stop-color="#640c00"/><stop offset="0.077" stop-color="#8a1002"/><stop offset="0.459" stop-color="#8a1002"/><stop offset="0.47" stop-color="#d20a11"/><stop offset="0.535" stop-color="#8a1002"/><stop offset="0.543" stop-color="#d20a11"/><stop offset="0.808" stop-color="#d20a11"/><stop offset="1" stop-color="#8a1002"/></linearGradient><linearGradient id="h" x1="115" y1="128.34" x2="115" y2="-30.762" gradientUnits="userSpaceOnUse"><stop offset="0" stop-color="#e94e24"/><stop offset="1" stop-color="#d20a11"/></linearGradient><linearGradient id="i" x1="72.252" y1="81.337" x2="96.09" y2="81.337" gradientUnits="userSpaceOnUse"><stop offset="0" stop-color="#ec6444"/><stop offset="0.218" stop-color="#e63823"/><stop offset="1" stop-color="#861d18"/></linearGradient><linearGradient id="j" x1="41.259" y1="63.396" x2="65.097" y2="63.396" xlink:href="#i"/><linearGradient id="k" x1="71.954" y1="45.433" x2="95.792" y2="45.433" xlink:href="#i"/><linearGradient id="l" x1="165.115" y1="63.45" x2="188.953" y2="63.45" xlink:href="#i"/><linearGradient id="m" x1="134.072" y1="45.709" x2="157.91" y2="45.709" xlink:href="#i"/><linearGradient id="n" x1="103.086" y1="99.256" x2="126.924" y2="99.256" xlink:href="#i"/><linearGradient id="o" x1="134.181" y1="81.468" x2="158.018" y2="81.468" xlink:href="#i"/><linearGradient id="p" x1="103.187" y1="27.739" x2="127.025" y2="27.739" xlink:href="#i"/><linearGradient id="q" x1="103.086" y1="63.353" x2="126.924" y2="63.353" xlink:href="#i"/></defs><path class="a" d="M215.607,75.97a3.56,3.56,0,0,1,.81,2.5c0,2.6-1.584,5.63-3.537,6.757a2.552,2.552,0,0,1-1.814.38,2.047,2.047,0,0,0,2.762.2,8.651,8.651,0,0,0,3.643-6.8C217.471,77.281,216.641,76.2,215.607,75.97Z"/><path class="b" d="M112.858,128.761c0,.48.019,7.809.059,9.66a.532.532,0,0,0,.316.573l.819.464c-.049-.489-.078-9.572-.078-10.108l109.6-63.443c0-.576,0-.972,0-1.07Zm2.506,10.475a6.766,6.766,0,0,1,.635,4.22.78.78,0,0,0,.335.805c.24.14.9.551.9.551.023-.064-.414-.189-.324-.8C117.2,142.051,117.33,139.028,115.364,139.236Z"/><path class="c" d="M125.962,127.9a3.552,3.552,0,0,1,.811,2.5c0,2.6-1.583,5.629-3.537,6.756a2.594,2.594,0,0,1-1.836.359,2.075,2.075,0,0,0,2.774.2c1.955-1.127,3.524-4.176,3.524-6.779C127.7,129.209,127,128.122,125.962,127.9Z"/><path class="d" d="M113.783,129.3c0,.466.018,7.645.055,9.825a.387.387,0,0,0,.54.347c2.8-1.175,2.749,2.385,2.473,4.581a.772.772,0,0,0,1.153.763L220.893,85.407a1.289,1.289,0,0,0,.624-1.341c-.322-1.834-.626-6.1,2.913-8.183.049-.546.073-9.978.073-10.512Zm10.378,8.392c-1.951,1.129-3.535-.067-3.535-2.672s1.584-5.629,3.535-6.758,3.537.07,3.537,2.675S126.115,136.562,124.161,137.688ZM213.805,85.76c-1.953,1.129-3.535-.069-3.535-2.673s1.582-5.628,3.535-6.757,3.537.069,3.537,2.673S215.758,84.633,213.805,85.76Z"/><path class="e" d="M5.2,67.43c0,.481.02,7.809.059,9.661a.533.533,0,0,0,.316.572l.819.464c-.049-.488-.078-9.572-.078-10.108l109.6-63.443c0-.576,0-.972,0-1.069ZM7.706,77.905c.722,1.064.664,2.824.507,4.22a.735.735,0,0,0,.335.773c.239.141,1.122.63,1.122.63.023-.064-.511-.236-.42-.844C9.543,80.721,9.672,77.7,7.706,77.905Z"/><path class="f" d="M6.125,67.966c0,.466.019,7.644.055,9.825a.387.387,0,0,0,.541.346c2.8-1.175,2.748,2.386,2.472,4.581a.773.773,0,0,0,1.154.763l14-8.083L23.094,58.169Z"/><path class="g" d="M229.544,64.461a1.237,1.237,0,0,0,.455-.952V62.038L124.558.6a3.862,3.862,0,0,0-3.337-.25,19.878,19.878,0,0,1-12.777.278,3.946,3.946,0,0,0-3.22.316L0,62.413v1.24a1.223,1.223,0,0,0,.456.963,4.314,4.314,0,0,1,1.555,3.815c0,1.258-.413,1.431-1.969,2.53l0,1.4a1.286,1.286,0,0,0,.643,1.11l104.659,60.607a3.839,3.839,0,0,0,3.334.257,19.776,19.776,0,0,1,13.44-.085,3.9,3.9,0,0,0,3.326-.258l103.9-59.983A1.288,1.288,0,0,0,230,72.893l0-1.568c-1.561-.968-2.331-1.3-2.331-2.435A6.651,6.651,0,0,1,229.544,64.461ZM53.178,73.422c-6.583,0-11.919-3.1-11.919-6.92s5.336-6.92,11.919-6.92S65.1,62.68,65.1,66.5,59.761,73.422,53.178,73.422Zm30.7-31.8c6.583,0,11.919,3.1,11.919,6.921s-5.336,6.92-11.919,6.92-11.919-3.1-11.919-6.92S77.291,41.618,83.873,41.618Zm.3,49.745c-6.582,0-11.919-3.1-11.919-6.92s5.337-6.92,11.919-6.92,11.919,3.1,11.919,6.92S90.754,91.363,84.171,91.363Zm30.834,17.919c-6.582,0-11.919-3.1-11.919-6.92s5.337-6.921,11.919-6.921,11.919,3.1,11.919,6.921S121.588,109.282,115.005,109.282Zm0-35.9c-6.582,0-11.919-3.1-11.919-6.92s5.337-6.92,11.919-6.92,11.919,3.1,11.919,6.92S121.588,73.379,115.005,73.379Zm.1-35.614c-6.583,0-11.919-3.1-11.919-6.92s5.336-6.92,11.919-6.92,11.919,3.1,11.919,6.92S121.689,37.765,115.106,37.765Zm30.885,4.13c6.582,0,11.919,3.1,11.919,6.92s-5.337,6.92-11.919,6.92-11.919-3.1-11.919-6.92S139.408,41.9,145.991,41.9Zm.109,49.6c-6.583,0-11.919-3.1-11.919-6.921s5.336-6.92,11.919-6.92,11.918,3.1,11.918,6.92S152.682,91.494,146.1,91.494Zm30.934-18.018c-6.582,0-11.919-3.1-11.919-6.92s5.337-6.92,11.919-6.92,11.919,3.1,11.919,6.92S183.617,73.476,177.034,73.476Z"/><path class="h" d="M229.575,63a1.227,1.227,0,0,0-.185-1.99L124.558.6a3.862,3.862,0,0,0-3.337-.25,19.872,19.872,0,0,1-12.834.259,3.87,3.87,0,0,0-3.163.335L.615,61.345a1.221,1.221,0,0,0-.257,1.922c2.16,2.122,2.31,4.515.066,6.77A1.288,1.288,0,0,0,.68,72.066l104.669,60.421a3.84,3.84,0,0,0,3.333.255,19.775,19.775,0,0,1,13.442-.087,3.892,3.892,0,0,0,3.324-.258l103.9-59.976a1.285,1.285,0,0,0,.238-2.057C227.091,68.091,227.023,65.235,229.575,63ZM53.178,73.422c-6.583,0-11.919-3.1-11.919-6.92s5.336-6.92,11.919-6.92S65.1,62.68,65.1,66.5,59.761,73.422,53.178,73.422Zm30.7-31.8c6.583,0,11.919,3.1,11.919,6.921s-5.336,6.92-11.919,6.92-11.919-3.1-11.919-6.92S77.291,41.618,83.873,41.618Zm.3,49.745c-6.582,0-11.919-3.1-11.919-6.92s5.337-6.92,11.919-6.92,11.919,3.1,11.919,6.92S90.754,91.363,84.171,91.363Zm30.834,17.919c-6.582,0-11.919-3.1-11.919-6.92s5.337-6.921,11.919-6.921,11.919,3.1,11.919,6.921S121.588,109.282,115.005,109.282Zm0-35.9c-6.582,0-11.919-3.1-11.919-6.92s5.337-6.92,11.919-6.92,11.919,3.1,11.919,6.92S121.588,73.379,115.005,73.379Zm.1-35.614c-6.583,0-11.919-3.1-11.919-6.92s5.336-6.92,11.919-6.92,11.919,3.1,11.919,6.92S121.689,37.765,115.106,37.765Zm30.885,4.13c6.582,0,11.919,3.1,11.919,6.92s-5.337,6.92-11.919,6.92-11.919-3.1-11.919-6.92S139.408,41.9,145.991,41.9Zm.109,49.6c-6.583,0-11.919-3.1-11.919-6.921s5.336-6.92,11.919-6.92,11.918,3.1,11.918,6.92S152.682,91.494,146.1,91.494Zm30.934-18.018c-6.582,0-11.919-3.1-11.919-6.92s5.337-6.92,11.919-6.92,11.919,3.1,11.919,6.92S183.617,73.476,177.034,73.476Z"/><path class="i" d="M84.171,77.523c-6.582,0-11.919,3.1-11.919,6.92a4.089,4.089,0,0,0,.062.709C72.925,81.663,78,78.94,84.171,78.94s11.246,2.723,11.858,6.212a4.189,4.189,0,0,0,.061-.709C96.09,80.621,90.754,77.523,84.171,77.523Z"/><path class="j" d="M53.178,59.582c-6.583,0-11.919,3.1-11.919,6.92a4.089,4.089,0,0,0,.062.709C41.932,63.722,47.007,61,53.178,61s11.246,2.723,11.857,6.212A4.089,4.089,0,0,0,65.1,66.5C65.1,62.68,59.761,59.582,53.178,59.582Z"/><path class="k" d="M83.873,43.036c6.171,0,11.246,2.722,11.857,6.211a4.078,4.078,0,0,0,.062-.708c0-3.822-5.336-6.921-11.919-6.921s-11.919,3.1-11.919,6.921a4.078,4.078,0,0,0,.062.708C72.627,45.758,77.7,43.036,83.873,43.036Z"/><path class="l" d="M177.034,61.053c6.171,0,11.246,2.723,11.858,6.212a4.189,4.189,0,0,0,.061-.709c0-3.822-5.336-6.92-11.919-6.92s-11.919,3.1-11.919,6.92a4.089,4.089,0,0,0,.062.709C165.788,63.776,170.864,61.053,177.034,61.053Z"/><path class="m" d="M145.991,43.312c6.17,0,11.246,2.723,11.857,6.212a4.089,4.089,0,0,0,.062-.709c0-3.822-5.337-6.92-11.919-6.92s-11.919,3.1-11.919,6.92a4.089,4.089,0,0,0,.062.709C134.745,46.035,139.82,43.312,145.991,43.312Z"/><path class="n" d="M115.005,95.441c-6.582,0-11.919,3.1-11.919,6.921a4.078,4.078,0,0,0,.062.708c.611-3.489,5.687-6.211,11.857-6.211s11.246,2.722,11.857,6.211a4.078,4.078,0,0,0,.062-.708C126.924,98.54,121.588,95.441,115.005,95.441Z"/><path class="o" d="M146.1,77.653c-6.583,0-11.919,3.1-11.919,6.92a4.18,4.18,0,0,0,.061.709c.612-3.489,5.687-6.212,11.858-6.212s11.245,2.723,11.857,6.212a4.08,4.08,0,0,0,.061-.709C158.018,80.751,152.682,77.653,146.1,77.653Z"/><path class="p" d="M115.106,23.925c-6.583,0-11.919,3.1-11.919,6.92a4.089,4.089,0,0,0,.062.709c.611-3.489,5.687-6.212,11.857-6.212s11.246,2.723,11.857,6.212a4.089,4.089,0,0,0,.062-.709C127.025,27.023,121.689,23.925,115.106,23.925Z"/><path class="q" d="M115.005,59.539c-6.582,0-11.919,3.1-11.919,6.92a4.089,4.089,0,0,0,.062.709c.611-3.489,5.687-6.212,11.857-6.212s11.246,2.723,11.857,6.212a4.089,4.089,0,0,0,.062-.709C126.924,62.637,121.588,59.539,115.005,59.539Z"/></svg>