<svg xmlns="http://www.w3.org/2000/svg" xmlns:xlink="http://www.w3.org/1999/xlink" width="220" height="131" viewBox="0 0 220 131"><defs><style>.a{fill:url(#a);}.b{fill:url(#b);}.c{fill:url(#c);}.d,.e{opacity:0.15;}.d{fill:url(#d);}.e{fill:url(#e);}.f{fill:url(#f);}</style><linearGradient id="a" x1="146.002" y1="98.042" x2="239.564" y2="98.042" gradientUnits="userSpaceOnUse"><stop offset="0" stop-color="#c6c6c6"/><stop offset="1" stop-color="#878787"/></linearGradient><linearGradient id="b" x1="-4.634" y1="96.386" x2="151.911" y2="96.386" xlink:href="#a"/><linearGradient id="c" x1="105.099" y1="-0.774" x2="114.202" y2="119.39" gradientUnits="userSpaceOnUse"><stop offset="0" stop-color="#c6c6c6"/><stop offset="1" stop-color="#fff"/></linearGradient><linearGradient id="d" x1="20.151" y1="44.387" x2="108.865" y2="14.115" gradientUnits="userSpaceOnUse"><stop offset="0" stop-color="#9d9d9c"/><stop offset="1" stop-color="#575756"/></linearGradient><linearGradient id="e" x1="110.679" y1="25.187" x2="201.095" y2="41.305" xlink:href="#d"/><linearGradient id="f" x1="102.538" y1="66.619" x2="102.538" y2="0.5" gradientUnits="userSpaceOnUse"><stop offset="0" stop-color="#fff" stop-opacity="0.6"/><stop offset="1" stop-color="#fff" stop-opacity="0"/></linearGradient></defs><polygon class="a" points="112.793 130.5 112.793 127.355 219.919 65.584 219.919 68.729 112.793 130.5"/><polygon class="b" points="112.793 127.355 112.793 130.5 0.081 65.416 0.081 62.271 112.793 127.355"/><polygon class="c" points="0.081 62.271 112.793 127.355 112.793 127.355 219.919 65.584 107.207 0.5 0.081 62.271"/><polygon class="d" points="0.081 65.416 0.081 62.271 107.207 0.5 107.207 3.645 0.081 65.416"/><polygon class="e" points="107.207 0.5 107.207 3.645 219.919 68.729 219.919 65.584 107.207 0.5"/><path class="f" d="M107.207.5h0L.081,62.271h0l7.531,4.348h0c43.7-3.924,100.072-10.212,152.346-10.212q22.927,0,45.036.559L107.207.5"/></svg>