<svg id="ae298359-a6bc-4bfe-b65e-8a4a09cbfc78" data-name="Layer 1" xmlns="http://www.w3.org/2000/svg" xmlns:xlink="http://www.w3.org/1999/xlink" width="222" height="180" viewBox="0 0 222 180"><defs><style>.abfab7df-006f-40ec-9ccc-8c01ac87eeef{fill:url(#f49feaae-f9e9-48f0-a787-7a342da6d00f);}.aff46b10-63bf-4957-af98-bedd41e275c8{fill:url(#ff8e73f9-8a66-432d-9f2a-2013cc9533b1);}.a020ff91-259b-404c-a13a-b33041767c24{fill:url(#f46f883d-2367-47da-8a03-1c9752a3d676);}.a9a635e4-7cf3-4e00-8ff4-4ed215152988{fill:url(#fbbf9bd5-d944-410b-bd42-ed0336b91613);}.e43ad988-b7fa-435c-b55b-969d1abffb3d{fill:url(#a257f579-0a36-464f-9694-40429b692ab2);}.e6172dbc-e6a8-49d6-9cc5-dd76811bf0fc{fill:url(#ed46dc28-e46d-46c3-9517-b8ef5155a9c5);}.eda0b465-fcb2-4df4-b656-fad05fc02c8e{fill:url(#a43a0c24-9b81-4ba4-98ca-718f209db7e2);}.a4a65d52-3440-4030-99f4-a4e6ebcd7cdf{fill:url(#fa800bc3-0065-410b-81f9-0e767578a500);}.f4e92caa-4f84-44ba-a50c-2056662f7447{fill:url(#ef137076-ae4d-4aae-90eb-7862c6fff429);}.f4cc5109-3323-4c72-9472-9494e6e5de69{fill-rule:evenodd;fill:url(#f8449a81-c88e-4d0a-90a1-9539304b487b);}.f23da198-90b2-42c7-a064-b87cc7849561{fill:url(#ba1039fd-672d-46e6-bc07-0a0e034d84d3);}.a0d22127-292b-47be-981f-230efdfbbd40{fill:url(#fb6bda2a-983c-4402-8fee-4d7ce1f8e693);}.bee6c36e-1ae5-43ec-9274-aeaa0be48366{fill:url(#e8dba07c-2e28-4c70-9d1b-135fdbe11bd3);}</style><linearGradient id="f49feaae-f9e9-48f0-a787-7a342da6d00f" x1="-751.77" y1="-0.38" x2="-740.27" y2="16.65" gradientTransform="matrix(-1, 0, 0, 1, -640.32, 0)" gradientUnits="userSpaceOnUse"><stop offset="0" stop-color="#ffec00"/><stop offset="1" stop-color="#bf9000"/></linearGradient><linearGradient id="ff8e73f9-8a66-432d-9f2a-2013cc9533b1" x1="-750.69" y1="5.11" x2="-745.08" y2="14.82" gradientTransform="matrix(-1, 0, 0, 1, -640.32, 0)" gradientUnits="userSpaceOnUse"><stop offset="0" stop-color="#bf9000"/><stop offset="0.36" stop-color="#ffec00"/><stop offset="0.78" stop-color="#fff9d1"/></linearGradient><linearGradient id="f46f883d-2367-47da-8a03-1c9752a3d676" x1="-738.85" y1="6.93" x2="-747.94" y2="1.58" gradientTransform="matrix(-1, 0, 0, 1, -640.32, 0)" gradientUnits="userSpaceOnUse"><stop offset="0" stop-color="#ffec00"/><stop offset="1" stop-color="#fff9d1"/></linearGradient><linearGradient id="fbbf9bd5-d944-410b-bd42-ed0336b91613" x1="-784.31" y1="21.83" x2="-706.23" y2="157.07" gradientTransform="matrix(-1, 0, 0, 1, -640.32, 0)" gradientUnits="userSpaceOnUse"><stop offset="0.45" stop-color="#ffec00"/><stop offset="0.63" stop-color="#fff9d1"/><stop offset="0.85" stop-color="#ffec00"/><stop offset="1" stop-color="#bf9000"/></linearGradient><linearGradient id="a257f579-0a36-464f-9694-40429b692ab2" x1="-709.73" y1="110.93" x2="-698.93" y2="37.08" xlink:href="#f49feaae-f9e9-48f0-a787-7a342da6d00f"/><linearGradient id="ed46dc28-e46d-46c3-9517-b8ef5155a9c5" x1="-854.24" y1="92.65" x2="-853.03" y2="87.2" xlink:href="#f49feaae-f9e9-48f0-a787-7a342da6d00f"/><linearGradient id="a43a0c24-9b81-4ba4-98ca-718f209db7e2" x1="-859.56" y1="67.95" x2="-853.99" y2="77.6" xlink:href="#ff8e73f9-8a66-432d-9f2a-2013cc9533b1"/><linearGradient id="fa800bc3-0065-410b-81f9-0e767578a500" x1="-825.22" y1="154.35" x2="-775.52" y2="79.33" xlink:href="#f49feaae-f9e9-48f0-a787-7a342da6d00f"/><linearGradient id="ef137076-ae4d-4aae-90eb-7862c6fff429" x1="-809.58" y1="116.83" x2="-804.96" y2="108.84" gradientTransform="matrix(-1, 0, 0, 1, -640.32, 0)" gradientUnits="userSpaceOnUse"><stop offset="0" stop-color="#7f4f00"/><stop offset="1" stop-color="#bf9000"/></linearGradient><linearGradient id="f8449a81-c88e-4d0a-90a1-9539304b487b" x1="-845.07" y1="104.41" x2="-837.02" y2="96.36" xlink:href="#f49feaae-f9e9-48f0-a787-7a342da6d00f"/><linearGradient id="ba1039fd-672d-46e6-bc07-0a0e034d84d3" x1="-792.8" y1="35.62" x2="-700.39" y2="136.76" gradientTransform="matrix(-1, 0, 0, 1, -640.32, 0)" gradientUnits="userSpaceOnUse"><stop offset="0" stop-color="#fff9d1"/><stop offset="1" stop-color="#ffec00"/></linearGradient><linearGradient id="fb6bda2a-983c-4402-8fee-4d7ce1f8e693" x1="-854.89" y1="65.7" x2="-857.94" y2="64.21" xlink:href="#f49feaae-f9e9-48f0-a787-7a342da6d00f"/><linearGradient id="e8dba07c-2e28-4c70-9d1b-135fdbe11bd3" x1="57.37" y1="53.56" x2="146.72" y2="128.53" gradientUnits="userSpaceOnUse"><stop offset="0.57" stop-color="#ffd100" stop-opacity="0"/><stop offset="1" stop-color="#c59a00" stop-opacity="0.8"/></linearGradient></defs><title>slr-scaled</title><g id="e472a6de-a7d8-4aaf-a7db-e7ba4941c718" data-name="slr"><path class="abfab7df-006f-40ec-9ccc-8c01ac87eeef" d="M98.23,7.48l5.29,10.7c.34-.1,3-1.36,3.39-1.56,2.89-1.67,5.23-6.13,5.23-10s-2.57-6.22-7-3.42C104,4,100.84,5.89,98.23,7.48Zm5,3.87c.11-2.62,1.69-5.58,3.65-6.71a2.94,2.94,0,0,1,1.27-.41,4.3,4.3,0,0,1,.47,2.08c0,2.68-1.64,5.82-3.66,7a2.69,2.69,0,0,1-1.34.38A5.61,5.61,0,0,1,103.21,11.35Z"/><path class="aff46b10-63bf-4957-af98-bedd41e275c8" d="M104.94,13.29c2-1.16,3.66-4.3,3.66-7a4.3,4.3,0,0,0-.47-2.08c1.39-.11,2.38,1.08,2.38,3.18,0,2.68-1.63,5.82-3.65,7a2.59,2.59,0,0,1-1.75.39,1.64,1.64,0,0,1-1.51-1.11A2.69,2.69,0,0,0,104.94,13.29Z"/><path class="a020ff91-259b-404c-a13a-b33041767c24" d="M97.38,5.72c2.61-1.6,4.66-2.85,5.84-3.6,1.94-1.23,3.52-1.46,4.69-1l2,1.19c-1.17-.51-2.77-.34-4.79.93-1.18.75-4.29,2.67-6.9,4.26"/><path class="a9a635e4-7cf3-4e00-8ff4-4ed215152988" d="M1,119.11l102,59.35s4.33,2.36,5.7,1.24,2.35-2.48,2.72-6.19.37-10.16,9.66-14l4.34-17.35s71.86-42.43,76.08-45c2.85-1.77,5-2.74,6.11-6.33.08-.27.15-.58.23-.88l6.25-3.6a1.71,1.71,0,0,1,1.7-.16l0,0-6.06-3.5c1.56-1.15,2.87-2.06,3.65-2.59a4,4,0,0,0,2.47-.6,7.21,7.21,0,0,0,.92-.64,11.88,11.88,0,0,0,3.22-4.48A12.41,12.41,0,0,0,221,69.48c0-3.84-2.33-5.62-5.23-4a7.78,7.78,0,0,0-1.68,1.36v-.36c0-1.73-3.6-3.46-7.19-1.48-1.87,1-8.13,4.75-13.7,8.07l-60.3-34.88-8.69,5-.57-.35a13.58,13.58,0,0,0-5.43-.89c-.55,0-.9,0-.9,0s-.57-.91-1.35-2.23A56.56,56.56,0,0,1,107,27c-2.48-5.26-2.72-12.08-4-13.58a35.91,35.91,0,0,0-3.34-5.57,11.23,11.23,0,0,0-2.54-2.31C80.63,15.64,32.77,42.24,27.63,45.39c-6.08,3.72-12.88,9-16.23,18.59S4.08,95.81,2.6,104.12A107,107,0,0,0,1,119.11ZM212.07,74.47c0-2.69,1.64-5.82,3.66-7a3,3,0,0,1,1.27-.41,4.17,4.17,0,0,1,.47,2.07c0,2.69-1.63,5.83-3.65,7a3.15,3.15,0,0,1-1.28.42A4.32,4.32,0,0,1,212.07,74.47Z"/><path class="e43ad988-b7fa-435c-b55b-969d1abffb3d" d="M11.8,109.23C15.67,100,28.12,93.3,40.38,87l77-44.82.05-.09h-.08s-.57-.91-1.35-2.23A56.56,56.56,0,0,1,107,27c-2.48-5.26-2.72-12.08-4-13.58-.79-1.46-1.47-2.81-2.23-4l-1.5,1.07C81.21,21.5,38.11,45,31.09,49.75c-9,6.13-12,9.46-15.86,20.55-2.16,6.3-3.63,17.47-5.06,23.43C9.3,99.87,11.12,110.89,11.8,109.23Z"/><path class="e6172dbc-e6a8-49d6-9cc5-dd76811bf0fc" d="M216.34,90.83l.41-2.46c0-2-1.21-2.9-2.7-2l-4.8,2.76A7.59,7.59,0,0,0,216.34,90.83Z"/><path class="eda0b465-fcb2-4df4-b656-fad05fc02c8e" d="M213.82,76.13c2-1.16,3.65-4.3,3.65-7a4.17,4.17,0,0,0-.47-2.07c1.39-.11,2.39,1.08,2.39,3.17,0,2.7-1.64,5.83-3.66,7-1.38.8-2.56.46-3.19-.68A3.15,3.15,0,0,0,213.82,76.13Z"/><path class="a4a65d52-3440-4030-99f4-a4e6ebcd7cdf" d="M214,66.06c-8.22,5.25-57,34.09-64.72,39.18-8.42,5.58-22.27,13.07-27.13,21.81-5,8.92-7.56,18-9.92,27.75-1.85,7.72-3.55,20.23-4.19,25.16a1.21,1.21,0,0,0,.61-.26c1.36-1.11,2.35-2.48,2.72-6.19s.37-10.16,9.66-14l4.34-17.35s71.86-42.43,76.08-45,6.81-3.47,7.06-13.63c2-1.56,3.83-2.8,4.8-3.45a4,4,0,0,0,2.47-.6c2.89-1.67,5.22-6.13,5.22-10s-1.69-6.09-7-3.42m-1.94,8.41c0-2.69,1.64-5.82,3.66-7s3.66.08,3.66,2.76-1.64,5.83-3.66,7S212.08,77.16,212.07,74.47Z"/><path class="f4e92caa-4f84-44ba-a50c-2056662f7447" d="M132.07,128.53a23.37,23.37,0,0,0-6.69,13.63s71.86-42.43,76.08-45,6.81-3.47,7.06-13.63L187,96.64S134.6,126,132.07,128.53Z"/><path class="f4cc5109-3323-4c72-9472-9494e6e5de69" d="M192.27,102.61l8,4.57,1.42-1.62,1.09-13.85a95.46,95.46,0,0,1-6.49,8.1,17.92,17.92,0,0,1-1.89,1.53Z"/><path class="f23da198-90b2-42c7-a064-b87cc7849561" d="M126.38,113.17c-6.2,4.58-10.79,11.65-14.25,22.06-2.78,8.31-4.37,17.33-6.79,21.26a4.18,4.18,0,0,1-2,1.9c-6.48,4.52-37-15.44-51.59-23.41s-38.22-22-39.94-25.75C15.67,100,28.12,93.3,40.38,87l77-44.82.05-.09h-.08s.35,0,.9,0a13.58,13.58,0,0,1,5.43.89l.57.35,8.69-5,60.3,34.88-1.16.68C183.63,78.73,132.06,109,126.38,113.17Z"/><path class="a0d22127-292b-47be-981f-230efdfbbd40" d="M218.12,65a2.64,2.64,0,0,0-.49,0A9.56,9.56,0,0,0,214,66.06l0,0a2.57,2.57,0,0,0-1.34-1.35c2.26-1,3.84-1.15,4.85-.57l1.87,1.12A2.81,2.81,0,0,0,218.12,65Z"/><path id="a57b3066-ebcd-4dde-858e-d2625f1d33ab" data-name="shadow" class="bee6c36e-1ae5-43ec-9274-aeaa0be48366" d="M126.37,113.17c-6.19,4.58-10.77,11.65-14.25,22.06-2.77,8.31-4.36,17.34-6.79,21.26a4,4,0,0,1-2,1.9c-6.49,4.52-37-15.44-51.59-23.41s-38.23-22-39.94-25.75C15.66,100,28.11,93.3,40.37,87l74.9-47.35,17.64-1.36,60.3,34.88-1.16.68C183.63,78.73,132.06,109,126.37,113.17Z"/></g></svg>