<svg id="Layer_1" data-name="Layer 1" xmlns="http://www.w3.org/2000/svg" xmlns:xlink="http://www.w3.org/1999/xlink" width="100" height="74" viewBox="0 0 100 74"><defs><style>.cls-1{fill:url(#linear-gradient);}.cls-2{fill:#d71921;}.cls-3{fill:url(#linear-gradient-2);}.cls-4{fill:url(#New_Gradient_Swatch_2);}.cls-5{fill:url(#linear-gradient-3);}.cls-6{fill:#670000;}.cls-7{fill:url(#linear-gradient-4);}</style><linearGradient id="linear-gradient" x1="43.35" y1="25.48" x2="56.69" y2="48.59" gradientUnits="userSpaceOnUse"><stop offset="0" stop-color="#f05a30"/><stop offset="0.21" stop-color="#f48256"/><stop offset="0.55" stop-color="#d71921"/><stop offset="1" stop-color="#8a0304"/></linearGradient><linearGradient id="linear-gradient-2" x1="-105.3" y1="70.77" x2="-94.61" y2="52.25" gradientTransform="matrix(-1, 0, 0, 1, -91.46, 0)" gradientUnits="userSpaceOnUse"><stop offset="0" stop-color="#f48256"/><stop offset="0.32" stop-color="#d71921"/><stop offset="0.71" stop-color="#8a0304"/><stop offset="1" stop-color="#670000"/></linearGradient><linearGradient id="New_Gradient_Swatch_2" x1="-95.06" y1="66.41" x2="-104.85" y2="56.62" gradientTransform="matrix(-1, 0, 0, 1, -91.46, 0)" gradientUnits="userSpaceOnUse"><stop offset="0.4" stop-color="#670000" stop-opacity="0"/><stop offset="1" stop-color="#670000" stop-opacity="0.8"/></linearGradient><linearGradient id="linear-gradient-3" x1="20.78" y1="46.03" x2="13.97" y2="46.03" gradientUnits="userSpaceOnUse"><stop offset="0" stop-color="#d71921"/><stop offset="1" stop-color="#8a0304"/></linearGradient><linearGradient id="linear-gradient-4" x1="85.01" y1="8.67" x2="78.2" y2="8.67" xlink:href="#linear-gradient-3"/></defs><title>t25</title><path class="cls-1" d="M91.46,1.29C89.46.13,87.62,0,86.18.76,84.34,1.7,11.65,45.11,3.34,49.92,1.43,50.86.21,53.28.21,56.79c0,6.13,3.73,13.26,8.33,15.92,2,1.15,3.83,1.27,5.27.54a.67.67,0,0,0,.28-.07c4.23-2.47,81.31-48.11,83.08-49.39,1.58-1.14,2.62-3.39,2.62-6.58C99.79,11.08,96.06,4,91.46,1.29Z"/><path class="cls-2" d="M16.87,66.41c0-6.14-3.73-13.27-8.33-15.92s-8.33.16-8.33,6.3S3.94,70.05,8.54,72.71s8.33-.16,8.33-6.3Z"/><path class="cls-3" d="M15.49,65.55c0-5.15-3.13-11.14-7-13.37s-7,.14-7,5.29,3.13,11.14,7,13.37,7-.13,7-5.29Z"/><path class="cls-4" d="M15.49,65.55c0-5.15-3.13-11.14-7-13.37s-7,.14-7,5.29,3.13,11.14,7,13.37,7-.13,7-5.29Z"/><path class="cls-5" d="M22.46,47.88a7.12,7.12,0,0,1-6.42,0c-1.78-1-1.78-2.68,0-3.71a7.12,7.12,0,0,1,6.42,0c1.77,1,1.77,2.69,0,3.71Z"/><path class="cls-6" d="M16,45.81a7.06,7.06,0,0,1,6.42,0,2.76,2.76,0,0,1,1.08,1,2.78,2.78,0,0,1-1.08,1,7.12,7.12,0,0,1-6.42,0,2.81,2.81,0,0,1-1.09-1A2.8,2.8,0,0,1,16,45.81Z"/><path class="cls-7" d="M86.68,10.52a7.06,7.06,0,0,1-6.42,0c-1.77-1-1.77-2.68,0-3.7a7.06,7.06,0,0,1,6.42,0c1.77,1,1.77,2.68,0,3.7Z"/><path class="cls-6" d="M80.26,8.45a7.06,7.06,0,0,1,6.42,0,2.89,2.89,0,0,1,1.09,1,3,3,0,0,1-1.09,1,7.06,7.06,0,0,1-6.42,0,2.83,2.83,0,0,1-1.08-1A2.78,2.78,0,0,1,80.26,8.45Z"/></svg>