<svg id="Layer_1" data-name="Layer 1" xmlns="http://www.w3.org/2000/svg" xmlns:xlink="http://www.w3.org/1999/xlink" width="225" height="146" viewBox="0 0 225 146"><defs><style>.cls-1{fill:url(#linear-gradient);}.cls-2{fill:#d71921;}.cls-3{fill:url(#linear-gradient-2);}.cls-4{fill:url(#New_Gradient_Swatch_2);}.cls-5{fill:url(#linear-gradient-3);}.cls-6{fill:#670000;}.cls-7{fill:url(#linear-gradient-4);}</style><linearGradient id="linear-gradient" x1="106.15" y1="62.01" x2="118.88" y2="84.06" gradientUnits="userSpaceOnUse"><stop offset="0" stop-color="#f05a30"/><stop offset="0.21" stop-color="#f48256"/><stop offset="0.55" stop-color="#d71921"/><stop offset="1" stop-color="#8a0304"/></linearGradient><linearGradient id="linear-gradient-2" x1="-104.8" y1="142.56" x2="-94.6" y2="124.89" gradientTransform="matrix(-1, 0, 0, 1, -91.46, 0)" gradientUnits="userSpaceOnUse"><stop offset="0" stop-color="#f48256"/><stop offset="0.32" stop-color="#d71921"/><stop offset="0.71" stop-color="#8a0304"/><stop offset="1" stop-color="#670000"/></linearGradient><linearGradient id="New_Gradient_Swatch_2" x1="-95.03" y1="138.39" x2="-104.37" y2="129.05" gradientTransform="matrix(-1, 0, 0, 1, -91.46, 0)" gradientUnits="userSpaceOnUse"><stop offset="0.4" stop-color="#670000" stop-opacity="0"/><stop offset="1" stop-color="#670000" stop-opacity="0.8"/></linearGradient><linearGradient id="linear-gradient-3" x1="19.96" y1="118.94" x2="13.46" y2="118.94" gradientUnits="userSpaceOnUse"><stop offset="0" stop-color="#d71921"/><stop offset="1" stop-color="#8a0304"/></linearGradient><linearGradient id="linear-gradient-4" x1="210.04" y1="8.02" x2="203.54" y2="8.02" xlink:href="#linear-gradient-3"/></defs><title>t70</title><path class="cls-1" d="M216.72,1.59a5.2,5.2,0,0,0-5-.51C209.93,2,11.25,118.07,3.31,122.66c-1.82.9-3,3.2-3,6.55,0,5.86,3.56,12.66,8,15.2a5.16,5.16,0,0,0,5,.51,1,1,0,0,0,.28-.06c4-2.36,206.91-120.58,208.59-121.8,1.51-1.09,2.5-3.23,2.5-6.27C224.67,10.93,221.11,4.13,216.72,1.59Z"/><path class="cls-2" d="M16.23,138.4c0-5.86-3.56-12.66-8-15.2s-7.95.16-7.95,6,3.56,12.66,8,15.2,8-.16,8-6Z"/><path class="cls-3" d="M14.91,137.58c0-4.92-3-10.63-6.67-12.76s-6.68.13-6.68,5.05,3,10.63,6.68,12.75,6.67-.13,6.67-5Z"/><path class="cls-4" d="M14.91,137.58c0-4.92-3-10.63-6.67-12.76s-6.68.13-6.68,5.05,3,10.63,6.68,12.75,6.67-.13,6.67-5Z"/><path class="cls-5" d="M21.56,120.71a6.76,6.76,0,0,1-6.13,0c-1.69-1-1.69-2.56,0-3.54a6.82,6.82,0,0,1,6.13,0c1.69,1,1.69,2.56,0,3.54Z"/><path class="cls-6" d="M15.43,118.73a6.82,6.82,0,0,1,6.13,0,2.66,2.66,0,0,1,1,1,2.59,2.59,0,0,1-1,1,6.76,6.76,0,0,1-6.13,0,2.59,2.59,0,0,1-1-1A2.66,2.66,0,0,1,15.43,118.73Z"/><path class="cls-7" d="M211.63,9.79a6.8,6.8,0,0,1-6.12,0c-1.69-1-1.69-2.56,0-3.54a6.74,6.74,0,0,1,6.12,0c1.7,1,1.7,2.56,0,3.54Z"/><path class="cls-6" d="M205.51,7.81a6.74,6.74,0,0,1,6.12,0,2.7,2.7,0,0,1,1,1,2.77,2.77,0,0,1-1,1,6.8,6.8,0,0,1-6.12,0,2.77,2.77,0,0,1-1-1A2.7,2.7,0,0,1,205.51,7.81Z"/></svg>