<svg id="b80e7b9c-a6eb-4402-b5ce-7db1557183ea" data-name="Layer 1" xmlns="http://www.w3.org/2000/svg" xmlns:xlink="http://www.w3.org/1999/xlink" width="32" height="34" viewBox="0 0 32 34"><defs><style>.acf0e5f0-12c8-45c0-9aef-68e6cdf0cbd9{fill-rule:evenodd;fill:url(#b822aada-cf1f-4c08-bc96-e775ce2d2369);}.e0d36429-7540-4f7f-9eb4-4a19f35ffa72{fill:#d10a11;}.adee345e-3235-4573-9c95-15646dbbdc9f{fill:url(#b49b0d3f-171e-4e8c-b4fe-48ac42fac33e);}.a1379d7e-a465-46a5-afc0-9088f2732713{fill:url(#ee437474-4bb7-42c9-ad46-26ac23c156d3);}</style><linearGradient id="b822aada-cf1f-4c08-bc96-e775ce2d2369" x1="6.82" y1="27.65" x2="20.1" y2="4.65" gradientUnits="userSpaceOnUse"><stop offset="0" stop-color="#881002"/><stop offset="0.32" stop-color="#d10a11"/><stop offset="0.78" stop-color="#ef8050"/><stop offset="1" stop-color="#e84e24"/></linearGradient><linearGradient id="b49b0d3f-171e-4e8c-b4fe-48ac42fac33e" x1="17.04" y1="30.95" x2="28.13" y2="11.73" gradientUnits="userSpaceOnUse"><stop offset="0" stop-color="#e84e24"/><stop offset="0.26" stop-color="#ef8050"/><stop offset="0.55" stop-color="#d10a11"/><stop offset="0.77" stop-color="#881002"/></linearGradient><linearGradient id="ee437474-4bb7-42c9-ad46-26ac23c156d3" x1="27.84" y1="25.75" x2="17.33" y2="16.93" gradientUnits="userSpaceOnUse"><stop offset="0" stop-color="#e84e24" stop-opacity="0"/><stop offset="0.17" stop-color="#c93f1c" stop-opacity="0.23"/><stop offset="0.53" stop-color="#8f230d" stop-opacity="0.65"/><stop offset="0.82" stop-color="#6b1103" stop-opacity="0.9"/><stop offset="1" stop-color="#5e0b00"/></linearGradient></defs><title>wmb-scaled</title><g id="b1c91044-f8c3-4131-bb95-bf89013c3589" data-name="wmb"><path class="acf0e5f0-12c8-45c0-9aef-68e6cdf0cbd9" d="M.81,18.79c0,3.31,1.08,5.64,2.72,6.83,1.84,1.32,9,5.25,13.37,7.81.22.13.52,0,.77,0-2.22-.81-3.23-3-3.23-6.94,0-6.37,3.41-13.1,8.14-15.93,1.2-.71,4-1.67,5.74-1,0,0-11.45-6.81-13.38-7.81-1.49-.77-3.4-.65-5.48.55C4.69,5,.81,12.42.81,18.79Z"/><path class="e0d36429-7540-4f7f-9eb4-4a19f35ffa72" d="M13.89,26.42c0-6.36,3.87-13.76,8.65-16.52s8.65.17,8.65,6.54S27.32,30.2,22.54,33s-8.65-.17-8.65-6.54Z"/><path class="adee345e-3235-4573-9c95-15646dbbdc9f" d="M15.32,25.53c0-5.34,3.25-11.56,7.26-13.87s7.27.14,7.27,5.49S26.59,28.71,22.58,31s-7.26-.14-7.26-5.49Z"/><path class="a1379d7e-a465-46a5-afc0-9088f2732713" d="M15.32,25.53c0-5.34,3.25-11.56,7.26-13.87s7.27.14,7.27,5.49S26.59,28.71,22.58,31s-7.26-.14-7.26-5.49Z"/></g></svg>