<svg id="b25226dc-5a46-4c79-b778-422bf5592632" data-name="Layer 1" xmlns="http://www.w3.org/2000/svg" xmlns:xlink="http://www.w3.org/1999/xlink" width="130" height="172" viewBox="0 0 130 172"><defs><style>.adef1220-81c9-40ef-ba12-b58924fcae8d{fill:#d10a11;}.b4f84fc7-77ba-4dc1-b48e-11eb12e2373c{fill:url(#ed35e845-ada2-4888-8254-fb31c5b4bf79);}.a68fbd7e-611e-4410-925b-d2a4bacc73b5{fill:url(#acae57a6-6fa8-4690-adc8-92455e2bc8e5);}.f52de71c-e842-413f-84c9-0da5e69a959f{fill:url(#ea3bfe1a-136f-44d3-a77b-3ce1edb221e6);}.a4da301e-b875-4483-b2be-8f1447e8969d{fill:none;stroke:#1d1d1b;stroke-miterlimit:3.86;stroke-width:1.25px;}.f7f68947-806a-4fe2-a065-9144f58da69b{fill:url(#b8356188-5f32-4c40-aeb1-34241efb6860);}.f6ac5044-1f94-4b36-92df-5d72ba1536f8{fill:url(#a0679915-a98b-42d7-8212-0b6c50debc35);}.f9a92b90-9b31-4e84-a7e3-123fa576c62a{fill:url(#aa609c4f-2509-4073-b866-2304d0659733);}.b0e83b6d-2727-4806-be9b-5ede24450fc3{fill:url(#a295d15d-4a4a-483b-9ada-d4e12995ef87);}.b0b81077-bdf1-4a4c-a663-e3e2630e7cb6{fill:url(#bcaafb93-2bf2-4c22-bb6f-a0c49d9fafc0);}.fbc7d1b4-c0db-41b6-8d30-d96a1edb4102{fill:url(#a7bdef85-d179-48bb-8dfa-782b0c4329c4);}.e79792a3-ad93-4f8b-90d0-4a771773627e{fill:url(#ac3a3e70-df88-4d31-a74c-bb919f5489eb);}.a1140c01-80c7-41c4-aa9b-ef9163d98dbd{fill:url(#e6f3c972-803b-4ff1-a00c-a4875c91128a);}.eece41d8-9641-4f03-8cb8-e1867e734334{fill:url(#f811a0b8-618a-46fd-982d-3a110e66604d);}.b877f6fe-a5bc-477e-b526-de5bfa671823{fill:url(#a9b8db77-6cac-4202-b89c-39e4a7ea6322);}.bbe6c516-8de8-40ec-8ef4-d7e1960f9842{fill:url(#e75cff1c-e20a-4325-bbaf-a5c4921e0e28);}.b55ad41e-7582-48a9-a93d-93536b2a69bb{fill:url(#ec800419-ba65-476c-b6e2-2cddc1fce0f5);}.a5ac0f32-31a2-4252-83c5-d3e360509c06{fill-rule:evenodd;fill:url(#f9735d6a-e6a1-4958-b6fb-c6b5abc51b65);}.b586bfd6-75e3-434f-a42e-943458c418f2{fill:url(#bfef7f21-d227-4092-b639-a20127a64c30);}.e525511d-2a43-4ef3-978c-1cc1b325cc15{fill:url(#ae5f7e75-acb9-470f-92bc-ec0cda350547);}.a6761124-f805-4b3d-a095-2a85ffbfe5bb{fill:url(#af093ec8-1fc0-4c33-9d37-591740160b1f);}.aa8cbdd1-5b32-4f66-8de2-6ae922c953c1{fill:url(#ff6e43dc-565a-4366-9d5b-c9e128e2ba54);}.eb9b1ea5-6058-41eb-a871-22b3363b80a9{fill:url(#b0377683-03ea-485a-bbc4-ad039206d5e4);}.b05bdf55-d254-42e2-a530-5b7530519fe2{fill:url(#ef3fcec0-e075-43ff-a605-a38103ae9e72);}.e4752795-7220-4040-bb7a-20a9141eaf0e{fill:url(#b9bebd99-c718-449b-95a4-3436a2e70d94);}</style><linearGradient id="ed35e845-ada2-4888-8254-fb31c5b4bf79" x1="33.35" y1="163.14" x2="115.78" y2="20.36" gradientUnits="userSpaceOnUse"><stop offset="0" stop-color="#ef8050"/><stop offset="0.32" stop-color="#d10a11"/><stop offset="0.71" stop-color="#881002"/><stop offset="1" stop-color="#630c00"/></linearGradient><linearGradient id="acae57a6-6fa8-4690-adc8-92455e2bc8e5" x1="97.51" y1="118.61" x2="33.56" y2="55.28" gradientUnits="userSpaceOnUse"><stop offset="0" stop-color="#ef8050"/><stop offset="0.32" stop-color="#d10a11"/><stop offset="1" stop-color="#881002"/></linearGradient><linearGradient id="ea3bfe1a-136f-44d3-a77b-3ce1edb221e6" x1="64.58" y1="130.85" x2="51.16" y2="51.81" xlink:href="#ed35e845-ada2-4888-8254-fb31c5b4bf79"/><linearGradient id="b8356188-5f32-4c40-aeb1-34241efb6860" x1="35.75" y1="114.34" x2="75.11" y2="46.16" xlink:href="#ed35e845-ada2-4888-8254-fb31c5b4bf79"/><linearGradient id="a0679915-a98b-42d7-8212-0b6c50debc35" x1="68.9" y1="101.69" x2="37.64" y2="56.27" xlink:href="#ed35e845-ada2-4888-8254-fb31c5b4bf79"/><linearGradient id="aa609c4f-2509-4073-b866-2304d0659733" x1="81.15" y1="108.48" x2="47.93" y2="72.02" xlink:href="#ed35e845-ada2-4888-8254-fb31c5b4bf79"/><linearGradient id="a295d15d-4a4a-483b-9ada-d4e12995ef87" x1="32.61" y1="100.37" x2="61.57" y2="50.21" gradientUnits="userSpaceOnUse"><stop offset="0" stop-color="#630c00"/><stop offset="0.3" stop-color="#881002"/><stop offset="0.66" stop-color="#d10a11"/><stop offset="1" stop-color="#ef8050"/></linearGradient><linearGradient id="bcaafb93-2bf2-4c22-bb6f-a0c49d9fafc0" x1="49.25" y1="96.11" x2="66.1" y2="66.93" xlink:href="#a295d15d-4a4a-483b-9ada-d4e12995ef87"/><linearGradient id="a7bdef85-d179-48bb-8dfa-782b0c4329c4" x1="60.76" y1="100.02" x2="74.75" y2="75.78" gradientUnits="userSpaceOnUse"><stop offset="0.15" stop-color="#ef8050"/><stop offset="0.41" stop-color="#d10a11"/><stop offset="0.71" stop-color="#881002"/><stop offset="1" stop-color="#630c00"/></linearGradient><linearGradient id="ac3a3e70-df88-4d31-a74c-bb919f5489eb" x1="63.71" y1="67.69" x2="61.8" y2="30.35" gradientUnits="userSpaceOnUse"><stop offset="0" stop-color="#881002"/><stop offset="1" stop-color="#630c00"/></linearGradient><linearGradient id="e6f3c972-803b-4ff1-a00c-a4875c91128a" x1="65.63" y1="151.25" x2="56.2" y2="99.19" xlink:href="#ac3a3e70-df88-4d31-a74c-bb919f5489eb"/><linearGradient id="f811a0b8-618a-46fd-982d-3a110e66604d" x1="89.26" y1="70.36" x2="98.89" y2="25.47" gradientUnits="userSpaceOnUse"><stop offset="0" stop-color="#d10a11"/><stop offset="1" stop-color="#ef8050"/></linearGradient><linearGradient id="a9b8db77-6cac-4202-b89c-39e4a7ea6322" x1="33.41" y1="137" x2="46.53" y2="85.97" xlink:href="#f811a0b8-618a-46fd-982d-3a110e66604d"/><linearGradient id="e75cff1c-e20a-4325-bbaf-a5c4921e0e28" x1="116.35" y1="91.93" x2="70.03" y2="91.11" xlink:href="#f811a0b8-618a-46fd-982d-3a110e66604d"/><linearGradient id="ec800419-ba65-476c-b6e2-2cddc1fce0f5" x1="48.67" y1="78.41" x2="24.48" y2="88.05" xlink:href="#f811a0b8-618a-46fd-982d-3a110e66604d"/><linearGradient id="f9735d6a-e6a1-4958-b6fb-c6b5abc51b65" x1="4.95" y1="148.8" x2="89.32" y2="2.67" gradientUnits="userSpaceOnUse"><stop offset="0.13" stop-color="#881002"/><stop offset="0.6" stop-color="#d10a11"/><stop offset="1" stop-color="#ef8050"/></linearGradient><linearGradient id="bfef7f21-d227-4092-b639-a20127a64c30" x1="108.26" y1="57.58" x2="106.62" y2="45.9" xlink:href="#f811a0b8-618a-46fd-982d-3a110e66604d"/><linearGradient id="ae5f7e75-acb9-470f-92bc-ec0cda350547" x1="71.95" y1="133.58" x2="85.27" y2="122.51" xlink:href="#ac3a3e70-df88-4d31-a74c-bb919f5489eb"/><linearGradient id="af093ec8-1fc0-4c33-9d37-591740160b1f" x1="34.36" y1="160.36" x2="32.31" y2="142.94" xlink:href="#ac3a3e70-df88-4d31-a74c-bb919f5489eb"/><linearGradient id="ff6e43dc-565a-4366-9d5b-c9e128e2ba54" x1="81.26" y1="22.62" x2="80.46" y2="14.78" xlink:href="#ac3a3e70-df88-4d31-a74c-bb919f5489eb"/><linearGradient id="b0377683-03ea-485a-bbc4-ad039206d5e4" x1="58.59" y1="28.91" x2="36.93" y2="154.26" gradientUnits="userSpaceOnUse"><stop offset="0" stop-color="#f6ab6f"/><stop offset="0.15" stop-color="#ef8050"/><stop offset="0.61" stop-color="#d10a11"/></linearGradient><linearGradient id="ef3fcec0-e075-43ff-a605-a38103ae9e72" x1="60.66" y1="98.62" x2="73.61" y2="76.2" gradientUnits="userSpaceOnUse"><stop offset="0.02" stop-color="#630c00"/><stop offset="0.38" stop-color="#881002"/><stop offset="0.68" stop-color="#630c00"/></linearGradient><linearGradient id="b9bebd99-c718-449b-95a4-3436a2e70d94" x1="113.3" y1="124.48" x2="35.28" y2="59.02" gradientUnits="userSpaceOnUse"><stop offset="0.6" stop-color="#5a1f0d" stop-opacity="0"/><stop offset="1" stop-color="#711f0d" stop-opacity="0.8"/></linearGradient></defs><title>wmu-scaled</title><g id="bf31d921-782f-4bc8-975f-7804fc7a5cbb" data-name="wmu"><path class="adef1220-81c9-40ef-ba12-b58924fcae8d" d="M47,171.32c26.36,5.07,60.07-26.44,75.29-70.38s6.19-83.68-20.17-88.75S42.05,38.62,26.83,82.56,20.65,166.24,47,171.32Z"/><path class="b4f84fc7-77ba-4dc1-b48e-11eb12e2373c" d="M47.59,169.63c25.81,5,58.8-25.87,73.7-68.88s6.06-81.91-19.75-86.88-58.8,25.87-73.7,68.89-6.06,81.9,19.75,86.87Z"/><path class="adef1220-81c9-40ef-ba12-b58924fcae8d" d="M100.84,13.63c11.52,15.61,13.16,44.68,2.34,75.9C88.56,131.76,56.56,162.32,30.92,159c-12-15.31-13.92-44.72-3-76.36,14.74-42.56,47.2-73.21,72.88-69Z"/><path class="a68fbd7e-611e-4410-925b-d2a4bacc73b5" d="M98,13.32c12.24,14.91,14.27,44.19,3.36,75.71-14.56,42-46.66,72.23-72,67.91-10.65-15.81-11.91-44-1.43-74.27,14.2-41,44.85-70.95,70-69.35Z"/><path class="f52de71c-e842-413f-84c9-0da5e69a959f" d="M36.64,134.75C29.26,133.33,23.86,128,20.76,120c0-1,.07-2.1.14-3.16,2.84,8.88,8.39,15,16.23,16.48,17.62,3.39,40.16-17.67,50.33-47S91.6,30.37,74,27a22.54,22.54,0,0,0-10.21.54c.75-.64,1.51-1.26,2.26-1.86a22.22,22.22,0,0,1,8.44-.08c18.09,3.48,24.29,30.75,13.84,60.9s-33.57,51.77-51.66,48.28Z"/><path class="a4da301e-b875-4483-b2be-8f1447e8969d" d="M48.67,99.76C55.14,101,63.4,93.28,67.13,82.5S68.65,62,62.19,60.75,47.46,67.23,43.73,78s-1.52,20.52,4.94,21.76Z"/><path class="f7f68947-806a-4fe2-a065-9144f58da69b" d="M42.55,117.44c12.32,2.37,28.08-12.35,35.19-32.89s2.89-39.11-9.43-41.48S40.23,55.42,33.12,76s-2.89,39.11,9.43,41.48Z"/><path class="f6ac5044-1f94-4b36-92df-5d72ba1536f8" d="M37.73,114.43a12.35,12.35,0,0,1-1.51-.38c-7.12-6.65-8.66-21.79-3-38.18C40.35,55.33,56.11,40.6,68.43,43a10.76,10.76,0,0,1,1.51.38c7.12,6.65,8.66,21.79,3,38.18-7.11,20.54-22.87,35.27-35.19,32.89Z"/><path class="f9a92b90-9b31-4e84-a7e3-123fa576c62a" d="M46,107.62c9.07,1.74,20.66-9.09,25.9-24.21S74,54.63,64.91,52.89,44.25,62,39,77.09,36.88,105.87,46,107.62Z"/><path class="b0e83b6d-2727-4806-be9b-5ede24450fc3" d="M43.62,106.7l-6.09-3.6c-6.2-4.28-7.8-16.12-3.34-29C39.43,59,51,48.13,60.09,49.88a10,10,0,0,1,1.73.5l5.66,3.24A9.55,9.55,0,0,0,65,52.8C56,51.05,44.37,61.89,39.13,77c-4.73,13.66-2.65,26.14,4.49,29.7Z"/><path class="b0b81077-bdf1-4a4c-a663-e3e2630e7cb6" d="M59.66,102.12,48.73,95.38c-4.08-2.12-5.18-9.24-2.48-17,3-8.69,9.69-14.93,14.9-13.92a5.48,5.48,0,0,1,2.36,1.07l10.63,6.79a4.4,4.4,0,0,0-.81-.22c-5.22-1-11.89,5.23-14.9,13.92-2.39,6.92-1.75,13.3,1.23,16.14Z"/><path class="adef1220-81c9-40ef-ba12-b58924fcae8d" d="M120.6,30.17l-43,45.44c1.53,3.17,1.62,8,0,13.3l43.28,10.57-.38,1.1-.13.35L77.06,90.37c-2,5.22-5.26,9.48-8.68,11.67l6.67,60.08-1,.59-6.67-60.08a7.68,7.68,0,0,1-5,.92A5.68,5.68,0,0,1,58.74,101L28.07,154.83l-.5-.88,30.66-53.79c-1.61-3.15-1.73-8.09,0-13.42L27.8,83.12l.16-.45.35-1,30.37,3.62c2-5.27,5.28-9.55,8.72-11.75L74,20.08l1-.58L68.41,73a7.64,7.64,0,0,1,4.92-.9,5.76,5.76,0,0,1,3.79,2.67l43-45.43.51.87Z"/><path class="fbc7d1b4-c0db-41b6-8d30-d96a1edb4102" d="M63.18,101.12c4.38.85,10-4.39,12.51-11.69s1-13.9-3.36-14.75-10,4.39-12.51,11.7-1,13.9,3.36,14.74Z"/><path class="e79792a3-ad93-4f8b-90d0-4a771773627e" d="M74,20.08,67.4,73.54,55.13,66.66V55.16l-5-3s.1-1,.1-2.48a27.68,27.68,0,0,1,4.87-3.56V35.9A84.88,84.88,0,0,1,74,20.08Z"/><path class="a1140c01-80c7-41c4-aa9b-ef9163d98dbd" d="M67.37,102.63l6.67,60L55.13,151.51V130.86l1.18-.69,0-1.29-1.15.65V114.87L52.08,113l3.05-5.66L58.74,101a5.68,5.68,0,0,0,3.68,2.53,7.68,7.68,0,0,0,5-.92Z"/><path class="eece41d8-9641-4f03-8cb8-e1867e734334" d="M101.18,18.11l18.88,11.22L77.12,74.73a5.9,5.9,0,0,0-3-2.45l-5.23-3.34L70,60.11l1.81-2.45-1.31-1.61.24-2,3.39-4.4,3.56.06,9.51-12.82.63,1,1-1-.67-1.25,13-17.55Z"/><path class="b877f6fe-a5bc-477e-b526-de5bfa671823" d="M46,92.46c.14.3,11.21,7,12.2,7.74L27.57,154c-4-7.32-6.35-16.77-6.78-27.54l1.75-2.36,1.05,1.45.78-1.21-.88-1.51,9.56-12.88a20.36,20.36,0,0,1-2.26-6c1.49-1.65,3.71-4,3.71-4L39,101.94l7-9.48Z"/><path class="bbe6c516-8de8-40ec-8ef4-d7e1960f9842" d="M101.93,88.29l18.84,11.17L77.56,88.91a26.57,26.57,0,0,0,1.1-5.1l9,1.74-.18.58.8.17.26-.58,13.34,2.57Z"/><path class="b55ad41e-7582-48a9-a93d-93536b2a69bb" d="M31,74.63l2.55.5.58-.9,5.42,2,7.37,1.42,11.66,7.58L28.31,81.67c.84-2.39,1.74-4.73,2.7-7Z"/><path class="a5ac0f32-31a2-4252-83c5-d3e360509c06" d="M38.89,168.39,20.23,157.15C-.1,146.45-5.94,110.45,7.7,71.06,22.92,27.12,56.63-4.39,83,.68a28.5,28.5,0,0,1,6.6,2.15L110.1,15a27.32,27.32,0,0,0-8-2.85C75.77,7.11,42.06,38.62,26.83,82.56c-13.53,39.07-7.89,74.82,12.06,85.83Z"/><polygon class="adef1220-81c9-40ef-ba12-b58924fcae8d" points="94.86 57.37 121.26 55.45 121.26 56.01 121.26 56.79 93.5 58.82 94.86 57.37 94.86 57.37"/><path class="adef1220-81c9-40ef-ba12-b58924fcae8d" d="M37.62,138.08l3.16,27.06-.87-.17-3-25.65.71-1.24Z"/><polygon class="adef1220-81c9-40ef-ba12-b58924fcae8d" points="75.62 111.35 95.51 132.23 94.64 133.42 74.76 112.54 75.62 111.35 75.62 111.35"/><polygon class="b586bfd6-75e3-434f-a42e-943458c418f2" points="121.33 55.49 94.86 57.38 96.37 55.78 109.58 48.15 121.33 55.49 121.33 55.49"/><polygon class="e525511d-2a43-4ef3-978c-1cc1b325cc15" points="74.76 112.54 93.95 132.69 94.61 133.46 82.97 126.12 74.72 112.58 74.76 112.54 74.76 112.54"/><path class="a6761124-f805-4b3d-a095-2a85ffbfe5bb" d="M39.9,165l-9-5.91a35.37,35.37,0,0,1-2.13-3l2.2-6.34,5.92-10.39,3,25.66Z"/><path class="adef1220-81c9-40ef-ba12-b58924fcae8d" d="M89.09,14,74.9,25.61l-.6-.12,0-.3L87.59,14.33l1.5-.34Z"/><path class="aa8cbdd1-5b32-4f66-8de2-6ae922c953c1" d="M87.59,14.33,74.34,25.19l.2-1.61,1.67-4.73a48.86,48.86,0,0,1,11.38-4.52Z"/><path class="eb9b1ea5-6058-41eb-a871-22b3363b80a9" d="M27.13,161.15C6.79,150.45,1,114.45,14.59,75.06,29.82,31.12,63.53-.39,89.89,4.69a28.48,28.48,0,0,1,6.6,2.14L100,9a28.4,28.4,0,0,0-6.59-2.14C67,1.78,33.29,33.29,18.07,77.23c-12.83,37.05-8.43,71.1,9.06,83.92Z"/><path class="adef1220-81c9-40ef-ba12-b58924fcae8d" d="M96.49,6.83l-.1,0,2.83,1.77a27.78,27.78,0,0,0-6.59-2.14C66.27,1.34,32.56,32.85,17.33,76.79c-12.83,37-8.42,71.1,9.07,83.92-.44-.23-.86-.49-1.29-.74.66.42,1.33.82,2,1.18C9.64,148.33,5.24,114.28,18.07,77.23,33.29,33.29,67,1.78,93.37,6.86A28.4,28.4,0,0,1,100,9Z"/><path class="b05bdf55-d254-42e2-a530-5b7530519fe2" d="M62.7,99.52c-1.84-.35-3.13-1.8-3.77-3.9a18.87,18.87,0,0,1,1-9.33c1.79-5.17,5.12-9.3,8.46-11a5.44,5.44,0,0,1,2.77-.25c4,.78,5.44,6.89,3.1,13.64S66.75,100.3,62.7,99.52Z"/><path class="e4752795-7220-4040-bb7a-20a9141eaf0e" d="M95.69,13.34h0c-24.79,0-54.24,29.47-68.07,69.42a124.06,124.06,0,0,0-7.24,40v.09c0,24.84,9.69,43.42,27,46.75a29.93,29.93,0,0,0,5.6.53c24.81,0,54.27-29.46,68.11-69.41,14.89-43,6-81.91-19.75-86.88a30.49,30.49,0,0,0-5.58-.53"/></g></svg>