<svg id="f656899e-0c09-44ea-b397-bb38de607b7a" data-name="Layer 1" xmlns="http://www.w3.org/2000/svg" xmlns:xlink="http://www.w3.org/1999/xlink" width="20" height="29" viewBox="0 0 20 29"><defs><style>.b3c3c25a-7dd4-4446-9a33-caa88041ed26{fill:url(#fb9c94f2-375b-4d35-a308-21f2f604abf7);}.a675440a-b855-4569-8585-dc916855939e{fill:#333332;}.a6b8f374-48d0-42e1-bc4d-cb9c1f3f873c{fill:url(#a31e81f9-7ea1-4e0f-8790-9a8adac40bc5);}.bb77bb7c-1a8f-4e8a-be93-b449cb1559e0{fill:url(#ae5b16e0-ecb8-42ee-9c7c-4c0afb791182);}.acf71612-b756-48d6-96be-b1d666002db8{fill:url(#a34a6db1-9e01-48e8-9aa6-56a63324d55c);}.ee2bf72f-5e2f-4832-b813-5dce93079280{fill:#1a1a1a;}.f15eb663-fa8f-495f-8abf-2fbc6494b5da{fill:url(#e1ea49c2-faee-4932-99d8-7c4d014d5e80);}.afe40e54-d6bc-4052-981f-497be44328ab{fill:url(#f951ac8f-0a0f-42c7-bad5-ef2900f26803);}.e08b3f1b-8f41-4c99-afc1-bc5202306577{fill:#868686;}</style><linearGradient id="fb9c94f2-375b-4d35-a308-21f2f604abf7" x1="16.76" y1="17.6" x2="1.38" y2="17.6" gradientUnits="userSpaceOnUse"><stop offset="0" stop-color="#575756"/><stop offset="0.6" stop-color="#4d4d4d"/><stop offset="1" stop-color="#575756"/></linearGradient><linearGradient id="a31e81f9-7ea1-4e0f-8790-9a8adac40bc5" x1="3.78" y1="24.04" x2="2.54" y2="20.82" gradientUnits="userSpaceOnUse"><stop offset="0" stop-color="#1c1c1c"/><stop offset="0.33" stop-color="#424242"/><stop offset="1" stop-color="#1f1f1f"/></linearGradient><linearGradient id="ae5b16e0-ecb8-42ee-9c7c-4c0afb791182" x1="1.28" y1="6.21" x2="18.76" y2="6.21" gradientUnits="userSpaceOnUse"><stop offset="0" stop-color="#575756"/><stop offset="0.6" stop-color="#5e5e5e"/><stop offset="1" stop-color="#575756"/></linearGradient><linearGradient id="a34a6db1-9e01-48e8-9aa6-56a63324d55c" x1="10.02" y1="1.31" x2="10.02" y2="11.11" gradientUnits="userSpaceOnUse"><stop offset="0" stop-opacity="0"/><stop offset="1" stop-opacity="0.8"/></linearGradient><linearGradient id="e1ea49c2-faee-4932-99d8-7c4d014d5e80" x1="10.02" y1="12.22" x2="10.02" y2="8.49" gradientUnits="userSpaceOnUse"><stop offset="0" stop-color="#1c1c1c"/><stop offset="1" stop-color="#525252"/></linearGradient><radialGradient id="f951ac8f-0a0f-42c7-bad5-ef2900f26803" cx="10.02" cy="10.34" r="1.26" gradientUnits="userSpaceOnUse"><stop offset="0.3" stop-opacity="0"/><stop offset="1" stop-opacity="0.3"/></radialGradient></defs><title>wra-scaled</title><g id="b43c858f-c8fc-4caf-87a2-9c76dbae12f7" data-name="wra"><path class="b3c3c25a-7dd4-4446-9a33-caa88041ed26" d="M17,9.89A14.6,14.6,0,0,1,3.41,10C1.65,9,.31,7.61.17,6.28L.19,23c0,1.63.79,3.17,2.86,4.37a15.4,15.4,0,0,0,13.9,0c1.88-1.09,2.84-2.5,2.88-3.92V6.2A7.41,7.41,0,0,1,17,9.89Z"/><path class="a675440a-b855-4569-8585-dc916855939e" d="M5.81,25.29A1.85,1.85,0,0,1,4.66,25a5.82,5.82,0,0,1-2.45-4.66,2.68,2.68,0,0,1,.47-1.65A1.78,1.78,0,0,1,3.82,19a5.85,5.85,0,0,1,2.44,4.67A2.62,2.62,0,0,1,5.81,25.29Z"/><path class="a6b8f374-48d0-42e1-bc4d-cb9c1f3f873c" d="M4.66,25a5.82,5.82,0,0,1-2.45-4.66,2.68,2.68,0,0,1,.47-1.65c-.78.1-1.31.88-1.31,2.13a5.86,5.86,0,0,0,2.45,4.67,1.44,1.44,0,0,0,2-.22A1.85,1.85,0,0,1,4.66,25Z"/><path class="bb77bb7c-1a8f-4e8a-be93-b449cb1559e0" d="M3.84,2.75a14,14,0,0,1,12.36,0c3.42,1.91,3.42,5,0,6.93a14,14,0,0,1-12.36,0c-3.42-1.91-3.42-5,0-6.92Z"/><path class="acf71612-b756-48d6-96be-b1d666002db8" d="M3.84,2.75a14,14,0,0,1,12.36,0c3.42,1.91,3.42,5,0,6.93a14,14,0,0,1-12.36,0c-3.42-1.91-3.42-5,0-6.92Z"/><path class="ee2bf72f-5e2f-4832-b813-5dce93079280" d="M6.7,10.34v.4a15.23,15.23,0,0,0,6.65,0v-.4Z"/><path class="f15eb663-fa8f-495f-8abf-2fbc6494b5da" d="M12.38,9A5.34,5.34,0,0,0,7.67,9c-.84.47-1.13,1.13-.89,1.73a15.11,15.11,0,0,0,6.49,0C13.51,10.16,13.21,9.5,12.38,9Z"/><path class="afe40e54-d6bc-4052-981f-497be44328ab" d="M8.92,9.73a2.5,2.5,0,0,1,2.2,0c.61.34.61.89,0,1.23a2.52,2.52,0,0,1-2.21,0c-.61-.34-.61-.89,0-1.23Z"/><path class="e08b3f1b-8f41-4c99-afc1-bc5202306577" d="M17,2.27a15.34,15.34,0,0,0-13.9,0c-3.84,2.21-3.84,5.8,0,8a15.34,15.34,0,0,0,13.9,0C20.79,8.08,20.79,4.48,17,2.27Zm-.74,7.41a14,14,0,0,1-12.36,0c-3.42-1.91-3.42-5,0-6.92a14,14,0,0,1,12.36,0C19.62,4.66,19.62,7.76,16.21,9.68Z"/></g></svg>