<svg id="ed56891a-a004-422e-93f1-312c82f98e3b" data-name="Layer 1" xmlns="http://www.w3.org/2000/svg" xmlns:xlink="http://www.w3.org/1999/xlink" width="160" height="98" viewBox="0 0 160 98"><defs><style>.a876c9d2-756d-47d0-b29a-219594091306{fill:url(#a0cf1f34-1d7a-46eb-b2af-e84c48fca7d4);}.b8405823-5c8a-412a-9300-d7e9e855a86a{fill:url(#f28235d0-6968-4ff7-b7eb-dd7c39aaf867);}.af6743df-5fcf-47b7-9d90-10e08b01905d{fill:#fff;}.f2a9bce2-4b65-41ea-beaa-75c8abeb7540{fill:url(#bfae3565-e20f-4028-88c6-11db891168c0);}.bb2cf452-bd70-4f1d-9f1d-bd43c78194a2{fill:url(#bf206436-cce0-4f7c-9923-e783db594b54);}</style><linearGradient id="a0cf1f34-1d7a-46eb-b2af-e84c48fca7d4" x1="56.34" y1="7.71" x2="103.1" y2="88.69" gradientUnits="userSpaceOnUse"><stop offset="0" stop-color="#43b996"/><stop offset="0.21" stop-color="#43b996"/><stop offset="0.34" stop-color="#009173"/><stop offset="0.64" stop-color="#00563d"/></linearGradient><linearGradient id="f28235d0-6968-4ff7-b7eb-dd7c39aaf867" x1="82.32" y1="31.01" x2="112.49" y2="83.26" gradientUnits="userSpaceOnUse"><stop offset="0.09" stop-color="#43b996"/><stop offset="0.84" stop-color="#009173"/><stop offset="0.99" stop-color="#00563d"/></linearGradient><linearGradient id="bfae3565-e20f-4028-88c6-11db891168c0" x1="46.08" y1="55" x2="38.84" y2="92.47" gradientUnits="userSpaceOnUse"><stop offset="0" stop-color="#009173"/><stop offset="0.99" stop-color="#00563d"/></linearGradient><linearGradient id="bf206436-cce0-4f7c-9923-e783db594b54" x1="46.19" y1="51.19" x2="42.35" y2="89.06" gradientUnits="userSpaceOnUse"><stop offset="0" stop-color="#00563d"/><stop offset="1" stop-color="#003e29"/></linearGradient></defs><title>xpb-scaled</title><g id="f0b8a335-bb54-4506-87b5-76a2824f3538" data-name="xpb"><path class="a876c9d2-756d-47d0-b29a-219594091306" d="M3,50.75S-3.29,46.24,2.31,42C4.15,40.61,14.64,30.08,23.2,29.59,68.5-3.16,75.3.26,75.3.26s65,37.06,78.05,44c12,6.41,4,11.13,4,11.13S89.53,98.94,83.65,98c-5.14-.09-27.91-11.7-58.64-35.7C20.58,61.76,3,50.75,3,50.75Z"/><path class="b8405823-5c8a-412a-9300-d7e9e855a86a" d="M105.47,17.65c-6.48,3.83-23.12,13.8-32,19.41C44.09,51.67,33.16,61.45,33.16,61.45S43.87,70.58,52,75.59s24.89,12.6,28.84,16.28c0,0,1,3.33,2,6a5.76,5.76,0,0,0,.76.09c5.88,1,73.71-42.56,73.71-42.56s3.95-2.35,2.19-6C157.22,42.05,124.12,25,108.14,16.1l-2.62,1.58Z"/><path class="af6743df-5fcf-47b7-9d90-10e08b01905d" d="M43.18,64a.29.29,0,0,1-.24-.11.32.32,0,0,1,0-.47l1.2-1a.32.32,0,0,1,.46,0,.33.33,0,0,1,0,.47c-.43.36-.82.71-1.18,1A.4.4,0,0,1,43.18,64ZM46,61.6a.35.35,0,0,1-.26-.13.33.33,0,0,1,0-.47L47,60a.32.32,0,0,1,.46.06.33.33,0,0,1,0,.47l-1.24,1A.34.34,0,0,1,46,61.6Zm2.92-2.26a.35.35,0,0,1-.27-.14.32.32,0,0,1,.07-.46L50,57.8a.33.33,0,1,1,.39.53l-1.27.94A.31.31,0,0,1,48.92,59.34Zm-17-2a.33.33,0,0,1-.21-.07c-.4-.33-.82-.65-1.23-1a.33.33,0,1,1,.41-.52l1.24,1a.34.34,0,0,1,0,.47A.34.34,0,0,1,31.93,57.31Zm20-.14a.32.32,0,0,1-.27-.14.34.34,0,0,1,.07-.47l1.3-.9a.33.33,0,1,1,.38.54l-1.29.91A.35.35,0,0,1,51.91,57.17Zm3-2.1a.33.33,0,0,1-.27-.14.35.35,0,0,1,.09-.47l1.32-.87a.33.33,0,1,1,.36.55L55.13,55A.41.41,0,0,1,54.94,55.07ZM29,55.05a.37.37,0,0,1-.2-.07c-.41-.32-.84-.64-1.26-.95a.34.34,0,0,1-.06-.47A.33.33,0,0,1,28,53.5l1.27,1a.33.33,0,0,1,.06.46A.35.35,0,0,1,29,55.05Zm29-2a.34.34,0,0,1-.18-.62l1.34-.85a.33.33,0,0,1,.45.11.34.34,0,0,1-.1.46L58.21,53A.32.32,0,0,1,58,53.05Zm-32-.2a.35.35,0,0,1-.19-.06l-1.28-.92a.33.33,0,1,1,.38-.54l1.29.92a.32.32,0,0,1,.07.46A.32.32,0,0,1,26.06,52.85Zm35.1-1.76a.36.36,0,0,1-.29-.16.35.35,0,0,1,.11-.46l1.36-.82a.34.34,0,0,1,.46.12.33.33,0,0,1-.12.45L61.33,51A.34.34,0,0,1,61.16,51.09Zm-38.11-.36a.35.35,0,0,1-.19-.06l-1.3-.89a.33.33,0,0,1,.37-.55l1.31.89a.33.33,0,0,1-.19.61ZM64.33,49.2A.34.34,0,0,1,64,49a.34.34,0,0,1,.12-.46l1.38-.78a.33.33,0,1,1,.33.58l-1.37.78A.35.35,0,0,1,64.33,49.2ZM20,48.68a.3.3,0,0,1-.18-.06l-1.32-.86a.33.33,0,1,1,.35-.56l1.33.86a.34.34,0,0,1-.18.62Zm47.56-1.27a.33.33,0,0,1-.15-.63L68.8,46a.34.34,0,0,1,.45.15.34.34,0,0,1-.14.45l-1.4.73A.29.29,0,0,1,67.55,47.41Zm-50.67-.72a.26.26,0,0,1-.17,0l-1.34-.83a.33.33,0,1,1,.34-.56l1.35.83a.34.34,0,0,1,.11.46A.35.35,0,0,1,16.88,46.69Zm54-1a.33.33,0,0,1-.3-.19.34.34,0,0,1,.15-.45l1.44-.68a.35.35,0,0,1,.44.16.35.35,0,0,1-.16.45c-.47.21-.94.44-1.43.67A.23.23,0,0,1,70.84,45.73Zm-57.11-.95a.41.41,0,0,1-.17-.05c-.45-.27-.9-.54-1.36-.8a.34.34,0,0,1-.12-.45.34.34,0,0,1,.46-.12l1.36.8a.33.33,0,0,1,.12.45A.32.32,0,0,1,13.73,44.78Zm60.46-.59a.31.31,0,0,1-.3-.2.35.35,0,0,1,.17-.44L75.54,43a.33.33,0,1,1,.24.62l-1.46.59ZM10.54,42.93a.32.32,0,0,1-.16,0L9,42.12a.33.33,0,0,1-.13-.45.34.34,0,0,1,.46-.13l1.38.77a.33.33,0,0,1-.17.62Zm67.11,0a.34.34,0,0,1-.32-.23.33.33,0,0,1,.22-.42l.49-.16.75-.58a.34.34,0,0,1,.47.07.32.32,0,0,1-.07.46l-.78.61a.24.24,0,0,1-.11.06l-.55.17ZM7.31,41.15a.28.28,0,0,1-.15,0l-1.39-.74a.32.32,0,0,1-.14-.45.34.34,0,0,1,.45-.14l1.39.75a.33.33,0,0,1,.14.45A.34.34,0,0,1,7.31,41.15Zm73.39-.28a.35.35,0,0,1-.27-.14.33.33,0,0,1,.08-.46c.4-.29.84-.59,1.31-.91a.32.32,0,0,1,.46.08.34.34,0,0,1-.09.47l-1.29.9A.36.36,0,0,1,80.7,40.87Zm3-2.09a.32.32,0,0,1-.27-.15.34.34,0,0,1,.09-.46l1.32-.88a.34.34,0,0,1,.46.09.34.34,0,0,1-.1.47l-1.31.87A.33.33,0,0,1,83.75,38.78Zm3.08-2a.33.33,0,0,1-.18-.61L88,35.26a.33.33,0,0,1,.46.1.34.34,0,0,1-.1.46L87,36.68A.33.33,0,0,1,86.83,36.74Zm3.1-2a.32.32,0,0,1-.28-.15.33.33,0,0,1,.1-.46l1.33-.86a.33.33,0,0,1,.36.56l-1.33.86A.31.31,0,0,1,89.93,34.72Zm3.1-2a.34.34,0,0,1-.28-.16.34.34,0,0,1,.1-.46l1.34-.85a.34.34,0,0,1,.46.1.33.33,0,0,1-.11.46l-1.33.85A.3.3,0,0,1,93,32.73Zm3.12-2a.35.35,0,0,1-.29-.15.34.34,0,0,1,.11-.46l1.33-.85a.33.33,0,0,1,.36.56l-1.34.85A.34.34,0,0,1,96.15,30.74Zm3.12-2a.33.33,0,0,1-.28-.16.33.33,0,0,1,.1-.46l1.34-.84a.33.33,0,0,1,.35.56l-1.34.84A.27.27,0,0,1,99.27,28.77Zm3.12-2a.33.33,0,0,1-.28-.16.32.32,0,0,1,.1-.45l1.34-.85a.34.34,0,0,1,.36.57l-1.34.84A.41.41,0,0,1,102.39,26.8Zm3.13-2a.33.33,0,0,1-.28-.16.34.34,0,0,1,.1-.46l1.34-.83A.33.33,0,1,1,107,24l-1.35.84A.34.34,0,0,1,105.52,24.84Zm3.13-1.95a.33.33,0,0,1-.17-.62l1.34-.84a.35.35,0,0,1,.46.11.33.33,0,0,1-.11.46l-1.34.84A.41.41,0,0,1,108.65,22.89Zm3.14-1.95a.33.33,0,0,1-.28-.16.34.34,0,0,1,.1-.46l1.35-.83a.34.34,0,0,1,.46.1.33.33,0,0,1-.11.46l-1.35.84A.34.34,0,0,1,111.79,20.94Z"/><path class="f2a9bce2-4b65-41ea-beaa-75c8abeb7540" d="M83.58,90.09C79.77,85.74,57.47,74.32,49.85,70S40.26,64.48,36.18,59a17,17,0,0,0-3,2.41A79.15,79.15,0,0,0,19.93,50.93c-8.7-5.71-5.79-4.19-9.87-6.64s-7-2.71-9.18-.87C-1.93,47.19,3,50.75,3,50.75s17.54,11,22,11.53c30.73,24,53.5,35.61,58.64,35.7a3.28,3.28,0,0,0,1.07-.12C87,96,86.51,93.45,83.58,90.09Z"/><path class="bb2cf452-bd70-4f1d-9f1d-bd43c78194a2" d="M40,67.14A174.09,174.09,0,0,0,66.87,82.48a56,56,0,0,1,14,9.39c2.45,2.18,3,4.2-3.21,1.67C73,91.64,49.19,78.12,42.39,72.68S30.75,62.2,25.66,60.44C13.77,56.33,3.09,44.73,6.6,46.35c0,0,10.18,4.62,24.15,15.85a70.65,70.65,0,0,0,7.73,5.65C39.61,68.6,40,67.14,40,67.14Z"/></g></svg>