<svg id="be97d92e-fb32-4ae5-b487-2b1f189c22a6" data-name="Layer 1" xmlns="http://www.w3.org/2000/svg" xmlns:xlink="http://www.w3.org/1999/xlink" width="230" height="140" viewBox="0 0 230 140"><defs><style>.a56ee0cf-2c38-489c-8a55-4beb2082a5fa{fill:url(#b30bb665-3123-43a1-8a3b-18d2edc393fc);}.ab76c95a-52f1-4656-950f-66c592393a2e,.f8f64e69-7479-4931-b92d-ef8717f5531f{fill:none;stroke-linecap:round;stroke-linejoin:round;stroke-width:0.8px;}.ab76c95a-52f1-4656-950f-66c592393a2e{stroke:#231f20;stroke-dasharray:5.04 5.04;}.b3c169ad-b7df-4473-a6d7-ca4c4b3c4780{fill:url(#efb1e064-6dd0-47f1-9359-6096b960c47c);}.f8f64e69-7479-4931-b92d-ef8717f5531f{stroke:#fff;stroke-dasharray:1.89 2.52;}.bed1c7f0-6935-4d13-8ba6-392fe10d2c0d{fill:url(#e60f7910-e90f-435a-b488-e2e342e7008f);}.ae238761-f9ac-4971-a8b7-e7d680282024{fill:url(#eedc1d96-cf37-41c2-82f6-fe6909646f98);}</style><linearGradient id="b30bb665-3123-43a1-8a3b-18d2edc393fc" x1="79.16" y1="7.4" x2="150.11" y2="130.28" gradientUnits="userSpaceOnUse"><stop offset="0" stop-color="#43b996"/><stop offset="0.21" stop-color="#43b996"/><stop offset="0.34" stop-color="#009173"/><stop offset="0.64" stop-color="#00563d"/></linearGradient><linearGradient id="efb1e064-6dd0-47f1-9359-6096b960c47c" x1="127.99" y1="51.55" x2="167.61" y2="120.17" gradientUnits="userSpaceOnUse"><stop offset="0.09" stop-color="#43b996"/><stop offset="0.84" stop-color="#009173"/><stop offset="0.99" stop-color="#00563d"/></linearGradient><linearGradient id="e60f7910-e90f-435a-b488-e2e342e7008f" x1="70.93" y1="75.3" x2="60.22" y2="130.71" gradientUnits="userSpaceOnUse"><stop offset="0" stop-color="#009173"/><stop offset="0.99" stop-color="#00563d"/></linearGradient><linearGradient id="eedc1d96-cf37-41c2-82f6-fe6909646f98" x1="70.48" y1="68.4" x2="64.5" y2="127.27" gradientUnits="userSpaceOnUse"><stop offset="0" stop-color="#00563d"/><stop offset="1" stop-color="#003e29"/></linearGradient></defs><title>xrd-scaled</title><path class="a56ee0cf-2c38-489c-8a55-4beb2082a5fa" d="M4,66.91S-4.32,61,3,55.42c2.41-1.83,16.19-15.65,27.42-16.29C90-3.89,98.89.61,98.89.61S204.18,59.83,221.27,69C237,77.4,226.53,83.6,226.53,83.6s-89.07,57.16-96.8,55.9c-6.74-.12-36.65-15.37-77-46.88-5.83-.69-21.29-9.22-21.93-10.23C24.86,78.44,4,66.91,4,66.91Z"/><path class="ab76c95a-52f1-4656-950f-66c592393a2e" d="M71.91,89.86s19.82,18.53,51.77,32.41c16.27,7.07,10.84,14.65,10.84,14.65"/><path class="b3c169ad-b7df-4473-a6d7-ca4c4b3c4780" d="M158.39,34c-8.51,5-30.37,18.12-42,25.49-38.59,19.18-52.95,32-52.95,32s14.07,12,24.79,18.56,32.69,16.55,37.88,21.39c0,0,1.29,4.36,2.63,7.89a6.87,6.87,0,0,0,1,.13c7.73,1.26,96.8-55.9,96.8-55.9s5.19-3.08,2.88-7.93c-3.06-9.62-46.52-32-67.51-43.7l-3.44,2.08Z"/><path class="f8f64e69-7479-4931-b92d-ef8717f5531f" d="M167.44,36.64s-42,25.75-49.33,31.71C102.66,73,72.84,94.38,72.84,97.9m-65.39-43A198.82,198.82,0,0,1,64.38,87.12"/><path class="bed1c7f0-6935-4d13-8ba6-392fe10d2c0d" d="M129.64,129.14c-5-5.71-34.29-20.71-44.29-26.43s-12.5-7.14-17.86-14.28l-4.06,3.1s-5.94-6.32-17.37-13.82S18.56,61.64,13.21,58.42,4,54.87,1.16,57.29c-3.7,5,2.83,9.62,2.83,9.62S24.86,78.44,30.81,82.39c.64,1,16.1,9.54,21.93,10.23,40.34,31.51,70.25,46.76,77,46.88a3.91,3.91,0,0,0,1.41-.16C134.15,136.89,133.49,133.55,129.64,129.14Z"/><path class="ae238761-f9ac-4971-a8b7-e7d680282024" d="M81.87,105.88C72.74,99.3,65.44,93.76,65.44,93.76s20.83,15.38,42.26,25.38c9.27,4.33,17.14,8.93,20.36,11.79s4.64,7.85-5.72,3.92c-6.16-2.33-37.86-21.43-46.79-28.57s-15.28-13.76-22-16.08C38,84.8,32.12,79.08,21.05,73.16c-22.53-12-17-14.16-12.39-12,0,0,33.27,16.64,51.61,31.39,4.08,3.28,9,7,14.28,10.61C82.82,108.81,87.53,110,81.87,105.88Z"/></svg>