<svg id="f972a751-fe4f-4a37-8316-da41240f5a8c" data-name="Layer 1" xmlns="http://www.w3.org/2000/svg" xmlns:xlink="http://www.w3.org/1999/xlink" width="53" height="44" viewBox="0 0 53 44"><defs><style>.bdbfa1b6-7a07-4460-887c-bf7598706704{fill:url(#b92d39d6-c6cc-4b07-a403-4b435f529339);}.bcca927f-fa32-4b72-9917-7bac41e50483{fill:#9c9b9b;}.bf10a284-06c0-4db6-9d71-addd700b6450{fill:url(#f1d73168-2416-487b-8d15-23ef252f62e0);}.b511d301-f9f6-4d0e-b1ed-4e9817dc268b{opacity:0.75;fill:url(#f4405057-70ca-480b-88e0-00c3f7cfc308);}.a77bb9df-2426-4e62-accf-db1e4e928d05{fill:url(#b83fd5cc-e076-4326-be24-66087b6bd2b3);}.a8afeea3-9efc-4f98-b646-19a0c4783990{fill:#333332;}.b28f40a9-5c4b-4495-ba0b-426a50d9cc8b{fill:url(#be617f81-5b54-4d8a-abd0-5a779234474d);}.a09c82fd-91c1-4b3b-a286-a9e8a0d084df{fill:url(#aefbdc48-28db-40fd-8004-56827956ca04);}.b2be7d04-f03d-498d-8d35-0fbad84e35c3{fill:url(#aac9a332-68ec-4bf9-901e-3f4b39c3b88e);}.ae0bfe67-5629-4b1f-a97f-d706b4ea8e3e{fill:url(#e510f462-c9fd-4c9d-822e-5803d67e2e83);}.f145b55f-a622-4ef9-b1b4-063395e9c60e{fill:url(#ed82d5a0-dcd1-418d-a5b7-7fe6ce2695ca);}.b9d8d602-f96e-499a-ba0a-aee0d32d85e0{fill:url(#b04f0c76-a5fb-4599-b391-1d2269452bf1);}.b1261357-49f1-417d-ae08-c2f6411bcb61{fill:url(#eb64492c-9dd2-4d0e-b8c2-1ddacb8e6b68);}.a50998f1-f37c-47ae-89c4-c6699ab15c5b{fill:url(#aa9828d3-5ff3-427c-a06d-f3f85699a693);}.b213cb0f-bc4f-4d06-89ca-137ac5e23060{fill:url(#a86e2581-2711-437e-9243-cb28907cd769);}</style><linearGradient id="b92d39d6-c6cc-4b07-a403-4b435f529339" x1="32.72" y1="25.9" x2="54.28" y2="25.9" gradientUnits="userSpaceOnUse"><stop offset="0" stop-color="#575756"/><stop offset="0.6" stop-color="#868686"/><stop offset="1" stop-color="#575756"/></linearGradient><linearGradient id="f1d73168-2416-487b-8d15-23ef252f62e0" x1="29.46" y1="8.03" x2="50.83" y2="8.03" xlink:href="#b92d39d6-c6cc-4b07-a403-4b435f529339"/><linearGradient id="f4405057-70ca-480b-88e0-00c3f7cfc308" x1="40.15" y1="14.2" x2="40.15" y2="1.86" gradientUnits="userSpaceOnUse"><stop offset="0.07" stop-color="#2d2d2b"/><stop offset="0.67" stop-color="#2d2d2b" stop-opacity="0"/></linearGradient><linearGradient id="b83fd5cc-e076-4326-be24-66087b6bd2b3" x1="45.91" y1="30.7" x2="47.88" y2="26.66" gradientUnits="userSpaceOnUse"><stop offset="0" stop-color="#c6c6c5"/><stop offset="1" stop-color="#575756"/></linearGradient><linearGradient id="be617f81-5b54-4d8a-abd0-5a779234474d" x1="21.95" y1="32.27" x2="37.72" y2="32.27" gradientUnits="userSpaceOnUse"><stop offset="0" stop-color="#575756"/><stop offset="0.58" stop-color="#868686"/><stop offset="1" stop-color="#575756"/></linearGradient><linearGradient id="aefbdc48-28db-40fd-8004-56827956ca04" x1="25.13" y1="10.95" x2="10.14" y2="25.23" gradientUnits="userSpaceOnUse"><stop offset="0" stop-color="#868686"/><stop offset="0.35" stop-color="#9c9b9b"/><stop offset="0.65" stop-color="#6f6f6e"/><stop offset="1" stop-color="#3c3c3b"/></linearGradient><linearGradient id="aac9a332-68ec-4bf9-901e-3f4b39c3b88e" x1="452.58" y1="468.25" x2="475.54" y2="468.25" gradientTransform="translate(-647.62 7.25) rotate(-45)" gradientUnits="userSpaceOnUse"><stop offset="0" stop-color="#868686"/><stop offset="0.39" stop-color="#c6c6c5"/><stop offset="1" stop-color="#6f6f6e"/></linearGradient><linearGradient id="e510f462-c9fd-4c9d-822e-5803d67e2e83" x1="470.12" y1="474.75" x2="468.94" y2="480.51" gradientTransform="translate(-647.62 7.25) rotate(-45)" gradientUnits="userSpaceOnUse"><stop offset="0" stop-color="#868686"/><stop offset="1" stop-color="#c6c6c5"/></linearGradient><linearGradient id="ed82d5a0-dcd1-418d-a5b7-7fe6ce2695ca" x1="469.66" y1="471.98" x2="468.66" y2="467.28" gradientTransform="translate(-647.62 7.25) rotate(-45)" gradientUnits="userSpaceOnUse"><stop offset="0" stop-color="#575756"/><stop offset="0.35" stop-color="#868686"/><stop offset="0.65" stop-color="#6f6f6e"/><stop offset="1" stop-color="#3c3c3b"/></linearGradient><linearGradient id="b04f0c76-a5fb-4599-b391-1d2269452bf1" x1="-1056.7" y1="472.19" x2="-1057.74" y2="467.33" gradientTransform="matrix(-0.71, 0.71, 0.71, 0.71, -1074.52, 434.15)" xlink:href="#ed82d5a0-dcd1-418d-a5b7-7fe6ce2695ca"/><linearGradient id="eb64492c-9dd2-4d0e-b8c2-1ddacb8e6b68" x1="-3.06" y1="22.83" x2="12.21" y2="5.18" xlink:href="#aefbdc48-28db-40fd-8004-56827956ca04"/><linearGradient id="aa9828d3-5ff3-427c-a06d-f3f85699a693" x1="0.27" y1="10.16" x2="15.14" y2="10.16" gradientUnits="userSpaceOnUse"><stop offset="0.32" stop-color="#6f6f6e" stop-opacity="0"/><stop offset="1" stop-color="#333332"/></linearGradient><linearGradient id="a86e2581-2711-437e-9243-cb28907cd769" x1="-1055.24" y1="474.75" x2="-1056.42" y2="480.51" gradientTransform="matrix(-0.71, 0.71, 0.71, 0.71, -1073.82, 433.45)" xlink:href="#e510f462-c9fd-4c9d-822e-5803d67e2e83"/></defs><title>c45-scaled</title><path class="bdbfa1b6-7a07-4460-887c-bf7598706704" d="M27.64,17.84c.05-6.71,0-9.55.06-9.72.05,1.81,1.27,3.61,3.66,5,4.89,2.82,12.81,2.82,17.7,0,2.4-1.39,3.62-3.19,3.66-5,.05,0,0,20.68,0,28.15v.55a2.5,2.5,0,0,1-.38,1.52A7.58,7.58,0,0,1,49,41.64a17.07,17.07,0,0,1-6.89,2,30.31,30.31,0,0,1-5.83-.33h0Z"/><path class="bcca927f-fa32-4b72-9917-7bac41e50483" d="M31.34,2.91C36.22.09,44.15.09,49,2.91s4.89,7.39,0,10.22-12.81,2.82-17.69,0-4.89-7.4,0-10.22Z"/><path class="bf10a284-06c0-4db6-9d71-addd700b6450" d="M32.6,3.67a16.72,16.72,0,0,1,15.11,0c4.17,2.41,4.16,6.32,0,8.73a16.72,16.72,0,0,1-15.11,0c-4.17-2.41-4.16-6.32,0-8.73Z"/><path class="b511d301-f9f6-4d0e-b1ed-4e9817dc268b" d="M32.6,3.67a16.72,16.72,0,0,1,15.11,0c4.17,2.41,4.16,6.32,0,8.73a16.72,16.72,0,0,1-15.11,0c-4.17-2.41-4.16-6.32,0-8.73Z"/><path class="a77bb9df-2426-4e62-accf-db1e4e928d05" d="M43.67,30.6a7.64,7.64,0,0,1,3.18-6.08c1.76-1,3.19.06,3.19,2.4A7.64,7.64,0,0,1,46.85,33c-1.75,1-3.18-.06-3.18-2.41Z"/><path class="a8afeea3-9efc-4f98-b646-19a0c4783990" d="M49,26.29a3.39,3.39,0,0,0-.61-2.12,2.31,2.31,0,0,0-1.49.35,7.64,7.64,0,0,0-3.18,6.08,3.43,3.43,0,0,0,.6,2.12,2.33,2.33,0,0,0,1.49-.34A7.64,7.64,0,0,0,49,26.29Z"/><path class="b28f40a9-5c4b-4495-ba0b-426a50d9cc8b" d="M16.21,36.34c.36.32,4.37,4.62,6,5.54,3.82,2.21,9.5,2.69,14.13,1.45C36.31,24.61,35,20.54,35,20.54Z"/><path class="bcca927f-fa32-4b72-9917-7bac41e50483" d="M15.05,30c1.46-5.45,7.06-11,12.51-12.51s8.69,1.77,7.23,7.22S27.73,35.78,22.28,37.24,13.59,35.46,15.05,30Z"/><path class="a09c82fd-91c1-4b3b-a286-a9e8a0d084df" d="M2.61,17.71c-.48-.22-.57-1.06-.48-1.45a.49.49,0,0,1,.1-.23,1.06,1.06,0,0,1,.46.25l.61.54a.84.84,0,0,1,.43-.14l0,0,0,0a1.49,1.49,0,0,1,.91.42,3.09,3.09,0,0,1,.48.54l.09.15A8.74,8.74,0,0,1,4,17.93,6.89,6.89,0,0,1,2.61,17.71ZM.48,15.54A7.65,7.65,0,0,0,2,19.31a3.6,3.6,0,0,0,.41.37s0,0,0,0c4,4,14,14,15,15.07s3,1.56,5.3.93A16.51,16.51,0,0,0,33.25,25.11c.65-2.42.2-4.32-1-5.4S19.68,7.09,17.2,4.61a2.43,2.43,0,0,0-.32-.24l.05.06a7.69,7.69,0,0,0-6-1.76h.24a7.39,7.39,0,0,0-1.39.22A14.51,14.51,0,0,0,.53,12.22,8.93,8.93,0,0,0,.48,15.54ZM15.24,7.63a3.09,3.09,0,0,1-.58-.48,1.41,1.41,0,0,1-.43-.9s0,0,0,0l0,0a.72.72,0,0,1,.15-.43l-.54-.61a1.15,1.15,0,0,1-.27-.47.57.57,0,0,1,.25-.1,1.9,1.9,0,0,1,1.24.33A5.16,5.16,0,0,1,15.24,7.63Z"/><path class="b2be7d04-f03d-498d-8d35-0fbad84e35c3" d="M2,19.31a7.65,7.65,0,0,1-1.5-3.77c.62,1.95,2.6,2.85,5.35,2.11a14.49,14.49,0,0,0,9.25-9.33c1-3.67-.84-6-4.15-5.65A7.67,7.67,0,0,1,17,4.48c1.09,1.11,1.46,2.93.85,5.21A16.5,16.5,0,0,1,7.28,20.24c-2.34.63-4.2.23-5.3-.93Z"/><path class="ae0bfe67-5629-4b1f-a97f-d706b4ea8e3e" d="M21.41,11.47c.36-.27.89-.2,1.4.28a3.74,3.74,0,0,1,1,2l.61.54a2,2,0,0,1,.65,1.65c-.1.48-.56.52-1,.1l-.61-.54c-.36.27-.88.2-1.4-.28a3.74,3.74,0,0,1-1-2l-.61-.54A2,2,0,0,1,19.78,11c.1-.48.56-.52,1-.09l.61.53Z"/><path class="a8afeea3-9efc-4f98-b646-19a0c4783990" d="M21,11.6l-.61-.54a1,1,0,0,0-.47-.26.7.7,0,0,0-.1.23,2,2,0,0,0,.65,1.65l.61.54a3.74,3.74,0,0,0,1,2,1.4,1.4,0,0,0,.92.44.77.77,0,0,0,.48-.16l.61.54a1.19,1.19,0,0,0,.44.27.65.65,0,0,0,.12-.25A2,2,0,0,0,24,14.39l-.61-.55a3.66,3.66,0,0,0-1-2,1.43,1.43,0,0,0-.9-.43Z"/><path class="f145b55f-a622-4ef9-b1b4-063395e9c60e" d="M13.71,5.59l.55.62a.79.79,0,0,1,.12-.46l-.54-.61a1.06,1.06,0,0,1-.26-.47C13.33,4.86,13.37,5.23,13.71,5.59Zm.82,2a3,3,0,0,0,.61.5c0-.17.07-.31.1-.47a3.44,3.44,0,0,1-.58-.48,1.47,1.47,0,0,1-.4-.94C14,6.59,14.07,7.1,14.53,7.6Z"/><path class="b9d8d602-f96e-499a-ba0a-aee0d32d85e0" d="M2.23,16a1.06,1.06,0,0,1,.46.25l.61.54a.9.9,0,0,1,.46-.12l-.61-.54C2.78,15.82,2.42,15.77,2.23,16Zm1.56.65a1.49,1.49,0,0,1,.91.42,4.22,4.22,0,0,1,.56.69l.46-.11a3.73,3.73,0,0,0-.56-.7C4.66,16.52,4.15,16.42,3.79,16.68Z"/><path class="b1261357-49f1-417d-ae08-c2f6411bcb61" d="M9.78,2.89A14.51,14.51,0,0,0,.53,12.22c-.74,2.76.09,4.81,2,5.45a2,2,0,0,1-.41-1.41c.1-.48.56-.52,1-.1l.61.54c.35-.28.88-.2,1.4.28a3.91,3.91,0,0,1,.56.7l.11,0a14.49,14.49,0,0,0,9.25-9.33,1.8,1.8,0,0,0,.06-.22,3.32,3.32,0,0,1-.61-.5c-.47-.51-.55-1-.27-1.39l-.55-.62c-.42-.46-.38-.92.11-1a1.84,1.84,0,0,1,1.24.33C14.39,3,12.47,2.17,9.78,2.89Z"/><path class="a50998f1-f37c-47ae-89c4-c6699ab15c5b" d="M9.78,2.89A14.51,14.51,0,0,0,.53,12.22c-.74,2.76.15,4.78,2,5.45a2,2,0,0,1-.41-1.41c.1-.48.56-.52,1-.1l.61.54c.35-.28.88-.2,1.4.28a3.91,3.91,0,0,1,.56.7l.11,0a14.49,14.49,0,0,0,9.25-9.33,1.8,1.8,0,0,0,.06-.22,3.32,3.32,0,0,1-.61-.5c-.47-.51-.55-1-.27-1.39l-.55-.62c-.42-.46-.38-.92.11-1a1.84,1.84,0,0,1,1.24.33C14.39,3,12.47,2.17,9.78,2.89Z"/><path class="b213cb0f-bc4f-4d06-89ca-137ac5e23060" d="M9,23.9c-.28.36-.2.88.28,1.4a3.7,3.7,0,0,0,2,1l.54.61a2,2,0,0,0,1.64.65c.48-.11.53-.57.1-1L13,26c.28-.35.2-.88-.28-1.4a3.76,3.76,0,0,0-2-1l-.54-.61a2,2,0,0,0-1.64-.65c-.48.1-.53.56-.1,1L9,23.9Z"/><path class="a8afeea3-9efc-4f98-b646-19a0c4783990" d="M9.11,23.44l-.54-.61a1.14,1.14,0,0,1-.26-.46.58.58,0,0,1,.24-.1,2,2,0,0,1,1.64.65l.54.61a3.76,3.76,0,0,1,2,1,1.43,1.43,0,0,1,.44.89A.64.64,0,0,1,13,26l.54.61a1.07,1.07,0,0,1,.27.44.59.59,0,0,1-.25.13,2,2,0,0,1-1.64-.65l-.54-.61a3.7,3.7,0,0,1-2-1A1.39,1.39,0,0,1,9,24Z"/></svg>