<svg id="b24b9a6d-935b-4781-acda-f12bc8b6cb8d" data-name="Layer 1" xmlns="http://www.w3.org/2000/svg" xmlns:xlink="http://www.w3.org/1999/xlink" width="50" height="42" viewBox="0 0 50 42"><defs><style>.e9cc3357-ca0f-4684-894a-92c8a59a2b10{fill:url(#ab0aa831-c437-455f-8cb9-8d8be883d283);}.bb853f95-3b18-4d2b-91a9-9c0c85e6f27f{fill:url(#e5c2d644-ca90-4b6b-b33f-5e87470f48c0);}.f66ed53e-45c2-4743-b932-f6442515a0df{fill:url(#e2628931-4ca2-4555-860e-ac1e582cd4f9);}.f67cdc1a-af69-4f22-a5ae-137f80c518bc{fill:url(#e95a2ffc-7995-4881-b70e-cc4149a7f0ec);}.bbaddc02-c72f-4d00-bff2-bdf6712720d6{fill:url(#e94924c0-59fe-4a59-9ad5-92c34aff9ee5);}.b249d3e9-d5cc-4027-bfde-f2a37633e658{fill:url(#a2172fae-f51f-4c58-81e2-f6739f4aae12);}.ac2214e7-efe4-47ec-81ff-c96ee07df144{fill:url(#f2527e99-85f1-4ce7-af9e-90991fe4910a);}</style><linearGradient id="ab0aa831-c437-455f-8cb9-8d8be883d283" x1="27.57" y1="20.22" x2="50" y2="20.22" gradientUnits="userSpaceOnUse"><stop offset="0.19" stop-color="#881002"/><stop offset="0.79" stop-color="#d10a11"/><stop offset="0.91" stop-color="#e84e24"/></linearGradient><linearGradient id="e5c2d644-ca90-4b6b-b33f-5e87470f48c0" x1="-759.42" y1="1016.22" x2="-759.39" y2="1016.22" gradientTransform="matrix(162.27, -477.52, -477.52, -162.27, 608533.02, -197714.26)" gradientUnits="userSpaceOnUse"><stop offset="0" stop-color="#500800" stop-opacity="0.7"/><stop offset="1" stop-color="#4d110d" stop-opacity="0"/></linearGradient><linearGradient id="e2628931-4ca2-4555-860e-ac1e582cd4f9" x1="17.21" y1="14.16" x2="27.38" y2="14.16" gradientUnits="userSpaceOnUse"><stop offset="0" stop-color="#e84e24"/><stop offset="0.22" stop-color="#d10a11"/><stop offset="0.81" stop-color="#881002"/></linearGradient><linearGradient id="e95a2ffc-7995-4881-b70e-cc4149a7f0ec" x1="-760.41" y1="1014.29" x2="-760.39" y2="1014.29" gradientTransform="matrix(-166.89, -356.96, -356.96, 166.89, 235182.77, -440695.1)" xlink:href="#e5c2d644-ca90-4b6b-b33f-5e87470f48c0"/><linearGradient id="e94924c0-59fe-4a59-9ad5-92c34aff9ee5" y1="26.61" x2="47.23" y2="26.61" gradientUnits="userSpaceOnUse"><stop offset="0" stop-color="#881002"/><stop offset="0.16" stop-color="#d10a11"/><stop offset="0.27" stop-color="#e84e24"/><stop offset="0.42" stop-color="#d10a11"/><stop offset="0.57" stop-color="#881002"/></linearGradient><linearGradient id="a2172fae-f51f-4c58-81e2-f6739f4aae12" x1="25.3" y1="28.68" x2="47.23" y2="28.68" gradientUnits="userSpaceOnUse"><stop offset="0.19" stop-color="#881002"/><stop offset="0.67" stop-color="#d10a11"/><stop offset="0.91" stop-color="#e84e24"/></linearGradient><linearGradient id="f2527e99-85f1-4ce7-af9e-90991fe4910a" x1="25.66" y1="19.84" x2="23.72" y2="-9.69" gradientUnits="userSpaceOnUse"><stop offset="0" stop-color="#e84e24"/><stop offset="1" stop-color="#d10a11"/></linearGradient></defs><title>ccl-scaled</title><g id="b7acf0f8-30f9-42fa-8f10-a4b1851349fa" data-name="ccl"><path class="e9cc3357-ca0f-4684-894a-92c8a59a2b10" d="M28.24,33.1a3.82,3.82,0,0,1,.08-.75c.38-1.9,2-3.59,4.59-4.78A19.3,19.3,0,0,1,42,26.07a18.91,18.91,0,0,1,5.67,1.24,2.23,2.23,0,0,0,2.06-.21.7.7,0,0,0,.27-.57v-18l0,0c0,.19-10.24-1.16-10.24-1.16L30.82,9.51l-3.25,4.67Z"/><path class="bb853f95-3b18-4d2b-91a9-9c0c85e6f27f" d="M50,8.46v.16a.22.22,0,0,0,0-.08h0a.19.19,0,0,0,0-.08M40.57,8A18.61,18.61,0,0,0,32.91,9.5c-2.59,1.19-4.21,2.88-4.59,4.77a3.71,3.71,0,0,0-.08.73V33.1a3.82,3.82,0,0,1,.08-.75c.38-1.9,2-3.59,4.59-4.78A18.59,18.59,0,0,1,40.56,26c.48,0,1,0,1.44,0a18.91,18.91,0,0,1,5.67,1.24,2.38,2.38,0,0,0,.85.16,2,2,0,0,0,1.21-.37.69.69,0,0,0,.26-.57V8.62a.7.7,0,0,1-.26.41,2,2,0,0,1-1.21.36,2.37,2.37,0,0,1-.85-.15A18.32,18.32,0,0,0,42,8c-.48,0-1,0-1.43,0"/><path class="f66ed53e-45c2-4743-b932-f6442515a0df" d="M27.38,9c0-1.83-1.48-3.93-3.89-5.33a15.78,15.78,0,0,0-5.21-1.79c-.64-.11-1.06-.18-1.06-.55v18c0,.4.38.77,1.06.89A16.25,16.25,0,0,1,23.49,22c2.41,1.4,3.61,3.23,3.61,5.06Z"/><path class="f67cdc1a-af69-4f22-a5ae-137f80c518bc" d="M27.1,27v0h0v0M17.22,1.36v18h0c0,.37.42.71,1.06.82A16.25,16.25,0,0,1,23.49,22c2.4,1.39,3.6,3.21,3.61,5V9c0-1.83-1.2-3.66-3.61-5.05a15.78,15.78,0,0,0-5.21-1.79c-.61-.11-1-.42-1.06-.76m0-.06v0h0"/><path class="bbaddc02-c72f-4d00-bff2-bdf6712720d6" d="M47.23,22.52c0,.33-.36.36-.93.49a25.57,25.57,0,0,1-7.45.58c-7.65-.51-13.19-4.2-13.41-8.51-6,3.29-15.64,3.24-21.52-.15A8.28,8.28,0,0,1,.35,11.48,1.93,1.93,0,0,0,0,11.23v18a.52.52,0,0,0,.06.34,9.62,9.62,0,0,0,3.85,3.73c5.88,3.39,15.39,3.44,21.38.15.22,4.31,5.9,8,13.55,8.51a25.57,25.57,0,0,0,7.45-.58c.6-.14,1-.47.93-.82v-18Z"/><path class="b249d3e9-d5cc-4027-bfde-f2a37633e658" d="M25.3,33.43c.22,4.31,5.9,8,13.55,8.51a25.57,25.57,0,0,0,7.45-.58c.6-.14,1-.47.93-.82v-18c0,.33-.36.64-.93.77a25.57,25.57,0,0,1-7.45.58c-7.65-.51-13.33-4.2-13.55-8.52Z"/><path class="ac2214e7-efe4-47ec-81ff-c96ee07df144" d="M46.3,23.29a25.57,25.57,0,0,1-7.45.58c-7.65-.51-13.33-4.2-13.55-8.52-6,3.3-15.5,3.25-21.38-.15A9.54,9.54,0,0,1,.07,11.48c-.23-.46.21-.93,1-1.07A1.83,1.83,0,0,1,2.91,11,7.79,7.79,0,0,0,6,14c4.81,2.78,12.65,2.78,17.47,0s4.81-7.31,0-10.09a15.78,15.78,0,0,0-5.21-1.79c-.78-.14-1.23-.62-1-1.07A1.81,1.81,0,0,1,19.12.48,19.54,19.54,0,0,1,25.58,2.7c2.87,1.66,4.34,3.81,4.46,6,.33-.18.66-.35,1-.52A23.76,23.76,0,0,1,42.33,6.3a23.11,23.11,0,0,1,7,1.54,1.21,1.21,0,0,1,.2.09c.5.29.58.75.16,1.1a2.26,2.26,0,0,1-2.06.21A18.32,18.32,0,0,0,42,8a19.18,19.18,0,0,0-9.09,1.5c-2.59,1.19-4.21,2.88-4.59,4.77-.77,3.91,4.1,7.45,10.86,7.9a21.06,21.06,0,0,0,6-.47,2,2,0,0,1,1.92.48C47.43,22.61,47.06,23.11,46.3,23.29Z"/></g></svg>