<svg id="e50966dc-f1a0-4dfc-bdfe-2acc76a9f6ca" data-name="Layer 1" xmlns="http://www.w3.org/2000/svg" xmlns:xlink="http://www.w3.org/1999/xlink" width="68" height="51" viewBox="0 0 68 51"><defs><style>.bb56c7ad-d194-493b-aaa5-2b882c399031{fill:url(#af882143-bd2d-4316-8042-39c4a3a819b9);}.bdc6070d-ff43-4391-8802-ceecd2b737ff{fill:url(#eaa085b7-1e10-4d7d-84b1-94c5038e9bac);}.abfb2c18-fa16-41a4-ae0f-32dd8929ab9d{fill:url(#e4e4ede6-390a-4a22-a22b-66fa1606f49d);}.a240b306-840d-4853-b258-097e0401ec0d{fill:#333332;}.f4f2e803-1c34-48f7-866e-e2b3c6065047{fill:url(#a861110a-629f-4229-9e39-8f65ba5c4099);}.b4aedd0a-a86c-4cb0-bf67-8945b849e975{fill:url(#e049f5bd-9f02-4023-98c5-0537777f5795);}.f27eb527-b70d-4054-adfa-aaa941bf64f6{fill:url(#a6eea964-2054-49d0-90f8-f3d9325f6d5f);}.a25054e0-3491-41ba-99dc-d47228caac2a{fill:url(#b65528d8-56bf-4652-846e-697a72c81ae2);}.e4342c03-5214-4749-b94e-50f2592ab7be{fill:url(#ee9206fc-0cb1-44db-b55f-32842cf30c82);}.fa0f22d2-33ac-46cc-aa45-84775fb20192{fill:url(#f030e882-976a-4f72-90a5-6b83d64f98b5);}.bed77763-8630-49b1-9400-fb7f9f2a3a65{fill:url(#fce25c73-2c70-4dc0-9baa-748ce7e06644);}.b4d2d66a-cd32-46cd-9732-9fc26a48745a{fill:url(#ac798ad9-79dd-4439-9116-dc8a1cf4b7df);}.a8f6a49a-9150-4bdd-8874-75b9a63d3492{fill:url(#af8d93bb-fa4f-487d-b2fe-c89fb90d8ed2);}.a5fc8e01-2e59-467e-903b-fa9953844803{fill:url(#bac53884-035c-470a-896a-828192dfabf6);}.b22b6b18-d358-47cd-9711-1dda04999791{fill:url(#ed2c83bf-2736-41f4-80ad-122432f2e18a);}.a77c03a6-e8a4-4a18-b0d4-bf789333fa17{fill:url(#f2380f70-505f-4b12-8cd8-f0f8e35d3989);}.ec812cdc-3b44-4bd5-8ce1-d2f2117684e9{fill:url(#fc1a79d0-5c3d-4b13-81f8-a57f6e4f50ad);}.b4a69313-785b-4533-afe2-182844ca4d71{fill:url(#e550d7e6-9940-4187-a9f9-8cf2171274d7);}.baaf7c5c-fbf7-4529-9045-3c1d2f188375{fill:url(#fcb4c000-fefd-4da2-b241-c05388be18db);}.a026086d-278f-4fb1-adb5-36e7b0eeeedc{fill:url(#e5c1c2f9-7698-4416-a047-a3ef9d993bca);}.fce883dd-8cf6-48fb-b750-19fa8551a458{fill:url(#f3844a8f-29c7-4b9b-a30b-6b3e657ff4ce);}.b03d79e9-3f7a-493e-8f2c-5d6a97f61bc0{fill:url(#fce79744-0f04-4b69-8c40-ab48b7279da8);}.fd8281ec-3d3e-4233-af7d-1ee165fa8cba{fill:url(#ac074af7-8d7f-4986-bcc0-1ced8f3e1c42);}</style><linearGradient id="af882143-bd2d-4316-8042-39c4a3a819b9" x1="-214.05" y1="24.51" x2="-203.48" y2="6.19" gradientTransform="matrix(-1, 0, 0, 1, -157.12, 0)" gradientUnits="userSpaceOnUse"><stop offset="0" stop-color="#3c3c3b"/><stop offset="0.38" stop-color="#6f6f6e"/><stop offset="0.71" stop-color="#9c9b9b"/><stop offset="1" stop-color="#868686"/></linearGradient><linearGradient id="eaa085b7-1e10-4d7d-84b1-94c5038e9bac" x1="-216.65" y1="0.03" x2="-222.77" y2="15.19" gradientTransform="matrix(-1, 0, 0, 1, -157.12, 0)" gradientUnits="userSpaceOnUse"><stop offset="0" stop-color="#575756"/><stop offset="0.35" stop-color="#868686"/><stop offset="0.65" stop-color="#6f6f6e"/><stop offset="1" stop-color="#3c3c3b"/></linearGradient><linearGradient id="e4e4ede6-390a-4a22-a22b-66fa1606f49d" x1="65.53" y1="19.04" x2="66.49" y2="14.29" gradientTransform="translate(-5.1)" gradientUnits="userSpaceOnUse"><stop offset="0" stop-color="#868686"/><stop offset="0.35" stop-color="#9c9b9b"/><stop offset="0.65" stop-color="#6f6f6e"/><stop offset="1" stop-color="#3c3c3b"/></linearGradient><linearGradient id="a861110a-629f-4229-9e39-8f65ba5c4099" x1="68.86" y1="3.8" x2="62.68" y2="5.06" gradientTransform="translate(-10.25)" gradientUnits="userSpaceOnUse"><stop offset="0" stop-color="#868686"/><stop offset="1" stop-color="#c6c6c5"/></linearGradient><linearGradient id="e049f5bd-9f02-4023-98c5-0537777f5795" x1="33.35" y1="30.68" x2="41.78" y2="16.93" gradientUnits="userSpaceOnUse"><stop offset="0" stop-color="#3c3c3b"/><stop offset="0.38" stop-color="#6f6f6e"/><stop offset="0.71" stop-color="#b1b1b1"/><stop offset="1" stop-color="#868686"/></linearGradient><linearGradient id="a6eea964-2054-49d0-90f8-f3d9325f6d5f" x1="45.47" y1="40.95" x2="27.6" y2="11.38" gradientUnits="userSpaceOnUse"><stop offset="0" stop-color="#3c3c3b"/><stop offset="0.53" stop-color="#6f6f6e"/><stop offset="0.75" stop-color="#b1b1b1"/><stop offset="1" stop-color="#868686"/></linearGradient><linearGradient id="b65528d8-56bf-4652-846e-697a72c81ae2" x1="27.04" y1="23" x2="21.84" y2="53.11" gradientUnits="userSpaceOnUse"><stop offset="0" stop-color="#3c3c3b"/><stop offset="1" stop-color="#6f6f6e"/></linearGradient><linearGradient id="ee9206fc-0cb1-44db-b55f-32842cf30c82" x1="-36.79" y1="27.52" x2="-24.71" y2="48.43" gradientTransform="translate(48.07)" xlink:href="#e4e4ede6-390a-4a22-a22b-66fa1606f49d"/><linearGradient id="f030e882-976a-4f72-90a5-6b83d64f98b5" x1="-45.9" y1="34.12" x2="-35.09" y2="52.82" gradientTransform="translate(48.07)" gradientUnits="userSpaceOnUse"><stop offset="0.16" stop-color="#3c3c3b"/><stop offset="0.64" stop-color="#6f6f6e"/><stop offset="0.89" stop-color="#9c9b9b"/></linearGradient><linearGradient id="fce25c73-2c70-4dc0-9baa-748ce7e06644" x1="-45.89" y1="44.55" x2="-35.1" y2="38.32" gradientTransform="translate(48.07)" gradientUnits="userSpaceOnUse"><stop offset="0" stop-color="#1d1d1b" stop-opacity="0"/><stop offset="1" stop-color="#1d1d1b" stop-opacity="0.6"/></linearGradient><linearGradient id="ac798ad9-79dd-4439-9116-dc8a1cf4b7df" x1="-40.59" y1="33.5" x2="-44" y2="36.54" gradientTransform="translate(48.07)" xlink:href="#a861110a-629f-4229-9e39-8f65ba5c4099"/><linearGradient id="af8d93bb-fa4f-487d-b2fe-c89fb90d8ed2" x1="-44.73" y1="32.17" x2="-31.98" y2="51.28" gradientTransform="translate(48.07)" gradientUnits="userSpaceOnUse"><stop offset="0" stop-color="#868686"/><stop offset="0.35" stop-color="#b1b1b1"/><stop offset="0.65" stop-color="#6f6f6e"/><stop offset="1" stop-color="#3c3c3b"/></linearGradient><linearGradient id="bac53884-035c-470a-896a-828192dfabf6" x1="-29.98" y1="28.33" x2="-36.16" y2="29.59" gradientTransform="translate(48.07)" xlink:href="#a861110a-629f-4229-9e39-8f65ba5c4099"/><linearGradient id="ed2c83bf-2736-41f4-80ad-122432f2e18a" x1="-28.13" y1="43.27" x2="-27.17" y2="38.52" gradientTransform="translate(48.07)" xlink:href="#e4e4ede6-390a-4a22-a22b-66fa1606f49d"/><linearGradient id="f2380f70-505f-4b12-8cd8-f0f8e35d3989" x1="43.76" y1="20.7" x2="38.69" y2="55.08" xlink:href="#b65528d8-56bf-4652-846e-697a72c81ae2"/><linearGradient id="fc1a79d0-5c3d-4b13-81f8-a57f6e4f50ad" x1="-213.89" y1="27.52" x2="-201.8" y2="48.44" gradientTransform="matrix(-1, 0, 0, 1, -157.16, 0)" xlink:href="#e4e4ede6-390a-4a22-a22b-66fa1606f49d"/><linearGradient id="e550d7e6-9940-4187-a9f9-8cf2171274d7" x1="-223" y1="34.12" x2="-212.19" y2="52.82" gradientTransform="matrix(-1, 0, 0, 1, -157.16, 0)" xlink:href="#f030e882-976a-4f72-90a5-6b83d64f98b5"/><linearGradient id="fcb4c000-fefd-4da2-b241-c05388be18db" x1="-222.99" y1="44.55" x2="-212.2" y2="38.32" gradientTransform="matrix(-1, 0, 0, 1, -157.16, 0)" xlink:href="#fce25c73-2c70-4dc0-9baa-748ce7e06644"/><linearGradient id="e5c1c2f9-7698-4416-a047-a3ef9d993bca" x1="-217.68" y1="33.5" x2="-221.09" y2="36.54" gradientTransform="matrix(-1, 0, 0, 1, -157.16, 0)" xlink:href="#a861110a-629f-4229-9e39-8f65ba5c4099"/><linearGradient id="f3844a8f-29c7-4b9b-a30b-6b3e657ff4ce" x1="-221.83" y1="32.17" x2="-209.07" y2="51.28" gradientTransform="matrix(-1, 0, 0, 1, -157.16, 0)" xlink:href="#af8d93bb-fa4f-487d-b2fe-c89fb90d8ed2"/><linearGradient id="fce79744-0f04-4b69-8c40-ab48b7279da8" x1="-207.07" y1="28.33" x2="-213.25" y2="29.59" gradientTransform="matrix(-1, 0, 0, 1, -157.16, 0)" xlink:href="#a861110a-629f-4229-9e39-8f65ba5c4099"/><linearGradient id="ac074af7-8d7f-4986-bcc0-1ced8f3e1c42" x1="-205.22" y1="43.27" x2="-204.26" y2="38.52" gradientTransform="matrix(-1, 0, 0, 1, -157.16, 0)" xlink:href="#e4e4ede6-390a-4a22-a22b-66fa1606f49d"/></defs><title>cf3-scaled</title><path class="bb56c7ad-d194-493b-aaa5-2b882c399031" d="M63.59,20.57a3.48,3.48,0,0,0,.48-.21,7.54,7.54,0,0,0,3-4.34,8.39,8.39,0,0,0,.42-2.76c0-4.57-2.77-9.87-6.19-11.84A4.87,4.87,0,0,0,58.8.68,7.36,7.36,0,0,0,55.37,1a3.37,3.37,0,0,0-.9.6C50.14,4.14,39.15,10.4,38.05,11c-1.5.83-2.44,2.8-2.44,5.62,0,5.1,3.09,11,6.91,13.22,1.84,1.06,3.51,1.07,4.75.22S59.5,23,63.59,20.57Z"/><path class="bdc6070d-ff43-4391-8802-ceecd2b737ff" d="M56.16.76A8.77,8.77,0,0,1,58.8.68a4.87,4.87,0,0,1,2.48.74c3.42,2,6.19,7.27,6.19,11.84A8.39,8.39,0,0,1,67.05,16a8.47,8.47,0,0,1-2.33,3.88,8.36,8.36,0,0,0,1.08-4.45c0-5.34-3.25-11.54-7.25-13.85A6.2,6.2,0,0,0,56.16.76Z"/><path class="abfb2c18-fa16-41a4-ae0f-32dd8929ab9d" d="M59.5,19.37a.79.79,0,0,0,1.17.25,2.93,2.93,0,0,0,1.19-1.56l.59-.3a1.8,1.8,0,0,0,.82-1.38c0-.52-.35-.74-.8-.49l-.59.31a.79.79,0,0,0-1.16-.26,2.92,2.92,0,0,0-1.19,1.56l-.59.31a1.74,1.74,0,0,0-.82,1.38c0,.51.35.73.79.49l.59-.31Z"/><path class="a240b306-840d-4853-b258-097e0401ec0d" d="M61.5,16a.55.55,0,0,0-.13-.17,1,1,0,0,0-.65.13,2.92,2.92,0,0,0-1.19,1.56l-.59.31a1.74,1.74,0,0,0-.82,1.38.64.64,0,0,0,.09.36.68.68,0,0,0,.32-.09l.59-.31.38.22a.73.73,0,0,0,.14.16,1,1,0,0,0,.65-.13,2.93,2.93,0,0,0,1.19-1.56l.59-.3a1.8,1.8,0,0,0,.82-1.38.78.78,0,0,0-.09-.37,1,1,0,0,0-.33.1l-.59.31Z"/><path class="f4f2e803-1c34-48f7-866e-e2b3c6065047" d="M53.73,5.76a3,3,0,0,0,1.87-.27c.51-.28.69-.69.53-1.06l.62-.33c.45-.25.51-.64.14-.87a1.68,1.68,0,0,0-1.51.06l-.61.32a3.05,3.05,0,0,0-1.86.27c-.51.29-.69.7-.54,1.07l-.61.32c-.46.26-.52.64-.14.87a1.69,1.69,0,0,0,1.5,0l.61-.33Z"/><path class="a240b306-840d-4853-b258-097e0401ec0d" d="M55.38,3.72l-.61.33a3.05,3.05,0,0,0-1.86.27,1.15,1.15,0,0,0-.55.6s0,0,0,0h0a.71.71,0,0,0,0,.43l-.61.32a.75.75,0,0,0-.3.28.59.59,0,0,0,.16.15,1.69,1.69,0,0,0,1.5,0l.61-.33a3,3,0,0,0,1.87-.27,1.13,1.13,0,0,0,.54-.6s0,0,0,0h0a.63.63,0,0,0,0-.43l.62-.33a.89.89,0,0,0,.3-.27.81.81,0,0,0-.16-.16A1.71,1.71,0,0,0,55.38,3.72Z"/><path class="b4aedd0a-a86c-4cb0-bf67-8945b849e975" d="M48.27,20c-.57-.54-5.17-4.45-15.54-5.68L34,40.58l2.94,1.68L48.35,20.09Z"/><path class="f27eb527-b70d-4054-adfa-aaa941bf64f6" d="M34,15.5c8.17,1,12,2.84,13.49,3.86-1.49-3.54-3.87-6.65-6.57-8.2-2.16-1.25-4.13-1.27-5.59-.29l-15.1,8.68L31,42.29l3-1.71V15.5"/><path class="a25054e0-3491-41ba-99dc-d47228caac2a" d="M33.89,35.6c0-6-3.68-13.06-8.21-15.67s-8.2.16-8.2,6.2,3.67,13.05,8.2,15.67,8.21-.16,8.21-6.2Z"/><path class="e4342c03-5214-4749-b94e-50f2592ab7be" d="M.5,38.36c0,4.56,2.78,9.86,6.2,11.84a4.77,4.77,0,0,0,2.57.73h-.1a7.4,7.4,0,0,0,3.44-.32,3.62,3.62,0,0,0,.33-.2,1,1,0,0,1-.13.09c4.33-2.53,15.85-9.11,17.12-9.9,1.44-.91,2.44-2.81,2.44-5.63,0-5.09-3.1-11-6.92-13.21-1.83-1.06-3.51-1.07-4.75-.23S8,28.82,3.91,31.26a7.54,7.54,0,0,0-3,4.34A10,10,0,0,0,.5,38.36ZM7,34a3,3,0,0,1-1.19,1.56.94.94,0,0,1-.65.13A.65.65,0,0,1,5,35.54c.06,0,.07,0-.38-.22l-.59.3a.65.65,0,0,1-.33.1.73.73,0,0,1-.09-.36A1.75,1.75,0,0,1,4.42,34L5,33.67a3,3,0,0,1,.27-.57,5.91,5.91,0,0,1,1.42.58c.13.08.26.19.39.28Z"/><path class="fa0f22d2-33ac-46cc-aa45-84775fb20192" d="M7.42,34.19l-.08,0a3,3,0,0,1-1.19,1.56A.78.78,0,0,1,5,35.54l-.59.3c-.45.25-.81,0-.8-.48A1.75,1.75,0,0,1,4.42,34L5,33.67a3.83,3.83,0,0,1,.27-.58C2.54,32.36.5,34.45.5,38.36c0,4.56,2.78,9.86,6.2,11.84s6.19-.12,6.19-4.68A15.19,15.19,0,0,0,7.42,34.19Z"/><path class="bed77763-8630-49b1-9400-fb7f9f2a3a65" d="M7.42,34.19l-.08,0a3,3,0,0,1-1.19,1.56A.78.78,0,0,1,5,35.54l-.59.3c-.45.25-.81,0-.8-.48A1.75,1.75,0,0,1,4.42,34L5,33.67a3.83,3.83,0,0,1,.27-.58C2.54,32.36.5,34.45.5,38.36c0,4.56,2.78,9.86,6.2,11.84s6.19-.12,6.19-4.68A15.19,15.19,0,0,0,7.42,34.19Z"/><path class="b4d2d66a-cd32-46cd-9732-9fc26a48745a" d="M4,35.62a.65.65,0,0,1-.33.1c.13.23.39.3.71.12l.59-.3c.06,0,.07,0-.38-.22ZM7,34a3,3,0,0,1-1.19,1.56.94.94,0,0,1-.65.13.8.8,0,0,0,1,.09,3,3,0,0,0,1.19-1.56l.08,0L7.09,34Z"/><path class="a8f6a49a-9150-4bdd-8874-75b9a63d3492" d="M15.28,44.88c0-5.09-3.1-11-6.92-13.22a4.44,4.44,0,0,0-4.45-.4,7.54,7.54,0,0,0-3,4.34c.9-2.56,3.14-3.44,5.77-1.92,3.42,2,6.19,7.27,6.19,11.84,0,3.38-1.53,5.41-3.72,5.42a7.4,7.4,0,0,0,3.44-.32c1.63-.75,2.67-2.78,2.67-5.74Z"/><path class="a5fc8e01-2e59-467e-903b-fa9953844803" d="M13.21,30.3A3,3,0,0,0,15.07,30c.51-.28.69-.69.54-1.06l.61-.33c.46-.25.52-.64.14-.86a1.63,1.63,0,0,0-1.5.05l-.62.32a3,3,0,0,0-1.86.28c-.51.28-.69.69-.54,1.06l-.61.33c-.46.25-.52.64-.14.86a1.66,1.66,0,0,0,1.5-.05l.62-.32Z"/><path class="a240b306-840d-4853-b258-097e0401ec0d" d="M14.86,28.26l-.62.32a3.05,3.05,0,0,0-1.86.27,1.09,1.09,0,0,0-.54.6v0h0a.7.7,0,0,0,0,.43l-.61.32a.82.82,0,0,0-.3.28.47.47,0,0,0,.16.15,1.66,1.66,0,0,0,1.5-.05l.62-.32A3,3,0,0,0,15.07,30a1,1,0,0,0,.54-.59v0h0a.64.64,0,0,0,0-.43l.61-.33a.73.73,0,0,0,.3-.27.39.39,0,0,0-.16-.15A1.63,1.63,0,0,0,14.86,28.26Z"/><path class="b22b6b18-d358-47cd-9711-1dda04999791" d="M19,43.59a.78.78,0,0,0,1.17.26,3,3,0,0,0,1.19-1.56L22,42a1.77,1.77,0,0,0,.82-1.38c0-.51-.35-.73-.8-.48l-.59.3a.78.78,0,0,0-1.16-.25A2.88,2.88,0,0,0,19,41.73l-.59.3a1.75,1.75,0,0,0-.82,1.38c0,.52.35.74.79.49l.59-.31Z"/><path class="a240b306-840d-4853-b258-097e0401ec0d" d="M21,40.2a1,1,0,0,0-.13-.16.94.94,0,0,0-.65.13A2.88,2.88,0,0,0,19,41.73l-.59.3a1.75,1.75,0,0,0-.82,1.38.68.68,0,0,0,.09.37.6.6,0,0,0,.32-.1l.59-.3.38.21a.79.79,0,0,0,.14.17,1,1,0,0,0,.65-.13A3,3,0,0,0,21,42.07l.59-.31a1.77,1.77,0,0,0,.82-1.38A.73.73,0,0,0,22.3,40a.65.65,0,0,0-.33.1l-.59.3Z"/><path class="a77c03a6-e8a4-4a18-b0d4-bf789333fa17" d="M34.06,35.6c0-6,3.67-13.06,8.2-15.67s8.2.16,8.2,6.2-3.67,13.05-8.2,15.67-8.2-.16-8.2-6.2Z"/><path class="ec812cdc-3b44-4bd5-8ce1-d2f2117684e9" d="M67.07,35.6a7.54,7.54,0,0,0-3-4.34c-4.08-2.44-15.56-8.87-16.8-9.72s-2.9-.83-4.75.23C38.73,24,35.63,29.89,35.63,35c0,2.82,1,4.72,2.44,5.63,1.27.79,12.72,7.33,17,9.87l-.06-.06a3.62,3.62,0,0,0,.33.2,7.4,7.4,0,0,0,3.44.32h-.1a4.77,4.77,0,0,0,2.57-.73c3.42-2,6.2-7.28,6.2-11.84A10,10,0,0,0,67.07,35.6ZM60.91,34c.13-.09.26-.2.39-.28a5.75,5.75,0,0,1,1.42-.58,3,3,0,0,1,.27.57l.59.31a1.77,1.77,0,0,1,.82,1.38.73.73,0,0,1-.09.36.65.65,0,0,1-.33-.1l-.59-.3c-.45.25-.44.26-.38.22a1,1,0,0,1-.13.16.94.94,0,0,1-.65-.13A2.92,2.92,0,0,1,61,34Z"/><path class="b4a69313-785b-4533-afe2-182844ca4d71" d="M60.58,34.19l.08,0a2.92,2.92,0,0,0,1.19,1.56A.78.78,0,0,0,63,35.54l.59.3c.45.25.8,0,.8-.48A1.77,1.77,0,0,0,63.58,34L63,33.67a3.83,3.83,0,0,0-.27-.58c2.73-.73,4.78,1.36,4.78,5.27,0,4.56-2.78,9.86-6.2,11.84s-6.19-.12-6.19-4.68A15.22,15.22,0,0,1,60.58,34.19Z"/><path class="baaf7c5c-fbf7-4529-9045-3c1d2f188375" d="M60.58,34.19l.08,0a2.92,2.92,0,0,0,1.19,1.56A.78.78,0,0,0,63,35.54l.59.3c.45.25.8,0,.8-.48A1.77,1.77,0,0,0,63.58,34L63,33.67a3.83,3.83,0,0,0-.27-.58c2.73-.73,4.78,1.36,4.78,5.27,0,4.56-2.78,9.86-6.2,11.84s-6.19-.12-6.19-4.68A15.22,15.22,0,0,1,60.58,34.19Z"/><path class="a026086d-278f-4fb1-adb5-36e7b0eeeedc" d="M63.39,35.32c-.45.25-.44.26-.38.22l.59.3c.32.18.58.11.71-.12a.65.65,0,0,1-.33-.1ZM60.91,34l-.33.23.08,0a2.92,2.92,0,0,0,1.19,1.56.8.8,0,0,0,1-.09.94.94,0,0,1-.65-.13A2.92,2.92,0,0,1,61,34Z"/><path class="fce883dd-8cf6-48fb-b750-19fa8551a458" d="M52.72,44.88c0-5.09,3.1-11,6.92-13.22a4.44,4.44,0,0,1,4.45-.4,7.54,7.54,0,0,1,3,4.34c-.9-2.56-3.14-3.44-5.77-1.92-3.42,2-6.19,7.27-6.19,11.84,0,3.38,1.53,5.41,3.72,5.42a7.4,7.4,0,0,1-3.44-.32c-1.63-.75-2.67-2.78-2.67-5.74Z"/><path class="b03d79e9-3f7a-493e-8f2c-5d6a97f61bc0" d="M54.79,30.3A3,3,0,0,1,52.93,30c-.51-.28-.69-.69-.54-1.06l-.61-.33c-.46-.25-.52-.64-.14-.86a1.63,1.63,0,0,1,1.5.05l.62.32a3,3,0,0,1,1.86.28c.51.28.69.69.54,1.06l.61.33c.45.25.52.64.14.86a1.68,1.68,0,0,1-1.51-.05l-.61-.32Z"/><path class="a240b306-840d-4853-b258-097e0401ec0d" d="M53.14,28.26l.62.32a3.05,3.05,0,0,1,1.86.27,1.09,1.09,0,0,1,.54.6v0h0a.7.7,0,0,1,0,.43l.61.32a.91.91,0,0,1,.3.28.58.58,0,0,1-.16.15,1.68,1.68,0,0,1-1.51-.05l-.61-.32A3,3,0,0,1,52.93,30a1,1,0,0,1-.54-.59v0h0a.64.64,0,0,1,0-.43l-.61-.33a.73.73,0,0,1-.3-.27.39.39,0,0,1,.16-.15A1.63,1.63,0,0,1,53.14,28.26Z"/><path class="fd8281ec-3d3e-4233-af7d-1ee165fa8cba" d="M49,43.59a.78.78,0,0,1-1.17.26,3,3,0,0,1-1.19-1.56L46.05,42a1.75,1.75,0,0,1-.82-1.38c0-.51.35-.73.8-.48l.59.3a.78.78,0,0,1,1.16-.25A2.93,2.93,0,0,1,49,41.73l.59.3a1.78,1.78,0,0,1,.82,1.38c0,.52-.35.74-.8.49L49,43.59Z"/><path class="a240b306-840d-4853-b258-097e0401ec0d" d="M47,40.2a.65.65,0,0,1,.13-.16.94.94,0,0,1,.65.13A2.93,2.93,0,0,1,49,41.73l.59.3a1.78,1.78,0,0,1,.82,1.38.68.68,0,0,1-.09.37.65.65,0,0,1-.33-.1l-.58-.3-.38.21a.79.79,0,0,1-.14.17,1,1,0,0,1-.65-.13A3,3,0,0,1,47,42.07l-.59-.31a1.75,1.75,0,0,1-.82-1.38A.64.64,0,0,1,45.7,40a.65.65,0,0,1,.33.1l.59.3Z"/></svg>