<?xml version="1.0" encoding="UTF-8"?><svg id="uuid-6d40bae0-4740-4a98-ac5c-f27b2b7c27c6" xmlns="http://www.w3.org/2000/svg" width="68" height="51" xmlns:xlink="http://www.w3.org/1999/xlink" viewBox="0 0 68 51"><defs><style>.uuid-685678d4-eb49-4578-9e87-774bbee0e223{fill:url(#uuid-dbbaa608-c36e-43e0-a41f-5e78b98dfcac);}.uuid-194e4e2c-21d3-473c-b799-d245ae6fb38d{fill:url(#uuid-a2bd8f10-1cdf-4234-8c9f-0c5f655e9e42);}.uuid-242a0604-aca0-4f84-8dd0-0d09a6384936{fill:url(#uuid-494dfe7d-9c3a-4348-93ef-2051c4b37a0c);}.uuid-8cca0052-3c15-4d66-82ae-cd4d63602a51{fill:url(#uuid-16a917fd-abe8-4054-8ff5-3c49ced6ef61);}.uuid-b7efe787-7c93-41f5-a91a-0ec214e2dc53{fill:url(#uuid-186a875c-04c0-4d20-8e20-27f72dc76cb7);}.uuid-b8a58651-5da1-49fc-8134-8da66fb5c0e7{fill:url(#uuid-622bcffc-60c6-48ba-ac29-3096a44164ad);}.uuid-59aeaaf8-0bda-4731-b41a-2b170465aa6a{fill:url(#uuid-a961edb6-5bfa-4711-a385-2f2172f67e70);}.uuid-0ef720a8-6118-43f2-ba1b-48b3048d5796{fill:url(#uuid-c1369637-930e-45ab-9455-9aab84b4616e);}.uuid-7b6b50f7-1701-42c6-a380-187fb6c5f342{fill:url(#uuid-c4426bfd-16f7-41af-91a4-1c6d06f1f789);}.uuid-5fe8edbe-403b-483c-93e3-b194751a1793{fill:#3a3a38;}.uuid-40a4e1c8-58e4-4dc5-81b7-29a669e09b20{fill:#272726;}.uuid-aa03b0e8-6af3-43ac-820e-1b259b33fb5d{fill:url(#uuid-c570746b-ea6a-4f6e-9db7-091359be660c);}.uuid-3231827d-dfc6-4d97-ae60-b1be34d2c17e{fill:url(#uuid-22a1bb29-578d-4d57-8c3f-2e3fb12bd60e);}.uuid-8cfb863b-e175-4c12-aa3f-b56734e0ba29{fill:url(#uuid-00a6308c-1b71-4238-b210-6eb98e900598);}.uuid-c296ca18-b126-4c2b-8d78-5ec3cc54185a{fill:url(#uuid-2b3f5376-7ad0-4f1a-b8b2-a068fc1bcfe1);}.uuid-749dba0b-ec2f-4972-9406-71213b22d859{fill:url(#uuid-79f89a89-b5d0-4345-90b3-c41ded04ce2f);}.uuid-59e2831e-b7b2-42cc-aa97-47382eef7202{fill:url(#uuid-024e44d0-4f8f-44d7-a69a-c39fd4149e96);}.uuid-03163bdd-42bb-4cc7-bc9a-3257eac0b8cc{fill:url(#uuid-b5dc51e5-7ef9-4f34-a92b-6c9f86f4d6fa);}.uuid-77b992cc-60e4-48e0-a8b6-1def6cdde30e{fill:url(#uuid-0c1433bc-dc5b-49b2-91e9-3ff49f93eda8);}.uuid-6cbd3657-fdf4-45cb-8f3c-e2672e6a5c05{fill:url(#uuid-a0e35c01-7044-4774-b10f-7bcb3e86e92b);}.uuid-3e2407b8-3407-4d8c-9c64-2dac585c20e7{fill:url(#uuid-1ec630c4-f42d-49fc-91d1-7e9af5b68d5f);}.uuid-1386bae6-56a9-4d26-92b9-11076a18e2c0{fill:url(#uuid-b8f9a054-1185-4590-9a09-e6da797f6b8b);}.uuid-9ee06cff-4d57-45b6-b599-03d4d9a8b12b{fill:url(#uuid-5d09ecbe-ab90-4c67-8ae6-ce39873f5085);}.uuid-b1eed6d6-372e-47e9-ab83-e11756e30fac{fill:url(#uuid-0199f4eb-d9cd-4603-bf3a-674e23a196be);}.uuid-4a56714f-525d-4f96-a752-9b02d61d89e7{fill:url(#uuid-699f1854-1317-4b07-b79e-6f681746a404);}.uuid-ab273c7f-082b-48ad-bde6-2be936d80db5{fill:url(#uuid-9101951b-87e5-4e0b-a87c-da8145f6183c);}.uuid-8c394a22-cc9a-45cb-8a60-07d16c400474{fill:url(#uuid-f066bbcc-adcc-4b1b-a6e3-b67f7303ac07);}.uuid-b33da450-7ea6-4228-8372-0078f6f1d5df{fill:url(#uuid-b91bd2e1-39f6-456c-82cf-9fea5d1dcdd0);}.uuid-9dfeeeda-49cc-465a-82c0-8e3e35ed24ce{fill:url(#uuid-10ed7b8d-dc11-43db-8759-0fc5b133803e);}.uuid-1b67d7fc-18e6-4d3b-adad-4ad40b1819ea{fill:url(#uuid-ab09fbfe-90a3-4b44-9b31-e7d96a0dc045);}.uuid-2ac4e5ec-0f0e-451c-a432-c0b18ba89343{fill:url(#uuid-0c439af9-b6d6-43b1-bbec-ca5224935348);}.uuid-52bcb37e-e334-455c-aa76-3ca54a8c5a6f{fill:url(#uuid-436b507e-4089-41c8-9f10-d1eff48450a4);}.uuid-40612ded-2209-493e-be75-c297c9fe912a{fill:url(#uuid-70e08a43-746b-433a-bc6b-64e68c0f1971);}.uuid-3ea3398c-c68a-4761-b6f5-858ed9e9bbbb{fill:url(#uuid-311d3095-07d2-4ed6-afa7-80658848af78);}.uuid-2b5453b6-10fa-4832-8312-8699803754d6{fill:url(#uuid-0a35a4a1-3620-4866-b41c-7d202eb8bfd1);}.uuid-32a4d29b-be35-438e-b3c9-8dd2a6846ec1{fill:url(#uuid-591e21f2-bde1-43c4-8daa-2287516a6117);}</style><linearGradient id="uuid-16a917fd-abe8-4054-8ff5-3c49ced6ef61" x1="45.65" y1="6.83" x2="57.26" y2="26.95" gradientUnits="userSpaceOnUse"><stop offset="0" stop-color="#4a4a49"/><stop offset=".2" stop-color="#5e5d5c"/><stop offset=".26" stop-color="#696967"/><stop offset=".31" stop-color="#6e6e6c"/><stop offset=".38" stop-color="#646462"/><stop offset=".45" stop-color="#545453"/><stop offset=".67" stop-color="#40403f"/><stop offset="1" stop-color="#272726"/></linearGradient><linearGradient id="uuid-699f1854-1317-4b07-b79e-6f681746a404" x1="52.43" y1="4.86" x2="59.36" y2="4.86" gradientUnits="userSpaceOnUse"><stop offset="0" stop-color="#3a3a38"/><stop offset=".17" stop-color="#4a4a49"/><stop offset=".17" stop-color="#3a3a38"/><stop offset=".58" stop-color="#5e5d5c"/><stop offset=".59" stop-color="#3e3e3c"/><stop offset=".59" stop-color="#3a3a38"/><stop offset=".87" stop-color="#4a4a49"/><stop offset="1" stop-color="#3a3a38"/></linearGradient><linearGradient id="uuid-0a35a4a1-3620-4866-b41c-7d202eb8bfd1" x1="60.37" y1="20.54" x2="63.67" y2="14.82" gradientUnits="userSpaceOnUse"><stop offset="0" stop-color="#3a3a38"/><stop offset=".14" stop-color="#4a4a49"/><stop offset=".14" stop-color="#272726"/><stop offset=".45" stop-color="#5e5d5c"/><stop offset=".5" stop-color="#5c5b5a"/><stop offset=".52" stop-color="#555453"/><stop offset=".53" stop-color="#494847"/><stop offset=".54" stop-color="#383837"/><stop offset=".55" stop-color="#272726"/><stop offset=".75" stop-color="#4a4a49"/><stop offset="1" stop-color="#272726"/></linearGradient><linearGradient id="uuid-a961edb6-5bfa-4711-a385-2f2172f67e70" x1="-836.32" y1=".94" x2="-843.4" y2="18.47" gradientTransform="translate(-776.71) rotate(-180) scale(1 -1)" gradientUnits="userSpaceOnUse"><stop offset="0" stop-color="#4d4e4c"/><stop offset=".3" stop-color="#7e7e7d"/><stop offset=".66" stop-color="#4a4a49"/><stop offset="1" stop-color="#3a3a38"/></linearGradient><linearGradient id="uuid-2b3f5376-7ad0-4f1a-b8b2-a068fc1bcfe1" x1="42.9" y1="14.57" x2="46.54" y2="21.99" gradientUnits="userSpaceOnUse"><stop offset="0" stop-color="#5e5d5c"/><stop offset=".57" stop-color="#6e6d6c"/><stop offset="1" stop-color="#4a4a49"/></linearGradient><linearGradient id="uuid-c4426bfd-16f7-41af-91a4-1c6d06f1f789" x1="45.68" y1="17.65" x2="44.86" y2="20.01" gradientUnits="userSpaceOnUse"><stop offset="0" stop-color="#4a4a49"/><stop offset="1" stop-color="#666564"/></linearGradient><linearGradient id="uuid-0c439af9-b6d6-43b1-bbec-ca5224935348" x1="34.34" y1="24.44" x2="34.34" y2="21.14" gradientUnits="userSpaceOnUse"><stop offset="0" stop-color="#3a3a38"/><stop offset="1" stop-color="#4a4a49"/></linearGradient><linearGradient id="uuid-024e44d0-4f8f-44d7-a69a-c39fd4149e96" x1="36.38" y1="22.54" x2="31.11" y2="6.37" gradientUnits="userSpaceOnUse"><stop offset="0" stop-color="#5e5d5c"/><stop offset="1" stop-color="#545453"/></linearGradient><linearGradient id="uuid-ab09fbfe-90a3-4b44-9b31-e7d96a0dc045" x1="23.9" y1="15.2" x2="44.08" y2="15.2" gradientUnits="userSpaceOnUse"><stop offset="0" stop-color="#272726"/><stop offset=".12" stop-color="#30302f"/><stop offset=".47" stop-color="#4a4a49"/><stop offset=".55" stop-color="#545453"/><stop offset=".61" stop-color="#4a4a49"/><stop offset="1" stop-color="#3a3a38"/></linearGradient><linearGradient id="uuid-0c1433bc-dc5b-49b2-91e9-3ff49f93eda8" x1="33.99" y1="9.38" x2="33.99" y2="21.03" gradientUnits="userSpaceOnUse"><stop offset="0" stop-color="#272726" stop-opacity="0"/><stop offset=".27" stop-color="#272726" stop-opacity=".16"/><stop offset=".64" stop-color="#272726" stop-opacity=".62"/><stop offset=".87" stop-color="#272726"/></linearGradient><linearGradient id="uuid-0199f4eb-d9cd-4603-bf3a-674e23a196be" x1="31.67" y1="40.61" x2="19.79" y2="20.05" gradientUnits="userSpaceOnUse"><stop offset="0" stop-color="#2c2c2a"/><stop offset=".36" stop-color="#3a3a38"/><stop offset=".72" stop-color="#545453"/><stop offset=".87" stop-color="#484846"/><stop offset="1" stop-color="#3a3a38"/></linearGradient><linearGradient id="uuid-494dfe7d-9c3a-4348-93ef-2051c4b37a0c" x1="47.63" y1="40.39" x2="35.89" y2="19.67" gradientUnits="userSpaceOnUse"><stop offset=".15" stop-color="#272726"/><stop offset="1" stop-color="#4a4a49"/></linearGradient><linearGradient id="uuid-5d09ecbe-ab90-4c67-8ae6-ce39873f5085" x1="26.1" y1="21.73" x2="35.75" y2="39.49" gradientUnits="userSpaceOnUse"><stop offset="0" stop-color="#545453"/><stop offset=".29" stop-color="#545453"/><stop offset=".49" stop-color="#4a4a49"/><stop offset=".52" stop-color="#464645"/><stop offset=".66" stop-color="#343433"/><stop offset=".82" stop-color="#2a2a29"/><stop offset="1" stop-color="#272726"/></linearGradient><linearGradient id="uuid-dbbaa608-c36e-43e0-a41f-5e78b98dfcac" x1="3199.07" y1="22.44" x2="3208.02" y2="37.96" gradientTransform="translate(3240.93) rotate(-180) scale(1 -1)" gradientUnits="userSpaceOnUse"><stop offset="0" stop-color="#545453"/><stop offset=".19" stop-color="#545453"/><stop offset=".29" stop-color="#5e5d5c"/><stop offset=".4" stop-color="#545453"/><stop offset="1" stop-color="#272726"/></linearGradient><linearGradient id="uuid-b8f9a054-1185-4590-9a09-e6da797f6b8b" x1="19.84" y1="17.15" x2="25.86" y2="19.01" gradientUnits="userSpaceOnUse"><stop offset="0" stop-color="#666564"/><stop offset=".79" stop-color="#4a4a49"/><stop offset="1" stop-color="#3a3a38"/></linearGradient><linearGradient id="uuid-00a6308c-1b71-4238-b210-6eb98e900598" x1="22.34" y1="16.68" x2="26.51" y2="19.29" gradientUnits="userSpaceOnUse"><stop offset="0" stop-color="#666564"/><stop offset=".26" stop-color="#4a4a49"/><stop offset="1" stop-color="#3a3a38"/></linearGradient><linearGradient id="uuid-a2bd8f10-1cdf-4234-8c9f-0c5f655e9e42" x1="4.85" y1="36.67" x2="6.74" y2="33.39" gradientUnits="userSpaceOnUse"><stop offset="0" stop-color="#4a4a49"/><stop offset=".25" stop-color="#545453"/><stop offset=".25" stop-color="#4a4a49"/><stop offset=".58" stop-color="#5e5d5c"/></linearGradient><linearGradient id="uuid-a0e35c01-7044-4774-b10f-7bcb3e86e92b" x1="11.06" y1="27.14" x2="23.14" y2="48.06" xlink:href="#uuid-16a917fd-abe8-4054-8ff5-3c49ced6ef61"/><linearGradient id="uuid-311d3095-07d2-4ed6-afa7-80658848af78" x1="1073.48" y1="32.28" x2="1085.54" y2="50.16" gradientTransform="translate(-1070.29)" xlink:href="#uuid-a961edb6-5bfa-4711-a385-2f2172f67e70"/><linearGradient id="uuid-622bcffc-60c6-48ba-ac29-3096a44164ad" x1="9.25" y1="29.85" x2="16.18" y2="29.85" gradientUnits="userSpaceOnUse"><stop offset="0" stop-color="#3a3a38"/><stop offset=".17" stop-color="#4a4a49"/><stop offset=".17" stop-color="#3a3a38"/><stop offset=".58" stop-color="#5e5d5c"/><stop offset=".59" stop-color="#3e3e3c"/><stop offset=".59" stop-color="#3a3a38"/><stop offset=".87" stop-color="#4a4a49"/><stop offset="1" stop-color="#3a3a38"/></linearGradient><linearGradient id="uuid-591e21f2-bde1-43c4-8daa-2287516a6117" x1="17.19" y1="45.52" x2="20.49" y2="39.8" xlink:href="#uuid-0a35a4a1-3620-4866-b41c-7d202eb8bfd1"/><linearGradient id="uuid-1ec630c4-f42d-49fc-91d1-7e9af5b68d5f" x1="2.12" y1="34.15" x2="12.9" y2="52.82" xlink:href="#uuid-ab09fbfe-90a3-4b44-9b31-e7d96a0dc045"/><linearGradient id="uuid-70e08a43-746b-433a-bc6b-64e68c0f1971" x1="2.56" y1="46.09" x2="12.38" y2="36.26" gradientUnits="userSpaceOnUse"><stop offset="0" stop-color="#272726" stop-opacity="0"/><stop offset=".22" stop-color="#272726" stop-opacity=".16"/><stop offset=".51" stop-color="#272726" stop-opacity=".62"/><stop offset=".7" stop-color="#272726"/></linearGradient><linearGradient id="uuid-f066bbcc-adcc-4b1b-a6e3-b67f7303ac07" x1="9.43" y1="46.72" x2="12" y2="46.72" gradientUnits="userSpaceOnUse"><stop offset="0" stop-color="#272726"/><stop offset=".47" stop-color="#3a3a38"/><stop offset=".47" stop-color="#272726"/><stop offset="1" stop-color="#3a3a38"/></linearGradient><linearGradient id="uuid-22a1bb29-578d-4d57-8c3f-2e3fb12bd60e" x1="2.12" y1="39.23" x2="12.77" y2="45.55" xlink:href="#uuid-0c439af9-b6d6-43b1-bbec-ca5224935348"/><linearGradient id="uuid-b91bd2e1-39f6-456c-82cf-9fea5d1dcdd0" x1="2438.38" y1="36.67" x2="2440.28" y2="33.39" gradientTransform="translate(2501.53) rotate(-180) scale(1 -1)" xlink:href="#uuid-a2bd8f10-1cdf-4234-8c9f-0c5f655e9e42"/><linearGradient id="uuid-186a875c-04c0-4d20-8e20-27f72dc76cb7" x1="2444.59" y1="27.14" x2="2456.67" y2="48.06" gradientTransform="translate(2501.53) rotate(-180) scale(1 -1)" gradientUnits="userSpaceOnUse"><stop offset="0" stop-color="#3a3a38"/><stop offset=".23" stop-color="#7e7e7d"/><stop offset=".31" stop-color="#868685"/><stop offset=".44" stop-color="#6c6c6b"/><stop offset=".59" stop-color="#4a4a49"/><stop offset=".93" stop-color="#272726"/></linearGradient><linearGradient id="uuid-c1369637-930e-45ab-9455-9aab84b4616e" x1="3507.01" y1="32.28" x2="3519.08" y2="50.16" gradientTransform="translate(3571.82) rotate(-180) scale(1 -1)" xlink:href="#uuid-a961edb6-5bfa-4711-a385-2f2172f67e70"/><linearGradient id="uuid-436b507e-4089-41c8-9f10-d1eff48450a4" x1="2442.79" y1="29.85" x2="2449.71" y2="29.85" gradientTransform="translate(2501.53) rotate(-180) scale(1 -1)" xlink:href="#uuid-622bcffc-60c6-48ba-ac29-3096a44164ad"/><linearGradient id="uuid-b5dc51e5-7ef9-4f34-a92b-6c9f86f4d6fa" x1="2450.72" y1="45.52" x2="2454.03" y2="39.8" gradientTransform="translate(2501.53) rotate(-180) scale(1 -1)" xlink:href="#uuid-0a35a4a1-3620-4866-b41c-7d202eb8bfd1"/><linearGradient id="uuid-9101951b-87e5-4e0b-a87c-da8145f6183c" x1="2435.65" y1="34.15" x2="2446.43" y2="52.82" gradientTransform="translate(2501.53) rotate(-180) scale(1 -1)" xlink:href="#uuid-ab09fbfe-90a3-4b44-9b31-e7d96a0dc045"/><linearGradient id="uuid-c570746b-ea6a-4f6e-9db7-091359be660c" x1="2436.09" y1="46.09" x2="2445.91" y2="36.26" gradientTransform="translate(2501.53) rotate(-180) scale(1 -1)" xlink:href="#uuid-70e08a43-746b-433a-bc6b-64e68c0f1971"/><linearGradient id="uuid-10ed7b8d-dc11-43db-8759-0fc5b133803e" x1="2442.96" y1="46.72" x2="2445.54" y2="46.72" gradientTransform="translate(2501.53) rotate(-180) scale(1 -1)" xlink:href="#uuid-f066bbcc-adcc-4b1b-a6e3-b67f7303ac07"/><linearGradient id="uuid-79f89a89-b5d0-4345-90b3-c41ded04ce2f" x1="2435.65" y1="39.23" x2="2446.3" y2="45.55" gradientTransform="translate(2501.53) rotate(-180) scale(1 -1)" gradientUnits="userSpaceOnUse"><stop offset="0" stop-color="#3a3a38"/><stop offset="1" stop-color="#3a3a38"/></linearGradient></defs><path class="uuid-8cca0052-3c15-4d66-82ae-cd4d63602a51" d="m60.74,2.58c-2.5-1.56-4.7-1.27-4.7-1.27-.32.2-17.01,9.64-18.11,10.25-1.5.83-2.45,2.8-2.45,5.62,0,5.09,3.1,11.01,6.92,13.22,1.84,1.06,3.51,1.07,4.75.22,1.24-.85,16.64-9.63,16.8-9.72,1.13-.62,2.6-2.28,2.6-4.37,0-6.69-3.09-12.1-5.8-13.95Zm-1.89,1.58l-.66.35s-.07.08-.05.13c.16.53-.25.94-.68,1.19-.38.23-.87.35-1.37.37.05-.63.16-1.18.34-1.67.03,0,.07,0,.1-.02l.68-.36c.55-.3,1.78-.49,1.78-.08-.04.03-.09.06-.14.09Zm4.33,13.1l-.63.33s-.05.04-.07.08c-.04.11-.08.22-.12.31-.24-.09-.49-.21-.75-.35-.28-.16-.55-.34-.82-.55.29-.62.73-1.16,1.22-1.42.24-.13.38-.16.54-.17l.74.43s.08.02.12,0l.61-.32.11-.05c0,.79-.43,1.44-.94,1.73Z"/><path class="uuid-4a56714f-525d-4f96-a752-9b02d61d89e7" d="m59.02,3.12c-.45-.27-1.26-.24-1.81.06l-.68.36s-.08.03-.12.02c-.74-.1-1.38.06-1.98.39-.58.32-.83.56-.84,1.12,0,.06-.04.12-.09.15l-.64.34c-.55.3-.62.77-.17,1.04.45.27,1.26.24,1.81-.06l.74-.39c.28.05.58.06.87.04.05-.62.16-1.18.34-1.66.03,0,.07,0,.1-.02l.68-.36c.54-.3,1.77-.49,1.78-.08.42-.3.44-.71.03-.95Z"/><path class="uuid-40a4e1c8-58e4-4dc5-81b7-29a669e09b20" d="m56.43,4.53s-.01,0-.02,0c-.75-.11-1.58,0-2.18.34-.36.2-.56.45-.65.72v.49s-.03.09-.07.12l-.82.43h0c.45.27,1.25.23,1.79-.07l.69-.36s.07-.02.1-.02c.26.04.54.05.81.04.05-.63.16-1.18.34-1.67Z"/><path class="uuid-40a4e1c8-58e4-4dc5-81b7-29a669e09b20" d="m56.43,4.53s-.01,0-.02,0c-.75-.11-1.58,0-2.18.34-.36.2-.56.45-.65.72v.49s-.03.09-.07.12l-.82.43h0c.45.27,1.25.23,1.79-.07l.69-.36s.07-.02.1-.02c.26.04.54.05.81.04.05-.63.16-1.18.34-1.67Z"/><path class="uuid-2b5453b6-10fa-4832-8312-8699803754d6" d="m64.12,15.53c0,.79-.43,1.44-.94,1.73l-.63.33s-.05.04-.07.08c-.04.11-.08.22-.12.31-.24-.09-.49-.21-.75-.35-.28-.16-.55-.34-.82-.55-.06.12-.11.24-.15.37l-.67.35c-.51.28-.93.99-.94,1.58,0,.59.4.84.91.56l.65-.34s.02-.02.05,0c.57.31,1.18.35,1.69-.06.5-.41.71-.67.98-1.41,0-.03.03-.05.05-.06l.64-.33c.51-.28.93-.99.94-1.58,0-.55-.35-.8-.81-.61Z"/><path class="uuid-40a4e1c8-58e4-4dc5-81b7-29a669e09b20" d="m61.61,17.62c-.28-.16-.55-.34-.82-.55-.06.12-.11.24-.15.37l-.67.35c-.51.28-.93.99-.94,1.58,0,.05,0,.1,0,.15l.1-.05.65-.34s.04,0,.06,0l.76.44c.17,0,.75-.37.92-.5.4-.32.63-.57.85-1.09-.24-.09-.49-.21-.75-.35Z"/><path class="uuid-40a4e1c8-58e4-4dc5-81b7-29a669e09b20" d="m63.38,15.91s-.05,0-.07-.03c-.18-.28-.45-.43-.77-.41l.74.43s.06.02.1.01Z"/><path class="uuid-59aeaaf8-0bda-4731-b41a-2b170465aa6a" d="m58.65,1.02c.93.19,1.62.45,2.5.95,3.42,1.97,5.68,6.04,6.22,10.55.19,1.56.1,3.67-.35,5.06-.52,1.61-2,2.69-3.08,3.33,1.1-.65,1.71-3.36,1.71-5.46,0-5.34-3.16-10.98-7.16-13.29-.84-.48-1.72-.76-2.46-.84,0,0,1.28-.56,2.61-.29Z"/><path class="uuid-c296ca18-b126-4c2b-8d78-5ec3cc54185a" d="m41.97,19.56c2.22-1.28,2.93-4.92,2.98-6.6,0,0,1.68,2.43,2.5,4.01.69,1.32,2.13,4.74,2.13,4.74,0,0-4.64-2.69-6.9-1.38l-.71-.77Z"/><path class="uuid-7b6b50f7-1701-42c6-a380-187fb6c5f342" d="m41.97,19.56l2.44-2.41c2.49,1.8,3.59,2.59,3.59,2.59,0,0-1.16-.49-2.6-.34s-3.05.57-3.05.57l-.39-.42Z"/><polygon class="uuid-5fe8edbe-403b-483c-93e3-b194751a1793" points="41.97 19.56 45.42 16.38 45.25 17.73 42.36 19.98 41.97 19.56"/><path class="uuid-2ac4e5ec-0f0e-451c-a432-c0b18ba89343" d="m42.68,20.32c-4.53,2.61-8.68,6.83-8.68,6.83l-8-7.06s11.45,2.08,15.97-.54l.71.77Z"/><path class="uuid-59e2831e-b7b2-42cc-aa97-47382eef7202" d="m25.79,10.38c4.53-2.66,11.87-2.66,16.4,0,4.53,2.66,4.53,6.98,0,9.64-4.53,2.66-11.87,2.66-16.4,0-4.53-2.66-4.53-6.98,0-9.64h0Z"/><path class="uuid-1b67d7fc-18e6-4d3b-adad-4ad40b1819ea" d="m26.86,11.09c3.94-2.28,10.33-2.28,14.27,0,3.94,2.27,3.93,5.96-.01,8.24-3.94,2.28-10.33,2.28-14.27,0-3.94-2.27-3.93-5.96.01-8.24h0Z"/><path class="uuid-77b992cc-60e4-48e0-a8b6-1def6cdde30e" d="m26.86,11.09c3.94-2.28,10.33-2.28,14.27,0,3.94,2.27,3.93,5.96-.01,8.24-3.94,2.28-10.33,2.28-14.27,0-3.94-2.27-3.93-5.96.01-8.24h0Z"/><path class="uuid-b1eed6d6-372e-47e9-ab83-e11756e30fac" d="m25.69,19.93c-4.66-2.37-8.2.16-8.2,6.2s3.67,13.06,8.2,15.67c4.53,2.62,8.33-.22,8.33-6.22s-1.82-12.35-8.33-15.66Z"/><path class="uuid-242a0604-aca0-4f84-8dd0-0d09a6384936" d="m42.26,19.93c4.53-2.62,8.2.16,8.2,6.2s-3.67,13.05-8.2,15.67c-4.35,2.51-8.28-.02-8.28-6.22,0-8.43,3.75-13.04,8.28-15.66Z"/><path class="uuid-9ee06cff-4d57-45b6-b599-03d4d9a8b12b" d="m34,24.5v16.06s-2.12,1.38-3.1,1.77c1.66-1.05,3.09-3.55,3.09-6.76,0-6.04-2.15-11.97-7.26-15.05l7.27,3.98Z"/><path class="uuid-685678d4-eb49-4578-9e87-774bbee0e223" d="m34,24.5v16.06s2.1,1.37,3.08,1.76c-1.66-1.05-3.08-3.51-3.08-6.73,0-5.16,1.48-11.37,7.64-15.28l-7.64,4.19Z"/><path class="uuid-1386bae6-56a9-4d26-92b9-11076a18e2c0" d="m19.7,19.99c.86-.7,2.49-1.75,2.49-1.75,0,0,.21-2.6.21-3.18-.02,1.68.9,3.57,3.6,5.04-2.52-1.1-4.92-1.23-6.3-.11Z"/><path class="uuid-8cfb863b-e175-4c12-aa3f-b56734e0ba29" d="m22.18,18.24s.21-2.6.21-3.18c-.02,1.68.9,3.57,3.6,5.04l-3.81-1.86Z"/><path class="uuid-194e4e2c-21d3-473c-b799-d245ae6fb38d" d="m6.9,34.4c-.09.22-.13.79-.89,1.1s-1.29,0-1.44-.09c-.03-.02-.06-.02-.09,0-.13.07-.5.24-.83.19-.02.45.69,1,1.39.63l.37-.21c.28.25.97.36,1.47.09.39-.22.51-.66.74-1.15l-.71-.55Z"/><path class="uuid-6cbd3657-fdf4-45cb-8f3c-e2672e6a5c05" d="m25.45,21.77c-1.84-1.06-3.51-1.07-4.75-.22-1.24.85-12.71,7.28-16.8,9.72-1.13.62-2.41,2.33-2.98,4.34,0,0-.47,1.5-.43,2.77,0,4.56,2.77,9.86,6.19,11.84.92.53,2.31.74,2.27.74,1.34.15,2.93,0,3.64-.32.11-.05.32-.17.32-.17,4.33-2.54,15.73-9.05,16.99-9.84,1.45-.91,2.45-2.8,2.45-5.63,0-5.09-3.1-11.01-6.92-13.21Zm-18.76,14.24c-.49.27-1.04.1-1.32-.14,0,0-.02,0-.03,0l-.25.13c-.92.48-1.5-.11-1.5-.63,0-.52.37-1.13.82-1.38l.59-.31,1.54.45,1.05.82c-.25.49-.52.85-.91,1.06Zm5.1,11.69c-.27.74-.69,1.06-.69,1.06-.43.13-.9.13-1.2-.03-.25-.13-.49-.37-.49-.58l2.37-3,.51.54s-.23,1.28-.51,2.01Z"/><path class="uuid-3ea3398c-c68a-4761-b6f5-858ed9e9bbbb" d="m8.25,31.78c-1.7-.98-3.14-1.17-4.34-.52-1.13.62-2.41,2.33-2.98,4.34.89-2.35,3.1-3.39,5.73-1.87,3.42,1.98,6.16,7.23,6.16,11.79,0,3.39-1.66,5.41-3.85,5.42,1.34.15,2.93,0,3.64-.32,1.62-.75,2.59-2.8,2.59-5.74,0-5.52-3.13-10.9-6.95-13.1Z"/><path class="uuid-b8a58651-5da1-49fc-8134-8da66fb5c0e7" d="m12.05,31.14c.77.12,1.62.01,2.24-.33.58-.32.8-.77.68-1.19-.01-.05,0-.1.05-.13l.66-.35c.55-.3.62-.77.17-1.04-.45-.27-1.26-.24-1.81.06l-.68.36s-.08.03-.12.02c-.74-.1-1.38.06-1.98.39-.58.32-.83.56-.84,1.12,0,.06-.04.12-.09.15l-.64.34c-.55.3-.62.77-.17,1.04.45.27,1.26.24,1.81-.06l.74-.39h0Z"/><path class="uuid-40a4e1c8-58e4-4dc5-81b7-29a669e09b20" d="m14.03,29.13l-.68.36s-.08.03-.12.02c-.75-.11-1.58,0-2.18.34-.36.2-.56.45-.65.72v.49s-.03.09-.07.12l-.81.43h0c.45.27,1.24.23,1.79-.07l.69-.36s.07-.02.1-.02c.75.11,1.59.01,2.18-.34.42-.25.84-.66.68-1.19-.01-.05,0-.1.05-.13l.66-.35c.05-.03.1-.06.14-.09,0-.41-1.23-.23-1.78.08Z"/><path class="uuid-32a4d29b-be35-438e-b3c9-8dd2a6846ec1" d="m17.45,44.57c.57.31,1.18.35,1.69-.06s.71-.67.98-1.41c0-.03.03-.05.05-.06l.64-.33c.51-.28.93-.99.94-1.58,0-.59-.4-.84-.91-.56l-.62.32s-.07,0-.09-.02c-.27-.43-.74-.55-1.31-.24s-1.09,1.01-1.37,1.79l-.67.35c-.51.28-.93.99-.94,1.58,0,.59.4.84.91.56l.65-.34s.02-.02.05,0Z"/><path class="uuid-5fe8edbe-403b-483c-93e3-b194751a1793" d="m20.2,40.9s-.05,0-.07-.03c-.18-.28-.45-.43-.77-.41l.74.43s.06.02.1.01Z"/><path class="uuid-40a4e1c8-58e4-4dc5-81b7-29a669e09b20" d="m19.37,40.46c-.16,0-.3.04-.54.17-.58.32-1.09,1.01-1.37,1.79l-.67.35c-.51.28-.93.99-.94,1.58,0,.05,0,.1,0,.15l.1-.05.65-.34s.04,0,.06,0l.76.44h0c.17,0,.75-.37.92-.5.48-.38.71-.66.98-1.4.01-.03.04-.06.07-.08l.63-.33c.51-.28.94-.94.94-1.73l-.11.05-.61.32s-.08.02-.12,0l-.74-.43Z"/><path class="uuid-3e2407b8-3407-4d8c-9c64-2dac585c20e7" d="m7.8,34.51c-1.2-.97-1.85-1.23-2.52-1.41-2.74-.73-4.78,1.36-4.78,5.27,0,4.56,2.77,9.86,6.19,11.84,3.42,1.98,6.01-.13,6.01-4.69,0-6.74-4.91-11.01-4.91-11.01Zm-1.1,1.5c-.49.27-.97.07-1.32-.15-.01,0-.03,0-.04,0l-.25.13c-.92.48-1.5-.11-1.5-.63,0-.52.37-1.13.82-1.38l.59-.31,1.54.45,1.05.82c-.25.49-.52.85-.91,1.06Zm4.41,12.75c-.43.13-.9.13-1.2-.03-.25-.13-.3-.31-.32-.6l2.37-3.02.34.58s-.23,1.28-.51,2.01c-.27.74-.69,1.06-.69,1.06Z"/><path class="uuid-40612ded-2209-493e-be75-c297c9fe912a" d="m7.8,34.51c-1.14-.78-1.5-.96-2.52-1.42-2.74-.73-4.78,1.36-4.78,5.28,0,4.56,2.77,9.86,6.19,11.84,3.42,1.98,6.19-.12,6.19-4.68,0-5.61-5.09-11.01-5.09-11.01Zm-1.1,1.5c-.49.27-.96.07-1.32-.15-.01,0-.03,0-.04,0l-.25.13c-.92.48-1.5-.11-1.5-.63,0-.52.37-1.13.82-1.38l.59-.31,1.54.45,1.05.82c-.25.49-.52.85-.91,1.06Zm4.41,12.75c-.43.13-.9.13-1.2-.03-.09-.05-.15-.1-.19-.16,0,0,0,0,0,0,0,0,0,0,0,0,0,0,0,0,0,0-.68-.94,0-1.76.82-2.08.06-.02.1-.08.11-.14.03-.31.22-1.23,1.37-1.46,0,.05,0,.16,0,.29l.31.52s-.23,1.28-.51,2.01c-.27.74-.69,1.06-.69,1.06Z"/><path class="uuid-8c394a22-cc9a-45cb-8a60-07d16c400474" d="m10.52,46.48c-.82.32-1.51,1.15-.8,2.09-.11-.28.12-.85.84-1.17.05-.02.08-.07.08-.12v-.42s.47-.81,1.35-.93c.02-.15.01-.9.02-1.06-1.15.23-1.34,1.14-1.37,1.46,0,.07-.05.12-.11.15Z"/><path class="uuid-3231827d-dfc6-4d97-ae60-b1be34d2c17e" d="m12.89,45.52c0,4.56-2.77,6.66-6.19,4.68-3.42-1.98-6.19-7.27-6.19-11.83s2.77-6.66,6.19-4.68c3.42,1.97,6.19,7.27,6.19,11.83h0Zm-.92-.61c-.17-4.04-2.65-8.64-5.54-10.28-2.89-1.63-5.09.33-4.91,4.37.17,4.04,2.65,8.64,5.54,10.28,2.89,1.63,5.09-.33,4.91-4.37h0Z"/><path class="uuid-b33da450-7ea6-4228-8372-0078f6f1d5df" d="m61.1,34.4c.09.22.13.79.89,1.1s1.29,0,1.44-.09c.03-.02.06-.02.09,0,.13.07.5.24.83.19.02.45-.69,1-1.39.63l-.37-.21c-.28.25-.97.36-1.47.09-.39-.22-.51-.66-.74-1.15l.71-.55Z"/><path class="uuid-b7efe787-7c93-41f5-a91a-0ec214e2dc53" d="m35.63,34.99c0,2.82,1,4.72,2.45,5.63,1.26.79,12.66,7.3,16.99,9.84,0,0,.21.12.32.17.71.33,2.3.47,3.64.32-.03,0,1.36-.21,2.27-.74,3.42-1.98,6.19-7.27,6.19-11.84.05-1.26-.43-2.77-.43-2.77-.57-2.01-1.85-3.72-2.98-4.34-4.09-2.44-15.56-8.87-16.8-9.72-1.24-.85-2.91-.84-4.75.22-3.82,2.2-6.92,8.12-6.92,13.21Zm24.77-.04l1.05-.82,1.54-.45.59.31c.45.25.81.86.82,1.38,0,.52-.57,1.11-1.5.63l-.25-.13s-.02,0-.03,0c-.29.25-.83.42-1.32.14-.39-.22-.65-.58-.91-1.06Zm-4.7,10.74l.51-.54,2.37,3c0,.21-.24.45-.49.58-.3.16-.77.16-1.2.03,0,0-.42-.33-.69-1.06-.27-.74-.51-2.01-.51-2.01Z"/><path class="uuid-0ef720a8-6118-43f2-ba1b-48b3048d5796" d="m59.75,31.78c1.7-.98,3.14-1.17,4.34-.52,1.13.62,2.41,2.33,2.98,4.34-.89-2.35-3.1-3.39-5.73-1.87-3.42,1.98-6.16,7.23-6.16,11.79,0,3.39,1.66,5.41,3.85,5.42-1.34.15-2.93,0-3.64-.32-1.62-.75-2.59-2.8-2.59-5.74,0-5.52,3.13-10.9,6.95-13.1Z"/><path class="uuid-52bcb37e-e334-455c-aa76-3ca54a8c5a6f" d="m55.95,31.14c-.77.12-1.62.01-2.24-.33-.58-.32-.8-.77-.68-1.19.01-.05,0-.1-.05-.13l-.66-.35c-.55-.3-.62-.77-.17-1.04.45-.27,1.26-.24,1.81.06l.68.36s.08.03.12.02c.74-.1,1.38.06,1.98.39.58.32.83.56.84,1.12,0,.06.04.12.09.15l.64.34c.55.3.62.77.17,1.04-.45.27-1.26.24-1.81-.06l-.74-.39h0Z"/><path class="uuid-40a4e1c8-58e4-4dc5-81b7-29a669e09b20" d="m53.97,29.13l.68.36s.08.03.12.02c.75-.11,1.58,0,2.18.34.36.2.56.45.65.72v.49s.03.09.07.12l.81.43h0c-.45.27-1.24.23-1.79-.07l-.69-.36s-.07-.02-.1-.02c-.75.11-1.59.01-2.18-.34-.42-.25-.84-.66-.68-1.19.01-.05,0-.1-.05-.13l-.66-.35c-.05-.03-.1-.06-.14-.09,0-.41,1.23-.23,1.78.08Z"/><path class="uuid-03163bdd-42bb-4cc7-bc9a-3257eac0b8cc" d="m50.55,44.57c-.57.31-1.18.35-1.69-.06s-.71-.67-.98-1.41c0-.03-.03-.05-.05-.06l-.64-.33c-.51-.28-.93-.99-.94-1.58,0-.59.4-.84.91-.56l.62.32s.07,0,.09-.02c.27-.43.74-.55,1.31-.24s1.09,1.01,1.37,1.79l.67.35c.51.28.93.99.94,1.58,0,.59-.4.84-.91.56l-.65-.34s-.02-.02-.05,0Z"/><path class="uuid-5fe8edbe-403b-483c-93e3-b194751a1793" d="m47.8,40.9s.05,0,.07-.03c.18-.28.45-.43.77-.41l-.74.43s-.06.02-.1.01Z"/><path class="uuid-40a4e1c8-58e4-4dc5-81b7-29a669e09b20" d="m48.63,40.46c.16,0,.3.04.54.17.58.32,1.09,1.01,1.37,1.79l.67.35c.51.28.93.99.94,1.58,0,.05,0,.1,0,.15l-.1-.05-.65-.34s-.04,0-.06,0l-.76.44h0c-.17,0-.75-.37-.92-.5-.48-.38-.71-.66-.98-1.4-.01-.03-.04-.06-.07-.08l-.63-.33c-.51-.28-.94-.94-.94-1.73l.11.05.61.32s.08.02.12,0l.74-.43Z"/><path class="uuid-ab273c7f-082b-48ad-bde6-2be936d80db5" d="m55.3,45.52c0,4.56,2.59,6.66,6.01,4.69,3.42-1.98,6.19-7.27,6.19-11.84,0-3.91-2.04-6-4.78-5.27-.66.19-1.32.44-2.52,1.41,0,0-4.91,4.27-4.91,11.01Zm5.1-10.57l1.05-.82,1.54-.45.59.31c.45.25.81.86.82,1.38,0,.52-.57,1.11-1.5.63l-.25-.13s-.03,0-.04,0c-.35.22-.82.42-1.32.15-.39-.22-.65-.58-.91-1.06Zm-4.19,12.75c-.27-.74-.51-2.01-.51-2.01l.34-.58,2.37,3.02c-.02.29-.07.47-.32.6-.3.16-.77.16-1.2.03,0,0-.42-.33-.69-1.06Z"/><path class="uuid-aa03b0e8-6af3-43ac-820e-1b259b33fb5d" d="m55.11,45.52c0,4.56,2.77,6.66,6.19,4.68,3.42-1.98,6.19-7.27,6.19-11.84,0-3.91-2.04-6-4.78-5.28-1.01.45-1.37.64-2.52,1.42,0,0-5.09,5.4-5.09,11.01Zm5.29-10.57l1.05-.82,1.54-.45.59.31c.45.25.81.86.82,1.38,0,.52-.57,1.11-1.5.63l-.25-.13s-.03,0-.04,0c-.36.22-.82.42-1.32.15-.39-.22-.65-.58-.91-1.06Zm-4.19,12.75c-.27-.74-.51-2.01-.51-2.01l.31-.52c0-.13,0-.24,0-.29,1.15.23,1.34,1.14,1.37,1.46,0,.06.05.12.11.14.81.31,1.5,1.14.82,2.08,0,0,0,0,0,0,0,0,0,0,0,0,0,0,0,0,0,0-.05.06-.11.11-.19.16-.3.16-.77.16-1.2.03,0,0-.42-.33-.69-1.06Z"/><path class="uuid-9dfeeeda-49cc-465a-82c0-8e3e35ed24ce" d="m57.48,46.48c.82.32,1.51,1.15.8,2.09.11-.28-.12-.85-.84-1.17-.05-.02-.08-.07-.08-.12v-.42s-.47-.81-1.35-.93c-.02-.15-.01-.9-.02-1.06,1.15.23,1.34,1.14,1.37,1.46,0,.07.05.12.11.15Z"/><path class="uuid-749dba0b-ec2f-4972-9406-71213b22d859" d="m55.11,45.52c0-4.56,2.77-9.86,6.19-11.83,3.42-1.97,6.19.12,6.19,4.68,0,4.56-2.77,9.86-6.19,11.83-3.42,1.97-6.19-.12-6.19-4.68h0Zm.92-.61c-.17,4.04,2.03,6,4.91,4.37,2.88-1.63,5.36-6.23,5.54-10.28.17-4.04-2.03-6-4.91-4.37-2.89,1.63-5.36,6.23-5.54,10.28h0Z"/></svg>