<svg id="f932216b-14e8-48af-a412-0a9fcbf999f3" data-name="Layer 1" xmlns="http://www.w3.org/2000/svg" xmlns:xlink="http://www.w3.org/1999/xlink" width="68" height="64" viewBox="0 0 68 64"><defs><style>.e4c05e95-b49d-41f9-9b81-3c8cd17b96ce{fill:url(#bc09758a-ca4f-4237-be74-ec634abc25e9);}.b4b3d388-51f8-4888-8cdd-e5d9be03e507{fill:url(#b0bcdba4-6126-47c8-bdd5-50ebea3d8616);}.bcc5f9bf-4b81-49fb-91d4-663790dc2527{fill:url(#f2f83148-b348-4602-83a4-7d5595d7db09);}.aff05498-38d0-4521-9020-1d0192531843{fill:url(#b3aa6f10-34cc-49e7-a633-44286188632a);}.ad87fad4-04bf-415c-89ef-6ce438ba321c{fill:#333332;}.a2f44f8a-659e-4676-9542-c464fc9d44d6{fill:url(#b619dedd-1ab0-495c-b045-8a4971f1cff7);}.e3ef7c1d-a3c0-4be3-bec4-1cc770ee9877{fill:#3c3c3b;}.bda0c774-2c81-4cc6-b57a-14b369422d9a{fill:#c6c6c5;}.a24dde6f-ad91-4671-b1ef-d157e36ea3fd{fill:url(#fc19fee9-cc4a-4bd6-b453-e27f0f5cb40d);}.a576aa68-3da7-4f25-b2f1-4d78c9b27470{fill:url(#abd0369b-cb74-4eab-a492-cf235594fe5d);}.a5bf70cf-35f0-4f3c-8617-b42914a12a46{fill:url(#b1526a42-7574-4dc8-83e8-6429382c8dde);}.b24d6b13-5617-45ba-95c1-77133010ed8d{fill:url(#b28f87d9-775c-4e99-bb13-af586468c009);}.aae99753-dabb-4ad5-be15-a91d58756793{fill:url(#b6a8bb6b-1204-42b8-9ca9-0c9c0c01e573);}.be2eb8d8-258b-441b-954d-3b6c7d8a868a{fill:url(#a5e9f5a3-abbd-4f67-b72a-b50f2f4a5fe2);}.adfce8f9-1a7f-4b96-96ba-047bea7d61cb{fill:url(#a77829fb-1bb5-44c6-a881-88ba47d3d1cd);}.ab8b04d6-70aa-48ed-90d0-49311a950ffa{fill:url(#f381c435-e4d2-4810-b43f-2d8a170bcb84);}.ab5f0a3f-bc40-4e6b-9103-0db9a39a0746{fill:url(#fd589fab-d6f0-42b3-84fe-31058aae25bf);}.a66fa243-ccc8-4d4c-9e6c-28d8fd78bdad{fill:url(#bd435ca6-8324-40af-b499-132334d3eb6f);}.b33886b0-39c1-46f2-8d9b-5b1c892eaeae{fill:url(#b7791b08-dd5f-4e50-9ef0-0a879afba833);}.a8a2b1ca-befd-44eb-89ec-fe8fa5aaddef{fill:url(#a4e5fb55-ce69-4ba5-9300-7d6a3ee95ac9);}.b7b19d8c-2ae9-4fa0-bddc-c8d3da76c2bc{fill:url(#ac62997c-b172-4e37-9771-a0429bfb7689);}.ff10acb0-c389-4280-9c64-60bd37eec9b9{fill:url(#fb03b121-c2dd-41b0-8ed7-5daab27e2961);}.a3d0dad1-a1c7-4bf1-98ac-29d5b869b1e5{fill:url(#b0c9525f-aefc-48dc-81b6-228bca30fcfb);}.eac6ed48-7926-45be-8332-f91a1b55a2ca{fill:url(#f9c78436-7bc0-4a65-8a8a-896b10200471);}.a07c01a4-61ee-40e7-ab46-5cc7dc538be4{fill:url(#ada3f5cf-d649-4efa-96a0-bd589bf9564f);}.a95bba35-ab24-49c1-871d-0134b3c99bce{fill:url(#e64ad651-ea18-4691-a2cb-13bcf63c3118);}.a9d7e6c1-220c-4928-be5b-0fae8949bca9{fill:url(#bdad3b57-4742-478b-ac05-24debbc67193);}.beff12f2-9312-4c81-9a1b-8ee3336ac3cc{fill:url(#bc276af7-802e-4dc5-a340-c721b4fcd92c);}.e036e0e0-edac-45c8-bfe6-77f3db25d504{fill:url(#aba8a8e5-76f7-466f-8421-c1c347555352);}.fbd2c8e5-f065-4fb5-a8e2-d81f3c9537e8{fill:url(#ae028443-9097-4dd7-bcc3-8e70e2a08c11);}.b563021a-41f4-4528-84d6-a8f960a711ba{fill:url(#a834f9f4-71b9-4b0f-ae99-2d7ce61fe4e0);}.b16bc333-7b98-4ec8-b740-98237c938b5f{fill:url(#e798265f-de3c-438f-acd9-f18eac448d3d);}</style><linearGradient id="bc09758a-ca4f-4237-be74-ec634abc25e9" x1="283.95" y1="37.51" x2="294.52" y2="19.19" gradientTransform="matrix(-1, 0, 0, 1, 340.88, 0)" gradientUnits="userSpaceOnUse"><stop offset="0" stop-color="#3c3c3b"/><stop offset="0.38" stop-color="#6f6f6e"/><stop offset="0.71" stop-color="#9c9b9b"/><stop offset="1" stop-color="#868686"/></linearGradient><linearGradient id="b0bcdba4-6126-47c8-bdd5-50ebea3d8616" x1="34.13" y1="28.91" x2="34.13" y2="48.41" gradientUnits="userSpaceOnUse"><stop offset="0" stop-color="#b1b1b1"/><stop offset="0.5" stop-color="#6f6f6e"/><stop offset="1" stop-color="#3c3c3b"/></linearGradient><linearGradient id="f2f83148-b348-4602-83a4-7d5595d7db09" x1="281.35" y1="13.03" x2="275.23" y2="28.19" gradientTransform="matrix(-1, 0, 0, 1, 340.88, 0)" gradientUnits="userSpaceOnUse"><stop offset="0" stop-color="#575756"/><stop offset="0.35" stop-color="#868686"/><stop offset="0.65" stop-color="#6f6f6e"/><stop offset="1" stop-color="#3c3c3b"/></linearGradient><linearGradient id="b3aa6f10-34cc-49e7-a633-44286188632a" x1="65.54" y1="32.04" x2="66.49" y2="27.29" gradientTransform="translate(-5.1)" gradientUnits="userSpaceOnUse"><stop offset="0" stop-color="#868686"/><stop offset="0.35" stop-color="#9c9b9b"/><stop offset="0.65" stop-color="#6f6f6e"/><stop offset="1" stop-color="#3c3c3b"/></linearGradient><linearGradient id="b619dedd-1ab0-495c-b045-8a4971f1cff7" x1="68.86" y1="16.8" x2="62.68" y2="18.06" gradientTransform="translate(-10.25)" gradientUnits="userSpaceOnUse"><stop offset="0" stop-color="#868686"/><stop offset="1" stop-color="#c6c6c5"/></linearGradient><linearGradient id="fc19fee9-cc4a-4bd6-b453-e27f0f5cb40d" x1="26.34" y1="39.99" x2="22.53" y2="62.42" gradientUnits="userSpaceOnUse"><stop offset="0" stop-color="#3c3c3b"/><stop offset="1" stop-color="#6f6f6e"/></linearGradient><linearGradient id="abd0369b-cb74-4eab-a492-cf235594fe5d" x1="41.69" y1="39.29" x2="45.21" y2="67.59" xlink:href="#fc19fee9-cc4a-4bd6-b453-e27f0f5cb40d"/><linearGradient id="b1526a42-7574-4dc8-83e8-6429382c8dde" x1="284.11" y1="40.52" x2="296.2" y2="61.43" gradientTransform="matrix(-1, 0, 0, 1, 340.84, 0)" xlink:href="#b3aa6f10-34cc-49e7-a633-44286188632a"/><linearGradient id="b28f87d9-775c-4e99-bb13-af586468c009" x1="275" y1="47.12" x2="285.81" y2="65.82" gradientTransform="matrix(-1, 0, 0, 1, 340.84, 0)" gradientUnits="userSpaceOnUse"><stop offset="0.16" stop-color="#3c3c3b"/><stop offset="0.64" stop-color="#6f6f6e"/><stop offset="0.89" stop-color="#9c9b9b"/></linearGradient><linearGradient id="b6a8bb6b-1204-42b8-9ca9-0c9c0c01e573" x1="275.01" y1="57.55" x2="285.8" y2="51.32" gradientTransform="matrix(-1, 0, 0, 1, 340.84, 0)" gradientUnits="userSpaceOnUse"><stop offset="0" stop-color="#1d1d1b" stop-opacity="0"/><stop offset="1" stop-color="#1d1d1b" stop-opacity="0.6"/></linearGradient><linearGradient id="a5e9f5a3-abbd-4f67-b72a-b50f2f4a5fe2" x1="280.32" y1="46.5" x2="276.91" y2="49.54" gradientTransform="matrix(-1, 0, 0, 1, 340.84, 0)" xlink:href="#b619dedd-1ab0-495c-b045-8a4971f1cff7"/><linearGradient id="a77829fb-1bb5-44c6-a881-88ba47d3d1cd" x1="276.17" y1="45.17" x2="288.93" y2="64.28" gradientTransform="matrix(-1, 0, 0, 1, 340.84, 0)" gradientUnits="userSpaceOnUse"><stop offset="0" stop-color="#868686"/><stop offset="0.35" stop-color="#b1b1b1"/><stop offset="0.65" stop-color="#6f6f6e"/><stop offset="1" stop-color="#3c3c3b"/></linearGradient><linearGradient id="f381c435-e4d2-4810-b43f-2d8a170bcb84" x1="290.93" y1="41.33" x2="284.75" y2="42.59" gradientTransform="matrix(-1, 0, 0, 1, 340.84, 0)" xlink:href="#b619dedd-1ab0-495c-b045-8a4971f1cff7"/><linearGradient id="fd589fab-d6f0-42b3-84fe-31058aae25bf" x1="292.78" y1="56.27" x2="293.73" y2="51.52" gradientTransform="matrix(-1, 0, 0, 1, 340.84, 0)" xlink:href="#b3aa6f10-34cc-49e7-a633-44286188632a"/><linearGradient id="bd435ca6-8324-40af-b499-132334d3eb6f" x1="-36.79" y1="40.52" x2="-24.71" y2="61.43" gradientTransform="translate(48.07)" xlink:href="#b3aa6f10-34cc-49e7-a633-44286188632a"/><linearGradient id="b7791b08-dd5f-4e50-9ef0-0a879afba833" x1="-45.9" y1="47.12" x2="-35.09" y2="65.82" gradientTransform="translate(48.07)" xlink:href="#b28f87d9-775c-4e99-bb13-af586468c009"/><linearGradient id="a4e5fb55-ce69-4ba5-9300-7d6a3ee95ac9" x1="-45.89" y1="57.55" x2="-35.1" y2="51.32" gradientTransform="translate(48.07)" xlink:href="#b6a8bb6b-1204-42b8-9ca9-0c9c0c01e573"/><linearGradient id="ac62997c-b172-4e37-9771-a0429bfb7689" x1="-40.59" y1="46.5" x2="-44" y2="49.54" gradientTransform="translate(48.07)" xlink:href="#b619dedd-1ab0-495c-b045-8a4971f1cff7"/><linearGradient id="fb03b121-c2dd-41b0-8ed7-5daab27e2961" x1="-44.73" y1="45.17" x2="-31.98" y2="64.28" gradientTransform="translate(48.07)" xlink:href="#a77829fb-1bb5-44c6-a881-88ba47d3d1cd"/><linearGradient id="b0c9525f-aefc-48dc-81b6-228bca30fcfb" x1="-29.98" y1="41.33" x2="-36.15" y2="42.59" gradientTransform="translate(48.07)" xlink:href="#b619dedd-1ab0-495c-b045-8a4971f1cff7"/><linearGradient id="f9c78436-7bc0-4a65-8a8a-896b10200471" x1="-28.13" y1="56.27" x2="-27.17" y2="51.52" gradientTransform="translate(48.07)" xlink:href="#b3aa6f10-34cc-49e7-a633-44286188632a"/><linearGradient id="ada3f5cf-d649-4efa-96a0-bd589bf9564f" x1="24.24" y1="17.19" x2="43.84" y2="17.19" gradientUnits="userSpaceOnUse"><stop offset="0" stop-color="#6f6f6e"/><stop offset="0.45" stop-color="#9c9b9b"/><stop offset="1" stop-color="#6f6f6e"/></linearGradient><linearGradient id="e64ad651-ea18-4691-a2cb-13bcf63c3118" x1="25.88" y1="8.11" x2="47.16" y2="8.11" gradientUnits="userSpaceOnUse"><stop offset="0" stop-color="#868686"/><stop offset="0.39" stop-color="#c6c6c5"/><stop offset="1" stop-color="#6f6f6e"/></linearGradient><linearGradient id="bdad3b57-4742-478b-ac05-24debbc67193" x1="42.14" y1="14.13" x2="41.04" y2="19.48" gradientTransform="matrix(1, 0, 0, 1, 0, 0)" xlink:href="#b619dedd-1ab0-495c-b045-8a4971f1cff7"/><linearGradient id="bc276af7-802e-4dc5-a340-c721b4fcd92c" x1="41.7" y1="11.55" x2="40.78" y2="7.22" gradientTransform="matrix(1, 0, 0, 1, 0, 0)" xlink:href="#f2f83148-b348-4602-83a4-7d5595d7db09"/><linearGradient id="aba8a8e5-76f7-466f-8421-c1c347555352" x1="347.83" y1="11.55" x2="346.9" y2="7.22" gradientTransform="matrix(-1, 0, 0, 1, 374.11, 0)" xlink:href="#f2f83148-b348-4602-83a4-7d5595d7db09"/><linearGradient id="ae028443-9097-4dd7-bcc3-8e70e2a08c11" x1="25.4" y1="5.65" x2="42.57" y2="5.65" xlink:href="#ada3f5cf-d649-4efa-96a0-bd589bf9564f"/><linearGradient id="a834f9f4-71b9-4b0f-ae99-2d7ce61fe4e0" x1="33.98" y1="0.68" x2="33.98" y2="10.63" gradientUnits="userSpaceOnUse"><stop offset="0.36" stop-color="#1d1d1b" stop-opacity="0"/><stop offset="1" stop-color="#1d1d1b" stop-opacity="0.6"/></linearGradient><linearGradient id="e798265f-de3c-438f-acd9-f18eac448d3d" x1="349.3" y1="14.13" x2="348.21" y2="19.48" gradientTransform="matrix(-1, 0, 0, 1, 375.1, 0)" xlink:href="#b619dedd-1ab0-495c-b045-8a4971f1cff7"/></defs><title>cs4-scaled</title><path class="e4c05e95-b49d-41f9-9b81-3c8cd17b96ce" d="M63.59,33.57a3.48,3.48,0,0,0,.48-.21,7.54,7.54,0,0,0,3-4.34,8.39,8.39,0,0,0,.42-2.76c0-4.57-2.77-9.86-6.19-11.84a4.87,4.87,0,0,0-2.48-.74,7.36,7.36,0,0,0-3.43.32,3.37,3.37,0,0,0-.9.6C50.14,17.14,39.15,23.4,38.05,24c-1.49.83-2.44,2.8-2.44,5.62,0,5.1,3.09,11,6.91,13.22,1.84,1.06,3.51,1.07,4.75.22S59.5,36,63.59,33.57Z"/><path class="b4b3d388-51f8-4888-8cdd-e5d9be03e507" d="M36.88,55.22a8.7,8.7,0,0,0-5.76,0c1.66-1,2.49-3.43,2.49-6.64,0-6-3.55-12.43-8.08-15-2.18-1.26-4-1.85-5.44-.85a8.14,8.14,0,0,0,2.33-4.48c0,1.68,1.18,3.34,3.4,4.62,4.53,2.62,11.87,2.62,16.4,0,2.22-1.28,3.35-2.95,3.39-4.64a9.61,9.61,0,0,0,2.56,4.62c-1.58-1.12-3.23-.75-5.49.55-4.53,2.61-8.3,9.15-8.3,15.19,0,3.29.79,5.69,2.51,6.7Z"/><path class="bcc5f9bf-4b81-49fb-91d4-663790dc2527" d="M56.16,13.76a8.77,8.77,0,0,1,2.64-.08,4.87,4.87,0,0,1,2.48.74c3.42,2,6.19,7.27,6.19,11.84A8.39,8.39,0,0,1,67.05,29a8.38,8.38,0,0,1-2.33,3.88,8.36,8.36,0,0,0,1.08-4.45c0-5.34-3.25-11.54-7.25-13.85a6.2,6.2,0,0,0-2.39-.84Z"/><path class="aff05498-38d0-4521-9020-1d0192531843" d="M59.5,32.37a.79.79,0,0,0,1.17.25,2.93,2.93,0,0,0,1.19-1.56l.59-.3a1.8,1.8,0,0,0,.82-1.38c0-.52-.35-.74-.8-.49l-.59.31a.79.79,0,0,0-1.16-.26,2.92,2.92,0,0,0-1.19,1.56l-.59.31a1.74,1.74,0,0,0-.82,1.38c0,.51.35.73.79.49l.59-.31Z"/><path class="ad87fad4-04bf-415c-89ef-6ce438ba321c" d="M61.5,29a.55.55,0,0,0-.13-.17,1,1,0,0,0-.65.13,2.92,2.92,0,0,0-1.19,1.56l-.59.31a1.74,1.74,0,0,0-.82,1.38.64.64,0,0,0,.09.36.68.68,0,0,0,.32-.09l.59-.31.38.22a.73.73,0,0,0,.14.16,1,1,0,0,0,.65-.13,2.93,2.93,0,0,0,1.19-1.56l.59-.3a1.8,1.8,0,0,0,.82-1.38.7.7,0,0,0-.09-.37,1,1,0,0,0-.33.1l-.59.31Z"/><path class="a2f44f8a-659e-4676-9542-c464fc9d44d6" d="M53.73,18.76a3,3,0,0,0,1.87-.27c.51-.28.69-.69.53-1.06l.62-.33c.45-.25.51-.64.14-.87a1.68,1.68,0,0,0-1.51.06l-.61.32a3.05,3.05,0,0,0-1.86.27c-.51.29-.69.7-.54,1.07l-.61.32c-.46.26-.52.64-.14.87a1.69,1.69,0,0,0,1.5-.05l.61-.33Z"/><path class="e3ef7c1d-a3c0-4be3-bec4-1cc770ee9877" d="M55.38,16.72l-.61.33a3.05,3.05,0,0,0-1.86.27,1.15,1.15,0,0,0-.55.6,0,0,0,0,1,0,0h0a.58.58,0,0,0,0,.43l-.61.32a.75.75,0,0,0-.3.28.47.47,0,0,0,.16.15,1.69,1.69,0,0,0,1.5-.05l.61-.33a3,3,0,0,0,1.87-.27,1.09,1.09,0,0,0,.54-.6,0,0,0,0,0,0,0h0a.63.63,0,0,0,0-.43l.62-.33a.89.89,0,0,0,.3-.27.61.61,0,0,0-.16-.16A1.71,1.71,0,0,0,55.38,16.72Z"/><path class="bda0c774-2c81-4cc6-b57a-14b369422d9a" d="M25.79,23.34c4.53-2.62,11.87-2.62,16.4,0s4.53,6.86,0,9.47-11.87,2.62-16.4,0-4.53-6.86,0-9.47Z"/><path class="a24dde6f-ad91-4671-b1ef-d157e36ea3fd" d="M33.89,48.6c0-6-3.68-13.06-8.21-15.67s-8.2.16-8.2,6.2,3.67,13,8.2,15.67,8.21-.16,8.21-6.2Z"/><path class="a576aa68-3da7-4f25-b2f1-4d78c9b27470" d="M34.06,48.6c0-6,3.67-13.06,8.2-15.67s8.2.16,8.2,6.2-3.67,13-8.2,15.67-8.2-.16-8.2-6.2Z"/><path class="a5bf70cf-35f0-4f3c-8617-b42914a12a46" d="M67.07,48.6a7.54,7.54,0,0,0-3-4.34C60,41.82,48.53,35.39,47.3,34.54s-2.92-.83-4.75.23C38.73,37,35.63,42.89,35.63,48c0,2.82,1,4.72,2.45,5.63,1.26.79,12.66,7.3,17,9.84,0,0,0,0,0,0a3.62,3.62,0,0,0,.33.2,7.4,7.4,0,0,0,3.44.32h-.1a4.77,4.77,0,0,0,2.57-.73c3.42-2,6.2-7.28,6.2-11.84A10,10,0,0,0,67.07,48.6ZM60.91,47c.13-.09.26-.2.39-.28a5.75,5.75,0,0,1,1.42-.58,3,3,0,0,1,.27.57l.59.31a1.77,1.77,0,0,1,.82,1.38.73.73,0,0,1-.09.36.65.65,0,0,1-.33-.1l-.59-.3c-.45.25-.44.26-.37.22s-.1.11-.14.16a.94.94,0,0,1-.65-.13A2.92,2.92,0,0,1,61,47Z"/><path class="b24d6b13-5617-45ba-95c1-77133010ed8d" d="M60.58,47.19l.08,0a2.92,2.92,0,0,0,1.19,1.56A.79.79,0,0,0,63,48.54l.58.3c.45.25.8,0,.8-.48A1.77,1.77,0,0,0,63.58,47L63,46.67a3.83,3.83,0,0,0-.27-.58c2.73-.73,4.78,1.36,4.78,5.27,0,4.56-2.78,9.86-6.2,11.84s-6.19-.12-6.19-4.68A15.22,15.22,0,0,1,60.58,47.19Z"/><path class="aae99753-dabb-4ad5-be15-a91d58756793" d="M60.58,47.19l.08,0a2.92,2.92,0,0,0,1.19,1.56A.79.79,0,0,0,63,48.54l.58.3c.45.25.8,0,.8-.48A1.77,1.77,0,0,0,63.58,47L63,46.67a3.83,3.83,0,0,0-.27-.58c2.73-.73,4.78,1.36,4.78,5.27,0,4.56-2.78,9.86-6.2,11.84s-6.19-.12-6.19-4.68A15.22,15.22,0,0,1,60.58,47.19Z"/><path class="be2eb8d8-258b-441b-954d-3b6c7d8a868a" d="M63.39,48.32c-.45.25-.44.26-.37.22l.58.3c.32.18.58.11.71-.12a.65.65,0,0,1-.33-.1ZM60.91,47l-.33.23.08,0a2.92,2.92,0,0,0,1.19,1.56.8.8,0,0,0,1-.09.94.94,0,0,1-.65-.13A2.92,2.92,0,0,1,61,47Z"/><path class="adfce8f9-1a7f-4b96-96ba-047bea7d61cb" d="M52.72,57.88c0-5.09,3.1-11,6.92-13.21a4.42,4.42,0,0,1,4.45-.41,7.54,7.54,0,0,1,3,4.34c-.9-2.56-3.14-3.44-5.77-1.92-3.42,2-6.19,7.27-6.19,11.84,0,3.38,1.53,5.41,3.72,5.42a7.4,7.4,0,0,1-3.44-.32c-1.62-.75-2.67-2.78-2.67-5.74Z"/><path class="ab8b04d6-70aa-48ed-90d0-49311a950ffa" d="M54.79,43.3A3,3,0,0,1,52.93,43c-.51-.28-.69-.69-.54-1.06l-.61-.33c-.46-.25-.52-.64-.14-.86a1.63,1.63,0,0,1,1.5,0l.62.32a3,3,0,0,1,1.86.28c.51.28.69.69.54,1.06l.61.33c.45.25.52.64.14.86a1.68,1.68,0,0,1-1.51-.05l-.61-.32Z"/><path class="e3ef7c1d-a3c0-4be3-bec4-1cc770ee9877" d="M53.14,41.26l.62.32a3.05,3.05,0,0,1,1.86.27,1.09,1.09,0,0,1,.54.6v0h0a.64.64,0,0,1,0,.43l.61.32a.82.82,0,0,1,.3.28.58.58,0,0,1-.16.15,1.68,1.68,0,0,1-1.51-.05l-.61-.32A3,3,0,0,1,52.93,43a1,1,0,0,1-.54-.59v0h0a.64.64,0,0,1,0-.43l-.61-.33a.73.73,0,0,1-.3-.27.39.39,0,0,1,.16-.15A1.63,1.63,0,0,1,53.14,41.26Z"/><path class="ab5f0a3f-bc40-4e6b-9103-0db9a39a0746" d="M49,56.59a.8.8,0,0,1-1.17.26,3,3,0,0,1-1.19-1.56L46.05,55a1.77,1.77,0,0,1-.82-1.38c0-.51.35-.73.8-.48l.59.3a.78.78,0,0,1,1.16-.25A2.93,2.93,0,0,1,49,54.73l.59.3a1.75,1.75,0,0,1,.82,1.38c0,.52-.35.74-.79.49L49,56.59Z"/><path class="ad87fad4-04bf-415c-89ef-6ce438ba321c" d="M47,53.2a.65.65,0,0,1,.13-.16,1,1,0,0,1,.65.13A2.93,2.93,0,0,1,49,54.73l.59.3a1.75,1.75,0,0,1,.82,1.38.68.68,0,0,1-.09.37.65.65,0,0,1-.33-.1l-.58-.3-.38.21a.79.79,0,0,1-.14.17,1,1,0,0,1-.65-.13A3,3,0,0,1,47,55.07l-.59-.31a1.77,1.77,0,0,1-.82-1.38A.73.73,0,0,1,45.7,53a.65.65,0,0,1,.33.1l.59.3Z"/><path class="a66fa243-ccc8-4d4c-9e6c-28d8fd78bdad" d="M.5,51.36c0,4.56,2.78,9.86,6.2,11.84a4.8,4.8,0,0,0,2.57.73H9.18a7.38,7.38,0,0,0,3.43-.32,3.62,3.62,0,0,0,.33-.2s.05,0,0,0c4.33-2.54,15.72-9,17-9.83,1.44-.91,2.44-2.81,2.44-5.63,0-5.09-3.1-11-6.91-13.21-1.84-1.06-3.51-1.07-4.75-.23S8,41.82,3.91,44.26a7.54,7.54,0,0,0-3,4.34A10,10,0,0,0,.5,51.36ZM7,47a2.92,2.92,0,0,1-1.19,1.56.94.94,0,0,1-.65.13A1,1,0,0,1,5,48.54c.06,0,.07,0-.38-.22l-.59.3a.65.65,0,0,1-.33.1.73.73,0,0,1-.09-.36A1.77,1.77,0,0,1,4.42,47L5,46.67a3,3,0,0,1,.27-.57,5.75,5.75,0,0,1,1.42.58c.13.08.26.19.39.28Z"/><path class="b33886b0-39c1-46f2-8d9b-5b1c892eaeae" d="M7.42,47.19l-.08,0a2.92,2.92,0,0,1-1.19,1.56A.78.78,0,0,1,5,48.54l-.59.3c-.45.25-.81,0-.8-.48A1.77,1.77,0,0,1,4.42,47L5,46.67a5.14,5.14,0,0,1,.27-.58C2.55,45.36.5,47.45.5,51.36c0,4.56,2.78,9.86,6.2,11.84s6.19-.12,6.19-4.68A15.19,15.19,0,0,0,7.42,47.19Z"/><path class="a8a2b1ca-befd-44eb-89ec-fe8fa5aaddef" d="M7.42,47.19l-.08,0a2.92,2.92,0,0,1-1.19,1.56A.78.78,0,0,1,5,48.54l-.59.3c-.45.25-.81,0-.8-.48A1.77,1.77,0,0,1,4.42,47L5,46.67a5.14,5.14,0,0,1,.27-.58C2.55,45.36.5,47.45.5,51.36c0,4.56,2.78,9.86,6.2,11.84s6.19-.12,6.19-4.68A15.19,15.19,0,0,0,7.42,47.19Z"/><path class="b7b19d8c-2ae9-4fa0-bddc-c8d3da76c2bc" d="M4,48.62a.65.65,0,0,1-.33.1c.13.23.39.3.71.12l.59-.3c.06,0,.07,0-.38-.22ZM7,47a2.92,2.92,0,0,1-1.19,1.56.94.94,0,0,1-.65.13.8.8,0,0,0,1,.09,2.92,2.92,0,0,0,1.19-1.56l.08,0L7.09,47Z"/><path class="ff10acb0-c389-4280-9c64-60bd37eec9b9" d="M15.28,57.88c0-5.09-3.1-11-6.92-13.21a4.42,4.42,0,0,0-4.45-.41,7.54,7.54,0,0,0-3,4.34c.9-2.56,3.14-3.44,5.77-1.92,3.42,2,6.19,7.27,6.19,11.84,0,3.38-1.53,5.41-3.71,5.42a7.38,7.38,0,0,0,3.43-.32c1.62-.75,2.67-2.78,2.67-5.74Z"/><path class="a3d0dad1-a1c7-4bf1-98ac-29d5b869b1e5" d="M13.21,43.3A3,3,0,0,0,15.07,43c.51-.28.69-.69.54-1.06l.61-.33c.45-.25.52-.64.14-.86a1.63,1.63,0,0,0-1.5,0l-.62.32a3,3,0,0,0-1.86.28c-.51.28-.69.69-.54,1.06l-.61.33c-.45.25-.52.64-.14.86a1.68,1.68,0,0,0,1.51-.05l.61-.32Z"/><path class="e3ef7c1d-a3c0-4be3-bec4-1cc770ee9877" d="M14.86,41.26l-.62.32a3.07,3.07,0,0,0-1.86.27,1.09,1.09,0,0,0-.54.6v0h0a.7.7,0,0,0,0,.43l-.61.32a.91.91,0,0,0-.3.28.58.58,0,0,0,.16.15,1.68,1.68,0,0,0,1.51-.05l.61-.32A3,3,0,0,0,15.07,43a1,1,0,0,0,.54-.59v0h0a.64.64,0,0,0,0-.43l.61-.33a.73.73,0,0,0,.3-.27.39.39,0,0,0-.16-.15A1.63,1.63,0,0,0,14.86,41.26Z"/><path class="eac6ed48-7926-45be-8332-f91a1b55a2ca" d="M19,56.59a.8.8,0,0,0,1.17.26,3,3,0,0,0,1.19-1.56L22,55a1.75,1.75,0,0,0,.82-1.38c0-.51-.35-.73-.8-.48l-.58.3a.79.79,0,0,0-1.17-.25A2.93,2.93,0,0,0,19,54.73l-.59.3a1.78,1.78,0,0,0-.82,1.38c0,.52.35.74.79.49l.59-.31Z"/><path class="ad87fad4-04bf-415c-89ef-6ce438ba321c" d="M21,53.2a1.07,1.07,0,0,0-.14-.16,1,1,0,0,0-.65.13A2.93,2.93,0,0,0,19,54.73l-.59.3a1.78,1.78,0,0,0-.82,1.38.68.68,0,0,0,.09.37.6.6,0,0,0,.32-.1l.59-.3.38.21a.79.79,0,0,0,.14.17,1,1,0,0,0,.65-.13A3,3,0,0,0,21,55.07l.59-.31a1.75,1.75,0,0,0,.82-1.38A.73.73,0,0,0,22.3,53a.65.65,0,0,0-.33.1l-.58.3Z"/><path class="a07c01a4-61ee-40e7-ab46-5cc7dc538be4" d="M25.7,7a1.69,1.69,0,0,1,.63-1.15.46.46,0,0,1,.23-.08,1,1,0,0,1,.13.46l0,.75a.7.7,0,0,1,.38.2v0l.05,0a1.36,1.36,0,0,1,.31.86,2.74,2.74,0,0,1-.07.69l-.07.06a6,6,0,0,1-.84-.71M25.72,4.3a7.08,7.08,0,0,0-1.48,3.46,2.19,2.19,0,0,0,0,.51,0,0,0,0,1,0,0c0,5.21,0,18.33,0,19.73s.91,3,2.86,4.08a15.25,15.25,0,0,0,13.83,0c2-1.16,3-2.7,2.86-4.22-.1-1.37.05-16.48.05-19.73a1.5,1.5,0,0,0,0-.37s0,0,0,.07A7.11,7.11,0,0,0,41,2.72c.07,0,.1.1.16.15a7.27,7.27,0,0,0-1.05-.76,13.46,13.46,0,0,0-12.19.05A5.15,5.15,0,0,0,25.72,4.3ZM40.58,8.76a3.09,3.09,0,0,1-.06-.67,1.25,1.25,0,0,1,.31-.86l0,0v0a.74.74,0,0,1,.38-.2l0-.75a1,1,0,0,1,.13-.46.42.42,0,0,1,.22.08,1.62,1.62,0,0,1,.6,1A4.84,4.84,0,0,1,40.58,8.76ZM25.75,7.11a4.06,4.06,0,0,0,.72,1A4.06,4.06,0,0,1,25.75,7.11Z"/><path class="a95bba35-ab24-49c1-871d-0134b3c99bce" d="M24.24,7.76A7.08,7.08,0,0,1,25.72,4.3c-.86,1.69-.16,3.58,2.13,4.89A13.44,13.44,0,0,0,40,9.14c3-1.76,3.39-4.49,1-6.42A7.14,7.14,0,0,1,43.8,7.88c0,1.44-1,2.87-2.87,4a15.32,15.32,0,0,1-13.83,0c-2-1.13-2.9-2.61-2.86-4.09Z"/><path class="a9d7e6c1-220c-4928-be5b-0fae8949bca9" d="M42.11,15.36c.42.05.71.45.73,1.1a3.42,3.42,0,0,1-.61,2l.05.76a1.87,1.87,0,0,1-.65,1.5c-.38.24-.71,0-.74-.61l0-.75c-.42,0-.71-.45-.74-1.1a3.49,3.49,0,0,1,.61-2l0-.76a1.84,1.84,0,0,1,.65-1.5c.38-.25.71,0,.74.6l0,.76Z"/><path class="ad87fad4-04bf-415c-89ef-6ce438ba321c" d="M41.73,15.14l0-.75a1,1,0,0,0-.13-.46.41.41,0,0,0-.23.07,1.84,1.84,0,0,0-.65,1.5l0,.76a3.49,3.49,0,0,0-.61,2,1.33,1.33,0,0,0,.31.86l0,0v0a.69.69,0,0,0,.38.19l0,.75a.93.93,0,0,0,.13.46.41.41,0,0,0,.23-.07A1.87,1.87,0,0,0,41.9,19l0-.76a3.57,3.57,0,0,0,.61-2,1.28,1.28,0,0,0-.32-.86Z"/><path class="beff12f2-9312-4c81-9a1b-8ee3336ac3cc" d="M40.92,6.46l-.05.73a.74.74,0,0,1,.38-.2l0-.75a1,1,0,0,1,.13-.46C41.15,5.75,40.94,6,40.92,6.46Zm-.78,1.85a2.62,2.62,0,0,0,.07.73l.37-.26a3.28,3.28,0,0,1-.06-.69,1.25,1.25,0,0,1,.31-.86C40.44,7.3,40.16,7.68,40.14,8.31Z"/><path class="e036e0e0-edac-45c8-bfe6-77f3db25d504" d="M26.56,5.78a1,1,0,0,1,.13.46l0,.75a.7.7,0,0,1,.38.2l0-.73C27.05,6,26.84,5.75,26.56,5.78Zm.6,1.45a1.36,1.36,0,0,1,.31.86,2.74,2.74,0,0,1-.07.69l.38.26a3.06,3.06,0,0,0,.07-.73C27.82,7.68,27.55,7.3,27.16,7.23Z"/><path class="fbd2c8e5-f065-4fb5-a8e2-d81f3c9537e8" d="M26.47,8.11a4.06,4.06,0,0,1-.72-1A4.06,4.06,0,0,0,26.47,8.11Zm13.65-6a13.46,13.46,0,0,0-12.19.05c-2.29,1.32-3,3.18-2.23,4.85a1.69,1.69,0,0,1,.63-1.15c.38-.25.71,0,.74.6l0,.75c.42,0,.71.45.74,1.1a3.17,3.17,0,0,1-.09.8,6.26,6.26,0,0,1-1.27-1,6.05,6.05,0,0,0,1.36,1.06A13.44,13.44,0,0,0,40,9.14L40.21,9a2.48,2.48,0,0,1-.07-.71c0-.65.32-1.05.73-1.1l.05-.75c0-.58.35-.85.73-.6a1.66,1.66,0,0,1,.61,1C43,5.23,42.35,3.4,40.12,2.11Z"/><path class="b563021a-41f4-4528-84d6-a8f960a711ba" d="M26.47,8.11a4.06,4.06,0,0,1-.72-1A4.06,4.06,0,0,0,26.47,8.11Zm13.65-6a13.46,13.46,0,0,0-12.19.05c-2.29,1.32-3,3.18-2.23,4.85a1.69,1.69,0,0,1,.63-1.15c.38-.25.71,0,.74.6l0,.75c.42,0,.71.45.74,1.1a3.17,3.17,0,0,1-.09.8,6.26,6.26,0,0,1-1.27-1,6.05,6.05,0,0,0,1.36,1.06A13.44,13.44,0,0,0,40,9.14L40.21,9a2.48,2.48,0,0,1-.07-.71c0-.65.32-1.05.73-1.1l.05-.75c0-.58.35-.85.73-.6a1.66,1.66,0,0,1,.61,1C43,5.23,42.35,3.4,40.12,2.11Z"/><path class="b16bc333-7b98-4ec8-b740-98237c938b5f" d="M25.82,15.36c-.41.05-.71.45-.73,1.1a3.42,3.42,0,0,0,.61,2l-.05.76a1.87,1.87,0,0,0,.65,1.5c.39.24.72,0,.74-.61l.05-.75c.41,0,.7-.45.73-1.1a3.42,3.42,0,0,0-.61-2l.05-.76A1.85,1.85,0,0,0,26.6,14c-.38-.25-.71,0-.73.6l-.05.76Z"/><path class="ad87fad4-04bf-415c-89ef-6ce438ba321c" d="M26.2,15.14l.05-.75a.93.93,0,0,1,.13-.46.4.4,0,0,1,.22.07,1.85,1.85,0,0,1,.66,1.5l-.05.76a3.42,3.42,0,0,1,.61,2,1.23,1.23,0,0,1-.31.86l0,0v0a.72.72,0,0,1-.38.19l-.05.75a.93.93,0,0,1-.13.46.43.43,0,0,1-.23-.07A1.87,1.87,0,0,1,26,19l0-.76a3.42,3.42,0,0,1-.61-2,1.23,1.23,0,0,1,.31-.86Z"/></svg>