<svg id="e9f73293-a68f-45e4-8b38-7d6e1b142384" data-name="Layer 1" xmlns="http://www.w3.org/2000/svg" xmlns:xlink="http://www.w3.org/1999/xlink" width="68" height="64" viewBox="0 0 68 64"><defs><style>.af9f278f-0add-4be3-8674-d94781d5c69a{fill:url(#ae30c1d0-2e20-4b7a-83ae-4a15901de2f3);}.b3514345-3091-4dd3-ae26-2983a3d3e9bd{fill:url(#e940e682-d1f5-46f6-835e-e41ad0334d03);}.a26eb383-b063-4a1f-8160-cec682d6fa7e{fill:url(#a86f38da-a274-4a05-8b2b-f318d69beefa);}.afda05f4-3077-4054-bd95-dc2887230cbc{fill:url(#fb311a87-37aa-432a-a2a5-fe5043d5c376);}.f8162d74-3ab6-487b-bd9c-d2833fe55c52{fill:url(#b85064bd-6470-41b6-9b40-7a843c3fae5d);}.afaba87a-634a-4e66-b80c-fa885560e6b0{fill:url(#bbb32502-280e-4d50-9e55-04335de38c85);}.b588d031-fa26-4977-982b-2b5d489c9ebb{fill:#333332;}.e236d65b-3d0c-4310-b890-5a1d0187b6b4{fill:url(#e2868d08-9050-4070-a1c4-52f049511d6e);}.b4f06564-35d0-485c-b75e-1ea190c4d3c6{fill:#3c3c3b;}.a267b363-3965-4dc2-8f31-57eeb49f0596{fill:url(#bfeacb10-179b-482a-96b4-f63d6993df71);}.b0537de7-04f7-436e-beee-5cdbfd40526c{fill:url(#e2b50d88-1586-454c-983d-aad9b0ec5e64);}.e8843212-3fc6-4fc1-90c9-9c4b8263286c{fill:#c6c6c5;}.fadb1835-a594-4a1a-90fe-e0f5e89cd4db{fill:url(#e3aa4e40-93b1-4ae2-9bea-e5d17b94654b);}.bc686110-d403-4a78-9738-06b4f8d09c62{fill:url(#f633c667-7609-40b1-bc6b-fe11eecdb9b2);}.b2804829-6b1a-4b15-88d6-fda4608eb4a1{fill:url(#b44cf188-1d1b-4f63-8e71-c62ec147eab2);}.e96196f5-06a2-48ee-a4ce-6b87826d7fc9{fill:url(#fa3fdfc5-abb6-42d3-a5a5-7a129f7820c9);}.ed145f39-e9b9-4424-99ed-783826242506{fill:url(#f3ae949d-9e6a-49e4-ac20-a184d8a790a1);}.a588bd6a-efe4-4edc-a136-aa937b7b0115{fill:url(#ec628ca1-262d-46c7-b437-4ee18581344e);}.bb8990a2-702a-4bd4-baf9-17bbd436b9aa{fill:url(#afed5a76-1277-4460-a8f3-aaeacdeb0a29);}.bb606cb7-9a95-4e60-8b6f-02abdfa1833d{fill:url(#b85be9e0-2493-4ca5-8986-2505be57efb7);}.e503143d-4a24-4287-9e32-dd3574e8b5c1{fill:url(#b7377dc4-99f4-4e52-a98b-68d6b89c7e9e);}.fb315881-a1d3-444d-a9fe-25739016a6d2{fill:url(#a2166a00-9a83-4449-aa49-fe5a70ac5111);}.b356e8b3-0ab4-4daf-9c7d-df987b768527{fill:url(#af69c88e-2cec-4570-bf3d-fad3a17c5cdf);}.a8a60465-bd52-41cd-b14e-156d5ab080a1{fill:url(#f10c1832-fda1-4ef1-b9d0-e49534d744e4);}.f9ffd9db-b383-4cfa-808f-c551fcb95c5a{fill:url(#a4736d32-28d0-41a6-973d-0bcb9df6bb3e);}.e8e7edbf-9cfa-40fc-b548-a6148a39fd8d{fill:url(#f9a1b577-1ce5-4c8b-8c2a-b5ada90aba00);}.fc8436f1-ea24-40fc-9d6b-2cfb4433031f{fill:url(#e2e0c332-2b2f-4f99-91b3-40b635144f50);}.a9fbf4ea-f1ce-4b4b-a418-a766525d0dd7{fill:url(#a462f396-fe7b-49c3-bb44-831359c34f3a);}.bc954b56-73d3-4247-9f89-5f60082eef33{fill:url(#a0967106-ab0f-4e14-8198-020ef104769e);}.b738e871-e27c-4107-8f73-af15d909216e{fill:url(#e91ade40-55b6-4c35-9146-6d9aef647252);}.ed47a9f5-00e0-4b71-aaec-835472d7ca7b{fill:url(#bc46062a-37ad-43e1-a350-a55b97d86591);}.bbc50e30-d4f9-4ad2-bab2-536deb7b7b52{fill:url(#af456664-9d1d-4e6a-a367-a197f34b8dd2);}.b4b5b840-5d0b-403c-916b-39ee89ae845b{fill:url(#aa0765c3-5e9c-401a-93b5-c7cdef5eeea3);}.f98136f1-56f8-4a08-a476-d7148175b369{fill:url(#a7d57ead-4e34-4cf0-a1b9-d6c25bbc8e6d);}.a64572d7-58ae-41d2-9e28-daa851a49089{fill:url(#af4d79e5-1def-4dae-9f5b-2b2127ac2caf);}.f2843b97-964d-406a-b10c-0ebee5000e24{fill:url(#bf95cdf4-044a-4747-b558-c682eabc82cd);}</style><linearGradient id="ae30c1d0-2e20-4b7a-83ae-4a15901de2f3" x1="11.08" y1="37.51" x2="21.65" y2="19.19" gradientUnits="userSpaceOnUse"><stop offset="0" stop-color="#3c3c3b"/><stop offset="0.38" stop-color="#6f6f6e"/><stop offset="0.71" stop-color="#9c9b9b"/><stop offset="1" stop-color="#868686"/></linearGradient><linearGradient id="e940e682-d1f5-46f6-835e-e41ad0334d03" x1="457.95" y1="37.51" x2="468.52" y2="19.19" gradientTransform="matrix(-1, 0, 0, 1, 514.88, 0)" xlink:href="#ae30c1d0-2e20-4b7a-83ae-4a15901de2f3"/><linearGradient id="a86f38da-a274-4a05-8b2b-f318d69beefa" x1="34.13" y1="28.92" x2="34.13" y2="48.5" gradientUnits="userSpaceOnUse"><stop offset="0" stop-color="#b1b1b1"/><stop offset="0.5" stop-color="#6f6f6e"/><stop offset="1" stop-color="#3c3c3b"/></linearGradient><linearGradient id="fb311a87-37aa-432a-a2a5-fe5043d5c376" x1="8.48" y1="13.03" x2="2.36" y2="28.19" gradientUnits="userSpaceOnUse"><stop offset="0" stop-color="#575756"/><stop offset="0.35" stop-color="#868686"/><stop offset="0.65" stop-color="#6f6f6e"/><stop offset="1" stop-color="#3c3c3b"/></linearGradient><linearGradient id="b85064bd-6470-41b6-9b40-7a843c3fae5d" x1="455.35" y1="13.03" x2="449.23" y2="28.19" gradientTransform="matrix(-1, 0, 0, 1, 514.88, 0)" xlink:href="#fb311a87-37aa-432a-a2a5-fe5043d5c376"/><linearGradient id="bbb32502-280e-4d50-9e55-04335de38c85" x1="65.54" y1="32.04" x2="66.49" y2="27.29" gradientTransform="translate(-5.1)" gradientUnits="userSpaceOnUse"><stop offset="0" stop-color="#868686"/><stop offset="0.35" stop-color="#9c9b9b"/><stop offset="0.65" stop-color="#6f6f6e"/><stop offset="1" stop-color="#3c3c3b"/></linearGradient><linearGradient id="e2868d08-9050-4070-a1c4-52f049511d6e" x1="68.86" y1="16.8" x2="62.68" y2="18.06" gradientTransform="translate(-10.25)" gradientUnits="userSpaceOnUse"><stop offset="0" stop-color="#868686"/><stop offset="1" stop-color="#c6c6c5"/></linearGradient><linearGradient id="bfeacb10-179b-482a-96b4-f63d6993df71" x1="512.4" y1="32.04" x2="513.36" y2="27.29" gradientTransform="matrix(-1, 0, 0, 1, 519.97, 0)" xlink:href="#bbb32502-280e-4d50-9e55-04335de38c85"/><linearGradient id="e2b50d88-1586-454c-983d-aad9b0ec5e64" x1="515.73" y1="16.8" x2="509.55" y2="18.06" gradientTransform="matrix(-1, 0, 0, 1, 525.13, 0)" xlink:href="#e2868d08-9050-4070-a1c4-52f049511d6e"/><linearGradient id="e3aa4e40-93b1-4ae2-9bea-e5d17b94654b" x1="25.71" y1="42.58" x2="25.27" y2="67.8" gradientUnits="userSpaceOnUse"><stop offset="0" stop-color="#3c3c3b"/><stop offset="1" stop-color="#6f6f6e"/></linearGradient><linearGradient id="f633c667-7609-40b1-bc6b-fe11eecdb9b2" x1="42.78" y1="42.53" x2="32.95" y2="67.89" xlink:href="#e3aa4e40-93b1-4ae2-9bea-e5d17b94654b"/><linearGradient id="b44cf188-1d1b-4f63-8e71-c62ec147eab2" x1="458.11" y1="40.52" x2="470.2" y2="61.43" gradientTransform="matrix(-1, 0, 0, 1, 514.84, 0)" xlink:href="#bbb32502-280e-4d50-9e55-04335de38c85"/><linearGradient id="fa3fdfc5-abb6-42d3-a5a5-7a129f7820c9" x1="449" y1="47.12" x2="459.81" y2="65.82" gradientTransform="matrix(-1, 0, 0, 1, 514.84, 0)" gradientUnits="userSpaceOnUse"><stop offset="0.16" stop-color="#3c3c3b"/><stop offset="0.64" stop-color="#6f6f6e"/><stop offset="0.89" stop-color="#9c9b9b"/></linearGradient><linearGradient id="f3ae949d-9e6a-49e4-ac20-a184d8a790a1" x1="454.32" y1="46.5" x2="450.91" y2="49.54" gradientTransform="matrix(-1, 0, 0, 1, 514.84, 0)" xlink:href="#e2868d08-9050-4070-a1c4-52f049511d6e"/><linearGradient id="ec628ca1-262d-46c7-b437-4ee18581344e" x1="450.17" y1="45.17" x2="462.93" y2="64.28" gradientTransform="matrix(-1, 0, 0, 1, 514.84, 0)" gradientUnits="userSpaceOnUse"><stop offset="0" stop-color="#868686"/><stop offset="0.35" stop-color="#b1b1b1"/><stop offset="0.65" stop-color="#6f6f6e"/><stop offset="1" stop-color="#3c3c3b"/></linearGradient><linearGradient id="afed5a76-1277-4460-a8f3-aaeacdeb0a29" x1="464.93" y1="41.33" x2="458.75" y2="42.59" gradientTransform="matrix(-1, 0, 0, 1, 514.84, 0)" xlink:href="#e2868d08-9050-4070-a1c4-52f049511d6e"/><linearGradient id="b85be9e0-2493-4ca5-8986-2505be57efb7" x1="466.78" y1="56.27" x2="467.73" y2="51.52" gradientTransform="matrix(-1, 0, 0, 1, 514.84, 0)" xlink:href="#bbb32502-280e-4d50-9e55-04335de38c85"/><linearGradient id="b7377dc4-99f4-4e52-a98b-68d6b89c7e9e" x1="-36.79" y1="40.52" x2="-24.71" y2="61.43" gradientTransform="translate(48.07)" xlink:href="#bbb32502-280e-4d50-9e55-04335de38c85"/><linearGradient id="a2166a00-9a83-4449-aa49-fe5a70ac5111" x1="-45.9" y1="47.12" x2="-35.09" y2="65.82" gradientTransform="translate(48.07)" xlink:href="#fa3fdfc5-abb6-42d3-a5a5-7a129f7820c9"/><linearGradient id="af69c88e-2cec-4570-bf3d-fad3a17c5cdf" x1="-40.59" y1="46.5" x2="-44" y2="49.54" gradientTransform="translate(48.07)" xlink:href="#e2868d08-9050-4070-a1c4-52f049511d6e"/><linearGradient id="f10c1832-fda1-4ef1-b9d0-e49534d744e4" x1="-44.73" y1="45.17" x2="-31.98" y2="64.28" gradientTransform="translate(48.07)" xlink:href="#ec628ca1-262d-46c7-b437-4ee18581344e"/><linearGradient id="a4736d32-28d0-41a6-973d-0bcb9df6bb3e" x1="-29.98" y1="41.33" x2="-36.15" y2="42.59" gradientTransform="translate(48.07)" xlink:href="#e2868d08-9050-4070-a1c4-52f049511d6e"/><linearGradient id="f9a1b577-1ce5-4c8b-8c2a-b5ada90aba00" x1="-28.13" y1="56.27" x2="-27.17" y2="51.52" gradientTransform="translate(48.07)" xlink:href="#bbb32502-280e-4d50-9e55-04335de38c85"/><linearGradient id="e2e0c332-2b2f-4f99-91b3-40b635144f50" x1="24.24" y1="17.19" x2="43.84" y2="17.19" gradientUnits="userSpaceOnUse"><stop offset="0" stop-color="#6f6f6e"/><stop offset="0.45" stop-color="#9c9b9b"/><stop offset="1" stop-color="#6f6f6e"/></linearGradient><linearGradient id="a462f396-fe7b-49c3-bb44-831359c34f3a" x1="25.88" y1="8.11" x2="47.16" y2="8.11" gradientUnits="userSpaceOnUse"><stop offset="0" stop-color="#868686"/><stop offset="0.39" stop-color="#c6c6c5"/><stop offset="1" stop-color="#6f6f6e"/></linearGradient><linearGradient id="a0967106-ab0f-4e14-8198-020ef104769e" x1="42.14" y1="14.13" x2="41.04" y2="19.48" gradientTransform="matrix(1, 0, 0, 1, 0, 0)" xlink:href="#e2868d08-9050-4070-a1c4-52f049511d6e"/><linearGradient id="e91ade40-55b6-4c35-9146-6d9aef647252" x1="41.7" y1="11.55" x2="40.78" y2="7.22" xlink:href="#fb311a87-37aa-432a-a2a5-fe5043d5c376"/><linearGradient id="bc46062a-37ad-43e1-a350-a55b97d86591" x1="521.83" y1="11.55" x2="520.9" y2="7.22" gradientTransform="matrix(-1, 0, 0, 1, 548.11, 0)" xlink:href="#fb311a87-37aa-432a-a2a5-fe5043d5c376"/><linearGradient id="af456664-9d1d-4e6a-a367-a197f34b8dd2" x1="25.4" y1="5.65" x2="42.57" y2="5.65" xlink:href="#e2e0c332-2b2f-4f99-91b3-40b635144f50"/><linearGradient id="aa0765c3-5e9c-401a-93b5-c7cdef5eeea3" x1="449.01" y1="57.55" x2="459.8" y2="51.32" gradientTransform="matrix(-1, 0, 0, 1, 514.84, 0)" gradientUnits="userSpaceOnUse"><stop offset="0" stop-color="#1d1d1b" stop-opacity="0"/><stop offset="1" stop-color="#1d1d1b" stop-opacity="0.6"/></linearGradient><linearGradient id="a7d57ead-4e34-4cf0-a1b9-d6c25bbc8e6d" x1="-45.89" y1="57.55" x2="-35.1" y2="51.32" gradientTransform="translate(48.07)" xlink:href="#aa0765c3-5e9c-401a-93b5-c7cdef5eeea3"/><linearGradient id="af4d79e5-1def-4dae-9f5b-2b2127ac2caf" x1="33.98" y1="0.68" x2="33.98" y2="10.63" gradientUnits="userSpaceOnUse"><stop offset="0.36" stop-color="#1d1d1b" stop-opacity="0"/><stop offset="1" stop-color="#1d1d1b" stop-opacity="0.6"/></linearGradient><linearGradient id="bf95cdf4-044a-4747-b558-c682eabc82cd" x1="523.3" y1="14.13" x2="522.21" y2="19.48" gradientTransform="matrix(-1, 0, 0, 1, 549.1, 0)" xlink:href="#e2868d08-9050-4070-a1c4-52f049511d6e"/></defs><title>cs5-scaled</title><path class="af9f278f-0add-4be3-8674-d94781d5c69a" d="M4.42,33.57a3.48,3.48,0,0,1-.48-.21A7.54,7.54,0,0,1,1,29a8.39,8.39,0,0,1-.42-2.76c0-4.57,2.77-9.86,6.19-11.84a4.87,4.87,0,0,1,2.48-.74,7.36,7.36,0,0,1,3.43.32,3.37,3.37,0,0,1,.9.6C17.87,17.14,28.86,23.4,30,24c1.49.83,2.44,2.8,2.44,5.62,0,5.1-3.09,11-6.91,13.22-1.84,1.06-3.51,1.07-4.75.22S8.51,36,4.42,33.57Z"/><path class="b3514345-3091-4dd3-ae26-2983a3d3e9bd" d="M63.59,33.57a3.48,3.48,0,0,0,.48-.21,7.54,7.54,0,0,0,3-4.34,8.39,8.39,0,0,0,.42-2.76c0-4.57-2.77-9.86-6.19-11.84a4.87,4.87,0,0,0-2.48-.74,7.36,7.36,0,0,0-3.43.32,3.37,3.37,0,0,0-.9.6C50.14,17.14,39.15,23.4,38.05,24c-1.49.83-2.44,2.8-2.44,5.62,0,5.1,3.09,11,6.91,13.22,1.84,1.06,3.51,1.07,4.75.22S59.5,36,63.59,33.57Z"/><path class="a26eb383-b063-4a1f-8160-cec682d6fa7e" d="M37.1,55.34a9.7,9.7,0,0,0-6.1-.08c1.66-1,2.07-3.61,2.07-6.82,0-6-3-12.51-7.54-15.12-2.18-1.26-4-1.67-5.44-.67a8.14,8.14,0,0,0,2.33-4.48c0,1.68,1.55,2.89,3.76,4.17a16.86,16.86,0,0,0,15.77,0c2.23-1.28,3.62-2.5,3.66-4.19a9.61,9.61,0,0,0,2.56,4.62c-1.58-1.12-3.34-.72-5.6.59C38,36,34.67,42.51,34.67,48.55c0,3.29.5,5.65,2.22,6.66Z"/><path class="afda05f4-3077-4054-bd95-dc2887230cbc" d="M11.85,13.76a8.77,8.77,0,0,0-2.64-.08,4.87,4.87,0,0,0-2.48.74C3.31,16.4.54,21.69.54,26.26A8.39,8.39,0,0,0,1,29,8.38,8.38,0,0,0,3.29,32.9a8.36,8.36,0,0,1-1.07-4.45c0-5.34,3.24-11.54,7.24-13.85a6.2,6.2,0,0,1,2.39-.84Z"/><path class="f8162d74-3ab6-487b-bd9c-d2833fe55c52" d="M56.16,13.76a8.77,8.77,0,0,1,2.64-.08,4.87,4.87,0,0,1,2.48.74c3.42,2,6.19,7.27,6.19,11.84A8.39,8.39,0,0,1,67.05,29a8.38,8.38,0,0,1-2.33,3.88,8.36,8.36,0,0,0,1.08-4.45c0-5.34-3.25-11.54-7.25-13.85a6.2,6.2,0,0,0-2.39-.84Z"/><path class="afaba87a-634a-4e66-b80c-fa885560e6b0" d="M59.5,32.37a.79.79,0,0,0,1.17.25,2.93,2.93,0,0,0,1.19-1.56l.59-.3a1.8,1.8,0,0,0,.82-1.38c0-.52-.35-.74-.8-.49l-.59.31A.78.78,0,0,0,60.72,29a2.86,2.86,0,0,0-1.19,1.55l-.59.31a1.74,1.74,0,0,0-.82,1.38c0,.51.35.73.79.49l.59-.31Z"/><path class="b588d031-fa26-4977-982b-2b5d489c9ebb" d="M61.5,29a.55.55,0,0,0-.13-.17,1,1,0,0,0-.65.14,2.86,2.86,0,0,0-1.19,1.55l-.59.31a1.74,1.74,0,0,0-.82,1.38.64.64,0,0,0,.09.36.68.68,0,0,0,.32-.09l.59-.31.38.22a.73.73,0,0,0,.14.16,1,1,0,0,0,.65-.13,2.93,2.93,0,0,0,1.19-1.56l.59-.3a1.8,1.8,0,0,0,.82-1.38.68.68,0,0,0-.09-.37,1,1,0,0,0-.33.1l-.59.31Z"/><path class="e236d65b-3d0c-4310-b890-5a1d0187b6b4" d="M53.73,18.76a3,3,0,0,0,1.87-.27c.51-.28.69-.69.53-1.06l.62-.33c.45-.25.51-.64.14-.87a1.68,1.68,0,0,0-1.51.06l-.61.32a3.05,3.05,0,0,0-1.86.27c-.51.29-.69.7-.54,1.07l-.61.32c-.46.26-.52.64-.14.87a1.69,1.69,0,0,0,1.5-.05l.61-.33Z"/><path class="b4f06564-35d0-485c-b75e-1ea190c4d3c6" d="M55.38,16.72l-.61.33a3.05,3.05,0,0,0-1.86.27,1.15,1.15,0,0,0-.55.6,0,0,0,0,1,0,0h0a.58.58,0,0,0,0,.43l-.61.32a.75.75,0,0,0-.3.28.59.59,0,0,0,.16.15,1.69,1.69,0,0,0,1.5-.05l.61-.33a3,3,0,0,0,1.87-.27,1.09,1.09,0,0,0,.54-.6,0,0,0,0,0,0,0h0a.63.63,0,0,0,0-.43l.62-.33a.89.89,0,0,0,.3-.27.61.61,0,0,0-.16-.16A1.71,1.71,0,0,0,55.38,16.72Z"/><path class="a267b363-3965-4dc2-8f31-57eeb49f0596" d="M8.51,32.37a.79.79,0,0,1-1.17.25,2.93,2.93,0,0,1-1.19-1.56l-.59-.3a1.8,1.8,0,0,1-.82-1.38c0-.52.35-.74.8-.49l.59.31A.78.78,0,0,1,7.29,29a2.92,2.92,0,0,1,1.2,1.55l.58.31a1.74,1.74,0,0,1,.82,1.38c0,.51-.35.73-.79.49l-.59-.31Z"/><path class="b588d031-fa26-4977-982b-2b5d489c9ebb" d="M6.51,29a.76.76,0,0,1,.13-.17,1,1,0,0,1,.65.14,2.92,2.92,0,0,1,1.2,1.55l.58.31a1.74,1.74,0,0,1,.82,1.38.57.57,0,0,1-.09.36.68.68,0,0,1-.32-.09l-.59-.31-.38.22a.73.73,0,0,1-.14.16,1,1,0,0,1-.65-.13,2.93,2.93,0,0,1-1.19-1.56l-.59-.3a1.8,1.8,0,0,1-.82-1.38.78.78,0,0,1,.09-.37,1,1,0,0,1,.33.1l.59.31Z"/><path class="b0537de7-04f7-436e-beee-5cdbfd40526c" d="M14.28,18.76a2.92,2.92,0,0,1-1.86-.27c-.52-.28-.7-.69-.54-1.06l-.62-.33c-.45-.25-.51-.64-.14-.87a1.68,1.68,0,0,1,1.51.06l.61.32a3.05,3.05,0,0,1,1.86.27c.51.29.7.7.54,1.07l.62.32c.45.26.51.64.14.87a1.71,1.71,0,0,1-1.51-.05l-.61-.33Z"/><path class="b4f06564-35d0-485c-b75e-1ea190c4d3c6" d="M12.63,16.72l.61.33a3.05,3.05,0,0,1,1.86.27,1.11,1.11,0,0,1,.55.6,0,0,0,0,0,0,0h0a.7.7,0,0,1,0,.43l.62.32a.78.78,0,0,1,.29.28.71.71,0,0,1-.15.15,1.71,1.71,0,0,1-1.51-.05l-.61-.33a2.92,2.92,0,0,1-1.86-.27,1.11,1.11,0,0,1-.55-.6s0,0,0,0h0a.63.63,0,0,1,0-.43l-.62-.33a.76.76,0,0,1-.29-.27.56.56,0,0,1,.15-.16A1.71,1.71,0,0,1,12.63,16.72Z"/><path class="e8843212-3fc6-4fc1-90c9-9c4b8263286c" d="M25.79,23.34c4.53-2.62,11.87-2.62,16.4,0s4.53,6.86,0,9.47-11.87,2.62-16.4,0-4.53-6.86,0-9.47Z"/><path class="fadb1835-a594-4a1a-90fe-e0f5e89cd4db" d="M33.89,48.6c0-6-3.68-13.06-8.21-15.67s-8.2.16-8.2,6.2,3.67,13,8.2,15.67,8.21-.16,8.21-6.2Z"/><path class="bc686110-d403-4a78-9738-06b4f8d09c62" d="M34.06,48.6c0-6,3.67-13.06,8.2-15.67s8.2.16,8.2,6.2-3.67,13-8.2,15.67-8.2-.16-8.2-6.2Z"/><path class="b2804829-6b1a-4b15-88d6-fda4608eb4a1" d="M67.07,48.6a7.54,7.54,0,0,0-3-4.34C60,41.82,48.53,35.39,47.3,34.54s-2.92-.83-4.75.23C38.73,37,35.63,42.89,35.63,48c0,2.82,1,4.72,2.45,5.63,1.26.79,12.65,7.3,17,9.84,0,0,0,0,0,0a3.62,3.62,0,0,0,.33.2,7.4,7.4,0,0,0,3.44.32h-.1a4.77,4.77,0,0,0,2.57-.73c3.42-2,6.2-7.28,6.2-11.84A10,10,0,0,0,67.07,48.6ZM60.91,47c.13-.09.26-.2.39-.28a5.75,5.75,0,0,1,1.42-.58,3,3,0,0,1,.27.57l.59.31a1.77,1.77,0,0,1,.82,1.38.73.73,0,0,1-.09.36.65.65,0,0,1-.33-.1l-.59-.3c-.45.25-.44.26-.37.22s-.1.11-.14.16a.94.94,0,0,1-.65-.13A2.92,2.92,0,0,1,61,47Z"/><path class="e96196f5-06a2-48ee-a4ce-6b87826d7fc9" d="M60.58,47.19l.08,0a2.92,2.92,0,0,0,1.19,1.56A.79.79,0,0,0,63,48.54l.58.3c.45.25.8,0,.8-.48A1.77,1.77,0,0,0,63.58,47L63,46.67a3.83,3.83,0,0,0-.27-.58c2.73-.73,4.78,1.36,4.78,5.27,0,4.56-2.78,9.86-6.2,11.84s-6.19-.12-6.19-4.68A15.22,15.22,0,0,1,60.58,47.19Z"/><path class="ed145f39-e9b9-4424-99ed-783826242506" d="M63.39,48.32c-.45.25-.44.26-.37.22l.58.3c.32.18.58.11.71-.12a.65.65,0,0,1-.33-.1ZM60.91,47l-.33.23.08,0a2.92,2.92,0,0,0,1.19,1.56.8.8,0,0,0,1-.09.94.94,0,0,1-.65-.13A2.92,2.92,0,0,1,61,47Z"/><path class="a588bd6a-efe4-4edc-a136-aa937b7b0115" d="M52.72,57.88c0-5.09,3.1-11,6.92-13.22a4.47,4.47,0,0,1,4.45-.4,7.54,7.54,0,0,1,3,4.34c-.9-2.56-3.14-3.44-5.77-1.92-3.42,2-6.19,7.27-6.19,11.84,0,3.38,1.53,5.41,3.72,5.42a7.4,7.4,0,0,1-3.44-.32c-1.62-.75-2.67-2.78-2.67-5.74Z"/><path class="bb8990a2-702a-4bd4-baf9-17bbd436b9aa" d="M54.79,43.3A3,3,0,0,1,52.93,43c-.51-.28-.69-.69-.54-1.06l-.61-.33c-.46-.25-.52-.64-.14-.86a1.66,1.66,0,0,1,1.5,0l.62.32a3,3,0,0,1,1.86.28c.51.28.69.69.54,1.06l.61.33c.45.25.52.64.14.86a1.68,1.68,0,0,1-1.51-.05l-.61-.32Z"/><path class="b4f06564-35d0-485c-b75e-1ea190c4d3c6" d="M53.14,41.26l.62.32a3.05,3.05,0,0,1,1.86.27,1.09,1.09,0,0,1,.54.6v0h0a.64.64,0,0,1,0,.43l.61.32a.82.82,0,0,1,.3.28.58.58,0,0,1-.16.15,1.68,1.68,0,0,1-1.51-.05l-.61-.32A3,3,0,0,1,52.93,43a1,1,0,0,1-.54-.59v0h0a.64.64,0,0,1,0-.43l-.61-.33a.73.73,0,0,1-.3-.27.39.39,0,0,1,.16-.15A1.63,1.63,0,0,1,53.14,41.26Z"/><path class="bb606cb7-9a95-4e60-8b6f-02abdfa1833d" d="M49,56.59a.78.78,0,0,1-1.17.26,3,3,0,0,1-1.19-1.56L46.05,55a1.77,1.77,0,0,1-.82-1.38c0-.51.35-.73.8-.48l.59.3a.78.78,0,0,1,1.16-.25A2.93,2.93,0,0,1,49,54.73l.59.3a1.75,1.75,0,0,1,.82,1.38c0,.52-.35.74-.79.49L49,56.59Z"/><path class="b588d031-fa26-4977-982b-2b5d489c9ebb" d="M47,53.2a.65.65,0,0,1,.13-.16,1,1,0,0,1,.65.13A2.93,2.93,0,0,1,49,54.73l.59.3a1.75,1.75,0,0,1,.82,1.38.68.68,0,0,1-.09.37.65.65,0,0,1-.33-.1l-.58-.3-.38.21a.79.79,0,0,1-.14.17,1,1,0,0,1-.65-.13A3,3,0,0,1,47,55.07l-.59-.31a1.77,1.77,0,0,1-.82-1.38A.73.73,0,0,1,45.7,53a.65.65,0,0,1,.33.1l.59.3Z"/><path class="e503143d-4a24-4287-9e32-dd3574e8b5c1" d="M.5,51.36c0,4.56,2.78,9.86,6.2,11.84a4.8,4.8,0,0,0,2.57.73H9.18a7.38,7.38,0,0,0,3.43-.32,3.62,3.62,0,0,0,.33-.2s0,0,0,0c4.33-2.54,15.73-9.05,17-9.84,1.44-.91,2.44-2.81,2.44-5.63,0-5.09-3.1-11-6.91-13.21-1.84-1.06-3.51-1.07-4.75-.23S8,41.82,3.91,44.26a7.54,7.54,0,0,0-3,4.34A10,10,0,0,0,.5,51.36ZM7,47a2.92,2.92,0,0,1-1.19,1.56.94.94,0,0,1-.65.13A1,1,0,0,1,5,48.54c.06,0,.07,0-.38-.22l-.59.3a.65.65,0,0,1-.33.1.73.73,0,0,1-.09-.36A1.77,1.77,0,0,1,4.42,47L5,46.67a3,3,0,0,1,.27-.57,5.75,5.75,0,0,1,1.42.58c.13.08.26.19.39.28Z"/><path class="fb315881-a1d3-444d-a9fe-25739016a6d2" d="M7.42,47.19l-.08,0a2.92,2.92,0,0,1-1.19,1.56A.78.78,0,0,1,5,48.54l-.59.3c-.45.25-.81,0-.8-.48A1.77,1.77,0,0,1,4.42,47L5,46.67a5.14,5.14,0,0,1,.27-.58C2.55,45.36.5,47.45.5,51.36c0,4.56,2.78,9.86,6.2,11.84s6.19-.12,6.19-4.68A15.19,15.19,0,0,0,7.42,47.19Z"/><path class="b356e8b3-0ab4-4daf-9c7d-df987b768527" d="M4,48.62a.65.65,0,0,1-.33.1c.13.23.39.3.71.12l.59-.3c.06,0,.07,0-.38-.22ZM7,47a2.92,2.92,0,0,1-1.19,1.56.94.94,0,0,1-.65.13.8.8,0,0,0,1,.09,2.92,2.92,0,0,0,1.19-1.56l.08,0L7.09,47Z"/><path class="a8a60465-bd52-41cd-b14e-156d5ab080a1" d="M15.28,57.88c0-5.09-3.1-11-6.92-13.22a4.47,4.47,0,0,0-4.45-.4,7.54,7.54,0,0,0-3,4.34c.9-2.56,3.14-3.44,5.77-1.92,3.42,2,6.19,7.27,6.19,11.84,0,3.38-1.53,5.41-3.71,5.42a7.38,7.38,0,0,0,3.43-.32c1.62-.75,2.67-2.78,2.67-5.74Z"/><path class="f9ffd9db-b383-4cfa-808f-c551fcb95c5a" d="M13.21,43.3A3,3,0,0,0,15.07,43c.51-.28.69-.69.54-1.06l.61-.33c.45-.25.52-.64.14-.86a1.66,1.66,0,0,0-1.5,0l-.62.32a3,3,0,0,0-1.86.28c-.51.28-.69.69-.54,1.06l-.61.33c-.45.25-.52.64-.14.86a1.68,1.68,0,0,0,1.51-.05l.61-.32Z"/><path class="b4f06564-35d0-485c-b75e-1ea190c4d3c6" d="M14.86,41.26l-.62.32a3.07,3.07,0,0,0-1.86.27,1.09,1.09,0,0,0-.54.6v0h0a.7.7,0,0,0,0,.43l-.61.32a.91.91,0,0,0-.3.28.58.58,0,0,0,.16.15,1.68,1.68,0,0,0,1.51-.05l.61-.32A3,3,0,0,0,15.07,43a1,1,0,0,0,.54-.59v0h0a.64.64,0,0,0,0-.43l.61-.33a.73.73,0,0,0,.3-.27.39.39,0,0,0-.16-.15A1.63,1.63,0,0,0,14.86,41.26Z"/><path class="e8e7edbf-9cfa-40fc-b548-a6148a39fd8d" d="M19,56.59a.78.78,0,0,0,1.17.26,3,3,0,0,0,1.19-1.56L22,55a1.75,1.75,0,0,0,.82-1.38c0-.51-.35-.73-.8-.48l-.58.3a.79.79,0,0,0-1.17-.25A2.93,2.93,0,0,0,19,54.73l-.59.3a1.78,1.78,0,0,0-.82,1.38c0,.52.35.74.79.49l.59-.31Z"/><path class="b588d031-fa26-4977-982b-2b5d489c9ebb" d="M21,53.2a1.07,1.07,0,0,0-.14-.16,1,1,0,0,0-.65.13A2.93,2.93,0,0,0,19,54.73l-.59.3a1.78,1.78,0,0,0-.82,1.38.68.68,0,0,0,.09.37.6.6,0,0,0,.32-.1l.59-.3.38.21a.79.79,0,0,0,.14.17,1,1,0,0,0,.65-.13A3,3,0,0,0,21,55.07l.59-.31a1.75,1.75,0,0,0,.82-1.38A.73.73,0,0,0,22.3,53a.65.65,0,0,0-.33.1l-.58.3Z"/><path class="fc8436f1-ea24-40fc-9d6b-2cfb4433031f" d="M25.7,7a1.72,1.72,0,0,1,.63-1.15.46.46,0,0,1,.23-.08,1,1,0,0,1,.13.46l0,.75a.7.7,0,0,1,.38.2v0l.05,0a1.36,1.36,0,0,1,.31.86,2.74,2.74,0,0,1-.07.69l-.07.06a6,6,0,0,1-.84-.71M25.72,4.3a7.08,7.08,0,0,0-1.48,3.46,2.19,2.19,0,0,0,0,.51,0,0,0,0,1,0,0c0,5.21,0,18.33,0,19.73s.91,3,2.86,4.08a15.25,15.25,0,0,0,13.83,0c2-1.16,3-2.7,2.86-4.22-.1-1.37.05-16.48.05-19.73a1.5,1.5,0,0,0,0-.37s0,0,0,.08A7.13,7.13,0,0,0,41,2.72c.07,0,.1.1.16.15a7.27,7.27,0,0,0-1.05-.76,13.46,13.46,0,0,0-12.19.05A5.15,5.15,0,0,0,25.72,4.3ZM40.58,8.76a3.09,3.09,0,0,1-.06-.67,1.25,1.25,0,0,1,.31-.86l0,0v0a.74.74,0,0,1,.38-.2l0-.75a1,1,0,0,1,.13-.46.42.42,0,0,1,.22.08,1.62,1.62,0,0,1,.6,1A4.84,4.84,0,0,1,40.58,8.76ZM25.75,7.11a4.06,4.06,0,0,0,.72,1A4.06,4.06,0,0,1,25.75,7.11Z"/><path class="a9fbf4ea-f1ce-4b4b-a418-a766525d0dd7" d="M24.24,7.76A7.08,7.08,0,0,1,25.72,4.3c-.86,1.69-.16,3.58,2.13,4.89A13.44,13.44,0,0,0,40,9.14c3-1.76,3.39-4.49,1-6.42A7.14,7.14,0,0,1,43.8,7.88c0,1.44-1,2.87-2.87,4a15.32,15.32,0,0,1-13.83,0c-2-1.13-2.9-2.61-2.86-4.09Z"/><path class="bc954b56-73d3-4247-9f89-5f60082eef33" d="M42.11,15.36c.42.05.71.45.73,1.1a3.42,3.42,0,0,1-.61,2l.05.76a1.87,1.87,0,0,1-.65,1.5c-.38.25-.71,0-.74-.61l0-.75c-.42,0-.71-.45-.74-1.1a3.49,3.49,0,0,1,.61-2l0-.76a1.84,1.84,0,0,1,.65-1.5c.38-.25.71,0,.74.61l0,.75Z"/><path class="b588d031-fa26-4977-982b-2b5d489c9ebb" d="M41.73,15.14l0-.75a1,1,0,0,0-.13-.46.41.41,0,0,0-.23.07,1.84,1.84,0,0,0-.65,1.5l0,.76a3.49,3.49,0,0,0-.61,2,1.33,1.33,0,0,0,.31.86l0,0v0a.69.69,0,0,0,.38.19l0,.75a.93.93,0,0,0,.13.46.41.41,0,0,0,.23-.07A1.87,1.87,0,0,0,41.9,19l0-.76a3.57,3.57,0,0,0,.61-2,1.28,1.28,0,0,0-.32-.86Z"/><path class="b738e871-e27c-4107-8f73-af15d909216e" d="M40.92,6.46l-.05.73a.74.74,0,0,1,.38-.2l0-.75a1,1,0,0,1,.13-.46C41.15,5.75,40.94,6,40.92,6.46Zm-.78,1.85a2.62,2.62,0,0,0,.07.73l.37-.26a3.28,3.28,0,0,1-.06-.69,1.25,1.25,0,0,1,.31-.86C40.44,7.3,40.16,7.68,40.14,8.31Z"/><path class="ed47a9f5-00e0-4b71-aaec-835472d7ca7b" d="M26.56,5.78a1,1,0,0,1,.13.46l0,.75a.7.7,0,0,1,.38.2l0-.73C27.05,6,26.84,5.75,26.56,5.78Zm.6,1.45a1.36,1.36,0,0,1,.31.86,2.74,2.74,0,0,1-.07.69l.38.26a3.06,3.06,0,0,0,.07-.73C27.82,7.68,27.55,7.3,27.16,7.23Z"/><path class="bbc50e30-d4f9-4ad2-bab2-536deb7b7b52" d="M26.47,8.11a4.06,4.06,0,0,1-.72-1A4.06,4.06,0,0,0,26.47,8.11Zm13.65-6a13.46,13.46,0,0,0-12.19.05c-2.29,1.32-3,3.19-2.23,4.85a1.72,1.72,0,0,1,.63-1.15c.38-.25.71,0,.74.6l0,.75c.42,0,.71.45.74,1.1a3.17,3.17,0,0,1-.09.8,6.26,6.26,0,0,1-1.27-1,6.05,6.05,0,0,0,1.36,1.06A13.44,13.44,0,0,0,40,9.14L40.21,9a2.48,2.48,0,0,1-.07-.71c0-.65.32-1.05.73-1.1l.05-.75c0-.58.35-.85.73-.6a1.66,1.66,0,0,1,.61,1C43,5.23,42.35,3.4,40.12,2.11Z"/><path class="b4b5b840-5d0b-403c-916b-39ee89ae845b" d="M60.58,47.19l.08,0a2.92,2.92,0,0,0,1.19,1.56A.79.79,0,0,0,63,48.54l.58.3c.45.25.8,0,.8-.48A1.77,1.77,0,0,0,63.58,47L63,46.67a3.83,3.83,0,0,0-.27-.58c2.73-.73,4.78,1.36,4.78,5.27,0,4.56-2.78,9.86-6.2,11.84s-6.19-.12-6.19-4.68A15.22,15.22,0,0,1,60.58,47.19Z"/><path class="f98136f1-56f8-4a08-a476-d7148175b369" d="M7.42,47.19l-.08,0a2.92,2.92,0,0,1-1.19,1.56A.78.78,0,0,1,5,48.54l-.59.3c-.45.25-.81,0-.8-.48A1.77,1.77,0,0,1,4.42,47L5,46.67a5.14,5.14,0,0,1,.27-.58C2.55,45.36.5,47.45.5,51.36c0,4.56,2.78,9.86,6.2,11.84s6.19-.12,6.19-4.68A15.19,15.19,0,0,0,7.42,47.19Z"/><path class="a64572d7-58ae-41d2-9e28-daa851a49089" d="M26.47,8.11a4.06,4.06,0,0,1-.72-1A4.06,4.06,0,0,0,26.47,8.11Zm13.65-6a13.46,13.46,0,0,0-12.19.05c-2.29,1.32-3,3.19-2.23,4.85a1.72,1.72,0,0,1,.63-1.15c.38-.25.71,0,.74.6l0,.75c.42,0,.71.45.74,1.1a3.17,3.17,0,0,1-.09.8,6.26,6.26,0,0,1-1.27-1,6.05,6.05,0,0,0,1.36,1.06A13.44,13.44,0,0,0,40,9.14L40.21,9a2.48,2.48,0,0,1-.07-.71c0-.65.32-1.05.73-1.1l.05-.75c0-.58.35-.85.73-.6a1.66,1.66,0,0,1,.61,1C43,5.23,42.35,3.4,40.12,2.11Z"/><path class="f2843b97-964d-406a-b10c-0ebee5000e24" d="M25.82,15.36c-.41.05-.71.45-.73,1.1a3.42,3.42,0,0,0,.61,2l-.05.76a1.87,1.87,0,0,0,.65,1.5c.39.25.72,0,.74-.61l.05-.75c.41,0,.7-.45.73-1.1a3.42,3.42,0,0,0-.61-2l.05-.76A1.85,1.85,0,0,0,26.6,14c-.38-.25-.71,0-.73.61l-.05.75Z"/><path class="b588d031-fa26-4977-982b-2b5d489c9ebb" d="M26.2,15.14l.05-.75a.93.93,0,0,1,.13-.46.4.4,0,0,1,.22.07,1.85,1.85,0,0,1,.66,1.5l-.05.76a3.42,3.42,0,0,1,.61,2,1.23,1.23,0,0,1-.31.86l0,0v0a.72.72,0,0,1-.38.19l-.05.75a.93.93,0,0,1-.13.46.43.43,0,0,1-.23-.07A1.87,1.87,0,0,1,26,19l0-.76a3.42,3.42,0,0,1-.61-2,1.23,1.23,0,0,1,.31-.86Z"/></svg>