<svg id="ab48c1af-6767-4746-8b95-70741a4a0c47" data-name="Layer 1" xmlns="http://www.w3.org/2000/svg" xmlns:xlink="http://www.w3.org/1999/xlink" width="50" height="45" viewBox="0 0 50 45"><defs><style>.f92af929-d722-4f2d-9548-5f06aeaa45b1{fill:url(#ecb4630e-a2c2-4a1f-aafe-4fdad9f77786);}.a6d5735a-676a-4a3a-85c4-8d1a5a2b9733{fill:url(#a13b996c-a372-4871-83ef-b57ae2e37be2);}.ef753b44-bf00-4fce-9994-ae0fae26b351{fill:url(#aafb9dc3-96d5-483e-a396-d5725dfc07fa);}.a4d3bc3d-5aab-4bfc-a94e-75e003abec63{fill:url(#aef7f5e0-0bd3-4798-bc9e-cbb63fdb1070);}.aeebb28b-f1f0-461b-a92a-bacbde39ab8d{fill:url(#ead36438-336e-42f2-b047-efbbc0e94a63);}.b80e229d-ad7c-4b83-b9f2-d0d8485c7f83{fill-rule:evenodd;fill:url(#b9041183-54bf-443a-9972-759bc1d31314);}.b264f06d-334c-46e8-8e27-cddc2b0e2fb9{fill:url(#e674a7fc-3f38-4c9e-9173-04cd0a1be949);}.a6304984-2adc-45a4-898d-56fb7c3066be{fill:url(#ee6984d4-5857-4d13-a2c1-f880eeff253b);}.e74b4863-bde7-4572-a84d-5bdf4ee9de69{fill:url(#ac306556-b3c2-4fcf-9369-5a7c9a4c7c64);}.ba7ab7f1-166d-49f4-ba40-60e9247868b3{fill:url(#b3ddba24-2ab3-465b-8f27-a8b9323babcd);}.a9abd47e-d880-4a23-af5c-12be9230e51c{fill:url(#bd2ae5ca-954c-42bf-889b-86e4495d743d);}.ea7c9b65-7a31-4251-bb71-68c992b0c3f7{fill:url(#ba116ec9-fb80-455c-8a25-147a3c4fe831);}.b9f4ba38-225c-442a-9518-a12df0466d42{fill:url(#a32fe4b4-20cd-429f-9e36-71f34d412bd4);}.b6eb7f4c-ff69-42c0-adff-b0d3798c1a7a{fill:#333332;}</style><linearGradient id="ecb4630e-a2c2-4a1f-aafe-4fdad9f77786" x1="11.1" y1="5.46" x2="23.62" y2="27.15" gradientUnits="userSpaceOnUse"><stop offset="0" stop-color="#414140"/><stop offset="0.45" stop-color="#9c9b9b"/><stop offset="0.72" stop-color="#868686"/><stop offset="1" stop-color="#6f6f6e"/></linearGradient><linearGradient id="a13b996c-a372-4871-83ef-b57ae2e37be2" x1="16.86" y1="0.54" x2="30.67" y2="24.46" gradientUnits="userSpaceOnUse"><stop offset="0" stop-color="#868686"/><stop offset="0.18" stop-color="#b1b1b1"/><stop offset="0.75" stop-color="#747473"/><stop offset="1" stop-color="#3c3c3b"/></linearGradient><linearGradient id="aafb9dc3-96d5-483e-a396-d5725dfc07fa" x1="22.77" y1="33.35" x2="16.5" y2="4.96" gradientUnits="userSpaceOnUse"><stop offset="0" stop-color="#3c3c3b"/><stop offset="1" stop-color="#6f6f6e"/></linearGradient><linearGradient id="aef7f5e0-0bd3-4798-bc9e-cbb63fdb1070" x1="7.47" y1="5.94" x2="21.34" y2="29.97" xlink:href="#a13b996c-a372-4871-83ef-b57ae2e37be2"/><linearGradient id="ead36438-336e-42f2-b047-efbbc0e94a63" x1="1.3" y1="10.93" x2="13.93" y2="32.8" xlink:href="#ecb4630e-a2c2-4a1f-aafe-4fdad9f77786"/><linearGradient id="b9041183-54bf-443a-9972-759bc1d31314" x1="8.72" y1="36" x2="9.35" y2="8.52" gradientUnits="userSpaceOnUse"><stop offset="0" stop-color="#2d2d2c"/><stop offset="1" stop-color="#6f6f6e"/></linearGradient><linearGradient id="e674a7fc-3f38-4c9e-9173-04cd0a1be949" x1="49.23" y1="35.43" x2="15.34" y2="19.61" gradientUnits="userSpaceOnUse"><stop offset="0" stop-color="#6f6f6e"/><stop offset="1" stop-color="#3c3c3b"/></linearGradient><linearGradient id="ee6984d4-5857-4d13-a2c1-f880eeff253b" x1="-981.43" y1="19.44" x2="-968.27" y2="42.21" gradientTransform="matrix(-1, 0, 0, 1, -943.16, 0)" gradientUnits="userSpaceOnUse"><stop offset="0" stop-color="#868686"/><stop offset="0.35" stop-color="#9c9b9b"/><stop offset="0.65" stop-color="#6f6f6e"/><stop offset="1" stop-color="#3c3c3b"/></linearGradient><linearGradient id="ac306556-b3c2-4fcf-9369-5a7c9a4c7c64" x1="-991.34" y1="26.61" x2="-979.56" y2="46.98" gradientTransform="matrix(-1, 0, 0, 1, -943.16, 0)" gradientUnits="userSpaceOnUse"><stop offset="0.16" stop-color="#3c3c3b"/><stop offset="0.64" stop-color="#6f6f6e"/><stop offset="0.89" stop-color="#9c9b9b"/></linearGradient><linearGradient id="b3ddba24-2ab3-465b-8f27-a8b9323babcd" x1="-991.34" y1="37.98" x2="-979.56" y2="31.18" gradientTransform="matrix(-1, 0, 0, 1, -943.16, 0)" gradientUnits="userSpaceOnUse"><stop offset="0" stop-color="#1d1d1b" stop-opacity="0"/><stop offset="1" stop-color="#1d1d1b" stop-opacity="0.6"/></linearGradient><linearGradient id="bd2ae5ca-954c-42bf-889b-86e4495d743d" x1="-985.53" y1="25.91" x2="-989.29" y2="29.27" gradientTransform="matrix(-1, 0, 0, 1, -943.16, 0)" gradientUnits="userSpaceOnUse"><stop offset="0" stop-color="#868686"/><stop offset="1" stop-color="#c6c6c5"/></linearGradient><linearGradient id="ba116ec9-fb80-455c-8a25-147a3c4fe831" x1="-990.08" y1="24.5" x2="-976.19" y2="45.31" gradientTransform="matrix(-1, 0, 0, 1, -943.16, 0)" gradientUnits="userSpaceOnUse"><stop offset="0" stop-color="#868686"/><stop offset="0.35" stop-color="#b1b1b1"/><stop offset="0.65" stop-color="#6f6f6e"/><stop offset="1" stop-color="#3c3c3b"/></linearGradient><linearGradient id="a32fe4b4-20cd-429f-9e36-71f34d412bd4" x1="-972" y1="36.58" x2="-970.95" y2="31.41" gradientTransform="matrix(-1, 0, 0, 1, -943.16, 0)" gradientUnits="userSpaceOnUse"><stop offset="0" stop-color="#868686"/><stop offset="0.35" stop-color="#9c9b9b"/><stop offset="0.59" stop-color="#6f6f6e"/><stop offset="0.8" stop-color="#3c3c3b"/></linearGradient></defs><title>cxb-scaled</title><path class="f92af929-d722-4f2d-9548-5f06aeaa45b1" d="M27,24.14c-1.29,2.88-5.18,4-8.4,2.11-4.45-2.57-8.08-9.47-8.08-15.41,0-4.95,2.48-8,6.16-7-1.18-.31-.78,2.51-.78,4.16,0,5.94,3.61,12.83,8.06,15.4a12.93,12.93,0,0,0,3,.77Z"/><path class="a6d5735a-676a-4a3a-85c4-8d1a5a2b9733" d="M13,2.8,16.81.67c1.5-.81,3.3-.78,5.48.48,5,2.88,9.15,10.5,9.15,17.17,0,3.32-1.1,5.87-2.73,7.11l-3.6,2.24c1.69-1.22,2.74-3.68,2.74-7.07,0-6.66-4.36-14.17-9.36-17.06-2.07-1.19-3.62-1.43-5.15-.76Z"/><path class="ef753b44-bf00-4fce-9994-ae0fae26b351" d="M26.87,20.06c0-5.93-3.61-12.83-8.06-15.4s-8.06.16-8.06,6.1,3.61,12.83,8.06,15.4,8.06-.16,8.06-6.1Zm1,.58c0,6.68-4.06,9.75-9.07,6.86S9.74,16.85,9.74,10.17,13.8.43,18.81,3.32,27.88,14,27.88,20.64Z"/><path class="a4d3bc3d-5aab-4bfc-a94e-75e003abec63" d="M3.57,8.19,7.84,5.88a6,6,0,0,1,6.32.21,17.33,17.33,0,0,1,6.14,6.75C20,16.54,21,19.51,21,23c0,3.76.93,6.78-1.09,7.82l-5.25,2.91c2.13-1,3.27-3.54,3.27-7.43C17.91,19.62,14,12.1,9,9.21,6.9,8,5.1,7.5,3.57,8.19Z"/><path class="aeebb28b-f1f0-461b-a92a-bacbde39ab8d" d="M17.25,29.7A5.73,5.73,0,0,1,9,32.05C4.52,29.45.66,22.21.66,16.28c0-5,3.1-8.32,6.27-6.91a10.16,10.16,0,0,0-.78,4.16c0,5.94,3.61,12.83,8.06,15.4a12.81,12.81,0,0,0,3,.77Z"/><path class="b80e229d-ad7c-4b83-b9f2-d0d8485c7f83" d="M17.13,25.62c0-5.93-3.61-12.83-8.06-15.4S1,10.38,1,16.32s3.61,12.83,8.07,15.4,8.06-.16,8.06-6.1ZM18,31.23l-1.61,3.83-2.18-1.27a7.11,7.11,0,0,1-5.14-.73C4.06,30.17,0,22.41,0,15.73S4.06,6,9.07,8.88s9.06,10.65,9.06,17.33h0"/><path class="b264f06d-334c-46e8-8e27-cddc2b0e2fb9" d="M25,10.21a20.13,20.13,0,0,0,.15,2.71,5,5,0,0,0-3,.76c-.6.34-1.35,1.58-1.9,2.08V12.84A20.15,20.15,0,0,0,16.39,18c0,1,0,2.75,0,3.73.61,2,1.75,2.52,1.75,4.45a6.5,6.5,0,0,1-1.77,4.69v4.21a5.82,5.82,0,0,0,6.14-.13c4.92-2.84,8.91-10.46,8.91-17C31.44,12.5,28.73,9.5,25,10.21Z"/><path class="a6304984-2adc-45a4-898d-56fb7c3066be" d="M49.53,28.23a8.16,8.16,0,0,0-3.24-4.72C41.84,20.85,29.35,13.85,28,12.93s-3.17-.91-5.17.24C18.67,15.58,15.3,22,15.3,27.56c0,3.07,1.08,5.14,2.66,6.13,1.37.86,13.78,7.94,18.5,10.71,0,0,0,0,0,0a2.43,2.43,0,0,0,.35.2,8.11,8.11,0,0,0,3.75.36h-.11a5.23,5.23,0,0,0,2.8-.8C47,42,50,36.21,50,31.24A10.62,10.62,0,0,0,49.53,28.23Zm-6.74-1.8.46-.29a6.51,6.51,0,0,1,1.55-.62,4.27,4.27,0,0,1,.29.61l.64.34a1.89,1.89,0,0,1,.89,1.5.7.7,0,0,1-.08.4,1,1,0,0,1-.37-.11l-.64-.33-.41.24a1.18,1.18,0,0,1-.13.18,1.14,1.14,0,0,1-.73-.15A3.2,3.2,0,0,1,43,26.5Z"/><path class="e74b4863-bde7-4572-a84d-5bdf4ee9de69" d="M42.43,26.68l.12.06a3.2,3.2,0,0,0,1.3,1.7.86.86,0,0,0,1.27-.27l.64.33c.48.27.87,0,.86-.53a1.89,1.89,0,0,0-.89-1.5l-.64-.34a3.64,3.64,0,0,0-.3-.63c3-.8,5.21,1.48,5.21,5.74,0,5-3,10.74-6.75,12.89S36.51,44,36.51,39C36.51,34.42,39.08,29.14,42.43,26.68Z"/><path class="ba7ab7f1-166d-49f4-ba40-60e9247868b3" d="M42.43,26.68l.12.06a3.2,3.2,0,0,0,1.3,1.7.86.86,0,0,0,1.27-.27l.64.33c.48.27.87,0,.86-.53a1.89,1.89,0,0,0-.89-1.5l-.64-.34a3.64,3.64,0,0,0-.3-.63c3-.8,5.21,1.48,5.21,5.74,0,5-3,10.74-6.75,12.89S36.51,44,36.51,39C36.51,34.42,39.08,29.14,42.43,26.68Z"/><path class="a9abd47e-d880-4a23-af5c-12be9230e51c" d="M45.53,27.93l-.41.24.64.33c.34.19.63.14.78-.13a1,1,0,0,1-.37-.11Zm-2.74-1.5-.36.25.12.06a3.2,3.2,0,0,0,1.3,1.7A.88.88,0,0,0,45,28.35a1.14,1.14,0,0,1-.73-.15A3.2,3.2,0,0,1,43,26.5Z"/><path class="ea7c9b65-7a31-4251-bb71-68c992b0c3f7" d="M33.91,38.34c0-5.55,3.37-12,7.53-14.39,1.85-1.07,3.54-1.16,4.85-.44a8.16,8.16,0,0,1,3.24,4.72c-1-2.78-3.42-3.74-6.28-2.09-3.72,2.15-6.74,7.92-6.74,12.89,0,3.69,1.66,5.9,4.05,5.91a8.11,8.11,0,0,1-3.75-.36c-1.77-.81-2.9-3-2.9-6.24Z"/><path class="b9f4ba38-225c-442a-9518-a12df0466d42" d="M29.85,36.94a.85.85,0,0,1-1.27.27,3.2,3.2,0,0,1-1.29-1.69l-.64-.34a1.91,1.91,0,0,1-.9-1.5c0-.56.38-.8.87-.53l.64.33a.86.86,0,0,1,1.27-.27,3.2,3.2,0,0,1,1.3,1.7l.64.33a1.91,1.91,0,0,1,.89,1.5c0,.57-.38.8-.87.53l-.64-.33Z"/><path class="b6eb7f4c-ff69-42c0-adff-b0d3798c1a7a" d="M27.68,33.25a.74.74,0,0,1,.15-.19,1.06,1.06,0,0,1,.7.15,3.2,3.2,0,0,1,1.3,1.7l.64.33a1.91,1.91,0,0,1,.89,1.5,1,1,0,0,1-.08.41.94.94,0,0,1-.37-.12l-.64-.33-.42.24a1.13,1.13,0,0,1-.12.18A1.12,1.12,0,0,1,29,37a3.28,3.28,0,0,1-1.3-1.7L27.06,35a1.91,1.91,0,0,1-.89-1.51.82.82,0,0,1,.09-.4.92.92,0,0,1,.36.11l.64.33Z"/></svg>