<svg xmlns="http://www.w3.org/2000/svg" xmlns:xlink="http://www.w3.org/1999/xlink" width="176" height="114" viewBox="0 0 176 114"><defs><style>.a{fill:url(#a);}.b{fill:url(#b);}.c{fill:url(#c);}.d{fill:url(#d);}.e{fill:url(#e);}.f{fill:url(#f);}.g{fill:url(#g);}.h{fill:url(#h);}.i{fill:url(#i);}</style><linearGradient id="a" x1="158.641" y1="85.147" x2="161.196" y2="80.956" gradientUnits="userSpaceOnUse"><stop offset="0" stop-color="#e94e24"/><stop offset="0.555" stop-color="#d20a11"/><stop offset="1" stop-color="#d20a11"/></linearGradient><linearGradient id="b" x1="119.748" y1="115.503" x2="122.564" y2="111.094" gradientUnits="userSpaceOnUse"><stop offset="0.011" stop-color="#e94e24"/><stop offset="0.643" stop-color="#d20a11"/><stop offset="1" stop-color="#640c00"/></linearGradient><linearGradient id="c" x1="123.075" y1="105.707" x2="125.623" y2="101.529" gradientUnits="userSpaceOnUse"><stop offset="0" stop-color="#d20a11"/><stop offset="1" stop-color="#5a0a00"/></linearGradient><linearGradient id="d" x1="140.024" y1="83.04" x2="147.847" y2="96.59" gradientUnits="userSpaceOnUse"><stop offset="0.484" stop-color="#640c00"/><stop offset="0.698" stop-color="#8a1002"/><stop offset="1" stop-color="#d20a11"/></linearGradient><linearGradient id="e" x1="12.035" y1="54.11" x2="14.85" y2="49.703" gradientUnits="userSpaceOnUse"><stop offset="0" stop-color="#b30f0b"/><stop offset="1" stop-color="#d20a11"/></linearGradient><linearGradient id="f" x1="32.296" y1="21.67" x2="40.119" y2="35.22" gradientUnits="userSpaceOnUse"><stop offset="0.805" stop-color="#640c00"/><stop offset="1" stop-color="#8a1002"/></linearGradient><linearGradient id="g" y1="51.84" x2="175.999" y2="51.84" gradientUnits="userSpaceOnUse"><stop offset="0" stop-color="#640c00"/><stop offset="0.226" stop-color="#8a1002"/><stop offset="0.597" stop-color="#8a1002"/><stop offset="0.616" stop-color="#d20a11"/><stop offset="0.632" stop-color="#bb0c0c"/><stop offset="0.655" stop-color="#a00e07"/><stop offset="0.676" stop-color="#901003"/><stop offset="0.692" stop-color="#8a1002"/><stop offset="0.712" stop-color="#d20a11"/><stop offset="0.81" stop-color="#d20a11"/><stop offset="1" stop-color="#8a1002"/></linearGradient><linearGradient id="h" x1="88" y1="98.294" x2="88" y2="-23.366" gradientUnits="userSpaceOnUse"><stop offset="0" stop-color="#e94e24"/><stop offset="1" stop-color="#d20a11"/></linearGradient><linearGradient id="i" x1="113.556" y1="36.774" x2="113.93" y2="36.126" gradientUnits="userSpaceOnUse"><stop offset="0" stop-color="#8a1002"/><stop offset="0.5" stop-color="#d20a11"/><stop offset="1" stop-color="#e94e24"/></linearGradient></defs><path class="a" d="M161.594,76.156a3.56,3.56,0,0,1,.811,2.5c0,2.607-1.585,5.634-3.539,6.762a2.561,2.561,0,0,1-1.815.381,2.049,2.049,0,0,0,2.764.2,8.656,8.656,0,0,0,3.645-6.806C163.46,77.468,162.63,76.382,161.594,76.156Z"/><path class="b" d="M112.928,97.614c0,.481.02,7.814.059,9.667a.534.534,0,0,0,.316.573l.82.464c-.049-.489-.078-9.579-.078-10.115l55.524-32.117c0-.576,0-.972,0-1.07Zm2.508,10.481a6.388,6.388,0,0,1,.636,4.094s-.115.7.335.968c.239.14.925.533.925.533.023-.064-.443-.2-.352-.812C117.274,110.913,117.4,107.888,115.436,108.1Z"/><path class="c" d="M126.041,96.749a3.555,3.555,0,0,1,.811,2.5c0,2.605-1.583,5.632-3.539,6.76a2.586,2.586,0,0,1-1.837.359,2.075,2.075,0,0,0,2.776.2c1.956-1.127,3.526-4.178,3.526-6.783C127.778,98.063,127.078,96.975,126.041,96.749Z"/><path class="d" d="M113.854,98.15c0,.466.018,7.649.055,9.831a.387.387,0,0,0,.541.346c2.8-1.175,2.75,2.388,2.474,4.585a.773.773,0,0,0,1.154.763c11.864-6.85,39.729-22.835,48.806-28.076a1.292,1.292,0,0,0,.625-1.342c-.323-1.835-.627-6.1,2.914-8.188.049-.546.073-9.985.073-10.519Zm10.385,8.4c-1.953,1.129-3.538-.068-3.538-2.674s1.585-5.633,3.538-6.762,3.539.069,3.539,2.676S126.194,105.42,124.239,106.547Zm35.552-20.594c-1.954,1.129-3.537-.07-3.537-2.675s1.583-5.633,3.537-6.762,3.54.07,3.54,2.675S161.746,84.825,159.791,85.953Z"/><path class="e" d="M5.2,36.243c0,.481.02,7.814.059,9.667a.535.535,0,0,0,.316.573l.82.464c-.048-.489-.078-9.578-.078-10.114L61.841,4.716c0-.576,0-.973,0-1.07ZM7.708,46.725a6.783,6.783,0,0,1,.636,4.223.78.78,0,0,0,.335.806c.24.14.881.541.881.541.023-.064-.4-.179-.307-.788C9.547,49.542,9.675,46.517,7.708,46.725Z"/><path class="f" d="M6.126,36.779c0,.466.019,7.65.055,9.831a.387.387,0,0,0,.541.347c2.8-1.175,2.75,2.387,2.474,4.584a.773.773,0,0,0,1.154.763c11.864-6.849,39.73-22.835,48.807-28.076a1.288,1.288,0,0,0,.624-1.341c-.322-1.835-.627-6.1,2.915-8.189.048-.546.073-9.984.073-10.518Z"/><path class="g" d="M176,63.687V62.214L70.489.736A3.866,3.866,0,0,0,67.15.486,19.889,19.889,0,0,1,54.365.764,3.859,3.859,0,0,0,52.433.615.662.662,0,0,1,52.1,1a1.151,1.151,0,0,1-.651-.07,3.147,3.147,0,0,0-.309.151L0,31.222v1.242a1.223,1.223,0,0,0,.456.963,4.317,4.317,0,0,1,1.556,3.818c0,1.259-.413,1.431-1.97,2.531l0,1.4A1.29,1.29,0,0,0,.69,42.291l104.728,60.647a3.842,3.842,0,0,0,3.335.257,19.786,19.786,0,0,1,13.45-.086,3.891,3.891,0,0,0,3.327-.258L175.353,74.2A1.287,1.287,0,0,0,176,73.077l0-1.569c-1.562-.969-2.333-1.3-2.333-2.437a6.662,6.662,0,0,1,1.881-4.432A1.234,1.234,0,0,0,176,63.687Z"/><path class="h" d="M175.389,61.182,70.489.736A3.866,3.866,0,0,0,67.15.486,19.882,19.882,0,0,1,54.308.745,3.808,3.808,0,0,0,52.416.612a.489.489,0,0,1-.295.371,1.044,1.044,0,0,1-.669-.064c-.1.049-.208.1-.309.161L.616,30.154a1.221,1.221,0,0,0-.258,1.923C2.52,34.2,2.669,36.6.424,38.852a1.288,1.288,0,0,0,.256,2.03l104.738,60.46a3.843,3.843,0,0,0,3.334.256,19.789,19.789,0,0,1,13.451-.088,3.891,3.891,0,0,0,3.327-.258L175.347,72.6a1.285,1.285,0,0,0,.238-2.057c-2.5-2.275-2.564-5.133-.01-7.374A1.227,1.227,0,0,0,175.389,61.182Z"/><path class="i" d="M51.452.919l124.021,71.6c.228.143.449-.237.449-.6L52.416.612C52.268.972,52.023,1.115,51.452.919Z"/></svg>