<svg xmlns="http://www.w3.org/2000/svg" xmlns:xlink="http://www.w3.org/1999/xlink" width="230" height="145" viewBox="0 0 230 145"><defs><style>.a{fill:url(#a);}.b{fill:url(#b);}.c{fill:url(#c);}.d{fill:url(#d);}.e{fill:url(#e);}.f{fill:url(#f);}.g{fill:url(#g);}.h{fill:url(#h);}</style><linearGradient id="a" x1="212.655" y1="84.955" x2="215.209" y2="80.767" gradientUnits="userSpaceOnUse"><stop offset="0" stop-color="#e94e24"/><stop offset="0.555" stop-color="#d20a11"/><stop offset="1" stop-color="#d20a11"/></linearGradient><linearGradient id="b" x1="131.699" y1="154.492" x2="136.776" y2="146.546" gradientUnits="userSpaceOnUse"><stop offset="0.011" stop-color="#e94e24"/><stop offset="0.643" stop-color="#d20a11"/><stop offset="1" stop-color="#640c00"/></linearGradient><linearGradient id="c" x1="122.999" y1="136.849" x2="125.544" y2="132.673" gradientUnits="userSpaceOnUse"><stop offset="0" stop-color="#d20a11"/><stop offset="1" stop-color="#5a0a00"/></linearGradient><linearGradient id="d" x1="167.015" y1="98.562" x2="174.789" y2="112.027" gradientUnits="userSpaceOnUse"><stop offset="0.484" stop-color="#640c00"/><stop offset="0.698" stop-color="#8a1002"/><stop offset="1" stop-color="#d20a11"/></linearGradient><linearGradient id="e" x1="24.056" y1="93.139" x2="29.131" y2="85.195" gradientUnits="userSpaceOnUse"><stop offset="0" stop-color="#b30f0b"/><stop offset="1" stop-color="#d20a11"/></linearGradient><linearGradient id="f" x1="59.357" y1="37.231" x2="67.132" y2="50.696" gradientUnits="userSpaceOnUse"><stop offset="0.805" stop-color="#640c00"/><stop offset="1" stop-color="#8a1002"/></linearGradient><linearGradient id="g" y1="67.344" x2="229.999" y2="67.344" gradientUnits="userSpaceOnUse"><stop offset="0" stop-color="#640c00"/><stop offset="0.077" stop-color="#8a1002"/><stop offset="0.459" stop-color="#8a1002"/><stop offset="0.47" stop-color="#d20a11"/><stop offset="0.535" stop-color="#8a1002"/><stop offset="0.543" stop-color="#d20a11"/><stop offset="0.808" stop-color="#d20a11"/><stop offset="1" stop-color="#8a1002"/></linearGradient><linearGradient id="h" x1="115" y1="128.34" x2="115" y2="-30.762" gradientUnits="userSpaceOnUse"><stop offset="0" stop-color="#e94e24"/><stop offset="1" stop-color="#d20a11"/></linearGradient></defs><path class="a" d="M215.607,75.97a3.56,3.56,0,0,1,.81,2.5c0,2.6-1.584,5.63-3.537,6.757a2.552,2.552,0,0,1-1.814.38,2.047,2.047,0,0,0,2.762.2,8.651,8.651,0,0,0,3.643-6.8C217.471,77.281,216.641,76.2,215.607,75.97Z"/><path class="b" d="M112.858,128.761c0,.48.019,7.809.059,9.66a.532.532,0,0,0,.316.573l.819.464c-.049-.489-.078-9.572-.078-10.108l109.6-63.443c0-.576,0-.972,0-1.07Zm2.506,10.475a6.766,6.766,0,0,1,.635,4.22.825.825,0,0,0,.335.837c.24.141.924.534.924.534.023-.064-.441-.2-.351-.812C117.2,142.051,117.33,139.028,115.364,139.236Z"/><path class="c" d="M125.962,127.9a3.552,3.552,0,0,1,.811,2.5c0,2.6-1.583,5.629-3.537,6.756a2.594,2.594,0,0,1-1.836.359,2.075,2.075,0,0,0,2.774.2c1.955-1.127,3.524-4.176,3.524-6.779C127.7,129.209,127,128.122,125.962,127.9Z"/><path class="d" d="M113.783,129.3c0,.466.018,7.645.055,9.825a.387.387,0,0,0,.54.347c2.8-1.175,2.749,2.385,2.473,4.581a.772.772,0,0,0,1.153.763L220.893,85.407a1.289,1.289,0,0,0,.624-1.341c-.322-1.834-.626-6.1,2.913-8.183.049-.546.073-9.978.073-10.512Zm10.378,8.392c-1.951,1.129-3.535-.067-3.535-2.672s1.584-5.629,3.535-6.758,3.537.07,3.537,2.675S126.115,136.562,124.161,137.688ZM213.805,85.76c-1.953,1.129-3.535-.069-3.535-2.673s1.582-5.628,3.535-6.757,3.537.069,3.537,2.673S215.758,84.633,213.805,85.76Z"/><path class="e" d="M5.2,67.43c0,.481.02,7.809.059,9.661a.533.533,0,0,0,.316.572l.819.464c-.049-.488-.078-9.572-.078-10.108l109.6-63.443c0-.576,0-.972,0-1.069ZM7.706,77.905a6.773,6.773,0,0,1,.636,4.22.779.779,0,0,0,.335.806c.239.141.888.545.888.545.022-.064-.406-.184-.315-.792C9.543,80.721,9.672,77.7,7.706,77.905Z"/><path class="f" d="M6.125,67.966c0,.466.019,7.644.055,9.825a.387.387,0,0,0,.541.346c2.8-1.175,2.748,2.386,2.472,4.581a.773.773,0,0,0,1.154.763l102.889-59.4a1.289,1.289,0,0,0,.623-1.341c-.322-1.834-.626-6.1,2.913-8.183.049-.546.073-9.978.073-10.511Z"/><path class="g" d="M230,63.509V62.038L124.558.6a3.862,3.862,0,0,0-3.337-.25,19.878,19.878,0,0,1-12.777.278,3.95,3.95,0,0,0-3.22.315L0,62.413v1.24a1.223,1.223,0,0,0,.456.963,4.314,4.314,0,0,1,1.555,3.815c0,1.258-.413,1.431-1.969,2.53l0,1.4a1.286,1.286,0,0,0,.643,1.11l104.659,60.607a3.839,3.839,0,0,0,3.334.257,19.776,19.776,0,0,1,13.44-.085,3.9,3.9,0,0,0,3.326-.258l103.9-59.983A1.288,1.288,0,0,0,230,72.893l0-1.568c-1.561-.968-2.331-1.3-2.331-2.435a6.651,6.651,0,0,1,1.88-4.429A1.237,1.237,0,0,0,230,63.509Z"/><path class="h" d="M229.39,61.006,124.558.6a3.862,3.862,0,0,0-3.337-.25,19.872,19.872,0,0,1-12.834.259,3.874,3.874,0,0,0-3.163.334L.615,61.345a1.221,1.221,0,0,0-.257,1.922c2.16,2.122,2.31,4.515.066,6.77A1.288,1.288,0,0,0,.68,72.066l104.669,60.421a3.84,3.84,0,0,0,3.333.255,19.775,19.775,0,0,1,13.442-.087,3.892,3.892,0,0,0,3.324-.258l103.9-59.976a1.285,1.285,0,0,0,.238-2.057c-2.494-2.273-2.562-5.129-.01-7.368A1.227,1.227,0,0,0,229.39,61.006Z"/></svg>