<svg id="ffa3fd69-0590-4de8-bb7d-9df973670611" data-name="Layer 1" xmlns="http://www.w3.org/2000/svg" xmlns:xlink="http://www.w3.org/1999/xlink" width="290" height="181" viewBox="0 0 290 181"><defs><style>.bc6d91a9-4e7d-448e-8de0-9b89dea67456{fill:url(#f81c0fd8-1eda-4185-8837-eab1dbf7d5fd);}.e3b987fa-f4d3-4d22-8356-d313c4eb0d80{fill:url(#a64efe21-64bc-41ec-ae7f-5d859ca18dc1);}.b765ea8f-9d1d-4f79-a3a5-2a7a95ab936a{fill:url(#bd4bea87-7d54-4f72-a4a3-02b22708da29);}.a030ef29-cc9d-48e0-bb72-5c6180645298{fill:url(#b56c2906-5743-484b-8fc2-4b1b411d9693);}.f3b7bcf0-db4c-474e-92fd-b935e2966477,.f48a46b9-f962-4cbf-aa04-1ecaf227835d{fill:none;stroke-linecap:round;stroke-linejoin:round;stroke-width:0.73px;}.f3b7bcf0-db4c-474e-92fd-b935e2966477{stroke:#002e48;stroke-dasharray:2.32 3.49;}.f48a46b9-f962-4cbf-aa04-1ecaf227835d{stroke:#64b6e6;opacity:0.8;}</style><linearGradient id="f81c0fd8-1eda-4185-8837-eab1dbf7d5fd" x1="96.66" y1="7.04" x2="124.3" y2="54.47" gradientUnits="userSpaceOnUse"><stop offset="0.29" stop-color="#45bae7"/><stop offset="0.77" stop-color="#0094da"/><stop offset="1" stop-color="#005680"/></linearGradient><linearGradient id="a64efe21-64bc-41ec-ae7f-5d859ca18dc1" x1="138.1" y1="41.28" x2="207.94" y2="162.23" gradientUnits="userSpaceOnUse"><stop offset="0.78" stop-color="#45bae7"/><stop offset="0.92" stop-color="#0094da"/><stop offset="1" stop-color="#005680"/></linearGradient><linearGradient id="bd4bea87-7d54-4f72-a4a3-02b22708da29" x1="190.17" y1="92.97" x2="-16.25" y2="154.07" gradientUnits="userSpaceOnUse"><stop offset="0" stop-color="#0081c2"/><stop offset="1" stop-color="#005680"/></linearGradient><linearGradient id="b56c2906-5743-484b-8fc2-4b1b411d9693" x1="91.82" y1="119.58" x2="85.01" y2="144.55" gradientUnits="userSpaceOnUse"><stop offset="0" stop-color="#002e48"/><stop offset="1" stop-color="#005680"/></linearGradient></defs><title>pll-scaled</title><g id="bb2f04cd-8557-4962-b279-0320dfffc0bb" data-name="pll"><path class="bc6d91a9-4e7d-448e-8de0-9b89dea67456" d="M159.76,32.31s-19.86-19.87-31-25.44S116.53-1.25,111.32,1.3,9.63,59.89,4.43,63.16s-6,13.57-1.21,17.32S32.89,96.35,40.64,103s18.16,9,26.28,11.87S134.4,152.47,140,157.32s24.58,18.41,30,21.8,7,.84,14.05-3.28,90.91-53.5,98.3-56.4,12.48-18.17.36-22.17-25.43-17.8-39.11-21.8-39.88-24.64-54.65-32a168.48,168.48,0,0,0-29.19-11.14Z"/><path class="e3b987fa-f4d3-4d22-8356-d313c4eb0d80" d="M282.4,97.19c-12.11-4-22.64-20.35-36.33-24.35s-39.87-24.64-54.64-32a168.74,168.74,0,0,0-28.87-11c-5.94,2.62-26.5,16.79-36.4,21.29C115,52.14,75.1,78.62,68.2,84.22c-7.75,6.3-15.5,8.83-14.1,11.4,2.59,4.75,26.58,18.16,26.58,18.16l.73.51c11,5.68,33.87,18.12,41.07,23,12.6,8.6,44.69,22.89,49.9,27s4.36,11.62,1.45,9.32l-.11-.09a5.43,5.43,0,0,1,.73,2.52c0,1.39-.07,2.94-.15,4.51,2.56-.11,4.82-2.13,9.44-4.83,7-4.12,90.91-53.5,98.29-56.41S294.51,101.18,282.4,97.19Z"/><path class="b765ea8f-9d1d-4f79-a3a5-2a7a95ab936a" d="M6.85,65.56c5.54,2.78,6,0,8.24,4.49s5.62,2.25,11.24,6.37S40.51,88.16,46.56,92.91c3.22,2.52,9.22,5.75,10,6.28-2.62-2.35-4-3.55-2.31-5.1s1,0,2.5,1.76S71,106,78.4,110.38s37.52,19.18,42.52,23.53,15,6.86,18.43,10.1,16.57,9,23.42,11.85,19.82,7.22,18.15,14.07c-1.29,5.31-1.32,8.94-4.58,10.4-1.92.68-3.66.45-6.34-1.21-5.45-3.39-24.46-17-30-21.8s-64.94-39.53-73-42.44S48.39,109.67,40.64,103,8.06,84.24,3.22,80.48C-.56,77.56-.87,70.65,1.64,66.2,2.74,64.66,4.72,64.48,6.85,65.56Z"/><path class="a030ef29-cc9d-48e0-bb72-5c6180645298" d="M55.17,101.4c1.42.41,12.21,6.45,14.37,7.35,13.72,7.35,42.64,22.3,52.39,28.95,12.59,8.59,44.68,22.89,49.89,27s4.36,11.62,1.46,9.33-4.57-2.86-20-13.33c-15.86-10.77-59.37-35.29-71.24-43.16S52.87,105.67,44.27,98.29c-10-8.57-15.86-9.94-24.71-14.42S2.13,74.19,8.06,71.64s1.1,3.75,6.3,4.12S28.52,81,32.52,84.24,48.87,99.58,55.17,101.4Z"/><path class="f3b7bcf0-db4c-474e-92fd-b935e2966477" d="M18.1,57.79s6.42-.6,10.52,4.09S42.08,68,45.6,72.42s10.83,9.66,18.44,14m6.15-2.93s4.1,3.23,9.66,8.49,55,33.51,65.84,39.66,27.82,11.41,37.76,15.81,13.46,17,6.74,24"/><path class="f48a46b9-f962-4cbf-aa04-1ecaf227835d" d="M18.9,57.56s6.42-.6,10.52,4.09,13.46,6.15,17,10.54,10.83,9.66,18.44,14M71,83.31s4.1,3.22,9.66,8.49,55,33.51,65.84,39.66c9.13,5.18,25.84,10.54,37.76,15.81,9.94,4.39,13.46,17,6.73,24"/></g></svg>