<svg id="Layer_1" data-name="Layer 1" xmlns="http://www.w3.org/2000/svg" xmlns:xlink="http://www.w3.org/1999/xlink" width="73" height="59" viewBox="0 0 73 59"><defs><style>.cls-1{fill:url(#linear-gradient);}.cls-2{fill:#d71921;}.cls-3{fill:url(#linear-gradient-2);}.cls-4{fill:url(#linear-gradient-3);}.cls-5{fill:#670000;}.cls-6{fill:url(#linear-gradient-4);}.cls-7{fill:url(#linear-gradient-5);}</style><linearGradient id="linear-gradient" x1="29.74" y1="17.79" x2="43.26" y2="41.21" gradientUnits="userSpaceOnUse"><stop offset="0" stop-color="#f05a30"/><stop offset="0.21" stop-color="#f48256"/><stop offset="0.55" stop-color="#d71921"/><stop offset="1" stop-color="#8a0304"/></linearGradient><linearGradient id="linear-gradient-2" x1="-105.59" y1="55.53" x2="-94.72" y2="36.7" gradientTransform="matrix(-1, 0, 0, 1, -91.46, 0)" gradientUnits="userSpaceOnUse"><stop offset="0" stop-color="#f48256"/><stop offset="0.32" stop-color="#d71921"/><stop offset="0.71" stop-color="#8a0304"/><stop offset="1" stop-color="#670000"/></linearGradient><linearGradient id="linear-gradient-3" x1="21.18" y1="30.37" x2="14.26" y2="30.37" gradientUnits="userSpaceOnUse"><stop offset="0" stop-color="#d71921"/><stop offset="1" stop-color="#8a0304"/></linearGradient><linearGradient id="linear-gradient-4" x1="57.85" y1="8.82" x2="50.93" y2="8.82" xlink:href="#linear-gradient-3"/><linearGradient id="linear-gradient-5" x1="3.71" y1="51.09" x2="13.67" y2="41.14" gradientUnits="userSpaceOnUse"><stop offset="0.4" stop-color="#670000" stop-opacity="0"/><stop offset="1" stop-color="#670000" stop-opacity="0.8"/></linearGradient></defs><title>t15</title><path class="cls-1" d="M64.26,1.5C62.23.33,60.36.21,58.9,1c-1.87,1-47,28.48-55.45,33.37-1.94,1-3.19,3.41-3.19,7,0,6.24,3.8,13.49,8.48,16.19,2,1.17,5.35.51,5.35.51a.56.56,0,0,0,.17-.06c4.3-2.5,54-32.28,55.81-33.58,1.61-1.16,2.67-3.44,2.67-6.68C72.74,11.45,68.94,4.2,64.26,1.5Z"/><path class="cls-2" d="M17.21,51.09c0-6.23-3.8-13.48-8.47-16.18s-8.48.16-8.48,6.4S4.06,54.8,8.74,57.5s8.47-.17,8.47-6.41Z"/><path class="cls-3" d="M15.8,50.22c0-5.24-3.18-11.32-7.11-13.59S1.58,36.77,1.58,42,4.76,53.33,8.69,55.6s7.11-.14,7.11-5.38Z"/><path class="cls-4" d="M22.88,32.25a7.14,7.14,0,0,1-6.52,0c-1.81-1-1.81-2.72,0-3.76a7.2,7.2,0,0,1,6.52,0c1.81,1,1.81,2.72,0,3.76Z"/><path class="cls-5" d="M16.36,30.15a7.2,7.2,0,0,1,6.52,0A2.8,2.8,0,0,1,24,31.2a2.73,2.73,0,0,1-1.1,1.05,7.14,7.14,0,0,1-6.52,0,2.76,2.76,0,0,1-1.11-1.05A2.83,2.83,0,0,1,16.36,30.15Z"/><path class="cls-6" d="M59.55,10.7a7.22,7.22,0,0,1-6.53,0c-1.8-1-1.8-2.73,0-3.77a7.22,7.22,0,0,1,6.53,0c1.8,1,1.8,2.73,0,3.77Z"/><path class="cls-5" d="M53,8.59a7.22,7.22,0,0,1,6.53,0,2.88,2.88,0,0,1,1.1,1.06,2.94,2.94,0,0,1-1.1,1,7.22,7.22,0,0,1-6.53,0,3,3,0,0,1-1.1-1A3,3,0,0,1,53,8.59Z"/><path class="cls-7" d="M15.8,50.22c0-5.24-3.18-11.32-7.11-13.59S1.58,36.77,1.58,42,4.76,53.33,8.69,55.6s7.11-.14,7.11-5.38Z"/></svg>