<svg id="Layer_1" data-name="Layer 1" xmlns="http://www.w3.org/2000/svg" xmlns:xlink="http://www.w3.org/1999/xlink" width="86" height="66" viewBox="0 0 86 66"><defs><style>.cls-1{fill:url(#linear-gradient);}.cls-2{fill:#d71921;}.cls-3{fill:url(#linear-gradient-2);}.cls-4{fill:url(#linear-gradient-3);}.cls-5{fill:url(#linear-gradient-4);}.cls-6{fill:#670000;}.cls-7{fill:url(#linear-gradient-5);}</style><linearGradient id="linear-gradient" x1="36.29" y1="21.39" x2="49.74" y2="44.68" gradientUnits="userSpaceOnUse"><stop offset="0" stop-color="#f05a30"/><stop offset="0.21" stop-color="#f48256"/><stop offset="0.55" stop-color="#d71921"/><stop offset="1" stop-color="#8a0304"/></linearGradient><linearGradient id="linear-gradient-2" x1="-105.79" y1="62.55" x2="-95.01" y2="43.89" gradientTransform="matrix(-1, 0, 0, 1, -91.46, 0)" gradientUnits="userSpaceOnUse"><stop offset="0" stop-color="#f48256"/><stop offset="0.32" stop-color="#d71921"/><stop offset="0.71" stop-color="#8a0304"/><stop offset="1" stop-color="#670000"/></linearGradient><linearGradient id="linear-gradient-3" x1="-95.47" y1="58.15" x2="-105.34" y2="48.28" gradientTransform="matrix(-1, 0, 0, 1, -91.46, 0)" gradientUnits="userSpaceOnUse"><stop offset="0.4" stop-color="#670000" stop-opacity="0"/><stop offset="1" stop-color="#670000" stop-opacity="0.8"/></linearGradient><linearGradient id="linear-gradient-4" x1="21.33" y1="37.61" x2="14.46" y2="37.61" gradientUnits="userSpaceOnUse"><stop offset="0" stop-color="#d71921"/><stop offset="1" stop-color="#8a0304"/></linearGradient><linearGradient id="linear-gradient-5" x1="70.65" y1="8.75" x2="63.79" y2="8.75" xlink:href="#linear-gradient-4"/></defs><title>t20</title><path class="cls-1" d="M77,1.49C75,.33,73.14.21,71.69,1c-1.85,1-59.57,35.73-67.95,40.59C1.82,42.48.58,44.92.58,48.46.58,54.64,4.34,61.83,9,64.51c2,1.16,3.86,1.28,5.3.54a.73.73,0,0,0,.29-.07C18.84,62.49,81,25.46,82.78,24.17c1.59-1.15,2.64-3.41,2.64-6.63C85.42,11.36,81.66,4.17,77,1.49Z"/><path class="cls-2" d="M17.38,58.16c0-6.19-3.76-13.38-8.39-16S.58,42.27.58,48.46,4.34,61.83,9,64.51s8.39-.17,8.39-6.35Z"/><path class="cls-3" d="M16,57.29c0-5.19-3.15-11.23-7-13.48s-7,.14-7,5.34S5,60.38,8.94,62.63,16,62.49,16,57.29Z"/><path class="cls-4" d="M16,57.29c0-5.19-3.15-11.23-7-13.48s-7,.14-7,5.34S5,60.38,8.94,62.63,16,62.49,16,57.29Z"/><path class="cls-5" d="M23,39.47a7.1,7.1,0,0,1-6.47,0c-1.79-1-1.79-2.7,0-3.73a7.16,7.16,0,0,1,6.47,0c1.79,1,1.79,2.7,0,3.73Z"/><path class="cls-6" d="M16.54,37.38a7.16,7.16,0,0,1,6.47,0,2.94,2.94,0,0,1,1.1,1,2.85,2.85,0,0,1-1.1,1,7.1,7.1,0,0,1-6.47,0,2.75,2.75,0,0,1-1.09-1A2.83,2.83,0,0,1,16.54,37.38Z"/><path class="cls-7" d="M72.34,10.61a7.1,7.1,0,0,1-6.47,0c-1.79-1-1.79-2.7,0-3.73a7.16,7.16,0,0,1,6.47,0c1.79,1,1.79,2.7,0,3.73Z"/><path class="cls-6" d="M65.87,8.52a7.16,7.16,0,0,1,6.47,0,2.94,2.94,0,0,1,1.1,1.05,2.85,2.85,0,0,1-1.1,1,7.1,7.1,0,0,1-6.47,0,2.75,2.75,0,0,1-1.09-1A2.83,2.83,0,0,1,65.87,8.52Z"/></svg>