<svg id="Layer_1" data-name="Layer 1" xmlns="http://www.w3.org/2000/svg" xmlns:xlink="http://www.w3.org/1999/xlink" width="122" height="87" viewBox="0 0 122 87"><defs><style>.cls-1{fill:url(#linear-gradient);}.cls-2{fill:#d71921;}.cls-3{fill:url(#linear-gradient-2);}.cls-4{fill:url(#New_Gradient_Swatch_2);}.cls-5{fill:url(#linear-gradient-3);}.cls-6{fill:#670000;}.cls-7{fill:url(#linear-gradient-4);}</style><linearGradient id="linear-gradient" x1="54.42" y1="32.1" x2="67.58" y2="54.9" gradientUnits="userSpaceOnUse"><stop offset="0" stop-color="#f05a30"/><stop offset="0.21" stop-color="#f48256"/><stop offset="0.55" stop-color="#d71921"/><stop offset="1" stop-color="#8a0304"/></linearGradient><linearGradient id="linear-gradient-2" x1="-105.24" y1="83.52" x2="-94.66" y2="65.2" gradientTransform="matrix(-1, 0, 0, 1, -91.46, 0)" gradientUnits="userSpaceOnUse"><stop offset="0" stop-color="#f48256"/><stop offset="0.32" stop-color="#d71921"/><stop offset="0.71" stop-color="#8a0304"/><stop offset="1" stop-color="#670000"/></linearGradient><linearGradient id="New_Gradient_Swatch_2" x1="-95.11" y1="79.2" x2="-104.79" y2="69.52" gradientTransform="matrix(-1, 0, 0, 1, -91.46, 0)" gradientUnits="userSpaceOnUse"><stop offset="0.4" stop-color="#670000" stop-opacity="0"/><stop offset="1" stop-color="#670000" stop-opacity="0.8"/></linearGradient><linearGradient id="linear-gradient-3" x1="20.64" y1="59.04" x2="13.91" y2="59.04" gradientUnits="userSpaceOnUse"><stop offset="0" stop-color="#d71921"/><stop offset="1" stop-color="#8a0304"/></linearGradient><linearGradient id="linear-gradient-4" x1="106.44" y1="9.08" x2="99.7" y2="9.08" xlink:href="#linear-gradient-3"/></defs><title>t35</title><path class="cls-1" d="M113.47,1.56c-2-1.14-3.8-1.26-5.23-.53C106.42,2,11.61,58.13,3.39,62.9c-1.89.92-3.1,3.31-3.1,6.79C.29,75.76,4,82.81,8.53,85.44c2,1.14,3.79,1.26,5.21.53l.24-.13c4.18-2.44,103.39-60.76,105.14-62,1.56-1.13,2.59-3.35,2.59-6.51C121.71,11.24,118,4.19,113.47,1.56Z"/><path class="cls-2" d="M16.78,79.21c0-6.07-3.69-13.13-8.25-15.76S.29,63.62.29,69.69,4,82.81,8.53,85.44s8.25-.16,8.25-6.23Z"/><path class="cls-3" d="M15.41,78.36c0-5.1-3.1-11-6.92-13.23s-6.92.13-6.92,5.23,3.1,11,6.92,13.23,6.92-.13,6.92-5.23Z"/><path class="cls-4" d="M15.41,78.36c0-5.1-3.1-11-6.92-13.23s-6.92.13-6.92,5.23,3.1,11,6.92,13.23,6.92-.13,6.92-5.23Z"/><path class="cls-5" d="M22.3,60.87a7,7,0,0,1-6.35,0c-1.76-1-1.76-2.65,0-3.66a7,7,0,0,1,6.35,0c1.76,1,1.76,2.65,0,3.66Z"/><path class="cls-6" d="M16,58.82a7,7,0,0,1,6.35,0,2.73,2.73,0,0,1,1.07,1,2.71,2.71,0,0,1-1.07,1,7,7,0,0,1-6.35,0,2.71,2.71,0,0,1-1.07-1A2.73,2.73,0,0,1,16,58.82Z"/><path class="cls-7" d="M108.09,10.91a7,7,0,0,1-6.35,0c-1.75-1-1.75-2.65,0-3.67a7,7,0,0,1,6.35,0c1.76,1,1.76,2.66,0,3.67Z"/><path class="cls-6" d="M101.74,8.86a7,7,0,0,1,6.35,0,2.73,2.73,0,0,1,1.07,1,2.78,2.78,0,0,1-1.07,1,7,7,0,0,1-6.35,0,2.78,2.78,0,0,1-1.07-1A2.73,2.73,0,0,1,101.74,8.86Z"/></svg>