<svg id="a8b80607-435a-4c94-8230-8286e4df996d" data-name="Layer 1" xmlns="http://www.w3.org/2000/svg" xmlns:xlink="http://www.w3.org/1999/xlink" width="194" height="48" viewBox="0 0 194 48"><defs><style>.\30 37df2ee-2840-45d0-9db8-a08419570a83{fill:url(#0a2c0c0d-dab2-406e-8757-2b31943b6769);}.ab6864bd-dfed-4965-85f9-00dfe64cbc1e{fill:#d10a11;}.fe86b8d2-03d3-4bf4-8b60-9977ee07d837{fill:url(#36f5a432-a954-496f-9a76-555c38e7d772);}.\31 95b47a8-328b-4ae9-900b-05d8e32b00cf{fill:url(#aa766955-c0ea-4a8b-8da2-d1906d0a9a1a);}.\39 0d6f0e6-3904-49c1-abb2-6070e8db837f{fill:url(#a2fd086d-ed76-481b-b025-c358bff859f5);}.f8b7907a-05d5-492e-9dc9-6ccf3cc9d1bd{fill:url(#436d84cf-fd15-462d-bc7e-5565626f72dd);}.\36 071f3a3-dc8c-42fa-8734-50b5cd2c4f41{fill:url(#868f547a-b24a-4cee-bb35-7281d21f5eb5);}.\39 679ee84-d6e5-4e8d-aace-983934b4106a{fill:#630c00;}.da3d2190-fac9-42e3-aa1f-60db762b2d42{fill:url(#9d5df940-99a8-4469-a67e-a9b5dbc173a5);}</style><radialGradient id="0a2c0c0d-dab2-406e-8757-2b31943b6769" cx="96.37" cy="39.09" r="36.3" gradientTransform="translate(-13.54 135.46) rotate(-90) scale(1 2.81)" gradientUnits="userSpaceOnUse"><stop offset="0.51" stop-color="#881002"/><stop offset="0.74" stop-color="#ce0b10"/><stop offset="0.91" stop-color="#ee7c4b"/><stop offset="1" stop-color="#e84e24"/></radialGradient><linearGradient id="36f5a432-a954-496f-9a76-555c38e7d772" x1="1047.47" y1="44.33" x2="1057.53" y2="26.9" gradientTransform="matrix(-1, 0, 0, 1, 1060.47, 0)" gradientUnits="userSpaceOnUse"><stop offset="0" stop-color="#ef8050"/><stop offset="0.32" stop-color="#d10a11"/><stop offset="0.71" stop-color="#881002"/><stop offset="1" stop-color="#630c00"/></linearGradient><linearGradient id="aa766955-c0ea-4a8b-8da2-d1906d0a9a1a" x1="950.46" y1="44.33" x2="960.52" y2="26.9" gradientTransform="translate(-769.46)" xlink:href="#36f5a432-a954-496f-9a76-555c38e7d772"/><linearGradient id="a2fd086d-ed76-481b-b025-c358bff859f5" x1="1057.11" y1="40.22" x2="1047.89" y2="31.01" gradientTransform="matrix(-1, 0, 0, 1, 1060.47, 0)" gradientUnits="userSpaceOnUse"><stop offset="0.4" stop-color="#630c00" stop-opacity="0"/><stop offset="1" stop-color="#630c00" stop-opacity="0.8"/></linearGradient><linearGradient id="436d84cf-fd15-462d-bc7e-5565626f72dd" x1="960.1" y1="40.22" x2="950.88" y2="31.01" gradientTransform="translate(-769.46)" xlink:href="#a2fd086d-ed76-481b-b025-c358bff859f5"/><linearGradient id="868f547a-b24a-4cee-bb35-7281d21f5eb5" x1="23.84" y1="34.72" x2="25.29" y2="29.73" gradientUnits="userSpaceOnUse"><stop offset="0" stop-color="#d10a11"/><stop offset="1" stop-color="#881002"/></linearGradient><linearGradient id="9d5df940-99a8-4469-a67e-a9b5dbc173a5" x1="169.92" y1="35.87" x2="168.48" y2="30.88" xlink:href="#868f547a-b24a-4cee-bb35-7281d21f5eb5"/></defs><title>tc1-scaled</title><path class="037df2ee-2840-45d0-9db8-a08419570a83" d="M191.4,25h0c-1.26-.79-2.72-1.73-4.05-2.49C137.45-6.3,56.55-6.3,6.65,22.51,5.44,23.21,4.2,24,3,24.74l-.11.07-.37.24h0C1.08,26.1.17,28.23.17,31.17c0,5.77,3.51,12.49,7.84,15,2.25,1.29,4.27,1.19,5.7,0A94.82,94.82,0,0,1,22.91,40C63.83,16.4,130.17,16.4,171.09,40a90.06,90.06,0,0,1,9.3,6.23l.12.08h0c1.41,1,3.34,1,5.47-.19,4.33-2.5,7.84-9.22,7.84-15C193.83,28.19,192.89,26.05,191.4,25Z"/><path class="ab6864bd-dfed-4965-85f9-00dfe64cbc1e" d="M15.86,40.23c0-5.78-3.51-12.49-7.85-15S.17,25.39.17,31.17,3.68,43.66,8,46.16s7.85-.16,7.85-5.93Z"/><path class="fe86b8d2-03d3-4bf4-8b60-9977ee07d837" d="M14.56,39.42c0-4.85-3-10.49-6.59-12.59s-6.59.13-6.59,5S4.33,42.3,8,44.4s6.59-.13,6.59-5Z"/><path class="ab6864bd-dfed-4965-85f9-00dfe64cbc1e" d="M178.14,40.23c0-5.78,3.51-12.49,7.85-15s7.84.15,7.84,5.93-3.51,12.49-7.84,15-7.85-.16-7.85-5.93Z"/><path class="195b47a8-328b-4ae9-900b-05d8e32b00cf" d="M179.44,39.42c0-4.85,2.95-10.49,6.59-12.59s6.59.13,6.59,5-3,10.49-6.59,12.59-6.59-.13-6.59-5Z"/><path class="90d6f0e6-3904-49c1-abb2-6070e8db837f" d="M14.56,39.42c0-4.85-3-10.49-6.59-12.59s-6.59.13-6.59,5S4.33,42.3,8,44.4s6.59-.13,6.59-5Z"/><path class="f8b7907a-05d5-492e-9dc9-6ccf3cc9d1bd" d="M179.44,39.42c0-4.85,2.95-10.49,6.59-12.59s6.59.13,6.59,5-3,10.49-6.59,12.59-6.59-.13-6.59-5Z"/><path class="6071f3a3-dc8c-42fa-8734-50b5cd2c4f41" d="M21.14,35.7a6.43,6.43,0,0,1,2.9-5c1.61-.92,2.91-.17,2.91,1.68a6.42,6.42,0,0,1-2.91,5c-1.6.92-2.9.17-2.9-1.68Z"/><path class="9679ee84-d6e5-4e8d-aace-983934b4106a" d="M25.67,31.61a6.42,6.42,0,0,1-2.91,5,2.61,2.61,0,0,1-1.3.38,2.55,2.55,0,0,1-.32-1.32,6.43,6.43,0,0,1,2.9-5,2.61,2.61,0,0,1,1.3-.38A2.55,2.55,0,0,1,25.67,31.61Z"/><path class="da3d2190-fac9-42e3-aa1f-60db762b2d42" d="M172.29,35.7a6.43,6.43,0,0,0-2.9-5c-1.6-.92-2.9-.17-2.9,1.68a6.43,6.43,0,0,0,2.9,5c1.6.92,2.9.17,2.9-1.68Z"/><path class="9679ee84-d6e5-4e8d-aace-983934b4106a" d="M167.77,31.61a6.43,6.43,0,0,0,2.9,5A2.61,2.61,0,0,0,172,37a2.55,2.55,0,0,0,.32-1.32,6.43,6.43,0,0,0-2.9-5,2.61,2.61,0,0,0-1.3-.38A2.55,2.55,0,0,0,167.77,31.61Z"/></svg>