<svg xmlns="http://www.w3.org/2000/svg" xmlns:xlink="http://www.w3.org/1999/xlink" width="122" height="86" viewBox="0 0 122 86"><defs><style>.a{fill:url(#a);}.b{fill:#d11317;}.c{fill:url(#b);}.d{fill:url(#c);}.e{fill:url(#d);}.f{fill:#62140c;}.g{fill:url(#e);}.h{fill:url(#f);}</style><linearGradient id="a" x1="54.419" y1="31.602" x2="67.58" y2="54.397" gradientUnits="userSpaceOnUse"><stop offset="0" stop-color="#e84e26"/><stop offset="0.214" stop-color="#f08050"/><stop offset="0.555" stop-color="#d11317"/><stop offset="1" stop-color="#881811"/></linearGradient><linearGradient id="b" x1="-301.239" y1="83.02" x2="-290.663" y2="64.702" gradientTransform="matrix(-1, 0, 0, 1, -287.461, 0)" gradientUnits="userSpaceOnUse"><stop offset="0" stop-color="#f08050"/><stop offset="0.324" stop-color="#d11317"/><stop offset="0.714" stop-color="#881811"/><stop offset="1" stop-color="#62140c"/></linearGradient><linearGradient id="c" x1="-291.107" y1="78.704" x2="-300.794" y2="69.017" gradientTransform="matrix(-1, 0, 0, 1, -287.461, 0)" gradientUnits="userSpaceOnUse"><stop offset="0.4" stop-color="#62140c" stop-opacity="0"/><stop offset="1" stop-color="#62140c" stop-opacity="0.8"/></linearGradient><linearGradient id="d" x1="20.645" y1="58.54" x2="13.909" y2="58.54" gradientUnits="userSpaceOnUse"><stop offset="0" stop-color="#d11317"/><stop offset="1" stop-color="#881811"/></linearGradient><linearGradient id="e" x1="106.437" y1="8.578" x2="99.701" y2="8.578" xlink:href="#d"/><linearGradient id="f" x1="23.918" y1="78.271" x2="27.32" y2="75.812" xlink:href="#d"/></defs><path class="a" d="M113.466,1.061c-1.98-1.144-3.8-1.262-5.222-.529-1.82.939-96.631,57.1-104.858,61.864C1.5,63.322.29,65.714.29,69.187c0,6.072,3.69,13.124,8.244,15.752,1.975,1.141,3.788,1.259,5.208.533,0,0,.172-.091.238-.129,4.18-2.439,103.389-60.76,105.139-62.024,1.564-1.129,2.591-3.352,2.591-6.506C121.71,10.742,118.02,3.69,113.466,1.061Z"/><path class="b" d="M16.777,78.706c0-6.07-3.691-13.123-8.243-15.751S.29,63.116.29,69.187,3.98,82.311,8.534,84.939s8.243-.162,8.243-6.233Z"/><path class="c" d="M15.412,77.858c0-5.1-3.1-11.022-6.921-13.228s-6.925.134-6.925,5.234,3.1,11.02,6.925,13.229,6.921-.137,6.921-5.235Z"/><path class="d" d="M15.412,77.858c0-5.1-3.1-11.022-6.921-13.228s-6.925.134-6.925,5.234,3.1,11.02,6.925,13.229,6.921-.137,6.921-5.235Z"/><path class="e" d="M22.3,60.373a7.008,7.008,0,0,1-6.35,0c-1.755-1.012-1.755-2.653,0-3.666a7.014,7.014,0,0,1,6.35,0c1.756,1.013,1.756,2.654,0,3.666Z"/><path class="f" d="M15.949,58.322a7.02,7.02,0,0,1,6.35,0,2.8,2.8,0,0,1,1.073,1.026A2.779,2.779,0,0,1,22.3,60.373a7.008,7.008,0,0,1-6.35,0,2.779,2.779,0,0,1-1.073-1.025A2.8,2.8,0,0,1,15.949,58.322Z"/><path class="g" d="M108.091,10.411a7.008,7.008,0,0,1-6.35,0c-1.755-1.012-1.755-2.654,0-3.667a7.014,7.014,0,0,1,6.35,0c1.757,1.013,1.757,2.655,0,3.667Z"/><path class="f" d="M101.741,8.36a7.02,7.02,0,0,1,6.35,0,2.806,2.806,0,0,1,1.074,1.026,2.8,2.8,0,0,1-1.074,1.025,7.008,7.008,0,0,1-6.35,0,2.794,2.794,0,0,1-1.073-1.025A2.8,2.8,0,0,1,101.741,8.36Z"/><path class="h" d="M28.878,75.167c.248.427-1.029,1.624-2.85,2.677s-3.5,1.555-3.741,1.128,1.027-1.627,2.848-2.678S28.631,74.736,28.878,75.167Z"/><path class="f" d="M22.763,78.042a13.834,13.834,0,0,0,1.968-.947,11.4,11.4,0,0,0,2.371-1.75,13.592,13.592,0,0,0-1.967.949A11.307,11.307,0,0,0,22.763,78.042Z"/></svg>