<svg id="ac1806c4-2432-4df1-a433-2dd09f16a1a7" data-name="Layer 1" xmlns="http://www.w3.org/2000/svg" xmlns:xlink="http://www.w3.org/1999/xlink" width="36" height="34.47" viewBox="0 0 36 34.47"><defs><style>.a5898c58-a60e-4193-9372-9ef8fdb5dea8{fill:url(#eab5233d-6cce-4064-a364-8c1170e64640);}.ae8c94c8-c2de-4b5a-a9e2-2a29ba4c159a{fill:#500800;}.bea48326-a9f9-4263-a812-18b9db134b10{fill:url(#a61e8a94-25db-4941-82ef-31a6610aa87a);}.b71812d3-7efe-473c-8c78-20819880ab24{fill:url(#e9d85015-31fd-4165-9f3b-41aa9cc4604f);}.b1a5e6d1-473a-4748-84bc-5f56d0c28383{fill-rule:evenodd;fill:url(#baf6ffee-6627-4500-8499-2027ebe85bc6);}.b6c9a01e-f6ac-42cd-8f1a-97e07a63a47f{fill:url(#b798e5f2-a4bf-4ab9-8ea0-885222dc89f0);}.e71eb802-05d8-40e4-a402-9fbfc7aab23a{fill:url(#fa87232a-abf9-47ee-a007-51a12bb3b32f);}.a133f25b-1c6a-4fcc-958d-07dab3f039f8{fill:url(#a09e272a-4fa3-4e02-80d6-c41d0053c4dc);}.e54d4eac-3dc2-4761-8e36-aa8d1cccc0e1{fill:url(#b09dc744-9e1d-4bfd-8007-6a2a15a0b15b);}.a17132ff-ff46-47c6-bf2a-e42f7e8c4c15{fill:url(#a644f3e6-f5de-456d-8750-52ca9065f113);}.b1a5cff1-049a-4f05-9a68-91546a8909e1{fill:url(#eb7239fb-5559-458f-a4fc-b2ad7286863d);}.b6bcb723-88d0-4d41-bc4b-06457db5f418{fill:url(#ec1168ee-11c5-4094-bbb9-b92ab3f3a6c8);}.a3175375-af50-4a88-b0a6-4940f48bb610{fill:#881002;}.b9e5225b-ddab-4bd4-b230-6d4bd3d9c2a2{fill:url(#f3bd86aa-9d7d-437e-9136-6280befadec2);}.ba24a7e1-4588-40f1-b60c-a47f7e97bf7d{fill:url(#a1c67e9b-742c-4d9e-bcae-3fc776b60829);}</style><linearGradient id="eab5233d-6cce-4064-a364-8c1170e64640" x1="22.86" y1="31.13" x2="29.11" y2="12.09" gradientUnits="userSpaceOnUse"><stop offset="0" stop-color="#881002"/><stop offset="0.32" stop-color="#d10a11"/><stop offset="0.78" stop-color="#ef8050"/><stop offset="0.99" stop-color="#f29669"/></linearGradient><linearGradient id="a61e8a94-25db-4941-82ef-31a6610aa87a" x1="6.52" y1="21.27" x2="17.19" y2="2.78" gradientUnits="userSpaceOnUse"><stop offset="0" stop-color="#881002"/><stop offset="0.32" stop-color="#d10a11"/><stop offset="0.78" stop-color="#ef8050"/><stop offset="1" stop-color="#e84e24"/></linearGradient><linearGradient id="e9d85015-31fd-4165-9f3b-41aa9cc4604f" x1="14.69" y1="18.83" x2="11.73" y2="22.4" gradientUnits="userSpaceOnUse"><stop offset="0" stop-color="#770f00"/><stop offset="1" stop-color="#d10a11"/></linearGradient><linearGradient id="baf6ffee-6627-4500-8499-2027ebe85bc6" x1="3.72" y1="15.63" x2="7.12" y2="-0.13" gradientUnits="userSpaceOnUse"><stop offset="0" stop-color="#770f00"/><stop offset="0.46" stop-color="#d10a11"/><stop offset="0.8" stop-color="#e84e24"/><stop offset="1" stop-color="#d10a11"/></linearGradient><linearGradient id="b798e5f2-a4bf-4ab9-8ea0-885222dc89f0" x1="15.9" y1="28.85" x2="22.15" y2="9.81" xlink:href="#eab5233d-6cce-4064-a364-8c1170e64640"/><linearGradient id="fa87232a-abf9-47ee-a007-51a12bb3b32f" x1="29.83" y1="13.95" x2="21.9" y2="25.18" xlink:href="#a61e8a94-25db-4941-82ef-31a6610aa87a"/><linearGradient id="a09e272a-4fa3-4e02-80d6-c41d0053c4dc" x1="30.03" y1="14.11" x2="22.11" y2="25.33" xlink:href="#a61e8a94-25db-4941-82ef-31a6610aa87a"/><linearGradient id="b09dc744-9e1d-4bfd-8007-6a2a15a0b15b" x1="15.51" y1="20.75" x2="13.77" y2="17.43" gradientUnits="userSpaceOnUse"><stop offset="0.15" stop-color="#710e00"/><stop offset="0.42" stop-color="#d10a11"/><stop offset="0.78" stop-color="#ef8050"/><stop offset="1" stop-color="#e84e24"/></linearGradient><linearGradient id="a644f3e6-f5de-456d-8750-52ca9065f113" x1="32.15" y1="32.71" x2="16.12" y2="10.86" gradientUnits="userSpaceOnUse"><stop offset="0" stop-color="#881002"/><stop offset="0.47" stop-color="#d10a11"/><stop offset="1" stop-color="#e84e24"/></linearGradient><linearGradient id="eb7239fb-5559-458f-a4fc-b2ad7286863d" x1="34.12" y1="31.26" x2="18.1" y2="9.42" xlink:href="#a644f3e6-f5de-456d-8750-52ca9065f113"/><linearGradient id="ec1168ee-11c5-4094-bbb9-b92ab3f3a6c8" x1="18.54" y1="29.73" x2="24.81" y2="10.64" xlink:href="#eab5233d-6cce-4064-a364-8c1170e64640"/><linearGradient id="f3bd86aa-9d7d-437e-9136-6280befadec2" x1="36.1" y1="29.81" x2="20.07" y2="7.97" xlink:href="#a644f3e6-f5de-456d-8750-52ca9065f113"/><linearGradient id="a1c67e9b-742c-4d9e-bcae-3fc776b60829" x1="22.43" y1="17.34" x2="29.22" y2="22.65" gradientUnits="userSpaceOnUse"><stop offset="0" stop-color="#500800" stop-opacity="0.9"/><stop offset="0.05" stop-color="#500800" stop-opacity="0.8"/><stop offset="0.3" stop-color="#500800" stop-opacity="0.36"/><stop offset="0.51" stop-color="#500800" stop-opacity="0.1"/><stop offset="0.65" stop-color="#500800" stop-opacity="0"/></linearGradient></defs><title>wml-scaled</title><g id="a17f873f-4837-44cd-a144-d1fad8b7e9b1" data-name="wml"><path class="a5898c58-a60e-4193-9372-9ef8fdb5dea8" d="M34.66,17.57a3.92,3.92,0,0,1,.79.36l-5.79,3.34a9.94,9.94,0,0,1-3.81,4.87,2.9,2.9,0,0,1-3.15.16,2.79,2.79,0,0,1-.66-.63L16.23,29c.61,2.67,2,4.45,3.86,5.14a7.58,7.58,0,0,1-4.68-5.47l5.82-3.36a5.84,5.84,0,0,0,.76.33L16.23,29,22,25.67a2.79,2.79,0,0,0,.66.63A3.36,3.36,0,0,0,25,25.8a9.83,9.83,0,0,0,3.8-4.87l5.82-3.36Z"/><polygon class="ae8c94c8-c2de-4b5a-a9e2-2a29ba4c159a" points="22.05 25.66 16.23 29.02 15.41 28.68 21.23 25.33 22.05 25.66"/><path class="bea48326-a9f9-4263-a812-18b9db134b10" d="M15,26.18,4.35,20c-1.64-.77-2.76-2.84-2.76-5.82C1.59,9,4.69,3.06,8.55.84A4.66,4.66,0,0,1,13.25.5L24.33,6.92c-4.25,2.9-7.5,8.78-8.59,14.72l.19.16-.41.42a19.4,19.4,0,0,0-.33,3.18c0,.27-.06.58,0,.85Z"/><path class="ae8c94c8-c2de-4b5a-a9e2-2a29ba4c159a" d="M4.57,10.6l.18-.45,12,6.94-.17.45-12-6.94Zm10.6,12.87L5.05,17.61a3.25,3.25,0,0,1-.63-.88L15.22,23c0,.17,0,.34-.05.52Zm5.33,3.08.47-.3-.47.3Z"/><path class="b71812d3-7efe-473c-8c78-20819880ab24" d="M12.75,17.47a1.34,1.34,0,0,1,.82.21A4.16,4.16,0,0,1,15.31,21c0,1.28-.78,1.87-1.74,1.31a2.58,2.58,0,0,1-.82-.75,17,17,0,0,0,.11-2,20.68,20.68,0,0,0-.11-2.11Z"/><path class="b1a5e6d1-473a-4748-84bc-5f56d0c28383" d="M.18,12C.18,7.7,2.77,2.74,6,.89A4.91,4.91,0,0,1,8.1.2,24.28,24.28,0,0,1,11.68,0a5.49,5.49,0,0,0-3,.83c-3.86,2.23-7,8.21-7,13.35A7.59,7.59,0,0,0,3,18.86a19.06,19.06,0,0,1-2.13-3.7A7.17,7.17,0,0,1,.18,12Z"/><path class="b6c9a01e-f6ac-42cd-8f1a-97e07a63a47f" d="M21.42,19.06l.4.18-5.67,3.27a19.83,19.83,0,0,0-.27,3.23,14.65,14.65,0,0,0,.27,2.92l-.81-.34a14.65,14.65,0,0,1-.27-2.92,19.83,19.83,0,0,1,.27-3.23l1-.56-.08.45,5.19-3Z"/><path class="ae8c94c8-c2de-4b5a-a9e2-2a29ba4c159a" d="M15.34,22.17l1-.56-.08.45,5.22-3,.05,0c.16.08.32.18.4.21l-5.75,3.31"/><path class="e71eb802-05d8-40e4-a402-9fbfc7aab23a" d="M27.52,13.28l2.33,1.32,3.26-1.88c-3.26,1.88-3.26,1.88-3.25,1.89a5.54,5.54,0,0,1,.61,2.71,9.59,9.59,0,0,1-.66,3.53l-.76-.43-6.11-3.54a8.82,8.82,0,0,1,2.91-3,3.81,3.81,0,0,1,1.67-.55Z"/><path class="a133f25b-1c6a-4fcc-958d-07dab3f039f8" d="M22.73,17.25l6.93,4-.07.16a9.8,9.8,0,0,1-3.74,4.71c-1.58.91-3,.66-3.81-.47l-5.65,3.26L22,25.67l-.43-.16.18-.16a5.12,5.12,0,0,1-.72-2.67,6.06,6.06,0,0,1,.78-3.46c0-.08-.23-.11-.39-.18L22,18.7a12.83,12.83,0,0,1,.69-1.45Z"/><path class="e54d4eac-3dc2-4761-8e36-aa8d1cccc0e1" d="M13.57,17.68a1.24,1.24,0,0,0-.79-.21c.34-.29.68-.43,1-.65a1.28,1.28,0,0,1,.82.2,4.16,4.16,0,0,1,1.74,3.32,1.59,1.59,0,0,1-.53,1.36,8.62,8.62,0,0,1-.92.61A1.69,1.69,0,0,0,15.31,21a4.16,4.16,0,0,0-1.74-3.32Zm-.82-.19v.08s0-.05,0-.08Z"/><path class="a17132ff-ff46-47c6-bf2a-e42f7e8c4c15" d="M35.47,17.91c-1.14,6.32-5,12.71-9.62,15.37S17.37,34,16.23,29L22,25.67c.84,1.13,2.23,1.38,3.81.47a9.94,9.94,0,0,0,3.81-4.87l5.81-3.36Z"/><path class="ae8c94c8-c2de-4b5a-a9e2-2a29ba4c159a" d="M29.85,14.6l-2.33-1.32a2.41,2.41,0,0,1,2.14,1l5.49-3.17.4.18-5.7,3.29Zm-7.12,2.65.21-.37,6.11,3.54.76.43,5.3-3.13.36.19-5.81,3.36Z"/><path class="b1a5cff1-049a-4f05-9a68-91546a8909e1" d="M29.85,14.6l5.7-3.29a14.65,14.65,0,0,1,.27,2.92,19.83,19.83,0,0,1-.27,3.23l-5.74,3.39.05-.16a10,10,0,0,0,.61-3.37,5.47,5.47,0,0,0-.62-2.72Zm-13.7,7.91,5.7-3.29a10.67,10.67,0,0,0-.62,3.43,5.47,5.47,0,0,0,.62,2.72l-5.7,3.29a14.65,14.65,0,0,1-.27-2.92,19.83,19.83,0,0,1,.27-3.23Z"/><path class="b6bcb723-88d0-4d41-bc4b-06457db5f418" d="M15.41,21.72C16.56,15.4,20.43,9,25,6.35a7.9,7.9,0,0,1,5-1.15,7.26,7.26,0,0,1,2.23.93c-1.45-.82-4.4-.62-6.45.56-4.6,2.66-8.48,9.05-9.62,15.37l-.82-.34Z"/><polygon class="a3175375-af50-4a88-b0a6-4940f48bb610" points="29.66 14.31 27.09 12.87 29.9 13.12 29.66 14.31"/><path class="b9e5225b-ddab-4bd4-b230-6d4bd3d9c2a2" d="M16.23,22.06c1.14-6.32,5-12.71,9.62-15.37S34.33,6,35.47,11L29.66,14.3c-.84-1.13-2.23-1.38-3.81-.47A9.94,9.94,0,0,0,22,18.7l-5.81,3.36Z"/><path class="ba24a7e1-4588-40f1-b60c-a47f7e97bf7d" d="M25.9,26.11c3.23-2.13,4.54-5.83,4.54-9.46a3.83,3.83,0,0,0-1.39-2.93,2.86,2.86,0,0,0-3.2.11A9.94,9.94,0,0,0,22,18.7l-1.23.71h0l.61-.35.4.18-1.11.63h0l1.14-.65a10.67,10.67,0,0,0-.62,3.43,5.47,5.47,0,0,0,.62,2.72l-.2.11,0,0,.43.16.18.19A2.78,2.78,0,0,0,25.9,26.11Z"/></g></svg>