<svg id="ac274b94-9e1d-485a-9a6e-d9e4836fd1e5" data-name="Layer 1" xmlns="http://www.w3.org/2000/svg" xmlns:xlink="http://www.w3.org/1999/xlink" width="206" height="130" viewBox="0 0 206 130"><defs><style>.ae088174-9359-47e5-bb55-3e8de793d711,.b48549d5-e6e5-4dc7-9c13-8ff00ffc33c3{fill-rule:evenodd;}.ae088174-9359-47e5-bb55-3e8de793d711{fill:url(#a60525c1-2b55-4918-acc5-61a402635dbd);}.b48549d5-e6e5-4dc7-9c13-8ff00ffc33c3{fill:url(#a986b67b-36c3-4449-a1a4-c793e32798c4);}.b733b5fa-0588-4390-bab0-a0bb22ffd817{fill:url(#feae3364-4311-408c-a2c3-fd91c4f844a3);}.ad16fa69-01b8-4184-bedc-8b4561b22e73{fill:#ef8050;}.ffcc6d0a-0fae-43bf-a687-2e9722bff78c{fill:#881002;}</style><linearGradient id="a60525c1-2b55-4918-acc5-61a402635dbd" x1="101.91" y1="51.81" x2="120.81" y2="109.61" gradientUnits="userSpaceOnUse"><stop offset="0" stop-color="#f6ab6f"/><stop offset="0.15" stop-color="#ef8050"/><stop offset="0.61" stop-color="#d10a11"/></linearGradient><linearGradient id="a986b67b-36c3-4449-a1a4-c793e32798c4" x1="194.96" y1="68.93" x2="33.56" y2="68.93" gradientUnits="userSpaceOnUse"><stop offset="0.13" stop-color="#d10a11"/><stop offset="0.48" stop-color="#ef8050"/><stop offset="0.78" stop-color="#d10a11"/><stop offset="1" stop-color="#881002"/></linearGradient><linearGradient id="feae3364-4311-408c-a2c3-fd91c4f844a3" x1="35.42" y1="54.78" x2="215.49" y2="54.78" gradientUnits="userSpaceOnUse"><stop offset="0.13" stop-color="#d10a11"/><stop offset="0.48" stop-color="#ef8050"/><stop offset="0.76" stop-color="#d10a11"/><stop offset="1" stop-color="#881002"/></linearGradient></defs><title>wtr-scaled</title><g id="f8b56467-ad66-4652-b204-9cd202ecfda4" data-name="wtr"><path class="ae088174-9359-47e5-bb55-3e8de793d711" d="M171.27,36c12.29-6.39,21.14-12.92,26.48-18.52-9.64-.39-28.46,6.21-57.68,24.85C60.65,93,36.21,91.56,12.9,104.06a37.12,37.12,0,0,0-5.21,3.33c6.34,3.09,19.16,4.11,40.15-1.16C72.75,100,91,89,109.38,76.31c9.21-6.4,18.41-13.2,28.41-20A320.88,320.88,0,0,1,171.27,36Zm-31.2-9.84c79.42-50.66,82-12.38,32.26,13.47S99,97.35,48.4,110.06s-58.82-9.67-35.5-22.17,47.75-11,127.17-61.7Z"/><path class="b48549d5-e6e5-4dc7-9c13-8ff00ffc33c3" d="M.47,102.35V103c.35,8.89,15.36,15.24,47.93,7.07C99,97.35,122.57,65.51,172.33,39.66c21-10.93,32.73-24.09,33.19-31.8V24c-.46,7.71-12.14,20.87-33.19,31.8C122.57,81.67,99,113.51,48.4,126.22,15.82,134.39.7,128.05.47,119.15v-16.8Z"/><path class="b733b5fa-0588-4390-bab0-a0bb22ffd817" d="M7.69,107.39a11.6,11.6,0,0,1-3.12-2.16C1.1,101.68,2.26,94.63,14,88.35A127.13,127.13,0,0,1,32.21,80.7c6.82-2.42,14.57-5,24.08-8.78,19.11-7.59,45.2-20,85-45.36,55.21-35.22,73.37-26.8,56.44-9-9.64-.39-28.46,6.21-57.68,24.85C60.65,93,36.21,91.56,12.9,104.06a37.12,37.12,0,0,0-5.21,3.33Z"/><path class="ad16fa69-01b8-4184-bedc-8b4561b22e73" d="M.54,110.68c1.23,8.46,16.29,14.16,47.86,6.25C99,104.22,122.57,72.38,172.33,46.53c20.4-10.6,32-23.28,33.12-31.07,0-.09.07-.56.07-.56V14s0,.23-.07.55c-1.12,7.79-12.72,20.48-33.12,31.07C122.57,71.48,99,103.33,48.4,116,16.83,124,1.77,118.24.54,109.79l-.07-.44v.75Z"/><path class="ffcc6d0a-0fae-43bf-a687-2e9722bff78c" d="M.54,114c1.23,8.45,16.29,14.16,47.86,6.24,50.63-12.7,74.17-44.54,123.93-70.4,20.4-10.59,32-23.27,33.12-31.06,0-.2.07-.5.07-.5v-.89l-.07.49C204.33,25.7,192.73,38.38,172.33,49,122.57,74.83,99,106.67,48.4,119.37,16.83,127.3,1.77,121.58.54,113.13a8.74,8.74,0,0,0,0,1.91C.52,114.7.5,114.37.54,114Z"/></g></svg>