<svg id="b6e0547d-8fde-43d2-9ab9-b867be888e5c" data-name="Layer 1" xmlns="http://www.w3.org/2000/svg" xmlns:xlink="http://www.w3.org/1999/xlink" width="220" height="128" viewBox="0 0 220 128"><defs><style>.ea716faa-cecc-43ee-9e9d-a4b023e6ce0b{fill:url(#b9c61178-2faa-4424-9b3c-e074f75836ee);}.b9db74d6-3760-4515-aa55-6b480d9b7ea1{fill:url(#a7144474-39c9-4f72-bde6-e4e208226402);}.bbd04b02-383f-4c96-9abc-c4796b981718{fill:url(#bd569b2b-f450-4e7a-bfdd-bb597b2b6746);}.f704e447-64bc-4eb3-9253-d4fe28da2f5f{fill:url(#af1c873c-69c5-4236-ba04-5e6c050377ed);}.a42677e1-1650-4c18-add8-4ff5d8edd917,.a5b1cf2c-439b-463c-93ed-e4d59eb3ad02,.a63ff3a9-8b26-444c-bcdc-c55c35083f16,.a79891e1-fe8d-41a7-9488-75b9a09e42fd,.b035fd7d-adf8-4704-baee-14b235e7a540,.f31fefb7-2ff7-4fb9-847b-8b7d9e245f27,.f5e5a358-a1a4-4948-966d-39f93f2442a2,.fa2118a6-0200-49c3-8c16-5fc7a1aef3a2,.fe1db3b8-50ab-4d49-92d4-042c0bc34324,.fed370a6-9700-4adc-ac74-1b5580f308af{fill:none;stroke:#fff;stroke-linecap:round;stroke-linejoin:round;stroke-width:0.58px;}.a42677e1-1650-4c18-add8-4ff5d8edd917{stroke-dasharray:1.41 1.89;}.fe1db3b8-50ab-4d49-92d4-042c0bc34324{stroke-dasharray:1.31 1.74;}.fed370a6-9700-4adc-ac74-1b5580f308af{stroke-dasharray:1.4 1.87;}.b035fd7d-adf8-4704-baee-14b235e7a540{stroke-dasharray:1.39 1.85;}.b75d421f-05b3-468d-8b1f-2b9a7ac8e1d9{fill:url(#b8f613f4-94b0-4e0e-ad0c-39bc0c36aace);}.bb35511e-26f7-4fa5-8b9a-f7559f1bf4e9{fill:url(#bc16be25-42e7-4a61-8249-42d7ac5b1d2c);}.eba8a03f-8a71-4256-a071-b59c8a9e4545{fill:url(#a2be3132-1396-4ff7-8756-837ff84a80ff);}.bf68587e-4d8c-498d-9578-81fa9c56d45e{fill:url(#e0ea5ddd-7961-4968-956c-b221c5f10275);}.f5f80f35-724f-4df7-b525-694601664533{fill:url(#fa7a8c82-29df-4e8b-bce8-7adb798a8ba1);}.b64da84e-ca18-4f25-ac3a-0bb63029be4a{fill:url(#a294ae67-7573-49d2-a841-e6302ebe6823);}.fa2118a6-0200-49c3-8c16-5fc7a1aef3a2{stroke-dasharray:1.39 1.85;}.a5b1cf2c-439b-463c-93ed-e4d59eb3ad02{stroke-dasharray:1.36 1.81;}.a79891e1-fe8d-41a7-9488-75b9a09e42fd{stroke-dasharray:1.4 1.86;}.f5e5a358-a1a4-4948-966d-39f93f2442a2{stroke-dasharray:1.34 1.78;}.f31fefb7-2ff7-4fb9-847b-8b7d9e245f27{stroke-dasharray:1.36 1.81;}</style><linearGradient id="b9c61178-2faa-4424-9b3c-e074f75836ee" x1="80.57" y1="112.06" x2="138.94" y2="10.95" gradientUnits="userSpaceOnUse"><stop offset="0" stop-color="#00543b"/><stop offset="0.07" stop-color="#008d6d"/><stop offset="0.61" stop-color="#4bb593"/><stop offset="0.88" stop-color="#008d6d"/><stop offset="0.99" stop-color="#00543b"/></linearGradient><linearGradient id="a7144474-39c9-4f72-bde6-e4e208226402" x1="71.18" y1="48.78" x2="74.83" y2="9.8" gradientUnits="userSpaceOnUse"><stop offset="0.09" stop-color="#4bb593"/><stop offset="1" stop-color="#008d6d"/></linearGradient><radialGradient id="bd569b2b-f450-4e7a-bfdd-bb597b2b6746" cx="43.19" cy="98.17" r="105.38" gradientTransform="matrix(0.7, 0.71, -0.59, 0.58, 70.26, 10.58)" gradientUnits="userSpaceOnUse"><stop offset="0.49" stop-color="#0d5744" stop-opacity="0"/><stop offset="0.93" stop-color="#002c20"/></radialGradient><linearGradient id="af1c873c-69c5-4236-ba04-5e6c050377ed" x1="91.01" y1="48.56" x2="113.74" y2="46.94" xlink:href="#a7144474-39c9-4f72-bde6-e4e208226402"/><radialGradient id="b8f613f4-94b0-4e0e-ad0c-39bc0c36aace" cx="104.07" cy="34.58" r="36.51" gradientTransform="translate(20.61 -51.89) rotate(16.01) scale(1 1.74)" gradientUnits="userSpaceOnUse"><stop offset="0.07" stop-color="#002c20"/><stop offset="0.51" stop-color="#0d5744" stop-opacity="0"/></radialGradient><linearGradient id="bc16be25-42e7-4a61-8249-42d7ac5b1d2c" x1="81.54" y1="12.65" x2="123.76" y2="84.5" xlink:href="#a7144474-39c9-4f72-bde6-e4e208226402"/><linearGradient id="a2be3132-1396-4ff7-8756-837ff84a80ff" x1="130.53" y1="74.48" x2="240.94" y2="132.12" gradientUnits="userSpaceOnUse"><stop offset="0" stop-color="#008d6d"/><stop offset="0.99" stop-color="#00543b"/></linearGradient><linearGradient id="e0ea5ddd-7961-4968-956c-b221c5f10275" x1="108.11" y1="92.75" x2="215.8" y2="92.75" gradientUnits="userSpaceOnUse"><stop offset="0" stop-color="#00543b"/><stop offset="1" stop-color="#003c28"/></linearGradient><linearGradient id="fa7a8c82-29df-4e8b-bce8-7adb798a8ba1" x1="118.7" y1="66.49" x2="119.92" y2="111.96" xlink:href="#a7144474-39c9-4f72-bde6-e4e208226402"/><linearGradient id="a294ae67-7573-49d2-a841-e6302ebe6823" x1="130.91" y1="86.21" x2="165.36" y2="26.53" gradientUnits="userSpaceOnUse"><stop offset="0" stop-color="#008d6d"/><stop offset="0.61" stop-color="#4bb593"/><stop offset="0.81" stop-color="#4bb593"/><stop offset="1" stop-color="#008d6d"/></linearGradient></defs><title>xbb-scaled</title><g id="aefca4ad-96de-4e42-a0db-176d4716fdef" data-name="xbb"><path class="ea716faa-cecc-43ee-9e9d-a4b023e6ce0b" d="M122.16,123.47c6.6-5,42.89-26.54,54.55-32.24s33-17.61,39-22.62,4.38-12.35,0-13c0,0-63.67-25.76-71.61-31S114.61,7.29,108.91,2.58s-7-1.24-10.67,1.73S74.44,14.73,67.57,18.89c0,0-12,9.72-18.92,13.94S14.92,49.69,6.49,53.41.29,62.09,1.72,64s13,11.72,30.06,18.67,67.56,38.06,72.77,42C110.5,129.24,115.43,128.58,122.16,123.47Z"/><polygon class="b9db74d6-3760-4515-aa55-6b480d9b7ea1" points="45.08 31.87 67.57 18.89 99.92 37.56 77.42 50.55 45.08 31.87"/><path class="bbd04b02-383f-4c96-9abc-c4796b981718" d="M124.33,108.38,92,89.71l-.8-39.07-13.76-.09L47.69,33.38c-8.1,4.66-33.1,16.46-41.2,20C-1.94,57.13.29,62.09,1.72,64s13,11.72,30.06,18.67,67.56,38.06,72.77,42c6,4.54,10.88,3.88,17.61-1.23"/><polygon class="f704e447-64bc-4eb3-9253-d4fe28da2f5f" points="99.92 37.56 77.42 50.55 196.95 51.36 174.25 37.34 99.92 37.56"/><line class="a63ff3a9-8b26-444c-bcdc-c55c35083f16" x1="68.5" y1="19.42" x2="69.1" y2="19.77"/><line class="a42677e1-1650-4c18-add8-4ff5d8edd917" x1="70.73" y1="20.71" x2="98.5" y2="36.74"/><polyline class="a63ff3a9-8b26-444c-bcdc-c55c35083f16" points="99.32 37.21 99.92 37.56 99.32 37.9"/><line class="fe1db3b8-50ab-4d49-92d4-042c0bc34324" x1="97.81" y1="38.77" x2="80.04" y2="49"/><polyline class="a63ff3a9-8b26-444c-bcdc-c55c35083f16" points="79.28 49.43 78.68 49.78 78.08 49.43"/><line class="fed370a6-9700-4adc-ac74-1b5580f308af" x1="76.47" y1="48.49" x2="48.95" y2="32.61"/><line class="a63ff3a9-8b26-444c-bcdc-c55c35083f16" x1="48.14" y1="32.14" x2="47.54" y2="31.79"/><line class="b035fd7d-adf8-4704-baee-14b235e7a540" x1="80.14" y1="49.78" x2="94.15" y2="49.78"/><path class="b75d421f-05b3-468d-8b1f-2b9a7ac8e1d9" d="M108.91,2.58c-5.7-4.72-7-1.24-10.67,1.73S74.44,14.73,67.57,18.89l-22.49,13,2.62,1.52L77.42,50.55l13.76.09L92,89.71l32.35,18.67L111,4.14S109.8,3.31,108.91,2.58Z"/><polygon class="bb35511e-26f7-4fa5-8b9a-f7559f1bf4e9" points="91.98 89.71 115.21 76.6 111.25 3.94 90.57 20.7 91.98 89.71"/><path class="eba8a03f-8a71-4256-a071-b59c8a9e4545" d="M193.5,60.48c-11,5.28-22.32,14.21-37.75,23.14s-31.42,24.76-31.42,24.76-1.06,2.84-10.39,4.87-15.83,6.9-7.31,12.18c1.23.76,2.41,1.42,3.56,2,3.75.8,7.45-.58,12-4,6.6-5,42.89-26.54,54.55-32.24s33-17.61,39-22.62,4.38-12.35,0-13A53,53,0,0,0,193.5,60.48Z"/><path class="bf68587e-4d8c-498d-9578-81fa9c56d45e" d="M120.17,122.23c-3.38,1.69-5.31,4.35-9.19,1.2s-4.59-5.8,2.67-7.25,5.07-2.18,22.73-11.37S186.94,78,196.85,71.19s14.76-12.58,17.42-9.92,1.93,2.66-2.9,4.11-36,20.56-51.77,29.75-38,21.05-41.12,24-1.93,2.9,3.87-.48,20.08-11.61,11.86-5.81S120.17,122.23,120.17,122.23Z"/><polygon class="f5f80f35-724f-4df7-b525-694601664533" points="124.33 108.38 146.82 95.39 115.21 76.6 91.98 89.71 124.33 108.38"/><path class="b64da84e-ca18-4f25-ac3a-0bb63029be4a" d="M146.82,95.39,115.21,76.6l-4-72.67L122.91,2l92.82,53.58c-7.28.15-15.95,5.86-22.89,12.3s-46,27.48-46,27.48"/><line class="a63ff3a9-8b26-444c-bcdc-c55c35083f16" x1="91.69" y1="21.03" x2="91.7" y2="21.72"/><line class="fa2118a6-0200-49c3-8c16-5fc7a1aef3a2" x1="91.74" y1="23.57" x2="93.05" y2="87.46"/><polyline class="a63ff3a9-8b26-444c-bcdc-c55c35083f16" points="93.07 88.39 93.08 89.08 93.69 88.74"/><line class="a5b1cf2c-439b-463c-93ed-e4d59eb3ad02" x1="95.26" y1="87.85" x2="113.82" y2="77.38"/><polyline class="a63ff3a9-8b26-444c-bcdc-c55c35083f16" points="114.61 76.94 115.21 76.6 115.17 75.9"/><line class="a79891e1-fe8d-41a7-9488-75b9a09e42fd" x1="115.07" y1="74.05" x2="111.4" y2="6.71"/><line class="a63ff3a9-8b26-444c-bcdc-c55c35083f16" x1="111.35" y1="5.78" x2="111.31" y2="5.09"/><line class="a63ff3a9-8b26-444c-bcdc-c55c35083f16" x1="94.53" y1="89.89" x2="95.13" y2="90.24"/><line class="f5e5a358-a1a4-4948-966d-39f93f2442a2" x1="96.68" y1="91.13" x2="122.95" y2="106.3"/><line class="a63ff3a9-8b26-444c-bcdc-c55c35083f16" x1="123.73" y1="106.75" x2="124.33" y2="107.09"/><line class="a63ff3a9-8b26-444c-bcdc-c55c35083f16" x1="146.01" y1="94.92" x2="145.42" y2="94.57"/><line class="f31fefb7-2ff7-4fb9-847b-8b7d9e245f27" x1="143.86" y1="93.64" x2="117.36" y2="77.88"/><line class="a63ff3a9-8b26-444c-bcdc-c55c35083f16" x1="116.58" y1="77.42" x2="115.99" y2="77.07"/></g></svg>