<svg id="b012bc2d-e3e5-4e90-8ef5-d8f9a5aed4ec" data-name="Layer 1" xmlns="http://www.w3.org/2000/svg" xmlns:xlink="http://www.w3.org/1999/xlink" width="230" height="132" viewBox="0 0 230 132"><defs><style>.ae1a4772-681f-4fc6-b632-87320de96f33{fill:url(#f5dae3cc-4c1c-439b-8a1f-ad5c1dab180e);}.a8790505-8365-4355-981d-db2de59ce334{fill:url(#a9767e4d-749a-4457-a80d-226b906a0772);}.ef1e6204-96c9-41cd-8b67-c70a7f82f5db{fill:url(#faafca1e-f185-4923-bb7a-8c3c525d133d);}.bfb18259-377d-4acd-8e37-32325743fee7{fill:url(#a38e1867-ab00-49dc-a7c8-c996681663e7);}.af234945-7215-4f1e-9816-2055ebcbba64{fill:url(#bce3ac5c-4779-44d2-810b-9a68bf736f17);}.b6b18636-e136-4d1e-ad8b-49bf6c7c19c8{fill:url(#aea4b9c4-278f-4226-a201-aca607f538e7);}.adf74884-d2ee-4af7-a1d5-939cb0805be9{fill:url(#ae5fb61e-7035-4efe-892a-513efd5bbc8b);}.e9091417-8c9e-47fe-8bf3-c8cb2d065d07{fill:none;stroke:#fff;stroke-linecap:round;stroke-linejoin:round;stroke-width:0.65px;stroke-dasharray:1.55 2.07;}</style><linearGradient id="f5dae3cc-4c1c-439b-8a1f-ad5c1dab180e" x1="61.12" y1="111.25" x2="118.07" y2="12.62" gradientTransform="matrix(-1, 0, 0, 1, 204.83, 0)" gradientUnits="userSpaceOnUse"><stop offset="0" stop-color="#00563b"/><stop offset="0.07" stop-color="#008c6d"/><stop offset="0.61" stop-color="#35b08e"/><stop offset="0.88" stop-color="#008c6d"/><stop offset="0.99" stop-color="#00563b"/></linearGradient><linearGradient id="a9767e4d-749a-4457-a80d-226b906a0772" x1="0.87" y1="55.86" x2="228.29" y2="75.76" gradientUnits="userSpaceOnUse"><stop offset="0.38" stop-color="#003d25"/><stop offset="0.55" stop-color="#003d25" stop-opacity="0"/></linearGradient><linearGradient id="faafca1e-f185-4923-bb7a-8c3c525d133d" x1="69.18" y1="18.62" x2="110.64" y2="89.19" gradientTransform="matrix(-1, 0, 0, 1, 204.83, 0)" gradientUnits="userSpaceOnUse"><stop offset="0.09" stop-color="#35b08e"/><stop offset="1" stop-color="#008c6d"/></linearGradient><linearGradient id="a38e1867-ab00-49dc-a7c8-c996681663e7" x1="117.29" y1="79.34" x2="225.74" y2="135.95" gradientTransform="matrix(-1, 0, 0, 1, 204.83, 0)" gradientUnits="userSpaceOnUse"><stop offset="0" stop-color="#008c6d"/><stop offset="0.99" stop-color="#00563b"/></linearGradient><linearGradient id="bce3ac5c-4779-44d2-810b-9a68bf736f17" x1="95.28" y1="97.29" x2="201.04" y2="97.29" gradientTransform="matrix(-1, 0, 0, 1, 204.83, 0)" gradientUnits="userSpaceOnUse"><stop offset="0" stop-color="#00563b"/><stop offset="1" stop-color="#004128"/></linearGradient><linearGradient id="aea4b9c4-278f-4226-a201-aca607f538e7" x1="105.68" y1="71.5" x2="106.88" y2="116.15" xlink:href="#faafca1e-f185-4923-bb7a-8c3c525d133d"/><linearGradient id="ae5fb61e-7035-4efe-892a-513efd5bbc8b" x1="117.67" y1="90.86" x2="151.5" y2="32.25" gradientTransform="matrix(-1, 0, 0, 1, 204.83, 0)" gradientUnits="userSpaceOnUse"><stop offset="0" stop-color="#008c6d"/><stop offset="0.61" stop-color="#35b08e"/><stop offset="0.81" stop-color="#35b08e"/><stop offset="1" stop-color="#008c6d"/></linearGradient></defs><title>xrf-scaled</title><path class="ae1a4772-681f-4fc6-b632-87320de96f33" d="M95.76,127.45c-6.48-4.92-42.13-26.06-53.58-31.66S9.79,78.49,3.86,73.57s-4.31-12.12,0-12.76c0,0,84.83-39.06,92.63-44.18s21.54-9.38,27.13-14,6.83-1.21,10.48,1.71,22.28,6.05,28.32,13.81c0,0,13.32,6.83,20.14,11S215.68,45.67,224,49.33s6.09,8.52,4.68,10.41-5,7.06-21.82,13.88-88.65,51.15-93.77,55C107.21,133.12,102.37,132.47,95.76,127.45Z"/><path class="a8790505-8365-4355-981d-db2de59ce334" d="M95.76,127.45c-6.48-4.92-42.13-26.06-53.58-31.66S9.79,78.49,3.86,73.57s-4.31-12.12,0-12.76c0,0,84.83-39.06,92.63-44.18s21.54-9.38,27.13-14,6.83-1.21,10.48,1.71,22.28,6.05,28.32,13.81c0,0,13.32,6.83,20.14,11S215.68,45.67,224,49.33s6.09,8.52,4.68,10.41-5,7.06-21.82,13.88-88.65,51.15-93.77,55C107.21,133.12,102.37,132.47,95.76,127.45Z"/><polygon class="ef1e6204-96c9-41cd-8b67-c70a7f82f5db" points="125.39 94.3 102.58 81.42 106.47 10.05 126.78 26.52 125.39 94.3"/><path class="bfb18259-377d-4acd-8e37-32325743fee7" d="M25.69,65.59c10.76,5.19,21.92,14,37.08,22.73s30.86,24.32,30.86,24.32,1,2.79,10.2,4.78,15.55,6.78,7.18,12c-1.2.75-2.37,1.4-3.5,2-3.68.79-7.32-.56-11.75-3.93-6.48-4.92-42.13-26.06-53.58-31.66S9.79,78.49,3.86,73.57s-4.31-12.12,0-12.76A51.89,51.89,0,0,1,25.69,65.59Z"/><path class="af234945-7215-4f1e-9816-2055ebcbba64" d="M97.71,126.23c3.32,1.67,5.22,4.28,9,1.19s4.51-5.7-2.61-7.13-5-2.13-22.33-11.16-49.65-26.37-59.39-33S7.91,63.75,5.29,66.37s-1.9,2.61,2.85,4S43.54,90.6,59,99.62s37.3,20.67,40.39,23.52,1.9,2.86-3.8-.47-19.73-11.4-11.65-5.7S97.71,126.23,97.71,126.23Z"/><polygon class="b6b18636-e136-4d1e-ad8b-49bf6c7c19c8" points="93.63 112.64 71.54 99.88 102.58 81.42 125.39 94.3 93.63 112.64"/><path class="adf74884-d2ee-4af7-a1d5-939cb0805be9" d="M71.54,99.88l31-18.46,3.89-71.36L95,8.18,3.86,60.81C11,61,19.53,66.56,26.34,72.89s45.2,27,45.2,27"/><polyline class="e9091417-8c9e-47fe-8bf3-c8cb2d065d07" points="126.78 26.52 125.39 94.3 102.58 81.42 106.47 10.05"/><line class="e9091417-8c9e-47fe-8bf3-c8cb2d065d07" x1="125.39" y1="94.3" x2="93.63" y2="112.64"/><line class="e9091417-8c9e-47fe-8bf3-c8cb2d065d07" x1="71.54" y1="99.88" x2="102.58" y2="81.42"/><path class="e9091417-8c9e-47fe-8bf3-c8cb2d065d07" d="M121.89,5.09c1.47.64,2.68,2.23,4.51,3.69,3.66,2.92,22.28,6.05,28.32,13.81,0,0,13.32,6.83,20.14,11S208,50.12,216.26,53.77s6.09,8.53,4.69,10.41"/></svg>